<svg width="14" height="14" viewBox="0 0 14 14" fill="none" xmlns="http://www.w3.org/2000/svg">
<g id="time-machine 1" clip-path="url(#clip0_5251_56236)">
<g id="Group">
<g id="Group_2">
<path id="Vector" d="M6.99609 3.39844V6.99723H10.5949" stroke="#4C4C4C" stroke-width="1.2" stroke-miterlimit="10" stroke-linecap="square"/>
<path id="Vector_2" d="M1.64698 9.71021C2.31087 11.0215 3.43296 12.0435 4.80038 12.5823C6.1678 13.1211 7.68543 13.1392 9.06536 12.6333C10.4453 12.1274 11.5915 11.1326 12.2866 9.83756C12.9817 8.54256 13.1773 7.03748 12.8362 5.60784C12.4952 4.1782 11.6413 2.92346 10.4365 2.08166C9.23173 1.23985 7.75987 0.869537 6.30015 1.04097C4.84043 1.2124 3.49441 1.91365 2.51744 3.01169C1.54047 4.10973 1.00051 5.52817 1 6.99792" stroke="#4C4C4C" stroke-width="1.2" stroke-miterlimit="10"/>
<path id="Vector_3" d="M2.0483 12.9079L1.64844 9.70898L4.84737 10.1089" stroke="#4C4C4C" stroke-width="1.2" stroke-miterlimit="10" stroke-linecap="square"/>
</g>
</g>
</g>
<defs>
<clipPath id="clip0_5251_56236">
<rect width="14" height="14" fill="white"/>
</clipPath>
</defs>
</svg>
