<svg width="14" height="14" viewBox="0 0 14 14" fill="none" xmlns="http://www.w3.org/2000/svg">
<g id="chart 1" clip-path="url(#clip0_2682_17767)">
<g id="Group">
<g id="Group_2">
<path id="Vector" d="M4.83446 9.16553L2.36084 11.64" stroke="#506D84" stroke-linecap="round" stroke-linejoin="round"/>
<path id="Vector_2" d="M10.0625 7H13.5625" stroke="#506D84" stroke-linecap="round" stroke-linejoin="round"/>
<path id="Vector_3" d="M7 0.4375V3.9375" stroke="#506D84" stroke-linecap="round" stroke-linejoin="round"/>
<path id="Vector_4" d="M7 13.5625C10.6244 13.5625 13.5625 10.6244 13.5625 7C13.5625 3.37563 10.6244 0.4375 7 0.4375C3.37563 0.4375 0.4375 3.37563 0.4375 7C0.4375 10.6244 3.37563 13.5625 7 13.5625Z" stroke="#506D84" stroke-linecap="round" stroke-linejoin="round"/>
<path id="Vector_5" d="M7 10.0625C8.69137 10.0625 10.0625 8.69137 10.0625 7C10.0625 5.30863 8.69137 3.9375 7 3.9375C5.30863 3.9375 3.9375 5.30863 3.9375 7C3.9375 8.69137 5.30863 10.0625 7 10.0625Z" stroke="#506D84" stroke-linecap="round" stroke-linejoin="round"/>
</g>
</g>
</g>
<defs>
<clipPath id="clip0_2682_17767">
<rect width="14" height="14" fill="white"/>
</clipPath>
</defs>
</svg>
