<svg width="9" height="12" viewBox="0 0 9 12" fill="none" xmlns="http://www.w3.org/2000/svg">
<path d="M8.03832 3.14773L7.6406 4.52273H0.220142L0.612187 3.14773H8.03832ZM4.46446 12L0.367869 7.01705L0.350824 5.95455H2.38491C2.90007 5.95455 3.33567 5.87689 3.69173 5.72159C4.05158 5.56629 4.32431 5.33901 4.50991 5.03977C4.69931 4.74053 4.79401 4.36932 4.79401 3.92614C4.79401 3.27083 4.59893 2.75379 4.20878 2.375C3.81863 1.99242 3.21067 1.80114 2.38491 1.80114H0.220142L0.623551 0.363636H2.38491C3.32052 0.363636 4.08946 0.515151 4.69173 0.818181C5.29779 1.11742 5.74855 1.5322 6.04401 2.0625C6.33946 2.5928 6.48719 3.19886 6.48719 3.88068C6.48719 4.49432 6.36029 5.05303 6.10651 5.55682C5.85651 6.05682 5.45688 6.46402 4.90764 6.77841C4.3584 7.08902 3.63491 7.26136 2.73719 7.29545L2.68605 7.30682L6.44741 11.9034V12H4.46446ZM8.03832 0.363636L7.6406 1.75L1.73719 1.71023L2.13491 0.363636H8.03832Z" fill="#666666"/>
</svg>
