<svg width="50" height="50" viewBox="0 0 50 50" fill="none" xmlns="http://www.w3.org/2000/svg">
<g id="Unlock File">
<g id="Layer 4">
<path id="Vector" d="M46.0938 42.9688H43.75V6.25C43.7483 4.80011 43.1716 3.41007 42.1464 2.38484C41.1212 1.35961 39.7311 0.782904 38.2812 0.78125H7.03125C5.99563 0.782491 5.00278 1.19444 4.27048 1.92673C3.53819 2.65903 3.12624 3.65188 3.125 4.6875V10.9375C3.125 11.1447 3.20731 11.3434 3.35382 11.4899C3.50034 11.6364 3.69905 11.7188 3.90625 11.7188H9.375V45.3125C9.37624 46.3481 9.78819 47.341 10.5205 48.0733C11.2528 48.8056 12.2456 49.2175 13.2812 49.2188H42.9688C44.0044 49.2175 44.9972 48.8056 45.7295 48.0733C46.4618 47.341 46.8738 46.3481 46.875 45.3125V43.75C46.875 43.5428 46.7927 43.3441 46.6462 43.1976C46.4997 43.0511 46.3009 42.9688 46.0938 42.9688ZM9.375 10.1562H4.6875V4.6875C4.6875 4.0659 4.93443 3.46976 5.37397 3.03022C5.81351 2.59068 6.40965 2.34375 7.03125 2.34375C7.65285 2.34375 8.24899 2.59068 8.68853 3.03022C9.12807 3.46976 9.375 4.0659 9.375 4.6875V10.1562ZM15.625 43.75V45.3125C15.625 45.9341 15.3781 46.5302 14.9385 46.9698C14.499 47.4093 13.9029 47.6562 13.2812 47.6562C12.6596 47.6562 12.0635 47.4093 11.624 46.9698C11.1844 46.5302 10.9375 45.9341 10.9375 45.3125V4.6875C10.9346 3.83948 10.653 3.01593 10.1359 2.34375H38.2812C39.3169 2.34499 40.3097 2.75694 41.042 3.48923C41.7743 4.22153 42.1863 5.21438 42.1875 6.25V42.9688H16.4062C16.199 42.9688 16.0003 43.0511 15.8538 43.1976C15.7073 43.3441 15.625 43.5428 15.625 43.75ZM45.3125 45.3125C45.3125 45.9341 45.0656 46.5302 44.626 46.9698C44.1865 47.4093 43.5904 47.6562 42.9688 47.6562H16.4062C16.9144 46.9806 17.1886 46.1579 17.1875 45.3125V44.5312H45.3125V45.3125Z" fill="#666666"/>
<path id="Vector_2" d="M19.5312 34.375H33.5938C33.801 34.375 33.9997 34.2927 34.1462 34.1462C34.2927 33.9997 34.375 33.801 34.375 33.5938V22.6562C34.375 22.449 34.2927 22.2503 34.1462 22.1038C33.9997 21.9573 33.801 21.875 33.5938 21.875H25V20.3125C25 19.8981 25.1646 19.5007 25.4576 19.2076C25.7507 18.9146 26.1481 18.75 26.5625 18.75C26.9769 18.75 27.3743 18.9146 27.6674 19.2076C27.9604 19.5007 28.125 19.8981 28.125 20.3125C28.125 20.5197 28.2073 20.7184 28.3538 20.8649C28.5003 21.0114 28.699 21.0938 28.9062 21.0938H32.0312C32.2385 21.0938 32.4372 21.0114 32.5837 20.8649C32.7302 20.7184 32.8125 20.5197 32.8125 20.3125C32.8125 18.6549 32.154 17.0652 30.9819 15.8931C29.8098 14.721 28.2201 14.0625 26.5625 14.0625C24.9049 14.0625 23.3152 14.721 22.1431 15.8931C20.971 17.0652 20.3125 18.6549 20.3125 20.3125V21.875H19.5312C19.324 21.875 19.1253 21.9573 18.9788 22.1038C18.8323 22.2503 18.75 22.449 18.75 22.6562V33.5938C18.75 33.801 18.8323 33.9997 18.9788 34.1462C19.1253 34.2927 19.324 34.375 19.5312 34.375ZM21.875 20.3125C21.8739 19.1364 22.315 18.0029 23.1107 17.1368C23.9064 16.2708 24.9986 15.7355 26.1705 15.6371C27.3425 15.5388 28.5086 15.8846 29.4375 16.6059C30.3664 17.3273 30.9902 18.3714 31.1852 19.5312H29.5891C29.3995 18.7941 28.9475 18.1514 28.3177 17.7239C27.688 17.2964 26.9239 17.1134 26.1688 17.2093C25.4137 17.3052 24.7196 17.6734 24.2167 18.2447C23.7138 18.8161 23.4367 19.5514 23.4375 20.3125V21.875H21.875V20.3125ZM20.3125 23.4375H32.8125V32.8125H20.3125V23.4375Z" fill="#666666"/>
<path id="Vector_3" d="M26.5625 26.5625C26.3553 26.5625 26.1566 26.6448 26.0101 26.7913C25.8636 26.9378 25.7812 27.1365 25.7812 27.3438V28.9062C25.7812 29.1135 25.8636 29.3122 26.0101 29.4587C26.1566 29.6052 26.3553 29.6875 26.5625 29.6875C26.7697 29.6875 26.9684 29.6052 27.1149 29.4587C27.2614 29.3122 27.3438 29.1135 27.3438 28.9062V27.3438C27.3438 27.1365 27.2614 26.9378 27.1149 26.7913C26.9684 26.6448 26.7697 26.5625 26.5625 26.5625Z" fill="#666666"/>
</g>
</g>
</svg>
