<svg width="16" height="16" viewBox="0 0 16 16" fill="none" xmlns="http://www.w3.org/2000/svg">
<g id="web-url 1" clip-path="url(#clip0_3739_45248)">
<g id="Group">
<path id="Vector" d="M6.5 10.5V11C6.5 11.828 5.828 12.5 5 12.5H2C1.172 12.5 0.5 11.828 0.5 11V5C0.5 4.172 1.172 3.5 2 3.5H5C5.828 3.5 6.5 4.172 6.5 5V5.5" stroke="#0037B7" stroke-width="1.5" stroke-linecap="round" stroke-linejoin="round"/>
<path id="Vector_2" d="M9.5 10.5V11C9.5 11.828 10.172 12.5 11 12.5H14C14.828 12.5 15.5 11.828 15.5 11V5C15.5 4.172 14.828 3.5 14 3.5H11C10.172 3.5 9.5 4.172 9.5 5V5.5" stroke="#0037B7" stroke-width="1.5" stroke-linecap="round" stroke-linejoin="round"/>
<path id="Vector_3" d="M3.5 8H12.5" stroke="#0037B7" stroke-width="1.5" stroke-linecap="round" stroke-linejoin="round"/>
</g>
</g>
<defs>
<clipPath id="clip0_3739_45248">
<rect width="16" height="16" fill="white"/>
</clipPath>
</defs>
</svg>
