<svg width="46" height="46" viewBox="0 0 46 46" fill="none" xmlns="http://www.w3.org/2000/svg">
<g id="Frame" clip-path="url(#clip0_3739_26610)">
<g id="Group">
<path id="Vector" d="M43.2098 43.6537H41.9408V3.807C41.9408 3.60507 41.8606 3.41141 41.7178 3.26862C41.575 3.12583 41.3813 3.04562 41.1794 3.04562H26.9666C26.8666 3.04561 26.7676 3.06529 26.6752 3.10355C26.5828 3.14181 26.4989 3.19789 26.4282 3.2686C26.3575 3.3393 26.3014 3.42324 26.2631 3.51562C26.2249 3.608 26.2052 3.70701 26.2052 3.807V7.10638H24.6824V3.807C24.6824 3.60507 24.6022 3.41141 24.4594 3.26862C24.3166 3.12583 24.123 3.04562 23.921 3.04562H20.6216V0.761382C20.6216 0.340765 20.2806 0 19.8602 0C19.4397 0 19.0988 0.340765 19.0988 0.761382V3.04562H15.7994C15.6994 3.04561 15.6004 3.06529 15.508 3.10355C15.4156 3.14181 15.3317 3.19789 15.261 3.2686C15.1903 3.3393 15.1342 3.42324 15.096 3.51562C15.0577 3.608 15.038 3.70701 15.038 3.807V7.10638H12.7538C12.6538 7.10637 12.5548 7.12606 12.4624 7.16432C12.37 7.20257 12.2861 7.25866 12.2154 7.32936C12.1447 7.40006 12.0886 7.484 12.0503 7.57638C12.0121 7.66876 11.9924 7.76778 11.9924 7.86776V14.2128H5.64741C5.54742 14.2128 5.44841 14.2324 5.35603 14.2707C5.26365 14.309 5.17971 14.365 5.10901 14.4357C5.0383 14.5064 4.98222 14.5904 4.94396 14.6828C4.9057 14.7751 4.88602 14.8742 4.88603 14.9741V43.6536H3.61685C3.19632 43.6536 2.85547 43.9944 2.85547 44.415C2.85547 44.8356 3.19641 45.1765 3.61685 45.1765H43.2098C43.6303 45.1765 43.9712 44.8357 43.9712 44.4151C43.9712 43.9945 43.6302 43.6537 43.2098 43.6537ZM16.5607 4.56838H23.1595V7.10638H16.5607V4.56838ZM14.0227 43.6537H13.5151V42.3847C13.5151 41.9641 13.1741 41.6233 12.7537 41.6233C12.3333 41.6233 11.9923 41.9641 11.9923 42.3847V43.6537H11.4847V41.1157H14.0227V43.6537ZM19.0987 24.111V43.6537H15.5455V40.3543C15.5455 40.1524 15.4653 39.9587 15.3225 39.8159C15.1797 39.6732 14.986 39.5929 14.7841 39.5929H10.7233C10.6233 39.5929 10.5243 39.6126 10.4319 39.6509C10.3396 39.6891 10.2556 39.7452 10.1849 39.8159C10.1142 39.8866 10.0581 39.9706 10.0199 40.0629C9.98161 40.1553 9.96193 40.2543 9.96194 40.3543V43.6537H6.4087V15.7356H19.0987V24.111ZM19.8601 14.2129H13.5151V8.62924H26.2051V23.3496H20.6216V20.8116H22.9058C23.3263 20.8116 23.6672 20.4709 23.6672 20.0502C23.6672 19.6296 23.3262 19.2889 22.9058 19.2889H20.6216V16.7509H22.9058C23.3263 16.7509 23.6672 16.4101 23.6672 15.9895C23.6672 15.5689 23.3262 15.2281 22.9058 15.2281H20.6216V14.9743C20.6216 14.8743 20.6019 14.7753 20.5636 14.6829C20.5254 14.5905 20.4693 14.5066 20.3986 14.4359C20.3278 14.3651 20.2439 14.3091 20.1515 14.2708C20.0591 14.2325 19.9601 14.2128 19.8601 14.2129ZM33.3116 43.6537H20.6216V24.8725H33.3116V43.6537ZM40.4179 43.6537H34.8343V23.0958C34.8343 22.6751 34.4934 22.3344 34.0729 22.3344C33.6525 22.3344 33.3116 22.6751 33.3116 23.0958V23.3495H31.7888V23.0958C31.7888 22.6751 31.4479 22.3344 31.0274 22.3344C30.607 22.3344 30.266 22.6751 30.266 23.0958V23.3495H27.728V4.56838H40.418V43.6537H40.4179Z" fill="black"/>
<path id="Vector_2" d="M23.9215 42.131C24.1234 42.131 24.3171 42.0508 24.4599 41.908C24.6026 41.7652 24.6829 41.5715 24.6829 41.3696V27.1569C24.6829 26.7362 24.3419 26.3955 23.9215 26.3955C23.5011 26.3955 23.1601 26.7362 23.1601 27.1569V41.3697C23.1601 41.4697 23.1798 41.5687 23.2181 41.6611C23.2563 41.7534 23.3124 41.8374 23.3831 41.9081C23.4538 41.9788 23.5378 42.0348 23.6301 42.0731C23.7225 42.1113 23.8215 42.131 23.9215 42.131ZM26.9671 42.131C27.169 42.131 27.3627 42.0508 27.5055 41.908C27.6483 41.7652 27.7285 41.5715 27.7285 41.3696V27.1569C27.7285 26.7362 27.3876 26.3955 26.9671 26.3955C26.5467 26.3955 26.2057 26.7362 26.2057 27.1569V41.3697C26.2057 41.4697 26.2254 41.5687 26.2637 41.6611C26.302 41.7534 26.358 41.8374 26.4287 41.9081C26.4994 41.9788 26.5834 42.0348 26.6758 42.0731C26.7681 42.1113 26.8671 42.131 26.9671 42.131ZM30.0126 42.131C30.2146 42.131 30.4082 42.0508 30.551 41.908C30.6938 41.7652 30.774 41.5715 30.774 41.3696V27.1569C30.774 26.7362 30.4331 26.3955 30.0126 26.3955C29.5922 26.3955 29.2513 26.7362 29.2513 27.1569V41.3697C29.2513 41.5716 29.3315 41.7653 29.4743 41.908C29.6171 42.0508 29.8107 42.131 30.0126 42.131ZM31.0279 9.64436C31.1279 9.64437 31.2269 9.62468 31.3193 9.58642C31.4116 9.54816 31.4956 9.49208 31.5663 9.42138C31.637 9.35068 31.6931 9.26674 31.7313 9.17436C31.7696 9.08198 31.7893 8.98296 31.7893 8.88297V7.86783C31.7893 7.44721 31.4483 7.10645 31.0279 7.10645C30.6074 7.10645 30.2665 7.44721 30.2665 7.86783V8.88306C30.2665 8.98305 30.2862 9.08205 30.3245 9.17442C30.3627 9.26679 30.4188 9.35072 30.4895 9.42141C30.5602 9.4921 30.6441 9.54818 30.7365 9.58643C30.8289 9.62469 30.9279 9.64437 31.0279 9.64436ZM34.0735 9.64436C34.1735 9.64437 34.2725 9.62468 34.3649 9.58642C34.4573 9.54816 34.5412 9.49208 34.6119 9.42138C34.6826 9.35068 34.7387 9.26674 34.777 9.17436C34.8152 9.08198 34.8349 8.98296 34.8349 8.88297V7.86783C34.8349 7.44721 34.4939 7.10645 34.0735 7.10645C33.6531 7.10645 33.3121 7.44721 33.3121 7.86783V8.88306C33.3121 8.98305 33.3318 9.08205 33.3701 9.17442C33.4083 9.26679 33.4644 9.35072 33.5351 9.42141C33.6058 9.4921 33.6898 9.54818 33.7821 9.58643C33.8745 9.62469 33.9735 9.64437 34.0735 9.64436ZM37.1191 9.64436C37.2191 9.64437 37.3181 9.62468 37.4105 9.58642C37.5029 9.54816 37.5868 9.49208 37.6575 9.42138C37.7282 9.35068 37.7843 9.26674 37.8226 9.17436C37.8608 9.08198 37.8805 8.98296 37.8805 8.88297V7.86783C37.8805 7.44721 37.5396 7.10645 37.1191 7.10645C36.6987 7.10645 36.3577 7.44721 36.3577 7.86783V8.88306C36.3577 8.98305 36.3774 9.08205 36.4157 9.17442C36.454 9.26679 36.51 9.35072 36.5807 9.42141C36.6514 9.4921 36.7354 9.54818 36.8278 9.58643C36.9201 9.62469 37.0191 9.64437 37.1191 9.64436ZM31.0279 14.7204C31.1279 14.7204 31.2269 14.7007 31.3193 14.6624C31.4116 14.6242 31.4956 14.5681 31.5663 14.4974C31.637 14.4267 31.6931 14.3427 31.7313 14.2504C31.7696 14.158 31.7893 14.059 31.7893 13.959V12.9437C31.7893 12.5231 31.4483 12.1824 31.0279 12.1824C30.6074 12.1824 30.2665 12.5231 30.2665 12.9437V13.959C30.2665 14.059 30.2862 14.158 30.3244 14.2504C30.3627 14.3427 30.4188 14.4267 30.4895 14.4974C30.5602 14.5681 30.6441 14.6242 30.7365 14.6624C30.8289 14.7007 30.9279 14.7204 31.0279 14.7204ZM34.0735 14.7204C34.1735 14.7204 34.2725 14.7007 34.3649 14.6624C34.4573 14.6242 34.5412 14.5681 34.6119 14.4974C34.6826 14.4267 34.7387 14.3427 34.777 14.2504C34.8152 14.158 34.8349 14.059 34.8349 13.959V12.9437C34.8349 12.5231 34.4939 12.1824 34.0735 12.1824C33.6531 12.1824 33.3121 12.5231 33.3121 12.9437V13.959C33.3121 14.059 33.3318 14.158 33.37 14.2504C33.4083 14.3427 33.4644 14.4267 33.5351 14.4974C33.6058 14.5681 33.6897 14.6242 33.7821 14.6624C33.8745 14.7007 33.9735 14.7204 34.0735 14.7204ZM37.1191 14.7204C37.2191 14.7204 37.3181 14.7007 37.4105 14.6624C37.5029 14.6242 37.5868 14.5681 37.6575 14.4974C37.7282 14.4267 37.7843 14.3427 37.8226 14.2504C37.8608 14.158 37.8805 14.059 37.8805 13.959V12.9437C37.8805 12.5231 37.5396 12.1824 37.1191 12.1824C36.6987 12.1824 36.3577 12.5231 36.3577 12.9437V13.959C36.3577 14.059 36.3774 14.158 36.4157 14.2504C36.4539 14.3427 36.51 14.4267 36.5807 14.4974C36.6514 14.5681 36.7354 14.6242 36.8277 14.6624C36.9201 14.7007 37.0191 14.7204 37.1191 14.7204ZM31.0279 19.7964C31.1279 19.7965 31.2269 19.7768 31.3193 19.7385C31.4116 19.7003 31.4956 19.6442 31.5663 19.5735C31.637 19.5028 31.6931 19.4188 31.7313 19.3264C31.7696 19.2341 31.7893 19.1351 31.7893 19.0351V18.0198C31.7893 17.5992 31.4483 17.2584 31.0279 17.2584C30.6074 17.2584 30.2665 17.5992 30.2665 18.0198V19.0351C30.2665 19.237 30.3467 19.4307 30.4895 19.5734C30.6323 19.7162 30.826 19.7964 31.0279 19.7964ZM34.0735 19.7964C34.1735 19.7965 34.2725 19.7768 34.3649 19.7385C34.4573 19.7003 34.5412 19.6442 34.6119 19.5735C34.6826 19.5028 34.7387 19.4188 34.777 19.3264C34.8152 19.2341 34.8349 19.1351 34.8349 19.0351V18.0198C34.8349 17.5992 34.4939 17.2584 34.0735 17.2584C33.6531 17.2584 33.3121 17.5992 33.3121 18.0198V19.0351C33.3121 19.237 33.3923 19.4307 33.5351 19.5734C33.6779 19.7162 33.8716 19.7964 34.0735 19.7964ZM37.1191 19.7964C37.2191 19.7965 37.3181 19.7768 37.4105 19.7385C37.5029 19.7003 37.5868 19.6442 37.6575 19.5735C37.7282 19.5028 37.7843 19.4188 37.8226 19.3264C37.8608 19.2341 37.8805 19.1351 37.8805 19.0351V18.0198C37.8805 17.5992 37.5396 17.2584 37.1191 17.2584C36.6987 17.2584 36.3577 17.5992 36.3577 18.0198V19.0351C36.3577 19.237 36.438 19.4307 36.5807 19.5734C36.7235 19.7162 36.9172 19.7964 37.1191 19.7964ZM9.70865 21.8268C9.80864 21.8268 9.90765 21.8072 10 21.7689C10.0924 21.7306 10.1763 21.6746 10.2471 21.6039C10.3178 21.5331 10.3738 21.4492 10.4121 21.3568C10.4504 21.2644 10.47 21.1654 10.47 21.0654V20.0502C10.47 19.6296 10.1291 19.2888 9.70865 19.2888C9.28821 19.2888 8.94727 19.6296 8.94727 20.0502V21.0654C8.94729 21.2674 9.02751 21.461 9.1703 21.6038C9.31308 21.7466 9.50672 21.8268 9.70865 21.8268ZM12.7543 21.8268C12.8543 21.8268 12.9533 21.8072 13.0456 21.7689C13.138 21.7306 13.222 21.6746 13.2927 21.6039C13.3634 21.5331 13.4195 21.4492 13.4577 21.3568C13.496 21.2644 13.5157 21.1654 13.5156 21.0654V20.0502C13.5156 19.6296 13.1747 19.2888 12.7543 19.2888C12.3338 19.2888 11.9929 19.6296 11.9929 20.0502V21.0654C11.9929 21.2674 12.0731 21.461 12.2159 21.6038C12.3587 21.7466 12.5523 21.8268 12.7543 21.8268ZM15.7999 21.8268C15.8999 21.8268 15.9989 21.8072 16.0913 21.7689C16.1836 21.7306 16.2676 21.6746 16.3383 21.6039C16.409 21.5331 16.4651 21.4492 16.5033 21.3568C16.5416 21.2644 16.5613 21.1654 16.5613 21.0654V20.0502C16.5613 19.6296 16.2203 19.2888 15.7999 19.2888C15.3794 19.2888 15.0385 19.6296 15.0385 20.0502V21.0654C15.0385 21.2674 15.1187 21.461 15.2615 21.6038C15.4043 21.7466 15.598 21.8268 15.7999 21.8268ZM9.70865 26.9028C9.80864 26.9028 9.90765 26.8832 10 26.8449C10.0924 26.8066 10.1763 26.7506 10.2471 26.6798C10.3178 26.6091 10.3738 26.5252 10.4121 26.4328C10.4504 26.3404 10.47 26.2414 10.47 26.1414V25.1262C10.47 24.7056 10.1291 24.3648 9.70865 24.3648C9.28821 24.3648 8.94727 24.7056 8.94727 25.1262V26.1414C8.94729 26.3434 9.02751 26.537 9.1703 26.6798C9.31308 26.8226 9.50672 26.9028 9.70865 26.9028ZM12.7543 26.9028C12.8543 26.9028 12.9533 26.8832 13.0456 26.8449C13.138 26.8066 13.222 26.7506 13.2927 26.6798C13.3634 26.6091 13.4195 26.5252 13.4577 26.4328C13.496 26.3404 13.5157 26.2414 13.5156 26.1414V25.1262C13.5156 24.7056 13.1747 24.3648 12.7543 24.3648C12.3338 24.3648 11.9929 24.7056 11.9929 25.1262V26.1414C11.9929 26.3434 12.0731 26.537 12.2159 26.6798C12.3587 26.8226 12.5523 26.9028 12.7543 26.9028ZM15.7999 26.9028C15.8999 26.9028 15.9989 26.8832 16.0913 26.8449C16.1836 26.8066 16.2676 26.7506 16.3383 26.6798C16.409 26.6091 16.4651 26.5252 16.5033 26.4328C16.5416 26.3404 16.5613 26.2414 16.5613 26.1414V25.1262C16.5613 24.7056 16.2203 24.3648 15.7999 24.3648C15.3794 24.3648 15.0385 24.7056 15.0385 25.1262V26.1414C15.0385 26.3434 15.1187 26.537 15.2615 26.6798C15.4043 26.8226 15.598 26.9028 15.7999 26.9028ZM9.70865 31.9788C9.80864 31.9788 9.90765 31.9592 10 31.9209C10.0924 31.8826 10.1763 31.8266 10.2471 31.7558C10.3178 31.6851 10.3738 31.6012 10.4121 31.5088C10.4504 31.4164 10.47 31.3174 10.47 31.2174V30.2022C10.47 29.7816 10.1291 29.4408 9.70865 29.4408C9.28821 29.4408 8.94727 29.7816 8.94727 30.2022V31.2174C8.94727 31.3174 8.96696 31.4164 9.00522 31.5088C9.04349 31.6012 9.09957 31.6851 9.17027 31.7558C9.24097 31.8265 9.3249 31.8826 9.41728 31.9209C9.50965 31.9591 9.60866 31.9788 9.70865 31.9788ZM12.7543 31.9788C12.8543 31.9788 12.9533 31.9592 13.0456 31.9209C13.138 31.8826 13.222 31.8266 13.2927 31.7558C13.3634 31.6851 13.4195 31.6012 13.4577 31.5088C13.496 31.4164 13.5157 31.3174 13.5156 31.2174V30.2022C13.5156 29.7816 13.1747 29.4408 12.7543 29.4408C12.3338 29.4408 11.9929 29.7816 11.9929 30.2022V31.2174C11.9929 31.3174 12.0126 31.4164 12.0508 31.5088C12.0891 31.6012 12.1452 31.6851 12.2159 31.7558C12.2866 31.8266 12.3705 31.8826 12.4629 31.9209C12.5553 31.9592 12.6543 31.9788 12.7543 31.9788ZM15.7999 31.9788C15.8999 31.9788 15.9989 31.9592 16.0913 31.9209C16.1836 31.8826 16.2676 31.8266 16.3383 31.7558C16.409 31.6851 16.4651 31.6012 16.5033 31.5088C16.5416 31.4164 16.5613 31.3174 16.5613 31.2174V30.2022C16.5613 29.7816 16.2203 29.4408 15.7999 29.4408C15.3794 29.4408 15.0385 29.7816 15.0385 30.2022V31.2174C15.0385 31.3174 15.0582 31.4164 15.0964 31.5088C15.1347 31.6012 15.1908 31.6851 15.2615 31.7558C15.3322 31.8266 15.4161 31.8826 15.5085 31.9209C15.6009 31.9592 15.6999 31.9788 15.7999 31.9788ZM9.70865 37.0548C9.80864 37.0548 9.90765 37.0352 10 36.9969C10.0924 36.9586 10.1763 36.9026 10.2471 36.8319C10.3178 36.7611 10.3738 36.6772 10.4121 36.5848C10.4504 36.4924 10.47 36.3934 10.47 36.2934V35.2782C10.47 34.8576 10.1291 34.5168 9.70865 34.5168C9.28821 34.5168 8.94727 34.8576 8.94727 35.2782V36.2934C8.94727 36.4954 9.02748 36.689 9.17027 36.8318C9.31306 36.9746 9.50672 37.0548 9.70865 37.0548ZM12.7543 37.0548C12.8543 37.0548 12.9533 37.0352 13.0456 36.9969C13.138 36.9586 13.222 36.9026 13.2927 36.8319C13.3634 36.7611 13.4195 36.6772 13.4577 36.5848C13.496 36.4924 13.5157 36.3934 13.5156 36.2934V35.2782C13.5156 34.8576 13.1747 34.5168 12.7543 34.5168C12.3338 34.5168 11.9929 34.8576 11.9929 35.2782V36.2934C11.9929 36.3934 12.0126 36.4924 12.0508 36.5848C12.0891 36.6772 12.1452 36.7611 12.2159 36.8319C12.2866 36.9026 12.3705 36.9586 12.4629 36.9969C12.5553 37.0352 12.6543 37.0548 12.7543 37.0548ZM15.7999 37.0548C15.8999 37.0548 15.9989 37.0352 16.0913 36.9969C16.1836 36.9586 16.2676 36.9026 16.3383 36.8319C16.409 36.7611 16.4651 36.6772 16.5033 36.5848C16.5416 36.4924 16.5613 36.3934 16.5613 36.2934V35.2782C16.5613 34.8576 16.2203 34.5168 15.7999 34.5168C15.3794 34.5168 15.0385 34.8576 15.0385 35.2782V36.2934C15.0385 36.3934 15.0582 36.4924 15.0964 36.5848C15.1347 36.6772 15.1908 36.7611 15.2615 36.8319C15.3322 36.9026 15.4161 36.9586 15.5085 36.9969C15.6009 37.0352 15.6999 37.0548 15.7999 37.0548ZM37.1191 24.8724C37.2191 24.8725 37.3181 24.8528 37.4105 24.8145C37.5029 24.7763 37.5868 24.7202 37.6575 24.6495C37.7282 24.5788 37.7843 24.4948 37.8226 24.4024C37.8608 24.3101 37.8805 24.2111 37.8805 24.1111V23.0958C37.8805 22.6752 37.5396 22.3344 37.1191 22.3344C36.6987 22.3344 36.3577 22.6752 36.3577 23.0958V24.1111C36.3577 24.313 36.438 24.5067 36.5807 24.6494C36.7235 24.7922 36.9172 24.8724 37.1191 24.8724ZM37.1191 29.9484C37.2191 29.9485 37.3181 29.9288 37.4105 29.8905C37.5029 29.8523 37.5868 29.7962 37.6575 29.7255C37.7282 29.6548 37.7843 29.5708 37.8226 29.4784C37.8608 29.3861 37.8805 29.2871 37.8805 29.1871V28.1718C37.8805 27.7512 37.5396 27.4104 37.1191 27.4104C36.6987 27.4104 36.3577 27.7512 36.3577 28.1718V29.1871C36.3577 29.389 36.438 29.5827 36.5807 29.7254C36.7235 29.8682 36.9172 29.9484 37.1191 29.9484ZM37.1191 35.0244C37.2191 35.0245 37.3181 35.0048 37.4105 34.9665C37.5029 34.9283 37.5868 34.8722 37.6575 34.8015C37.7282 34.7308 37.7843 34.6468 37.8226 34.5544C37.8608 34.4621 37.8805 34.3631 37.8805 34.2631V33.2478C37.8805 32.8272 37.5396 32.4864 37.1191 32.4864C36.6987 32.4864 36.3577 32.8272 36.3577 33.2478V34.2631C36.3577 34.363 36.3774 34.4621 36.4157 34.5544C36.454 34.6468 36.51 34.7307 36.5807 34.8014C36.6514 34.8721 36.7354 34.9282 36.8277 34.9665C36.9201 35.0048 37.0191 35.0244 37.1191 35.0244ZM37.1191 40.1004C37.2191 40.1005 37.3181 40.0808 37.4105 40.0425C37.5029 40.0043 37.5868 39.9482 37.6575 39.8775C37.7282 39.8068 37.7843 39.7228 37.8226 39.6304C37.8608 39.5381 37.8805 39.4391 37.8805 39.3391V38.3238C37.8805 37.9032 37.5396 37.5624 37.1191 37.5624C36.6987 37.5624 36.3577 37.9032 36.3577 38.3238V39.3391C36.3577 39.541 36.438 39.7347 36.5807 39.8774C36.7235 40.0202 36.9172 40.1004 37.1191 40.1004ZM23.6676 11.9286C23.6676 11.7267 23.5874 11.533 23.4446 11.3902C23.3019 11.2474 23.1082 11.1672 22.9063 11.1672H16.815C16.715 11.1672 16.616 11.1869 16.5236 11.2251C16.4313 11.2634 16.3473 11.3195 16.2766 11.3902C16.2059 11.4609 16.1498 11.5448 16.1116 11.6372C16.0733 11.7296 16.0536 11.8286 16.0536 11.9286C16.0536 12.1305 16.1339 12.3242 16.2767 12.467C16.4194 12.6098 16.6131 12.69 16.815 12.69H22.9063C23.0063 12.69 23.1053 12.6703 23.1976 12.632C23.29 12.5938 23.374 12.5377 23.4447 12.467C23.5154 12.3963 23.5715 12.3124 23.6097 12.22C23.648 12.1276 23.6677 12.0286 23.6676 11.9286Z" fill="black"/>
</g>
</g>
<defs>
<clipPath id="clip0_3739_26610">
<rect width="45.1765" height="45.1765" fill="white" transform="translate(0.824219)"/>
</clipPath>
</defs>
</svg>
