<svg width="42" height="42" viewBox="0 0 42 42" fill="none" xmlns="http://www.w3.org/2000/svg">
<path d="M21 41C32.0457 41 41 32.0457 41 21C41 9.9543 32.0457 1 21 1C9.9543 1 1 9.9543 1 21C1 32.0457 9.9543 41 21 41Z" fill="#E3E3E3"/>
<path d="M21 0C16.8466 0 12.7865 1.23163 9.33303 3.53914C5.8796 5.84665 3.18798 9.1264 1.59854 12.9636C0.00909889 16.8009 -0.406771 21.0233 0.403519 25.0969C1.21381 29.1705 3.21386 32.9123 6.15077 35.8492C9.08767 38.7861 12.8295 40.7862 16.9031 41.5965C20.9767 42.4068 25.1991 41.9909 29.0364 40.4015C32.8736 38.812 36.1534 36.1204 38.4609 32.667C40.7684 29.2135 42 25.1534 42 21C41.9937 15.4324 39.7791 10.0947 35.8422 6.15777C31.9053 2.22089 26.5676 0.00635208 21 0ZM2.05101 22H10.026C10.0766 24.6952 10.4159 27.3771 11.038 30H4.27301C2.94749 27.5314 2.18844 24.7986 2.05101 22ZM22 10V2.132C24.551 2.759 26.811 5.748 28.274 10H22ZM28.887 12C29.5526 14.6166 29.9176 17.3006 29.975 20H22V12H28.887ZM20 2.132V10H13.726C15.189 5.748 17.449 2.759 20 2.132ZM20 12V20H12.025C12.0819 17.3006 12.447 14.6166 13.113 12H20ZM10.026 20H2.05101C2.18844 17.2014 2.94749 14.4686 4.27301 12H11.038C10.4159 14.6229 10.0766 17.3048 10.026 20ZM12.026 22H20V30H13.113C12.447 27.3834 12.0819 24.6994 12.025 22H12.026ZM20 32V39.868C17.449 39.241 15.189 36.252 13.726 32H20ZM22 39.868V32H28.274C26.811 36.252 24.551 39.241 22 39.868ZM22 30V22H29.975C29.9176 24.6994 29.5526 27.3834 28.887 30H22ZM31.974 22H39.949C39.8116 24.7986 39.0525 27.5314 37.727 30H30.962C31.5836 27.377 31.9229 24.6951 31.974 22ZM31.974 20C31.9229 17.3049 31.5836 14.623 30.962 12H37.727C39.0525 14.4686 39.8116 17.2014 39.949 20H31.974ZM36.463 10H30.4C29.6437 7.37092 28.3409 4.93108 26.577 2.84C30.5683 4.07806 34.042 6.59386 36.463 10ZM15.419 2.84C13.6561 4.93119 12.3547 7.37109 11.6 10H5.53701C7.95704 6.59457 11.4292 4.07884 15.419 2.84ZM5.53701 32H11.6C12.3559 34.6295 13.6587 37.0698 15.423 39.161C11.4318 37.9222 7.95828 35.4061 5.53701 32ZM26.581 39.161C28.3435 37.0692 29.6449 34.629 30.4 32H36.459C34.0398 35.4047 30.5693 37.9207 26.581 39.161Z" fill="#444444"/>
<path d="M13 17C12.2089 17 11.4355 16.7654 10.7777 16.3259C10.1199 15.8864 9.60723 15.2616 9.30448 14.5307C9.00173 13.7998 8.92252 12.9956 9.07686 12.2196C9.2312 11.4437 9.61216 10.731 10.1716 10.1716C10.731 9.61216 11.4437 9.2312 12.2196 9.07686C12.9956 8.92252 13.7998 9.00173 14.5307 9.30448C15.2616 9.60723 15.8864 10.1199 16.3259 10.7777C16.7654 11.4355 17 12.2089 17 13C17 14.0609 16.5786 15.0783 15.8284 15.8284C15.0783 16.5786 14.0609 17 13 17Z" fill="white"/>
<path d="M30 24C29.2089 24 28.4355 23.7654 27.7777 23.3259C27.1199 22.8864 26.6072 22.2616 26.3045 21.5307C26.0017 20.7998 25.9225 19.9956 26.0769 19.2196C26.2312 18.4437 26.6122 17.731 27.1716 17.1716C27.731 16.6122 28.4437 16.2312 29.2196 16.0769C29.9956 15.9225 30.7998 16.0017 31.5307 16.3045C32.2616 16.6072 32.8864 17.1199 33.3259 17.7777C33.7654 18.4355 34 19.2089 34 20C34 21.0609 33.5786 22.0783 32.8284 22.8284C32.0783 23.5786 31.0609 24 30 24Z" fill="white"/>
<path d="M21 35C20.2089 35 19.4355 34.7654 18.7777 34.3259C18.1199 33.8864 17.6072 33.2616 17.3045 32.5307C17.0017 31.7998 16.9225 30.9956 17.0769 30.2196C17.2312 29.4437 17.6122 28.731 18.1716 28.1716C18.731 27.6122 19.4437 27.2312 20.2196 27.0769C20.9956 26.9225 21.7998 27.0017 22.5307 27.3045C23.2616 27.6072 23.8864 28.1199 24.3259 28.7777C24.7654 29.4355 25 30.2089 25 31C25 32.0609 24.5786 33.0783 23.8284 33.8284C23.0783 34.5786 22.0609 35 21 35Z" fill="white"/>
<path d="M21 33C22.1046 33 23 32.1046 23 31C23 29.8954 22.1046 29 21 29C19.8954 29 19 29.8954 19 31C19 32.1046 19.8954 33 21 33Z" fill="#58BFCA"/>
<path d="M13 15C14.1046 15 15 14.1046 15 13C15 11.8954 14.1046 11 13 11C11.8954 11 11 11.8954 11 13C11 14.1046 11.8954 15 13 15Z" fill="#58BFCA"/>
<path d="M30 22C31.1046 22 32 21.1046 32 20C32 18.8954 31.1046 18 30 18C28.8954 18 28 18.8954 28 20C28 21.1046 28.8954 22 30 22Z" fill="#58BFCA"/>
</svg>
