<svg width="46" height="46" viewBox="0 0 46 46" fill="none" xmlns="http://www.w3.org/2000/svg">
<path d="M23 0C10.3174 0 0 10.3179 0 23C0 35.6821 10.3174 46 23 46C35.6826 46 46 35.6821 46 23C46 10.3179 35.6826 0 23 0Z" fill="#CAE88C"/>
<path d="M15 32C14.7441 32 14.4883 31.9023 14.293 31.707C13.9023 31.3164 13.9023 30.6836 14.293 30.293L32.293 12.293C32.6836 11.9023 33.3164 11.9023 33.707 12.293C34.0977 12.6836 34.0977 13.3164 33.707 13.707L15.707 31.707C15.5117 31.9023 15.2559 32 15 32Z" fill="#5B8937"/>
<path d="M33 20C32.4473 20 32 19.5522 32 19V14H27C26.4473 14 26 13.5523 26 13C26 12.4477 26.4473 12 27 12H33C33.5527 12 34 12.4477 34 13V19C34 19.5522 33.5527 20 33 20Z" fill="#5B8937"/>
<path d="M16 20C13.794 20 12 18.2056 12 16C12 13.7944 13.794 12 16 12C18.206 12 20 13.7944 20 16C20 18.2056 18.206 20 16 20ZM16 14C14.8975 14 14 14.897 14 16C14 17.103 14.8975 18 16 18C17.1025 18 18 17.103 18 16C18 14.897 17.1025 14 16 14Z" fill="#5B8937"/>
<path d="M30 34C27.794 34 26 32.2056 26 30C26 27.7944 27.794 26 30 26C32.2061 26 34 27.7944 34 30C34 32.2056 32.2061 34 30 34ZM30 28C28.8975 28 28 28.897 28 30C28 31.103 28.8975 32 30 32C31.1025 32 32 31.103 32 30C32 28.897 31.1025 28 30 28Z" fill="#5B8937"/>
</svg>
