<svg width="64" height="64" viewBox="0 0 64 64" fill="none" xmlns="http://www.w3.org/2000/svg">
<path d="M59 0.5H5C2.51472 0.5 0.5 2.51472 0.5 5V59C0.5 61.4853 2.51472 63.5 5 63.5H59C61.4853 63.5 63.5 61.4853 63.5 59V5C63.5 2.51472 61.4853 0.5 59 0.5Z" fill="#212121"/>
<path d="M59 0.5H33.5V30.5H63.5V5C63.5 3.80653 63.0259 2.66193 62.182 1.81802C61.3381 0.974106 60.1935 0.5 59 0.5Z" fill="#4C4C4C"/>
<path d="M5 0.5C3.80653 0.5 2.66193 0.974106 1.81802 1.81802C0.974106 2.66193 0.5 3.80653 0.5 5V30.5H30.5V0.5H5Z" fill="#4C4C4C"/>
<path d="M33.5 33.5V63.5H59C60.1935 63.5 61.3381 63.0259 62.182 62.182C63.0259 61.3381 63.5 60.1935 63.5 59V33.5H33.5Z" fill="#EE7C2F"/>
<path d="M0.5 33.5V59C0.5 60.1935 0.974106 61.3381 1.81802 62.182C2.66193 63.0259 3.80653 63.5 5 63.5H30.5V33.5H0.5Z" fill="#4C4C4C"/>
<path d="M54.0606 18.9396C54.2039 19.078 54.3182 19.2435 54.3968 19.4265C54.4754 19.6095 54.5168 19.8064 54.5185 20.0055C54.5202 20.2047 54.4823 20.4022 54.4069 20.5866C54.3314 20.7709 54.2201 20.9384 54.0792 21.0792C53.9384 21.2201 53.7709 21.3314 53.5866 21.4069C53.4022 21.4823 53.2047 21.5202 53.0055 21.5185C52.8063 21.5168 52.6095 21.4754 52.4265 21.3968C52.2435 21.3182 52.078 21.2039 51.9396 21.0606L48.5001 17.6211L45.0606 21.0606C44.7777 21.3339 44.3988 21.4851 44.0055 21.4816C43.6122 21.4782 43.236 21.3205 42.9579 21.0423C42.6798 20.7642 42.522 20.388 42.5186 19.9947C42.5152 19.6014 42.6664 19.2225 42.9396 18.9396L46.3791 15.5001L42.9396 12.0606C42.6664 11.7777 42.5152 11.3988 42.5186 11.0055C42.522 10.6122 42.6798 10.236 42.9579 9.95789C43.236 9.67978 43.6122 9.52203 44.0055 9.51861C44.3988 9.51519 44.7777 9.66639 45.0606 9.93962L48.5001 13.3791L51.9396 9.93962C52.2225 9.66639 52.6014 9.51519 52.9947 9.51861C53.388 9.52203 53.7642 9.67978 54.0424 9.95789C54.3205 10.236 54.4782 10.6122 54.4816 11.0055C54.4851 11.3988 54.3339 11.7777 54.0606 12.0606L50.6211 15.5001L54.0606 18.9396Z" fill="white"/>
<path d="M21.5 18.5H9.5C9.10218 18.5 8.72064 18.342 8.43934 18.0607C8.15804 17.7794 8 17.3978 8 17C8 16.6022 8.15804 16.2206 8.43934 15.9393C8.72064 15.658 9.10218 15.5 9.5 15.5H21.5C21.8978 15.5 22.2794 15.658 22.5607 15.9393C22.842 16.2206 23 16.6022 23 17C23 17.3978 22.842 17.7794 22.5607 18.0607C22.2794 18.342 21.8978 18.5 21.5 18.5Z" fill="white"/>
<path d="M54.5 53H42.5C42.1022 53 41.7206 52.842 41.4393 52.5607C41.158 52.2794 41 51.8978 41 51.5C41 51.1022 41.158 50.7206 41.4393 50.4393C41.7206 50.158 42.1022 50 42.5 50H54.5C54.8978 50 55.2794 50.158 55.5607 50.4393C55.842 50.7206 56 51.1022 56 51.5C56 51.8978 55.842 52.2794 55.5607 52.5607C55.2794 52.842 54.8978 53 54.5 53ZM54.5 47H42.5C42.1022 47 41.7206 46.842 41.4393 46.5607C41.158 46.2794 41 45.8978 41 45.5C41 45.1022 41.158 44.7206 41.4393 44.4393C41.7206 44.158 42.1022 44 42.5 44H54.5C54.8978 44 55.2794 44.158 55.5607 44.4393C55.842 44.7206 56 45.1022 56 45.5C56 45.8978 55.842 46.2794 55.5607 46.5607C55.2794 46.842 54.8978 47 54.5 47Z" fill="white"/>
<path d="M21.5 50H17V54.5C17 54.8978 16.842 55.2794 16.5607 55.5607C16.2794 55.842 15.8978 56 15.5 56C15.1022 56 14.7206 55.842 14.4393 55.5607C14.158 55.2794 14 54.8978 14 54.5V50H9.5C9.10218 50 8.72064 49.842 8.43934 49.5607C8.15804 49.2794 8 48.8978 8 48.5C8 48.1022 8.15804 47.7206 8.43934 47.4393C8.72064 47.158 9.10218 47 9.5 47H14V42.5C14 42.1022 14.158 41.7206 14.4393 41.4393C14.7206 41.158 15.1022 41 15.5 41C15.8978 41 16.2794 41.158 16.5607 41.4393C16.842 41.7206 17 42.1022 17 42.5V47H21.5C21.8978 47 22.2794 47.158 22.5607 47.4393C22.842 47.7206 23 48.1022 23 48.5C23 48.8978 22.842 49.2794 22.5607 49.5607C22.2794 49.842 21.8978 50 21.5 50Z" fill="white"/>
</svg>
