<svg width="46" height="46" viewBox="0 0 46 46" fill="none" xmlns="http://www.w3.org/2000/svg">
<path d="M23 46C35.7025 46 46 35.7025 46 23C46 10.2975 35.7025 0 23 0C10.2975 0 0 10.2975 0 23C0 35.7025 10.2975 46 23 46Z" fill="#F8D34C"/>
<path d="M22.9998 38.9999C22.7346 38.9999 22.4802 38.8945 22.2927 38.707C22.1052 38.5194 21.9998 38.2651 21.9998 37.9999V34.9999C21.9998 34.7347 22.1052 34.4803 22.2927 34.2928C22.4802 34.1052 22.7346 33.9999 22.9998 33.9999C23.265 33.9999 23.5194 34.1052 23.7069 34.2928C23.8945 34.4803 23.9998 34.7347 23.9998 34.9999V37.9999C23.9998 38.2651 23.8945 38.5194 23.7069 38.707C23.5194 38.8945 23.265 38.9999 22.9998 38.9999Z" fill="#BB991D"/>
<path d="M38.2168 27.9439C38.1348 28.1961 37.9561 28.4054 37.7198 28.5258C37.4835 28.6462 37.209 28.6678 36.9568 28.5859L34.0998 27.6589C33.9696 27.6229 33.848 27.5609 33.7424 27.4766C33.6368 27.3924 33.5493 27.2876 33.4854 27.1686C33.4214 27.0496 33.3822 26.9189 33.3701 26.7843C33.358 26.6498 33.3733 26.5141 33.4151 26.3857C33.4569 26.2572 33.5243 26.1385 33.6132 26.0368C33.7022 25.9351 33.8108 25.8524 33.9325 25.7939C34.0543 25.7353 34.1866 25.702 34.3216 25.696C34.4566 25.6899 34.5913 25.7113 34.7178 25.7589L37.5708 26.6859C37.8233 26.767 38.0332 26.9452 38.1543 27.1811C38.2755 27.417 38.298 27.6914 38.2168 27.9439Z" fill="#BB991D"/>
<path d="M32.4048 10.0559C32.5115 10.1331 32.6019 10.2306 32.6707 10.3429C32.7396 10.4551 32.7856 10.5799 32.8062 10.71C32.8267 10.84 32.8213 10.9729 32.7904 11.1009C32.7594 11.2289 32.7035 11.3495 32.6258 11.4559L30.8618 13.8799C30.7053 14.0944 30.47 14.238 30.2077 14.2791C29.9453 14.3202 29.6774 14.2553 29.4628 14.0989C29.2483 13.9424 29.1046 13.7071 29.0636 13.4447C29.0225 13.1824 29.0873 12.9144 29.2438 12.6999L31.0078 10.2729C31.1643 10.0589 31.3994 9.91587 31.6614 9.87517C31.9234 9.83448 32.1908 9.89948 32.4048 10.0559Z" fill="#BB991D"/>
<path d="M13.5998 10.0559C13.7061 9.97817 13.8268 9.92224 13.9548 9.89129C14.0828 9.86034 14.2156 9.85498 14.3457 9.87551C14.4758 9.89605 14.6006 9.94207 14.7128 10.0109C14.825 10.0798 14.9226 10.1702 14.9998 10.2769L16.7558 12.6999C16.9118 12.9144 16.9761 13.1822 16.9346 13.4441C16.8932 13.7061 16.7494 13.9409 16.5348 14.0969C16.3203 14.2528 16.0525 14.3171 15.7905 14.2757C15.5286 14.2343 15.2938 14.0904 15.1378 13.8759L13.3738 11.4489C13.2196 11.234 13.1568 10.9668 13.1992 10.7057C13.2415 10.4446 13.3856 10.211 13.5998 10.0559Z" fill="#BB991D"/>
<path d="M7.78281 27.9439C7.70088 27.6916 7.72248 27.4172 7.84288 27.1809C7.96328 26.9446 8.1726 26.7658 8.42481 26.6839L11.2778 25.7569C11.4043 25.7093 11.5391 25.6879 11.674 25.694C11.809 25.7 11.9414 25.7333 12.0631 25.7919C12.1849 25.8504 12.2935 25.9331 12.3824 26.0348C12.4713 26.1365 12.5387 26.2552 12.5805 26.3837C12.6223 26.5121 12.6376 26.6478 12.6255 26.7823C12.6135 26.9169 12.5743 27.0476 12.5103 27.1666C12.4463 27.2856 12.3588 27.3904 12.2532 27.4746C12.1476 27.5589 12.026 27.6209 11.8958 27.6569L9.04281 28.5839C8.79085 28.6659 8.51664 28.6446 8.2804 28.5246C8.04415 28.4046 7.86519 28.1957 7.78281 27.9439Z" fill="#BB991D"/>
<path d="M29.1808 32.4779C29.0187 32.4778 28.859 32.438 28.7158 32.3619L22.9998 29.3619L17.2838 32.3619C17.1188 32.4483 16.9329 32.487 16.747 32.4734C16.5612 32.4599 16.3829 32.3947 16.2321 32.2852C16.0814 32.1757 15.9642 32.0263 15.8938 31.8538C15.8234 31.6813 15.8027 31.4926 15.8338 31.3089L16.9258 24.9439L12.2998 20.4379C12.1661 20.3076 12.0715 20.1426 12.0267 19.9614C11.982 19.7802 11.9888 19.5901 12.0464 19.4126C12.1041 19.2351 12.2102 19.0773 12.3529 18.957C12.4956 18.8367 12.6691 18.7587 12.8538 18.7319L19.2438 17.8039L22.1018 12.0139C22.1935 11.8577 22.3244 11.7282 22.4816 11.6382C22.6388 11.5482 22.8167 11.5009 22.9978 11.5009C23.1789 11.5009 23.3569 11.5482 23.514 11.6382C23.6712 11.7282 23.8021 11.8577 23.8938 12.0139L26.7518 17.8039L33.1418 18.7319C33.3265 18.7587 33.5 18.8367 33.6427 18.957C33.7854 19.0773 33.8916 19.2351 33.9492 19.4126C34.0069 19.5901 34.0137 19.7802 33.9689 19.9614C33.9241 20.1426 33.8295 20.3076 33.6958 20.4379L29.0718 24.9439L30.1638 31.3089C30.1884 31.4523 30.1814 31.5995 30.1432 31.74C30.1051 31.8804 30.0367 32.0109 29.9429 32.1222C29.8491 32.2336 29.7321 32.3231 29.6002 32.3845C29.4682 32.4459 29.3244 32.4778 29.1788 32.4779H29.1808Z" fill="#BB991D"/>
</svg>
