<svg width="28" height="28" viewBox="0 0 28 28" fill="none" xmlns="http://www.w3.org/2000/svg">
<rect x="0.5" y="0.5" width="27" height="27" rx="13.5" fill="white"/>
<rect x="0.5" y="0.5" width="27" height="27" rx="13.5" fill="url(#paint0_linear_5074_25421)" fill-opacity="0.2"/>
<g clip-path="url(#clip0_5074_25421)">
<path d="M15.8688 8.58551C15.2626 8.40432 14.6329 8.31169 14 8.31251C10.4136 8.30926 7.50325 11.2148 7.5 14.8011C7.5 15.4341 7.591 16.0638 7.773 16.6699C7.87538 17.0144 8.19225 17.25 8.55138 17.25H11.0328C10.9799 16.7674 10.9263 16.2124 10.8735 15.625H9.19406C9.14775 15.3569 9.125 15.0847 9.125 14.8125C9.125 12.1199 11.3074 9.93751 14 9.93751C16.6926 9.93751 18.875 12.1199 18.875 14.8125C18.875 15.0847 18.8523 15.3569 18.8059 15.625H15.9565C16.3441 16.3644 16.6414 16.9729 16.7219 17.237C16.7235 17.2411 16.7235 17.2451 16.7243 17.25H19.4486C19.8078 17.25 20.1246 17.0144 20.227 16.6699C21.2556 13.2338 19.3048 9.61413 15.8688 8.58551Z" fill="#E85C51"/>
<path d="M15.5546 17.5898C15.3523 16.9219 12.8668 12.5287 12.5841 12.0298C12.4914 11.8657 12.2997 11.7869 12.1128 11.8413C11.9308 11.8966 11.8122 12.0705 11.8252 12.2598C11.8674 12.8318 12.242 17.8652 12.4443 18.5331C12.6572 19.2335 13.3031 19.686 14.0003 19.686C14.1563 19.686 14.3147 19.6633 14.4715 19.6161C15.3287 19.3561 15.8138 18.4478 15.5546 17.5898Z" fill="#E85C51"/>
</g>
<rect x="0.5" y="0.5" width="27" height="27" rx="13.5" stroke="#CCCCCC"/>
<defs>
<linearGradient id="paint0_linear_5074_25421" x1="14" y1="0" x2="14" y2="28" gradientUnits="userSpaceOnUse">
<stop stop-color="#FBFBFB"/>
<stop offset="1" stop-color="#F9FAFA"/>
</linearGradient>
<clipPath id="clip0_5074_25421">
<rect width="13" height="13" fill="white" transform="translate(7.5 7.5)"/>
</clipPath>
</defs>
</svg>
