<svg width="14" height="14" viewBox="0 0 14 14" fill="none" xmlns="http://www.w3.org/2000/svg">
<g id="Binocular" clip-path="url(#clip0_2682_17820)">
<path id="Vector" d="M9.49805 1.03467H10.8105C10.8686 1.03467 10.9242 1.05771 10.9652 1.09874C11.0063 1.13976 11.0293 1.1954 11.0293 1.25342V2.31217H9.2793V1.25342C9.2793 1.1954 9.30234 1.13976 9.34337 1.09874C9.38439 1.05771 9.44003 1.03467 9.49805 1.03467Z" stroke="#506D84" stroke-linecap="round" stroke-linejoin="round"/>
<path id="Vector_2" d="M8.75 4.37508V2.53102C8.75 2.473 8.77305 2.41736 8.81407 2.37634C8.85509 2.33532 8.91073 2.31227 8.96875 2.31227H11.3859C11.4387 2.31167 11.4899 2.33016 11.5301 2.36433C11.5703 2.3985 11.5968 2.44605 11.6047 2.49821L11.8869 4.37508H8.75Z" stroke="#506D84" stroke-linecap="round" stroke-linejoin="round"/>
<path id="Vector_3" d="M12.6177 9.14819L12.9524 11.3313H8.74365V9.14819H12.6177Z" stroke="#506D84" stroke-linecap="round" stroke-linejoin="round"/>
<path id="Vector_4" d="M5.25016 4.37508V2.53102C5.25016 2.473 5.22711 2.41736 5.18609 2.37634C5.14506 2.33532 5.08942 2.31227 5.03141 2.31227H2.62516C2.5724 2.31167 2.52121 2.33016 2.48101 2.36433C2.44081 2.3985 2.41432 2.44605 2.40641 2.49821L2.11328 4.37508H5.25016Z" stroke="#506D84" stroke-linecap="round" stroke-linejoin="round"/>
<path id="Vector_5" d="M1.38254 9.14819L1.04785 11.3313H5.2566V9.14819H1.38254Z" stroke="#506D84" stroke-linecap="round" stroke-linejoin="round"/>
<path id="Vector_6" d="M1.38232 9.14808H12.6173L11.8867 4.36401H2.11295L1.38232 9.14808Z" stroke="#506D84" stroke-linecap="round" stroke-linejoin="round"/>
<path id="Vector_7" d="M3.18262 1.03467H4.49512C4.55313 1.03467 4.60877 1.05771 4.6498 1.09874C4.69082 1.13976 4.71387 1.1954 4.71387 1.25342V2.31217H2.96387V1.25342C2.96387 1.1954 2.98691 1.13976 3.02794 1.09874C3.06896 1.05771 3.1246 1.03467 3.18262 1.03467Z" stroke="#506D84" stroke-linecap="round" stroke-linejoin="round"/>
<path id="Vector_8" d="M6.9999 7.77666C7.55564 7.77666 8.00615 7.32615 8.00615 6.77041C8.00615 6.21467 7.55564 5.76416 6.9999 5.76416C6.44417 5.76416 5.99365 6.21467 5.99365 6.77041C5.99365 7.32615 6.44417 7.77666 6.9999 7.77666Z" stroke="#506D84" stroke-linecap="round" stroke-linejoin="round"/>
<path id="Vector_9" d="M5.60242 11.3313H0.654297C0.533485 11.3313 0.435547 11.4292 0.435547 11.55V12.7466C0.435547 12.8674 0.533485 12.9654 0.654297 12.9654H5.60242C5.72323 12.9654 5.82117 12.8674 5.82117 12.7466V11.55C5.82117 11.4292 5.72323 11.3313 5.60242 11.3313Z" stroke="#506D84" stroke-linecap="round" stroke-linejoin="round"/>
<path id="Vector_10" d="M13.3436 11.3313H8.39551C8.2747 11.3313 8.17676 11.4292 8.17676 11.55V12.7466C8.17676 12.8674 8.2747 12.9654 8.39551 12.9654H13.3436C13.4644 12.9654 13.5624 12.8674 13.5624 12.7466V11.55C13.5624 11.4292 13.4644 11.3313 13.3436 11.3313Z" stroke="#506D84" stroke-linecap="round" stroke-linejoin="round"/>
</g>
<defs>
<clipPath id="clip0_2682_17820">
<rect width="14" height="14" fill="white"/>
</clipPath>
</defs>
</svg>
