<svg width="10" height="10" viewBox="0 0 10 10" fill="none" xmlns="http://www.w3.org/2000/svg">
<path d="M9.91667 0.5C9.91667 0.416667 9.83333 0.333333 9.75 0.25C9.66667 0.166667 9.58333 0.0833333 9.5 0.0833333C9.41667 -8.07146e-08 9.25 0 9.16667 0H1.66667C1.16667 0 0.833333 0.333333 0.833333 0.833333C0.833333 1.33333 1.16667 1.66667 1.66667 1.66667H7.16667L0.25 8.58333C-0.0833333 8.91667 -0.0833333 9.41667 0.25 9.75C0.416667 9.91667 0.583333 10 0.833333 10C1.08333 10 1.25 9.91667 1.41667 9.75L8.33333 2.83333V8.33333C8.33333 8.83333 8.66667 9.16667 9.16667 9.16667C9.66667 9.16667 10 8.83333 10 8.33333V0.833333C10 0.75 10 0.583333 9.91667 0.5Z" fill="#43A833"/>
</svg>
