<svg width="12" height="13" viewBox="0 0 12 13" fill="none" xmlns="http://www.w3.org/2000/svg">
<path d="M7.5824 10.9C7.32292 11.5475 6.73069 12 6.04167 12C5.35264 12 4.76108 11.5475 4.50093 10.9007M9.06667 4.51707V4.3C9.06667 2.47767 7.71214 1 6.04167 1C4.37119 1 3.01667 2.47767 3.01667 4.3V4.51707C3.01667 5.5606 2.50779 6.5308 1.6776 7.05C1.24671 7.31987 1 7.63227 1 7.96667C1 8.9794 3.25732 9.8 6.04167 9.8C8.82601 9.8 11.0833 8.9794 11.0833 7.96667C11.0833 7.63227 10.8366 7.31987 10.4057 7.05C9.57554 6.53153 9.06667 5.5606 9.06667 4.51707Z" stroke="#666666" stroke-width="1.5" stroke-miterlimit="10" stroke-linecap="round" stroke-linejoin="round"/>
</svg>
