<svg width="14" height="14" viewBox="0 0 14 14" fill="none" xmlns="http://www.w3.org/2000/svg">
<path d="M8.53125 1.09375H5.46875C5.348 1.09375 5.25 1.19175 5.25 1.3125V12.6875C5.25 12.8083 5.348 12.9062 5.46875 12.9062H8.53125C8.652 12.9062 8.75 12.8083 8.75 12.6875V1.3125C8.75 1.19175 8.652 1.09375 8.53125 1.09375Z" fill="#EE89DF"/>
<path d="M3.5 8.96875H0.4375C0.31675 8.96875 0.21875 9.06675 0.21875 9.1875V12.6875C0.21875 12.8082 0.31675 12.9062 0.4375 12.9062H3.5C3.62075 12.9062 3.71875 12.8082 3.71875 12.6875V9.1875C3.71875 9.06675 3.62075 8.96875 3.5 8.96875Z" fill="#9D70FF"/>
<path d="M13.5625 5.46875H10.5C10.3793 5.46875 10.2812 5.56675 10.2812 5.6875V12.6875C10.2812 12.8082 10.3793 12.9062 10.5 12.9062H13.5625C13.6832 12.9062 13.7812 12.8082 13.7812 12.6875V5.6875C13.7812 5.56675 13.6832 5.46875 13.5625 5.46875Z" fill="#FBDE9D"/>
</svg>
