<svg width="64" height="64" viewBox="0 0 64 64" fill="none" xmlns="http://www.w3.org/2000/svg">
<g id="money-coins 1">
<g id="Group">
<path id="Vector" d="M61.332 44H2.66536C1.92903 44 1.33203 43.403 1.33203 42.6667V5.33333C1.33203 4.597 1.92903 4 2.66536 4H61.332C62.0684 4 62.6654 4.597 62.6654 5.33333V42.6667C62.6654 43.403 62.0684 44 61.332 44Z" fill="#4DA34D"/>
<path id="Vector_2" d="M50.6654 8H13.332C13.332 12.4183 9.75032 16 5.33203 16V32C9.75032 32 13.332 35.5817 13.332 40H50.6654C50.6654 35.5817 54.2471 32 58.6654 32V16C54.2471 16 50.6654 12.4183 50.6654 8Z" fill="#9EDB9E"/>
<path id="Vector_3" d="M31.9974 33.3346C37.1521 33.3346 41.3307 29.156 41.3307 24.0013C41.3307 18.8466 37.1521 14.668 31.9974 14.668C26.8427 14.668 22.6641 18.8466 22.6641 24.0013C22.6641 29.156 26.8427 33.3346 31.9974 33.3346Z" fill="#4DA34D"/>
<path id="Vector_4" opacity="0.1" d="M33.332 43.9987H57.332V41.332C57.332 40.8556 57.2115 40.4129 57.0033 39.9987C57.2115 39.5845 57.332 39.1418 57.332 38.6654V34.6654C57.332 34.1889 57.2115 33.7463 57.0033 33.332C57.2115 32.9178 57.332 32.4752 57.332 31.9987V27.9987C57.332 27.5222 57.2115 27.0796 57.0033 26.6654C57.2115 26.2511 57.332 25.8085 57.332 25.332V21.332C57.332 20.8556 57.2115 20.4129 57.0033 19.9987C57.2115 19.5845 57.332 19.1418 57.332 18.6654V14.6654C57.332 11.1641 51.2956 9.33203 45.332 9.33203C39.3685 9.33203 33.332 11.1641 33.332 14.6654V18.6654C33.332 19.1418 33.4526 19.5845 33.6607 19.9987C33.4526 20.4129 33.332 20.8556 33.332 21.332V25.332C33.332 25.8085 33.4526 26.2511 33.6607 26.6654C33.4526 27.0796 33.332 27.5222 33.332 27.9987V31.9987C33.332 32.4752 33.4526 32.9178 33.6607 33.332C33.4526 33.7463 33.332 34.1889 33.332 34.6654V38.6654C33.332 39.1418 33.4526 39.5845 33.6607 39.9987C33.4526 40.4129 33.332 40.8556 33.332 41.332V43.9987Z" fill="black"/>
<path id="Vector_5" d="M58.6667 49.332H37.3333C36.597 49.332 36 49.929 36 50.6654V54.6654C36 58.1667 42.0365 59.9987 48 59.9987C53.9635 59.9987 60 58.1667 60 54.6654V50.6654C60 49.929 59.403 49.332 58.6667 49.332Z" fill="#D8BC48"/>
<path id="Vector_6" d="M48 45.332C42.0365 45.332 36 47.1641 36 50.6654C36 54.1667 42.0365 55.9987 48 55.9987C53.9635 55.9987 60 54.1667 60 50.6654C60 47.1641 53.9635 45.332 48 45.332Z" fill="#EFD358"/>
<path id="Vector_7" d="M58.6667 42.668H37.3333C36.597 42.668 36 43.265 36 44.0013V48.0013C36 51.5026 42.0365 53.3346 48 53.3346C53.9635 53.3346 60 51.5026 60 48.0013V44.0013C60 43.265 59.403 42.668 58.6667 42.668Z" fill="#D8BC48"/>
<path id="Vector_8" d="M48 38.668C42.0365 38.668 36 40.5 36 44.0013C36 47.5026 42.0365 49.3346 48 49.3346C53.9635 49.3346 60 47.5026 60 44.0013C60 40.5 53.9635 38.668 48 38.668Z" fill="#EFD358"/>
<path id="Vector_9" d="M58.6667 36H37.3333C36.597 36 36 36.597 36 37.3333V41.3333C36 44.8346 42.0365 46.6667 48 46.6667C53.9635 46.6667 60 44.8346 60 41.3333V37.3333C60 36.597 59.403 36 58.6667 36Z" fill="#D8BC48"/>
<path id="Vector_10" d="M48 32C42.0365 32 36 33.832 36 37.3333C36 40.8346 42.0365 42.6667 48 42.6667C53.9635 42.6667 60 40.8346 60 37.3333C60 33.832 53.9635 32 48 32Z" fill="#EFD358"/>
<path id="Vector_11" d="M58.6667 29.332H37.3333C36.597 29.332 36 29.929 36 30.6654V34.6654C36 38.1667 42.0365 39.9987 48 39.9987C53.9635 39.9987 60 38.1667 60 34.6654V30.6654C60 29.929 59.403 29.332 58.6667 29.332Z" fill="#D8BC48"/>
<path id="Vector_12" d="M48 25.332C42.0365 25.332 36 27.1641 36 30.6654C36 34.1667 42.0365 35.9987 48 35.9987C53.9635 35.9987 60 34.1667 60 30.6654C60 27.1641 53.9635 25.332 48 25.332Z" fill="#EFD358"/>
<path id="Vector_13" d="M58.6667 22.668H37.3333C36.597 22.668 36 23.265 36 24.0013V28.0013C36 31.5026 42.0365 33.3346 48 33.3346C53.9635 33.3346 60 31.5026 60 28.0013V24.0013C60 23.265 59.403 22.668 58.6667 22.668Z" fill="#D8BC48"/>
<path id="Vector_14" d="M48 18.668C42.0365 18.668 36 20.5 36 24.0013C36 27.5026 42.0365 29.3346 48 29.3346C53.9635 29.3346 60 27.5026 60 24.0013C60 20.5 53.9635 18.668 48 18.668Z" fill="#EFD358"/>
<path id="Vector_15" d="M58.6667 16H37.3333C36.597 16 36 16.597 36 17.3333V21.3333C36 24.8346 42.0365 26.6667 48 26.6667C53.9635 26.6667 60 24.8346 60 21.3333V17.3333C60 16.597 59.403 16 58.6667 16Z" fill="#D8BC48"/>
<path id="Vector_16" d="M48 12C42.0365 12 36 13.832 36 17.3333C36 20.8346 42.0365 22.6667 48 22.6667C53.9635 22.6667 60 20.8346 60 17.3333C60 13.832 53.9635 12 48 12Z" fill="#EFD358"/>
</g>
</g>
</svg>
