<svg width="48" height="48" viewBox="0 0 48 48" fill="none" xmlns="http://www.w3.org/2000/svg">
<path d="M24 47C36.7025 47 47 36.7025 47 24C47 11.2975 36.7025 1 24 1C11.2975 1 1 11.2975 1 24C1 36.7025 11.2975 47 24 47Z" fill="black"/>
<path d="M29.6535 13.2654L16.2667 33.3457L18.3468 34.7325L31.7336 14.6522L29.6535 13.2654Z" fill="white"/>
<path d="M18.25 22.75C17.2611 22.75 16.2944 22.4568 15.4722 21.9074C14.6499 21.3579 14.009 20.5771 13.6306 19.6634C13.2522 18.7498 13.1531 17.7445 13.3461 16.7746C13.539 15.8046 14.0152 14.9137 14.7145 14.2145C15.4137 13.5152 16.3046 13.039 17.2746 12.8461C18.2445 12.6531 19.2498 12.7522 20.1634 13.1306C21.0771 13.509 21.8579 14.1499 22.4074 14.9722C22.9568 15.7944 23.25 16.7611 23.25 17.75C23.2485 19.0756 22.7213 20.3466 21.7839 21.2839C20.8466 22.2213 19.5756 22.7485 18.25 22.75ZM18.25 15.25C17.7556 15.25 17.2722 15.3966 16.8611 15.6713C16.45 15.946 16.1295 16.3365 15.9403 16.7933C15.7511 17.2501 15.7016 17.7528 15.798 18.2377C15.8945 18.7227 16.1326 19.1681 16.4822 19.5178C16.8319 19.8674 17.2773 20.1055 17.7623 20.202C18.2472 20.2984 18.7499 20.2489 19.2067 20.0597C19.6635 19.8705 20.054 19.5501 20.3287 19.1389C20.6034 18.7278 20.75 18.2445 20.75 17.75C20.7492 17.0872 20.4856 16.4518 20.0169 15.9831C19.5482 15.5144 18.9128 15.2508 18.25 15.25Z" fill="white"/>
<path d="M29.75 35.25C28.7611 35.25 27.7944 34.9568 26.9722 34.4074C26.1499 33.8579 25.509 33.0771 25.1306 32.1634C24.7522 31.2498 24.6531 30.2445 24.8461 29.2746C25.039 28.3046 25.5152 27.4137 26.2145 26.7145C26.9137 26.0152 27.8046 25.539 28.7746 25.3461C29.7445 25.1531 30.7498 25.2522 31.6634 25.6306C32.5771 26.009 33.3579 26.6499 33.9074 27.4722C34.4568 28.2944 34.75 29.2611 34.75 30.25C34.7486 31.5756 34.2213 32.8466 33.2839 33.7839C32.3466 34.7213 31.0756 35.2486 29.75 35.25ZM29.75 27.75C29.2556 27.75 28.7722 27.8966 28.3611 28.1713C27.95 28.446 27.6295 28.8365 27.4403 29.2933C27.2511 29.7501 27.2016 30.2528 27.298 30.7377C27.3945 31.2227 27.6326 31.6681 27.9822 32.0178C28.3319 32.3674 28.7773 32.6055 29.2623 32.702C29.7472 32.7984 30.2499 32.7489 30.7067 32.5597C31.1635 32.3705 31.554 32.0501 31.8287 31.6389C32.1034 31.2278 32.25 30.7445 32.25 30.25C32.2492 29.5872 31.9856 28.9518 31.5169 28.4831C31.0482 28.0144 30.4128 27.7508 29.75 27.75Z" fill="white"/>
</svg>
