<svg width="46" height="46" viewBox="0 0 46 46" fill="none" xmlns="http://www.w3.org/2000/svg">
<path d="M16.3661 7.21875C16.151 6.57293 16.0314 5.89915 16.0111 5.21875C11.9191 6.66585 8.37552 9.34421 5.86682 12.886C3.35812 16.4279 2.00739 20.6595 2.00009 24.9998C1.99035 28.2826 2.75867 31.5211 4.24209 34.4498L4.69209 35.3438L6.47909 34.4438L6.02709 33.5517C4.68608 30.901 3.99148 27.9704 4.00009 24.9998C4.00666 21.1296 5.19411 17.3537 7.4038 14.1764C9.61349 10.9991 12.7402 8.57175 16.3661 7.21875Z" fill="#D37FF0"/>
<path d="M39.9594 33.6338L39.4594 34.4988C38.0805 36.8918 36.1958 38.9549 33.937 40.5441C31.6781 42.1333 29.0996 43.2102 26.3815 43.6997C23.6633 44.1891 20.8711 44.0793 18.1998 43.3779C15.5285 42.6765 13.0425 41.4004 10.9154 39.6388C10.4631 40.1489 9.93812 40.5896 9.35742 40.9468C11.6983 42.9538 14.4527 44.4202 17.4248 45.2416C20.3968 46.063 23.5134 46.2192 26.5527 45.6991C29.592 45.1791 32.4792 43.9955 35.0091 42.2326C37.5389 40.4698 39.6491 38.1709 41.1894 35.4998L41.6894 34.6338L39.9594 33.6338Z" fill="#D37FF0"/>
<path d="M5.6792 40C8.44062 40 10.6792 37.7614 10.6792 35C10.6792 32.2386 8.44062 30 5.6792 30C2.91778 30 0.679199 32.2386 0.679199 35C0.679199 37.7614 2.91778 40 5.6792 40Z" fill="#645AED"/>
<path d="M42 25C41.9965 26.0581 41.9052 27.1141 41.727 28.157C42.3943 28.2929 43.0381 28.5257 43.638 28.848C44.2089 25.8163 44.1037 22.6959 43.33 19.7095C42.5563 16.7231 41.1332 13.9441 39.1621 11.5709C37.191 9.19774 34.7205 7.28872 31.9268 5.98005C29.1331 4.67138 26.085 3.9953 23 4.00002H22V6.00002H23C28.0374 6.00558 32.8669 8.00915 36.4289 11.5711C39.9909 15.1331 41.9944 19.9626 42 25Z" fill="#D37FF0"/>
<path d="M40.3213 40C43.0827 40 45.3213 37.7614 45.3213 35C45.3213 32.2386 43.0827 30 40.3213 30C37.5599 30 35.3213 32.2386 35.3213 35C35.3213 37.7614 37.5599 40 40.3213 40Z" fill="#645AED"/>
<path d="M23 10C25.7614 10 28 7.76142 28 5C28 2.23858 25.7614 0 23 0C20.2386 0 18 2.23858 18 5C18 7.76142 20.2386 10 23 10Z" fill="#645AED"/>
</svg>
