<svg width="14" height="14" viewBox="0 0 14 14" fill="none" xmlns="http://www.w3.org/2000/svg">
<g id="circle-out 1">
<g id="Group">
<g id="Group_2">
<path id="Vector" d="M3.20828 9.91654C3.28564 9.91654 3.35982 9.88581 3.41452 9.83111C3.46922 9.77641 3.49995 9.70223 3.49995 9.62487V7.58321H8.74995C8.90466 7.58321 9.05303 7.52175 9.16243 7.41235C9.27182 7.30295 9.33328 7.15458 9.33328 6.99987C9.33328 6.84516 9.27182 6.69679 9.16243 6.58739C9.05303 6.478 8.90466 6.41654 8.74995 6.41654H3.49995V4.37487C3.49994 4.31853 3.48361 4.26339 3.45293 4.21613C3.42226 4.16887 3.37855 4.1315 3.32709 4.10855C3.27564 4.0856 3.21863 4.07804 3.16297 4.08679C3.10731 4.09555 3.05538 4.12023 3.01345 4.15787L0.0967809 6.78287C0.066324 6.81023 0.0419662 6.84368 0.0252918 6.88107C0.00861744 6.91846 0 6.95894 0 6.99987C0 7.04081 0.00861744 7.08129 0.0252918 7.11867C0.0419662 7.15606 0.066324 7.18952 0.0967809 7.21687L3.01345 9.84187C3.06696 9.88993 3.13635 9.91653 3.20828 9.91654Z" fill="#506D84"/>
<path id="Vector_2" d="M9.33307 2.33325C8.58099 2.33371 7.84012 2.51568 7.17341 2.86371C6.5067 3.21174 5.93384 3.71555 5.50349 4.33234C5.41491 4.4592 5.38037 4.61605 5.40744 4.76838C5.43452 4.92072 5.521 5.05606 5.64786 5.14463C5.77472 5.2332 5.93157 5.26775 6.08391 5.24067C6.23624 5.2136 6.37158 5.12711 6.46015 5.00025C6.88589 4.38868 7.4957 3.92895 8.20083 3.68798C8.90596 3.44701 9.66959 3.43737 10.3806 3.66047C11.0916 3.88358 11.7128 4.32777 12.1538 4.92841C12.5948 5.52904 12.8327 6.25475 12.8327 6.99992C12.8327 7.74508 12.5948 8.4708 12.1538 9.07143C11.7128 9.67207 11.0916 10.1163 10.3806 10.3394C9.66959 10.5625 8.90596 10.5528 8.20083 10.3119C7.4957 10.0709 6.88589 9.61116 6.46015 8.99959C6.37158 8.87272 6.23624 8.78624 6.08391 8.75917C5.93157 8.73209 5.77472 8.76664 5.64786 8.85521C5.521 8.94378 5.43452 9.07912 5.40744 9.23146C5.38037 9.38379 5.41491 9.54064 5.50349 9.6675C5.96214 10.3259 6.58279 10.8548 7.3055 11.2034C8.02822 11.5519 8.82859 11.7082 9.62933 11.6571C10.4301 11.6061 11.2041 11.3495 11.8768 10.9121C12.5494 10.4746 13.0979 9.87114 13.4693 9.1599C13.8406 8.44866 14.0224 7.65367 13.9969 6.85171C13.9714 6.04976 13.7396 5.26791 13.3238 4.58168C12.908 3.89545 12.3223 3.32801 11.6233 2.93416C10.9242 2.5403 10.1354 2.33334 9.33307 2.33325Z" fill="#506D84"/>
</g>
</g>
</g>
</svg>
