<svg width="141" height="113" viewBox="0 0 141 113" fill="none" xmlns="http://www.w3.org/2000/svg">
<rect x="1" y="14" width="34" height="18" rx="5" fill="white" stroke="black" stroke-width="2"/>
<path d="M8 21H23" stroke="black" stroke-width="3" stroke-linecap="round"/>
<path d="M8 26H15" stroke="black" stroke-width="3" stroke-linecap="round"/>
<rect x="6" y="68" width="34" height="18" rx="5" fill="white" stroke="black" stroke-width="2"/>
<path d="M13 75H28" stroke="black" stroke-width="3" stroke-linecap="round"/>
<path d="M13 80H20" stroke="black" stroke-width="3" stroke-linecap="round"/>
<rect x="79" y="1" width="34" height="18" rx="5" fill="white" stroke="black" stroke-width="2"/>
<path d="M86 8H101" stroke="black" stroke-width="3" stroke-linecap="round"/>
<path d="M86 13H93" stroke="black" stroke-width="3" stroke-linecap="round"/>
<rect x="106" y="42" width="34" height="18" rx="5" fill="white" stroke="black" stroke-width="2"/>
<path d="M113 49H128" stroke="black" stroke-width="3" stroke-linecap="round"/>
<path d="M113 54H120" stroke="black" stroke-width="3" stroke-linecap="round"/>
<rect x="74" y="94" width="34" height="18" rx="5" fill="white" stroke="black" stroke-width="2"/>
<path d="M81 101H96" stroke="black" stroke-width="3" stroke-linecap="round"/>
<path d="M81 106H88" stroke="black" stroke-width="3" stroke-linecap="round"/>
<g clip-path="url(#clip0_768_136)">
<path d="M67 39C63.8355 39 60.7421 39.9384 58.1109 41.6965C55.4797 43.4546 53.4289 45.9534 52.2179 48.8771C51.0069 51.8007 50.6901 55.0177 51.3074 58.1214C51.9248 61.2251 53.4487 64.0761 55.6863 66.3137C57.9239 68.5513 60.7749 70.0752 63.8786 70.6926C66.9823 71.3099 70.1993 70.9931 73.1229 69.7821C76.0466 68.5711 78.5454 66.5203 80.3035 63.8891C82.0616 61.2579 83 58.1645 83 55C83 50.7565 81.3143 46.6869 78.3137 43.6863C75.3131 40.6857 71.2435 39 67 39ZM71.4067 46.6653L72.9747 44.508C73.0776 44.3663 73.2075 44.2462 73.3569 44.1546C73.5062 44.0631 73.6722 44.0018 73.8452 43.9744C74.0182 43.947 74.1949 43.9539 74.3653 43.9948C74.5356 44.0357 74.6963 44.1097 74.838 44.2127C74.9797 44.3156 75.0998 44.4455 75.1914 44.5948C75.2829 44.7442 75.3442 44.9101 75.3716 45.0832C75.399 45.2562 75.3921 45.4329 75.3512 45.6033C75.3103 45.7736 75.2363 45.9343 75.1333 46.076L73.5653 48.2333C73.3574 48.5196 73.0443 48.7115 72.6948 48.7669C72.3454 48.8223 71.9883 48.7366 71.702 48.5287C71.4158 48.3207 71.2238 48.0076 71.1684 47.6582C71.113 47.3087 71.1987 46.9516 71.4067 46.6653ZM59.1627 44.2133C59.3044 44.1097 59.4653 44.0352 59.636 43.9939C59.8066 43.9526 59.9838 43.9455 60.1572 43.9729C60.3307 44.0002 60.497 44.0616 60.6467 44.1534C60.7963 44.2453 60.9264 44.3658 61.0293 44.508L62.6 46.6653C62.8079 46.9525 62.8933 47.3105 62.8373 47.6605C62.7813 48.0106 62.5885 48.3241 62.3013 48.532C62.0142 48.7399 61.6562 48.8253 61.3062 48.7693C60.9561 48.7133 60.6426 48.5205 60.4347 48.2333L58.8667 46.076C58.7638 45.9343 58.6898 45.7737 58.649 45.6033C58.6082 45.433 58.6013 45.2563 58.6288 45.0833C58.6563 44.9104 58.7176 44.7445 58.8092 44.5952C58.9008 44.4459 59.0209 44.3162 59.1627 44.2133ZM58.536 59.1467L56.0027 59.9707C55.8342 60.0334 55.6548 60.0614 55.4753 60.053C55.2958 60.0446 55.1198 59.9999 54.9579 59.9218C54.796 59.8437 54.6517 59.7336 54.5334 59.5982C54.4152 59.4629 54.3255 59.305 54.2698 59.1341C54.2142 58.9632 54.1936 58.7828 54.2094 58.6038C54.2252 58.4247 54.2771 58.2507 54.3619 58.0922C54.4466 57.9338 54.5626 57.794 54.7027 57.6815C54.8428 57.5689 55.0043 57.4859 55.1773 57.4373L57.7107 56.6133C57.8793 56.55 58.059 56.5214 58.239 56.5295C58.4189 56.5375 58.5954 56.5819 58.7577 56.66C58.9201 56.7381 59.0649 56.8483 59.1835 56.9839C59.302 57.1195 59.3919 57.2777 59.4476 57.4491C59.5033 57.6204 59.5237 57.8012 59.5076 57.9806C59.4916 58.16 59.4393 58.3343 59.3539 58.493C59.2686 58.6516 59.152 58.7913 59.0112 58.9037C58.8704 59.016 58.7096 59.0987 58.536 59.1467ZM68.3333 67C68.3333 67.3536 68.1929 67.6928 67.9428 67.9428C67.6928 68.1929 67.3536 68.3333 67 68.3333C66.6464 68.3333 66.3072 68.1929 66.0572 67.9428C65.8072 67.6928 65.6667 67.3536 65.6667 67V64.3333C65.6667 63.9797 65.8072 63.6406 66.0572 63.3905C66.3072 63.1405 66.6464 63 67 63C67.3536 63 67.6928 63.1405 67.9428 63.3905C68.1929 63.6406 68.3333 63.9797 68.3333 64.3333V67ZM67 59.2667L61.9813 61.9067L62.94 56.3187L58.88 52.3613L64.4907 51.5467L67 46.4667L69.5093 51.5467L75.12 52.3613L71.06 56.3187L72.0187 61.9067L67 59.2667ZM78 59.9733L75.4667 59.1493C75.293 59.1014 75.1309 59.0187 74.9901 58.9064C74.8493 58.794 74.7327 58.6543 74.6474 58.4956C74.5621 58.337 74.5098 58.1627 74.4937 57.9833C74.4776 57.8038 74.498 57.623 74.5538 57.4517C74.6095 57.2804 74.6993 57.1222 74.8179 56.9866C74.9365 56.8509 75.0813 56.7407 75.2436 56.6626C75.4059 56.5845 75.5824 56.5401 75.7624 56.5321C75.9423 56.5241 76.122 56.5526 76.2907 56.616L78.824 57.44C78.9971 57.4886 79.1585 57.5716 79.2986 57.6842C79.4388 57.7967 79.5547 57.9364 79.6395 58.0949C79.7243 58.2534 79.7761 58.4274 79.7919 58.6064C79.8077 58.7855 79.7872 58.9659 79.7315 59.1368C79.6758 59.3077 79.5862 59.4655 79.4679 59.6009C79.3497 59.7363 79.2053 59.8463 79.0434 59.9245C78.8816 60.0026 78.7056 60.0472 78.5261 60.0556C78.3465 60.064 78.1685 60.036 78 59.9733Z" fill="#212121"/>
</g>
<path d="M37.2905 32.5928L51.2905 42.5928" stroke="#999999" stroke-width="2" stroke-linecap="round"/>
<path d="M79.458 21.2002L72.8588 36.284" stroke="#999999" stroke-width="2" stroke-linecap="round"/>
<path d="M86.9644 51.501L100.964 50.501" stroke="#999999" stroke-width="2" stroke-linecap="round"/>
<path d="M69.4717 73.834L75.4717 90.834" stroke="#999999" stroke-width="2" stroke-linecap="round"/>
<path d="M42.8032 67.54L49.8032 64.54" stroke="#999999" stroke-width="2" stroke-linecap="round"/>
<defs>
<clipPath id="clip0_768_136">
<rect width="32" height="32" fill="white" transform="translate(51 39)"/>
</clipPath>
</defs>
</svg>
