<svg width="48" height="48" viewBox="0 0 48 48" fill="none" xmlns="http://www.w3.org/2000/svg">
<g id="fuel-electric 1">
<g id="Group">
<g id="Group_2">
<path id="Vector" d="M37.5 39C34.4673 39 32 36.5327 32 33.5V30C32 29.4478 32.4477 29 33 29C33.5523 29 34 29.4478 34 30V33.5C34 35.4297 35.5703 37 37.5 37C39.4297 37 41 35.4297 41 33.5V22C41 21.4477 41.4478 21 42 21C42.5522 21 43 21.4477 43 22V33.5C43 36.5327 40.5327 39 37.5 39Z" fill="#223E49"/>
<path id="Vector_2" d="M45 15C44.4477 15 44 14.5522 44 14V11C44 10.4477 44.4477 10 45 10C45.5523 10 46 10.4477 46 11V14C46 14.5522 45.5523 15 45 15Z" fill="#223E49"/>
<path id="Vector_3" d="M39 15C38.4477 15 38 14.5522 38 14V11C38 10.4477 38.4477 10 39 10C39.5523 10 40 10.4477 40 11V14C40 14.5522 39.5523 15 39 15Z" fill="#223E49"/>
<path id="Vector_4" d="M29 3H9C6.24316 3 4 5.24316 4 8V44C4 44.5522 4.44775 45 5 45H33C33.5522 45 34 44.5522 34 44V8C34 5.24316 31.7568 3 29 3Z" fill="#335262"/>
<path id="Vector_5" d="M36 45H2C1.44775 45 1 44.5523 1 44C1 43.4477 1.44775 43 2 43H36C36.5522 43 37 43.4477 37 44C37 44.5523 36.5522 45 36 45Z" fill="#5A7A84"/>
<g id="Group_3">
<g id="Group_4">
<path id="Vector_6" d="M23.4074 18.8694C23.2966 18.7337 23.1985 18.6121 23.1158 18.5049C23.0656 18.4395 22.9985 18.389 22.9218 18.3589C22.845 18.3289 22.7615 18.3204 22.6802 18.3343C22.599 18.3483 22.5231 18.3842 22.4608 18.4382C22.3985 18.4922 22.3521 18.5622 22.3267 18.6406C22.0778 19.4005 21.6994 20.1116 21.208 20.7424C21.2369 18.9463 20.881 15.7769 18.2782 14.0698C18.2099 14.025 18.1307 13.9995 18.049 13.996C17.9674 13.9926 17.8863 14.0113 17.8144 14.0503C17.7426 14.0893 17.6826 14.147 17.641 14.2173C17.5993 14.2876 17.5775 14.3679 17.5778 14.4497C17.5778 15.9311 16.7842 17.5097 15.4046 18.7794C14.0697 20.0085 10.9681 23.2565 11.0002 26.8546C11.0215 29.2164 12.1569 32.4292 14.999 33.9422C15.0607 33.9752 15.1293 33.9934 15.1993 33.9954C15.2693 33.9974 15.3388 33.9831 15.4023 33.9536C15.4658 33.9242 15.5217 33.8804 15.5654 33.8257C15.6091 33.7709 15.6395 33.7068 15.6542 33.6384C15.9183 32.6527 16.3534 31.721 16.9398 30.8859C17.5773 29.8621 18.1801 28.8962 18.2353 27.5447C18.2387 27.458 18.2671 27.3741 18.3169 27.3031C18.3667 27.232 18.4359 27.1768 18.5162 27.144C18.5965 27.1112 18.6846 27.1022 18.7699 27.1181C18.8552 27.134 18.9341 27.174 18.9972 27.2335C20.6016 28.7434 21.5467 30.8999 21.7827 33.5118C21.7903 33.5853 21.8159 33.6558 21.8571 33.7171C21.8982 33.7785 21.9538 33.8288 22.019 33.8637C22.0841 33.8986 22.1568 33.917 22.2307 33.9173C22.3047 33.9176 22.3775 33.8998 22.4429 33.8654C24.4855 32.7742 26.0903 30.7 26.3462 27.4963C26.7107 22.9377 24.4796 20.1898 23.4074 18.8694Z" fill="#F9CD6C"/>
</g>
</g>
<path id="Vector_7" d="M46 13H38C37.4477 13 37 13.4477 37 14V18C37 20.7568 39.2432 23 42 23C44.7568 23 47 20.7568 47 18V14C47 13.4477 46.5522 13 46 13Z" fill="#5A7A84"/>
</g>
</g>
</g>
</svg>
