<svg width="48" height="48" viewBox="0 0 48 48" fill="none" xmlns="http://www.w3.org/2000/svg">
<path d="M24 47C36.7025 47 47 36.7025 47 24C47 11.2975 36.7025 1 24 1C11.2975 1 1 11.2975 1 24C1 36.7025 11.2975 47 24 47Z" fill="#F8D34C"/>
<path d="M24 39.9999C23.7348 39.9999 23.4804 39.8945 23.2929 39.707C23.1054 39.5194 23 39.2651 23 38.9999V35.9999C23 35.7347 23.1054 35.4803 23.2929 35.2928C23.4804 35.1052 23.7348 34.9999 24 34.9999C24.2652 34.9999 24.5196 35.1052 24.7071 35.2928C24.8946 35.4803 25 35.7347 25 35.9999V38.9999C25 39.2651 24.8946 39.5194 24.7071 39.707C24.5196 39.8945 24.2652 39.9999 24 39.9999Z" fill="#BB991D"/>
<path d="M39.217 28.9439C39.135 29.1961 38.9562 29.4054 38.7199 29.5258C38.4837 29.6462 38.2092 29.6678 37.957 29.5859L35.1 28.6589C34.9698 28.6229 34.8482 28.5609 34.7426 28.4766C34.637 28.3924 34.5495 28.2876 34.4855 28.1686C34.4216 28.0496 34.3823 27.9189 34.3703 27.7843C34.3582 27.6498 34.3735 27.5141 34.4153 27.3857C34.4571 27.2572 34.5245 27.1385 34.6134 27.0368C34.7023 26.9351 34.8109 26.8524 34.9327 26.7939C35.0544 26.7353 35.1868 26.702 35.3218 26.696C35.4567 26.6899 35.5915 26.7113 35.718 26.7589L38.571 27.6859C38.8235 27.767 39.0334 27.9452 39.1545 28.1811C39.2757 28.417 39.2981 28.6914 39.217 28.9439Z" fill="#BB991D"/>
<path d="M33.405 11.0559C33.5117 11.1331 33.602 11.2306 33.6709 11.3429C33.7398 11.4551 33.7858 11.5799 33.8064 11.71C33.8269 11.84 33.8215 11.9729 33.7906 12.1009C33.7596 12.2289 33.7037 12.3495 33.626 12.4559L31.862 14.8799C31.7055 15.0944 31.4702 15.238 31.2079 15.2791C30.9455 15.3202 30.6776 15.2553 30.463 15.0989C30.2484 14.9424 30.1048 14.7071 30.0638 14.4447C30.0227 14.1824 30.0875 13.9144 30.244 13.6999L32.008 11.2729C32.1645 11.0589 32.3996 10.9159 32.6616 10.8752C32.9235 10.8345 33.1909 10.8995 33.405 11.0559Z" fill="#BB991D"/>
<path d="M14.6 11.0559C14.7063 10.9782 14.827 10.9222 14.955 10.8913C15.083 10.8603 15.2158 10.855 15.3459 10.8755C15.476 10.896 15.6007 10.9421 15.713 11.0109C15.8252 11.0798 15.9228 11.1702 16 11.2769L17.756 13.6999C17.9119 13.9144 17.9763 14.1822 17.9348 14.4441C17.8934 14.7061 17.7496 14.9409 17.535 15.0969C17.3204 15.2528 17.0527 15.3171 16.7907 15.2757C16.5287 15.2343 16.2939 15.0904 16.138 14.8759L14.374 12.4489C14.2198 12.234 14.157 11.9668 14.1994 11.7057C14.2417 11.4446 14.3858 11.211 14.6 11.0559Z" fill="#BB991D"/>
<path d="M8.783 28.9439C8.70106 28.6916 8.72267 28.4172 8.84306 28.1809C8.96346 27.9446 9.17279 27.7658 9.425 27.6839L12.278 26.7569C12.4045 26.7093 12.5393 26.6879 12.6742 26.694C12.8092 26.7 12.9416 26.7333 13.0633 26.7919C13.185 26.8504 13.2937 26.9331 13.3826 27.0348C13.4715 27.1365 13.5389 27.2552 13.5807 27.3837C13.6225 27.5121 13.6378 27.6478 13.6257 27.7823C13.6137 27.9169 13.5744 28.0476 13.5105 28.1666C13.4465 28.2856 13.359 28.3904 13.2534 28.4746C13.1478 28.5589 13.0262 28.6209 12.896 28.6569L10.043 29.5839C9.79104 29.6659 9.51682 29.6446 9.28058 29.5246C9.04433 29.4046 8.86537 29.1957 8.783 28.9439Z" fill="#BB991D"/>
<path d="M30.181 33.4779C30.0188 33.4778 29.8592 33.438 29.716 33.3619L24 30.3619L18.284 33.3619C18.119 33.4483 17.9331 33.487 17.7472 33.4734C17.5614 33.4599 17.3831 33.3947 17.2323 33.2852C17.0816 33.1757 16.9644 33.0263 16.894 32.8538C16.8236 32.6813 16.8028 32.4926 16.834 32.3089L17.926 25.9439L13.3 21.4379C13.1663 21.3076 13.0717 21.1426 13.0269 20.9614C12.9821 20.7802 12.989 20.5901 13.0466 20.4126C13.1042 20.2351 13.2104 20.0773 13.3531 19.957C13.4958 19.8367 13.6693 19.7587 13.854 19.7319L20.244 18.8039L23.102 13.0139C23.1937 12.8577 23.3246 12.7282 23.4818 12.6382C23.6389 12.5482 23.8169 12.5009 23.998 12.5009C24.1791 12.5009 24.3571 12.5482 24.5142 12.6382C24.6714 12.7282 24.8023 12.8577 24.894 13.0139L27.752 18.8039L34.142 19.7319C34.3267 19.7587 34.5002 19.8367 34.6429 19.957C34.7856 20.0773 34.8918 20.2351 34.9494 20.4126C35.007 20.5901 35.0139 20.7802 34.9691 20.9614C34.9243 21.1426 34.8297 21.3076 34.696 21.4379L30.072 25.9439L31.164 32.3089C31.1886 32.4523 31.1816 32.5995 31.1434 32.74C31.1053 32.8804 31.0369 33.0109 30.9431 33.1222C30.8493 33.2336 30.7323 33.3231 30.6003 33.3845C30.4684 33.4459 30.3246 33.4778 30.179 33.4779H30.181Z" fill="#BB991D"/>
</svg>
