<svg width="48" height="48" viewBox="0 0 48 48" fill="none" xmlns="http://www.w3.org/2000/svg">
<path d="M24 46C22.8955 46 22 45.1045 22 44V38C22 36.8955 22.8955 36 24 36C25.1045 36 26 36.8955 26 38V44C26 45.1045 25.1045 46 24 46Z" fill="#A67C52"/>
<path d="M14.8945 3.55322C14.5557 2.87549 13.4443 2.87549 13.1055 3.55322L3.10547 23.5532C2.95068 23.8633 2.96729 24.2314 3.14942 24.5264C3.33154 24.8208 3.65332 25.0005 4 25.0005H16.125C16.6772 25.0005 17.125 24.5527 17.125 24.0005C17.125 23.5909 16.8774 23.2409 16.525 23.0863L19.4044 16.5048C19.6668 16.6195 19.9706 16.6332 20.2471 16.4951C20.7412 16.2481 20.9414 15.6475 20.6943 15.1533L14.8945 3.55322Z" fill="#4DA34D"/>
<path d="M44.8945 23.5532L34.8945 3.55322C34.5557 2.87549 33.4443 2.87549 33.1055 3.55322L27.3057 15.1533C27.0586 15.6475 27.2588 16.2481 27.7529 16.4951C28.0299 16.6332 28.3335 16.6192 28.5955 16.5045L31.4751 23.0863C31.1226 23.2409 30.875 23.5909 30.875 24.0005C30.875 24.5527 31.3228 25.0005 31.875 25.0005H44C44.3467 25.0005 44.6685 24.8208 44.8506 24.5264C45.0327 24.2315 45.0493 23.8633 44.8945 23.5532Z" fill="#4DA34D"/>
<path d="M38 39H10C9.6626 39 9.34766 38.8296 9.16309 38.5474C8.97852 38.2651 8.94873 37.9082 9.08399 37.5991L23.084 5.59912C23.2432 5.23535 23.6025 5 24 5C24.3975 5 24.7568 5.23535 24.916 5.59912L38.916 37.5991C39.0513 37.9082 39.0215 38.2651 38.8369 38.5474C38.6524 38.8296 38.3374 39 38 39Z" fill="#72C472"/>
</svg>
