<svg width="28" height="28" viewBox="0 0 28 28" fill="none" xmlns="http://www.w3.org/2000/svg">
<rect width="28" height="28" rx="14" fill="#F1F3F8" fill-opacity="0.866667"/>
<g clip-path="url(#clip0_5251_58770)">
<path d="M17 10H16V9H12V10H11V8.5C11 8.36739 11.0527 8.24021 11.1464 8.14645C11.2402 8.05268 11.3674 8 11.5 8H16.5C16.6326 8 16.7598 8.05268 16.8536 8.14645C16.9473 8.24021 17 8.36739 17 8.5V10Z" fill="#999999"/>
<path d="M12 15V14.5C12 14.3674 12.0527 14.2402 12.1464 14.1464C12.2402 14.0527 12.3674 14 12.5 14H15.5C15.6326 14 15.7598 14.0527 15.8536 14.1464C15.9473 14.2402 16 14.3674 16 14.5V15H20V12C20 11.7348 19.8946 11.4804 19.7071 11.2929C19.5196 11.1054 19.2652 11 19 11H9C8.73478 11 8.48043 11.1054 8.29289 11.2929C8.10536 11.4804 8 11.7348 8 12V15H12Z" fill="#999999"/>
<path d="M16 16V16.5C16 16.6326 15.9473 16.7598 15.8536 16.8536C15.7598 16.9473 15.6326 17 15.5 17H12.5C12.3674 17 12.2402 16.9473 12.1464 16.8536C12.0527 16.7598 12 16.6326 12 16.5V16H8V19C8 19.2652 8.10536 19.5196 8.29289 19.7071C8.48043 19.8946 8.73478 20 9 20H19C19.2652 20 19.5196 19.8946 19.7071 19.7071C19.8946 19.5196 20 19.2652 20 19V16H16Z" fill="#999999"/>
</g>
<defs>
<clipPath id="clip0_5251_58770">
<rect width="12" height="12" fill="white" transform="translate(8 8)"/>
</clipPath>
</defs>
</svg>
