<svg width="48" height="48" viewBox="0 0 48 48" fill="none" xmlns="http://www.w3.org/2000/svg">
<rect x="1" y="1" width="46" height="46" rx="23" fill="#DC2626"/>
<g clip-path="url(#clip0_1261_37758)">
<path d="M19.2565 32.8099L15.1906 28.7441C15.0109 28.5643 14.7672 28.4634 14.513 28.4634C14.2588 28.4634 14.0151 28.5643 13.8353 28.7441C13.6556 28.9238 13.5547 29.1675 13.5547 29.4217C13.5547 29.6759 13.6556 29.9196 13.8353 30.0993L17.9012 34.1652C18.0809 34.3449 18.3247 34.4459 18.5788 34.4459C18.833 34.4459 19.0768 34.3449 19.2565 34.1652C19.4362 33.9855 19.5372 33.7417 19.5372 33.4876C19.5372 33.2334 19.4362 32.9896 19.2565 32.8099Z" fill="white"/>
<path d="M26.7106 26.7102L29.4212 29.4208C29.5487 29.5485 29.7097 29.6376 29.8857 29.6778C30.0616 29.718 30.2454 29.7077 30.4157 29.6481C30.5861 29.5885 30.7362 29.4819 30.8486 29.3408C30.9611 29.1996 31.0315 29.0296 31.0516 28.8502L32.4069 16.6526C32.4171 16.5108 32.3967 16.3685 32.3471 16.2352C32.2975 16.102 32.2197 15.981 32.1192 15.8804C32.0187 15.7799 31.8977 15.7022 31.7644 15.6525C31.6312 15.6029 31.4888 15.5825 31.347 15.5928L19.1494 16.9481C18.9701 16.9682 18.8 17.0385 18.6588 17.151C18.5177 17.2635 18.4112 17.4135 18.3516 17.5839C18.2919 17.7543 18.2816 17.938 18.3219 18.114C18.3621 18.2899 18.4511 18.4509 18.5788 18.5785L21.2894 21.2891L16.5459 26.0326C16.3662 26.2123 16.2652 26.456 16.2652 26.7102C16.2652 26.9644 16.3662 27.2081 16.5459 27.3879L20.6118 31.4537C20.7915 31.6334 21.0353 31.7344 21.2894 31.7344C21.5436 31.7344 21.7873 31.6334 21.9671 31.4537L26.7106 26.7102Z" fill="white"/>
</g>
<defs>
<clipPath id="clip0_1261_37758">
<rect width="23" height="23" fill="white" transform="translate(24 7.73633) rotate(45)"/>
</clipPath>
</defs>
</svg>
