<svg width="90" height="26" viewBox="0 0 90 26" fill="none" xmlns="http://www.w3.org/2000/svg">
<rect x="0.5" y="0.5" width="89" height="25" rx="12.5" fill="white"/>
<rect x="0.5" y="0.5" width="89" height="25" rx="12.5" fill="url(#paint0_linear_331_1047)" fill-opacity="0.2"/>
<g clip-path="url(#clip0_331_1047)">
<path d="M20.3 6.33601C19.554 6.11301 18.779 5.99901 18 6.00001C13.586 5.99601 10.004 9.57201 10 13.986C10 14.765 10.112 15.54 10.336 16.286C10.462 16.71 10.852 17 11.294 17H14.348C14.283 16.406 14.217 15.723 14.152 15H12.085C12.028 14.67 12 14.335 12 14C12 10.686 14.686 8.00001 18 8.00001C21.314 8.00001 24 10.686 24 14C24 14.335 23.972 14.67 23.915 15H20.408C20.885 15.91 21.251 16.659 21.35 16.984C21.352 16.989 21.352 16.994 21.353 17H24.706C25.148 17 25.538 16.71 25.664 16.286C26.93 12.057 24.529 7.60201 20.3 6.33601Z" fill="#E85C51"/>
<path d="M19.9139 17.4193C19.6649 16.5973 16.6059 11.1903 16.2579 10.5763C16.1439 10.3743 15.9079 10.2773 15.6779 10.3443C15.4539 10.4123 15.3079 10.6263 15.3239 10.8593C15.3759 11.5633 15.8369 17.7583 16.0859 18.5803C16.3479 19.4423 17.1429 19.9993 18.0009 19.9993C18.1929 19.9993 18.3879 19.9713 18.5809 19.9133C19.6359 19.5933 20.2329 18.4753 19.9139 17.4193Z" fill="#E85C51"/>
</g>
<path d="M32.8789 17.5V9.5H34.0859V12.9766H38.0742V9.5H39.2852V17.5H38.0742V14.0117H34.0859V17.5H32.8789ZM40.7492 17.5V11.5H41.9172V17.5H40.7492ZM41.3391 10.5742C41.1359 10.5742 40.9615 10.5065 40.8156 10.3711C40.6724 10.2331 40.6008 10.069 40.6008 9.87891C40.6008 9.6862 40.6724 9.52214 40.8156 9.38672C40.9615 9.2487 41.1359 9.17969 41.3391 9.17969C41.5422 9.17969 41.7154 9.2487 41.8586 9.38672C42.0044 9.52214 42.0773 9.6862 42.0773 9.87891C42.0773 10.069 42.0044 10.2331 41.8586 10.3711C41.7154 10.5065 41.5422 10.5742 41.3391 10.5742ZM45.8041 19.875C45.3275 19.875 44.9174 19.8125 44.5736 19.6875C44.2325 19.5625 43.9538 19.3971 43.7377 19.1914C43.5215 18.9857 43.3601 18.7604 43.2533 18.5156L44.2572 18.1016C44.3275 18.2161 44.4213 18.3372 44.5385 18.4648C44.6583 18.5951 44.8197 18.7057 45.0229 18.7969C45.2286 18.888 45.4929 18.9336 45.8158 18.9336C46.2585 18.9336 46.6244 18.8255 46.9135 18.6094C47.2025 18.3958 47.3471 18.0547 47.3471 17.5859V16.4062H47.2729C47.2025 16.5339 47.101 16.6758 46.9682 16.832C46.838 16.9883 46.6583 17.1237 46.4291 17.2383C46.1999 17.3529 45.9018 17.4102 45.5346 17.4102C45.0606 17.4102 44.6335 17.2995 44.2533 17.0781C43.8757 16.8542 43.5762 16.5247 43.3549 16.0898C43.1361 15.6523 43.0268 15.1146 43.0268 14.4766C43.0268 13.8385 43.1348 13.2917 43.351 12.8359C43.5697 12.3802 43.8692 12.0312 44.2494 11.7891C44.6296 11.5443 45.0606 11.4219 45.5424 11.4219C45.9148 11.4219 46.2156 11.4844 46.4447 11.6094C46.6739 11.7318 46.8523 11.875 46.9799 12.0391C47.1101 12.2031 47.2104 12.3477 47.2807 12.4727H47.3666V11.5H48.5111V17.6328C48.5111 18.1484 48.3913 18.5716 48.1518 18.9023C47.9122 19.2331 47.588 19.4779 47.1791 19.6367C46.7729 19.7956 46.3145 19.875 45.8041 19.875ZM45.7924 16.4414C46.1283 16.4414 46.4122 16.3633 46.6439 16.207C46.8783 16.0482 47.0554 15.8216 47.1752 15.5273C47.2976 15.2305 47.3588 14.875 47.3588 14.4609C47.3588 14.0573 47.2989 13.7018 47.1791 13.3945C47.0593 13.0872 46.8835 12.8477 46.6518 12.6758C46.42 12.5013 46.1335 12.4141 45.7924 12.4141C45.4408 12.4141 45.1479 12.5052 44.9135 12.6875C44.6791 12.8672 44.502 13.112 44.3822 13.4219C44.265 13.7318 44.2064 14.0781 44.2064 14.4609C44.2064 14.8542 44.2663 15.1992 44.3861 15.4961C44.5059 15.793 44.683 16.0247 44.9174 16.1914C45.1544 16.3581 45.446 16.4414 45.7924 16.4414ZM51.0455 13.9375V17.5H49.8775V9.5H51.0299V12.4766H51.1041C51.2447 12.1536 51.4596 11.8971 51.7486 11.707C52.0377 11.5169 52.4153 11.4219 52.8814 11.4219C53.2929 11.4219 53.6523 11.5065 53.9596 11.6758C54.2695 11.8451 54.509 12.0977 54.6783 12.4336C54.8502 12.7669 54.9361 13.1836 54.9361 13.6836V17.5H53.7682V13.8242C53.7682 13.3841 53.6549 13.043 53.4283 12.8008C53.2018 12.556 52.8867 12.4336 52.483 12.4336C52.207 12.4336 51.9596 12.4922 51.7408 12.6094C51.5247 12.7266 51.3541 12.8984 51.2291 13.125C51.1067 13.349 51.0455 13.6198 51.0455 13.9375ZM59.0996 17.5V9.5H61.9512C62.571 9.5 63.0853 9.60677 63.4941 9.82031C63.9056 10.0339 64.2129 10.3294 64.416 10.707C64.6191 11.082 64.7207 11.5156 64.7207 12.0078C64.7207 12.4974 64.6178 12.9284 64.4121 13.3008C64.209 13.6706 63.9017 13.9583 63.4902 14.1641C63.0814 14.3698 62.5671 14.4727 61.9473 14.4727H59.7871V13.4336H61.8379C62.2285 13.4336 62.5462 13.3776 62.791 13.2656C63.0384 13.1536 63.2194 12.9909 63.334 12.7773C63.4486 12.5638 63.5059 12.3073 63.5059 12.0078C63.5059 11.7057 63.4473 11.444 63.3301 11.2227C63.2155 11.0013 63.0345 10.832 62.7871 10.7148C62.5423 10.5951 62.2207 10.5352 61.8223 10.5352H60.3066V17.5H59.0996ZM63.0488 13.8906L65.0254 17.5H63.6504L61.7129 13.8906H63.0488ZM65.8957 17.5V11.5H67.0637V17.5H65.8957ZM66.4855 10.5742C66.2824 10.5742 66.1079 10.5065 65.9621 10.3711C65.8189 10.2331 65.7473 10.069 65.7473 9.87891C65.7473 9.6862 65.8189 9.52214 65.9621 9.38672C66.1079 9.2487 66.2824 9.17969 66.4855 9.17969C66.6887 9.17969 66.8618 9.2487 67.0051 9.38672C67.1509 9.52214 67.2238 9.6862 67.2238 9.87891C67.2238 10.069 67.1509 10.2331 67.0051 10.3711C66.8618 10.5065 66.6887 10.5742 66.4855 10.5742ZM72.9311 12.9648L71.8725 13.1523C71.8282 13.0169 71.7579 12.888 71.6615 12.7656C71.5678 12.6432 71.4402 12.543 71.2787 12.4648C71.1173 12.3867 70.9154 12.3477 70.6732 12.3477C70.3425 12.3477 70.0665 12.4219 69.8451 12.5703C69.6238 12.7161 69.5131 12.9049 69.5131 13.1367C69.5131 13.3372 69.5873 13.4987 69.7357 13.6211C69.8842 13.7435 70.1238 13.8437 70.4545 13.9219L71.4076 14.1406C71.9597 14.2682 72.3712 14.4648 72.642 14.7305C72.9128 14.9961 73.0482 15.3411 73.0482 15.7656C73.0482 16.125 72.9441 16.4453 72.7357 16.7266C72.53 17.0052 72.2423 17.224 71.8725 17.3828C71.5053 17.5417 71.0795 17.6211 70.5951 17.6211C69.9232 17.6211 69.3751 17.4779 68.9506 17.1914C68.5261 16.9023 68.2657 16.4922 68.1693 15.9609L69.2982 15.7891C69.3686 16.0833 69.5131 16.306 69.7318 16.457C69.9506 16.6055 70.2357 16.6797 70.5873 16.6797C70.9701 16.6797 71.2761 16.6003 71.5053 16.4414C71.7344 16.2799 71.849 16.0833 71.849 15.8516C71.849 15.6641 71.7787 15.5065 71.6381 15.3789C71.5001 15.2513 71.2878 15.1549 71.0014 15.0898L69.9857 14.8672C69.4258 14.7396 69.0118 14.5365 68.7436 14.2578C68.4779 13.9792 68.3451 13.6263 68.3451 13.1992C68.3451 12.8451 68.4441 12.5352 68.642 12.2695C68.8399 12.0039 69.1133 11.7969 69.4623 11.6484C69.8113 11.4974 70.211 11.4219 70.6615 11.4219C71.31 11.4219 71.8204 11.5625 72.1928 11.8437C72.5652 12.1224 72.8113 12.4961 72.9311 12.9648ZM75.2066 15.4648L75.1988 14.0391H75.402L77.7926 11.5H79.191L76.4645 14.3906H76.2809L75.2066 15.4648ZM74.1324 17.5V9.5H75.3004V17.5H74.1324ZM77.9215 17.5L75.773 14.6484L76.5777 13.832L79.3551 17.5H77.9215Z" fill="#282B2F"/>
<rect x="0.5" y="0.5" width="89" height="25" rx="12.5" stroke="#CCCCCC"/>
<defs>
<linearGradient id="paint0_linear_331_1047" x1="45" y1="0" x2="45" y2="26" gradientUnits="userSpaceOnUse">
<stop stop-color="#FBFBFB"/>
<stop offset="1" stop-color="#F9FAFA"/>
</linearGradient>
<clipPath id="clip0_331_1047">
<rect width="16" height="16" fill="white" transform="translate(10 5)"/>
</clipPath>
</defs>
</svg>
