<svg width="48" height="48" viewBox="0 0 48 48" fill="none" xmlns="http://www.w3.org/2000/svg">
<path d="M24 47C36.7025 47 47 36.7025 47 24C47 11.2975 36.7025 1 24 1C11.2975 1 1 11.2975 1 24C1 36.7025 11.2975 47 24 47Z" fill="black"/>
<g clip-path="url(#clip0_1261_37992)">
<path d="M35 24H31C30.4477 24 30 24.4477 30 25V27C30 27.5523 30.4477 28 31 28H35C35.5523 28 36 27.5523 36 27V25C36 24.4477 35.5523 24 35 24Z" fill="white"/>
<path d="M17 24H13C12.4477 24 12 24.4477 12 25V27C12 27.5523 12.4477 28 13 28H17C17.5523 28 18 27.5523 18 27V25C18 24.4477 17.5523 24 17 24Z" fill="white"/>
<path d="M35 32H13C12.4477 32 12 32.4477 12 33V35C12 35.5523 12.4477 36 13 36H35C35.5523 36 36 35.5523 36 35V33C36 32.4477 35.5523 32 35 32Z" fill="white"/>
<path d="M23 27.9992H25C25.2652 27.9992 25.5196 27.8939 25.7071 27.7063C25.8946 27.5188 26 27.2645 26 26.9992V19.9992H29C29.19 19.9992 29.3761 19.945 29.5364 19.843C29.6967 19.741 29.8247 19.5954 29.9052 19.4233C29.9858 19.2513 30.0157 19.0598 29.9914 18.8713C29.9671 18.6829 29.8896 18.5052 29.768 18.3592L24.768 12.3592C24.671 12.2517 24.5526 12.1657 24.4203 12.1068C24.288 12.048 24.1448 12.0176 24 12.0176C23.8552 12.0176 23.712 12.048 23.5797 12.1068C23.4474 12.1657 23.329 12.2517 23.232 12.3592L18.232 18.3592C18.1104 18.5052 18.0329 18.6829 18.0086 18.8713C17.9843 19.0598 18.0142 19.2513 18.0948 19.4233C18.1753 19.5954 18.3033 19.741 18.4636 19.843C18.6239 19.945 18.81 19.9992 19 19.9992H22V26.9992C22 27.2645 22.1054 27.5188 22.2929 27.7063C22.4804 27.8939 22.7348 27.9992 23 27.9992Z" fill="white"/>
</g>
<defs>
<clipPath id="clip0_1261_37992">
<rect width="24" height="24" fill="white" transform="translate(12 12)"/>
</clipPath>
</defs>
</svg>
