<svg width="10" height="10" viewBox="0 0 10 10" fill="none" xmlns="http://www.w3.org/2000/svg">
<path d="M5 6.25C5.69036 6.25 6.25 5.69036 6.25 5C6.25 4.30964 5.69036 3.75 5 3.75C4.30964 3.75 3.75 4.30964 3.75 5C3.75 5.69036 4.30964 6.25 5 6.25Z" fill="#666666"/>
<path d="M1.25 6.25C1.94036 6.25 2.5 5.69036 2.5 5C2.5 4.30964 1.94036 3.75 1.25 3.75C0.559644 3.75 0 4.30964 0 5C0 5.69036 0.559644 6.25 1.25 6.25Z" fill="#666666"/>
<path d="M8.75 6.25C9.44036 6.25 10 5.69036 10 5C10 4.30964 9.44036 3.75 8.75 3.75C8.05964 3.75 7.5 4.30964 7.5 5C7.5 5.69036 8.05964 6.25 8.75 6.25Z" fill="#666666"/>
</svg>
