<svg width="40" height="40" viewBox="0 0 40 40" fill="none" xmlns="http://www.w3.org/2000/svg">
<g clip-path="url(#clip0_1261_38140)">
<mask id="mask0_1261_38140" style="mask-type:luminance" maskUnits="userSpaceOnUse" x="0" y="0" width="40" height="40">
<path d="M0 0H40V40H0V0Z" fill="white"/>
</mask>
<g mask="url(#mask0_1261_38140)">
<path d="M2.87158 23.1582C2.22211 23.1582 1.86842 22.8887 1.68527 22.6624C1.50527 22.4403 1.31895 22.0466 1.44842 21.4361L4.32 8.06136L2.51579 8.16347H2.50211C1.95895 8.16347 1.56316 7.98768 1.31579 7.68136C1.20148 7.53802 1.12115 7.37063 1.08086 7.19177C1.04056 7.01291 1.04135 6.82724 1.08316 6.64873C1.24211 5.91083 2.01263 5.2961 2.83895 5.24978L7.0579 5.01083C7.13895 5.00557 7.21474 5.00241 7.28527 5.00241C7.44 5.00241 7.84948 5.00241 8.11053 5.32557C8.37579 5.65399 8.28527 6.07189 8.25579 6.20873L4.96737 21.5308C4.77053 22.4614 4 23.0982 3.00316 23.154L2.87158 23.1582Z" fill="#0037B7"/>
<path d="M17.7737 6.58326L17.6295 6.58747C15.5874 6.70431 13.8874 9.01273 13.0821 12.7622C12.58 15.1075 12.6821 16.8664 13.3695 17.7169C13.6821 18.1043 14.1242 18.3001 14.6842 18.3001L14.8316 18.2959C16.8737 18.1812 18.5726 15.8738 19.3769 12.1243C19.8811 9.778 19.78 8.01799 19.0926 7.16852C18.78 6.7801 18.3358 6.58326 17.7737 6.58326ZM14.18 21.0527C12.6653 21.0527 11.4063 20.4854 10.539 19.4117C9.31475 17.898 8.99475 15.5685 9.61475 12.679C10.7011 7.61378 14.0442 4.06115 17.9326 3.84221C19.6063 3.74747 20.9916 4.318 21.9253 5.47273C23.1495 6.98747 23.4695 9.31589 22.8495 12.2064C21.7632 17.2696 18.419 20.8212 14.5295 21.0422C14.4131 21.0493 14.2966 21.0529 14.18 21.0527Z" fill="#0037B7"/>
<path d="M33.5653 4.85842L33.4221 4.86263C31.38 4.97948 29.68 7.2879 28.8747 11.0363C28.3716 13.3816 28.4737 15.1426 29.1611 15.9921C29.4737 16.3795 29.9179 16.5763 30.4779 16.5763L30.6253 16.5721C32.6663 16.4574 34.3663 14.15 35.1705 10.3995C35.6758 8.05527 35.5737 6.29527 34.8874 5.44474C34.5726 5.05527 34.1284 4.85842 33.5653 4.85842ZM29.9747 19.33C28.459 19.33 27.199 18.7616 26.3305 17.6868C25.1063 16.1721 24.7863 13.8437 25.4063 10.9542C26.4937 5.8879 29.8369 2.33632 33.7253 2.11737C35.4126 2.02263 36.7821 2.59421 37.7147 3.7479C38.939 5.26369 39.259 7.59211 38.639 10.4816C37.5537 15.5437 34.2116 19.0953 30.3211 19.3195C30.2058 19.3271 30.0903 19.3307 29.9747 19.33Z" fill="#0037B7"/>
<path d="M12.6316 37.8965C12.1384 37.8962 11.661 37.7229 11.2825 37.4067C10.904 37.0905 10.6484 36.6515 10.5604 36.1663C10.4723 35.681 10.5573 35.1802 10.8006 34.7512C11.0438 34.3222 11.4299 33.9921 11.8916 33.8186C12.2474 33.686 20.7337 30.547 33.5084 29.4817C34.0624 29.4397 34.6106 29.6183 35.0334 29.9787C35.4563 30.3391 35.7195 30.852 35.7658 31.4057C35.812 31.9594 35.6375 32.5089 35.2804 32.9344C34.9232 33.36 34.4122 33.6271 33.8589 33.6775C21.6589 34.6944 13.4516 37.7312 13.3705 37.7617C13.1342 37.8503 12.884 37.8959 12.6316 37.8965Z" fill="#0037B7"/>
<path d="M3.16001 31.5801C2.6671 31.5826 2.18897 31.4118 1.8091 31.0977C1.42923 30.7836 1.17176 30.3461 1.08163 29.8615C0.991506 29.3769 1.07445 28.876 1.31599 28.4463C1.55753 28.0166 1.94232 27.6855 2.40317 27.5106C2.97369 27.2906 16.6295 22.1148 36.7316 21.0569C37.0081 21.0404 37.2852 21.0791 37.5467 21.1706C37.8082 21.262 38.0489 21.4046 38.2548 21.5899C38.4608 21.7751 38.6279 21.9995 38.7464 22.2499C38.8649 22.5003 38.9325 22.7717 38.9453 23.0485C38.9745 23.606 38.7811 24.1523 38.4077 24.5672C38.0342 24.9821 37.5112 25.2317 36.9537 25.2611C17.5611 26.2822 4.04738 31.3885 3.91264 31.4401C3.67245 31.5324 3.41734 31.5798 3.16001 31.5801Z" fill="#0037B7"/>
</g>
</g>
<defs>
<clipPath id="clip0_1261_38140">
<rect width="40" height="40" fill="white"/>
</clipPath>
</defs>
</svg>
