<svg width="60" height="60" viewBox="0 0 60 60" fill="none" xmlns="http://www.w3.org/2000/svg">
<g id="money-time 2">
<g id="Group">
<g id="Group_2">
<path id="Vector" d="M26.25 48.75C38.6764 48.75 48.75 38.6764 48.75 26.25C48.75 13.8236 38.6764 3.75 26.25 3.75C13.8236 3.75 3.75 13.8236 3.75 26.25C3.75 38.6764 13.8236 48.75 26.25 48.75Z" fill="white"/>
<path id="Vector_2" d="M26.25 51.25C12.4652 51.25 1.25 40.0348 1.25 26.25C1.25 12.4652 12.4652 1.25 26.25 1.25C40.0348 1.25 51.25 12.4652 51.25 26.25C51.25 40.0348 40.0348 51.25 26.25 51.25ZM26.25 6.25C15.2222 6.25 6.25 15.2222 6.25 26.25C6.25 37.2778 15.2222 46.25 26.25 46.25C37.2778 46.25 46.25 37.2778 46.25 26.25C46.25 15.2222 37.2778 6.25 26.25 6.25Z" fill="#43A6DD"/>
<path id="Vector_3" d="M17.5 36.25C17.1802 36.25 16.8603 36.1279 16.6162 35.8838C16.1279 35.3955 16.1279 34.6045 16.6162 34.1162L25.3662 25.3662C25.8545 24.8779 26.6455 24.8779 27.1338 25.3662C27.6221 25.8545 27.6221 26.6455 27.1338 27.1338L18.3838 35.8838C18.1396 36.1279 17.8198 36.25 17.5 36.25Z" fill="#E86C60"/>
<path id="Vector_4" d="M26.25 27.5C25.5591 27.5 25 26.9403 25 26.25V13.75C25 13.0597 25.5591 12.5 26.25 12.5C26.9409 12.5 27.5 13.0597 27.5 13.75V26.25C27.5 26.9403 26.9409 27.5 26.25 27.5Z" fill="#223E49"/>
<path id="Vector_5" d="M38.75 27.5H26.25C25.5591 27.5 25 26.9403 25 26.25C25 25.5597 25.5591 25 26.25 25H38.75C39.4409 25 40 25.5597 40 26.25C40 26.9403 39.4409 27.5 38.75 27.5Z" fill="#223E49"/>
<path id="Vector_6" d="M26.25 30C28.3211 30 30 28.3211 30 26.25C30 24.1789 28.3211 22.5 26.25 22.5C24.1789 22.5 22.5 24.1789 22.5 26.25C22.5 28.3211 24.1789 30 26.25 30Z" fill="#223E49"/>
<path id="Vector_7" opacity="0.1" d="M51.25 26.25C51.25 23.3359 50.7229 20.5489 49.8022 17.9461C48.2915 17.6527 46.6447 17.5 45 17.5C39.4092 17.5 33.75 19.2175 33.75 22.5V26.25C33.75 26.6967 33.863 27.1117 34.0581 27.5C33.863 27.8883 33.75 28.3033 33.75 28.75V32.5C33.75 32.9467 33.863 33.3617 34.0581 33.75C33.863 34.1383 33.75 34.5533 33.75 35V38.75C33.75 39.1967 33.863 39.6117 34.0581 40C33.863 40.3883 33.75 40.8033 33.75 41.25V45C33.75 45.4467 33.863 45.8617 34.0581 46.25C33.863 46.6383 33.75 47.0533 33.75 47.5V50H34.0144C44.0068 46.7243 51.25 37.3231 51.25 26.25Z" fill="black"/>
<path id="Vector_8" d="M57.5 48.75H37.5C36.8097 48.75 36.25 49.3097 36.25 50V53.75C36.25 57.0325 41.9092 58.75 47.5 58.75C53.0908 58.75 58.75 57.0325 58.75 53.75V50C58.75 49.3097 58.1903 48.75 57.5 48.75Z" fill="#D8BC48"/>
<path id="Vector_9" d="M47.5 45C41.9092 45 36.25 46.7175 36.25 50C36.25 53.2825 41.9092 55 47.5 55C53.0908 55 58.75 53.2825 58.75 50C58.75 46.7175 53.0908 45 47.5 45Z" fill="#EFD358"/>
<path id="Vector_10" d="M57.5 42.5H37.5C36.8097 42.5 36.25 43.0597 36.25 43.75V47.5C36.25 50.7825 41.9092 52.5 47.5 52.5C53.0908 52.5 58.75 50.7825 58.75 47.5V43.75C58.75 43.0597 58.1903 42.5 57.5 42.5Z" fill="#D8BC48"/>
<path id="Vector_11" d="M47.5 38.75C41.9092 38.75 36.25 40.4675 36.25 43.75C36.25 47.0325 41.9092 48.75 47.5 48.75C53.0908 48.75 58.75 47.0325 58.75 43.75C58.75 40.4675 53.0908 38.75 47.5 38.75Z" fill="#EFD358"/>
<path id="Vector_12" d="M57.5 36.25H37.5C36.8097 36.25 36.25 36.8097 36.25 37.5V41.25C36.25 44.5325 41.9092 46.25 47.5 46.25C53.0908 46.25 58.75 44.5325 58.75 41.25V37.5C58.75 36.8097 58.1903 36.25 57.5 36.25Z" fill="#D8BC48"/>
<path id="Vector_13" d="M47.5 32.5C41.9092 32.5 36.25 34.2175 36.25 37.5C36.25 40.7825 41.9092 42.5 47.5 42.5C53.0908 42.5 58.75 40.7825 58.75 37.5C58.75 34.2175 53.0908 32.5 47.5 32.5Z" fill="#EFD358"/>
<path id="Vector_14" d="M57.5 30H37.5C36.8097 30 36.25 30.5597 36.25 31.25V35C36.25 38.2825 41.9092 40 47.5 40C53.0908 40 58.75 38.2825 58.75 35V31.25C58.75 30.5597 58.1903 30 57.5 30Z" fill="#D8BC48"/>
<path id="Vector_15" d="M47.5 26.25C41.9092 26.25 36.25 27.9675 36.25 31.25C36.25 34.5325 41.9092 36.25 47.5 36.25C53.0908 36.25 58.75 34.5325 58.75 31.25C58.75 27.9675 53.0908 26.25 47.5 26.25Z" fill="#EFD358"/>
<path id="Vector_16" d="M57.5 23.75H37.5C36.8097 23.75 36.25 24.3097 36.25 25V28.75C36.25 32.0325 41.9092 33.75 47.5 33.75C53.0908 33.75 58.75 32.0325 58.75 28.75V25C58.75 24.3097 58.1903 23.75 57.5 23.75Z" fill="#D8BC48"/>
<path id="Vector_17" d="M47.5 20C41.9092 20 36.25 21.7175 36.25 25C36.25 28.2825 41.9092 30 47.5 30C53.0908 30 58.75 28.2825 58.75 25C58.75 21.7175 53.0908 20 47.5 20Z" fill="#EFD358"/>
</g>
</g>
</g>
</svg>
