<svg width="135" height="125" viewBox="0 0 135 125" fill="none" xmlns="http://www.w3.org/2000/svg">
<path d="M44.5625 87.625H1.4375C1.24688 87.625 1.06406 87.7007 0.929267 87.8355C0.794475 87.9703 0.71875 88.1531 0.71875 88.3438V117.094C0.71875 117.284 0.794475 117.467 0.929267 117.602C1.06406 117.737 1.24688 117.812 1.4375 117.812H44.5625C44.7531 117.812 44.9359 117.737 45.0707 117.602C45.2055 117.467 45.2812 117.284 45.2812 117.094V88.3438C45.2812 88.1531 45.2055 87.9703 45.0707 87.8355C44.9359 87.7007 44.7531 87.625 44.5625 87.625ZM43.8438 116.375H2.15625V89.0625H43.8438V116.375Z" fill="black"/>
<path d="M4.3125 112.062C4.88437 112.062 5.43282 112.29 5.8372 112.694C6.24157 113.098 6.46875 113.647 6.46875 114.219C6.46875 114.409 6.54448 114.592 6.67927 114.727C6.81406 114.862 6.99688 114.938 7.1875 114.938H38.8125C39.0031 114.938 39.1859 114.862 39.3207 114.727C39.4555 114.592 39.5312 114.409 39.5312 114.219C39.5312 113.647 39.7584 113.098 40.1628 112.694C40.5672 112.29 41.1156 112.062 41.6875 112.062C41.8781 112.062 42.0609 111.987 42.1957 111.852C42.3305 111.717 42.4062 111.534 42.4062 111.344V94.0938C42.4062 93.9031 42.3305 93.7203 42.1957 93.5855C42.0609 93.4507 41.8781 93.375 41.6875 93.375C41.1156 93.375 40.5672 93.1478 40.1628 92.7434C39.7584 92.3391 39.5312 91.7906 39.5312 91.2188C39.5312 91.0281 39.4555 90.8453 39.3207 90.7105C39.1859 90.5757 39.0031 90.5 38.8125 90.5H7.1875C6.99688 90.5 6.81406 90.5757 6.67927 90.7105C6.54448 90.8453 6.46875 91.0281 6.46875 91.2188C6.46875 91.7906 6.24157 92.3391 5.8372 92.7434C5.43282 93.1478 4.88437 93.375 4.3125 93.375C4.12188 93.375 3.93906 93.4507 3.80427 93.5855C3.66948 93.7203 3.59375 93.9031 3.59375 94.0938V111.344C3.59375 111.534 3.66948 111.717 3.80427 111.852C3.93906 111.987 4.12188 112.062 4.3125 112.062ZM5.03125 94.7406C5.72138 94.5986 6.35475 94.2574 6.85297 93.7592C7.35118 93.261 7.69239 92.6276 7.83437 91.9375H38.1656C38.3076 92.6276 38.6488 93.261 39.147 93.7592C39.6453 94.2574 40.2786 94.5986 40.9688 94.7406V110.697C40.2786 110.839 39.6453 111.18 39.147 111.678C38.6488 112.177 38.3076 112.81 38.1656 113.5H7.83437C7.69239 112.81 7.35118 112.177 6.85297 111.678C6.35475 111.18 5.72138 110.839 5.03125 110.697V94.7406Z" fill="black"/>
<path d="M33.0625 107.75H12.9375C12.7469 107.75 12.5641 107.826 12.4293 107.96C12.2945 108.095 12.2188 108.278 12.2188 108.469V111.344C12.2188 111.534 12.2945 111.717 12.4293 111.852C12.5641 111.987 12.7469 112.062 12.9375 112.062H33.0625C33.2531 112.062 33.4359 111.987 33.5707 111.852C33.7055 111.717 33.7812 111.534 33.7812 111.344V108.469C33.7812 108.278 33.7055 108.095 33.5707 107.96C33.4359 107.826 33.2531 107.75 33.0625 107.75ZM32.3438 110.625H13.6562V109.187H32.3438V110.625ZM29.4688 104.875H28.0312V100.562H28.75C28.8921 100.562 29.0311 100.52 29.1492 100.441C29.2674 100.362 29.3595 100.25 29.4139 100.119C29.4683 99.9873 29.4825 99.8428 29.4548 99.7034C29.4271 99.564 29.3586 99.436 29.2582 99.3354L23.5082 93.5854C23.3734 93.4507 23.1906 93.375 23 93.375C22.8094 93.375 22.6266 93.4507 22.4918 93.5854L16.7418 99.3354C16.6414 99.436 16.5729 99.564 16.5452 99.7034C16.5175 99.8428 16.5317 99.9873 16.5861 100.119C16.6405 100.25 16.7326 100.362 16.8508 100.441C16.9689 100.52 17.1079 100.562 17.25 100.562H17.9688V104.875H16.5312V106.312H29.4688V104.875ZM26.5938 104.875H23.7188V100.562H26.5938V104.875ZM23 95.1099L27.0149 99.1248H18.9851L23 95.1099ZM19.4062 100.562H22.2812V104.875H19.4062V100.562Z" fill="black"/>
<path d="M22.2812 96.9688H23.7188V98.4062H22.2812V96.9688ZM31.625 96.9688H38.8125V98.4062H31.625V96.9688ZM31.625 99.8438H38.8125V101.281H31.625V99.8438ZM31.625 102.719H38.8125V104.156H31.625V102.719ZM7.1875 96.9688H14.375V98.4062H7.1875V96.9688ZM7.1875 99.8438H14.375V101.281H7.1875V99.8438ZM7.1875 102.719H14.375V104.156H7.1875V102.719Z" fill="black"/>
<path d="M55.8574 76.6353L49.6699 74.3178C49.0287 74.0816 47.9824 74.0816 47.3412 74.3178L41.1537 76.6353C39.9612 77.0853 38.9937 78.4803 38.9937 79.7516V88.8641C38.9937 89.7753 39.5899 90.9791 40.3212 91.5191L46.5087 96.1428C47.5999 96.9641 49.3887 96.9641 50.4799 96.1428L56.6674 91.5191C57.3987 90.9678 57.9949 89.7753 57.9949 88.8641V79.7516C58.0062 78.4803 57.0387 77.0853 55.8574 76.6353ZM52.4149 82.9353L47.5774 87.7728C47.4087 87.9416 47.1949 88.0203 46.9812 88.0203C46.7674 88.0203 46.5537 87.9416 46.3849 87.7728L44.5849 85.9503C44.2587 85.6241 44.2587 85.0841 44.5849 84.7578C44.9112 84.4316 45.4512 84.4316 45.7774 84.7578L46.9924 85.9728L51.2337 81.7316C51.5599 81.4053 52.0999 81.4053 52.4262 81.7316C52.7524 82.0578 52.7524 82.6091 52.4149 82.9353Z" fill="black"/>
<path d="M65.5625 15.625H22.4375C22.2469 15.625 22.0641 15.7007 21.9293 15.8355C21.7945 15.9703 21.7188 16.1531 21.7188 16.3438V45.0938C21.7188 45.2844 21.7945 45.4672 21.9293 45.602C22.0641 45.7368 22.2469 45.8125 22.4375 45.8125H65.5625C65.7531 45.8125 65.9359 45.7368 66.0707 45.602C66.2055 45.4672 66.2812 45.2844 66.2812 45.0938V16.3438C66.2812 16.1531 66.2055 15.9703 66.0707 15.8355C65.9359 15.7007 65.7531 15.625 65.5625 15.625ZM64.8438 44.375H23.1562V17.0625H64.8438V44.375Z" fill="black"/>
<path d="M25.3125 40.0625C25.8844 40.0625 26.4328 40.2897 26.8372 40.6941C27.2416 41.0984 27.4688 41.6469 27.4688 42.2188C27.4688 42.4094 27.5445 42.5922 27.6793 42.727C27.8141 42.8618 27.9969 42.9375 28.1875 42.9375H59.8125C60.0031 42.9375 60.1859 42.8618 60.3207 42.727C60.4555 42.5922 60.5312 42.4094 60.5312 42.2188C60.5312 41.6469 60.7584 41.0984 61.1628 40.6941C61.5672 40.2897 62.1156 40.0625 62.6875 40.0625C62.8781 40.0625 63.0609 39.9868 63.1957 39.852C63.3305 39.7172 63.4062 39.5344 63.4062 39.3438V22.0938C63.4062 21.9031 63.3305 21.7203 63.1957 21.5855C63.0609 21.4507 62.8781 21.375 62.6875 21.375C62.1156 21.375 61.5672 21.1478 61.1628 20.7434C60.7584 20.3391 60.5312 19.7906 60.5312 19.2188C60.5312 19.0281 60.4555 18.8453 60.3207 18.7105C60.1859 18.5757 60.0031 18.5 59.8125 18.5H28.1875C27.9969 18.5 27.8141 18.5757 27.6793 18.7105C27.5445 18.8453 27.4688 19.0281 27.4688 19.2188C27.4688 19.7906 27.2416 20.3391 26.8372 20.7434C26.4328 21.1478 25.8844 21.375 25.3125 21.375C25.1219 21.375 24.9391 21.4507 24.8043 21.5855C24.6695 21.7203 24.5938 21.9031 24.5938 22.0938V39.3438C24.5938 39.5344 24.6695 39.7172 24.8043 39.852C24.9391 39.9868 25.1219 40.0625 25.3125 40.0625ZM26.0312 22.7406C26.7214 22.5986 27.3547 22.2574 27.853 21.7592C28.3512 21.261 28.6924 20.6276 28.8344 19.9375H59.1656C59.3076 20.6276 59.6488 21.261 60.147 21.7592C60.6453 22.2574 61.2786 22.5986 61.9688 22.7406V38.6969C61.2786 38.8389 60.6453 39.1801 60.147 39.6783C59.6488 40.1765 59.3076 40.8099 59.1656 41.5H28.8344C28.6924 40.8099 28.3512 40.1765 27.853 39.6783C27.3547 39.1801 26.7214 38.8389 26.0312 38.6969V22.7406Z" fill="black"/>
<g clip-path="url(#clip0_768_134)">
<path d="M39.9168 32.3336C38.1954 32.3336 36.7651 31.9609 35.8335 31.335C35.8335 31.7701 35.8335 32.0571 35.8335 32.3336C35.8335 33.3002 37.6617 34.0836 39.9168 34.0836C42.172 34.0836 44.0002 33.3002 44.0002 32.3336C44.0002 32.0571 44.0002 31.7701 44.0002 31.335C43.0686 31.9609 41.6382 32.3336 39.9168 32.3336Z" fill="#212121"/>
<path d="M39.9168 35.2496C38.1954 35.2496 36.7651 34.8769 35.8335 34.251C35.8335 34.6861 35.8335 34.9731 35.8335 35.2496C35.8335 36.2162 37.6617 36.9996 39.9168 36.9996C42.172 36.9996 44.0002 36.2162 44.0002 35.2496C44.0002 34.9731 44.0002 34.6861 44.0002 34.251C43.0686 34.8769 41.6382 35.2496 39.9168 35.2496Z" fill="#212121"/>
<path d="M39.9168 31.167C42.172 31.167 44.0002 30.3835 44.0002 29.417C44.0002 28.4505 42.172 27.667 39.9168 27.667C37.6617 27.667 35.8335 28.4505 35.8335 29.417C35.8335 30.3835 37.6617 31.167 39.9168 31.167Z" fill="#212121"/>
<path d="M34.0833 26.5C36.3385 26.5 38.1667 25.7165 38.1667 24.75C38.1667 23.7835 36.3385 23 34.0833 23C31.8282 23 30 23.7835 30 24.75C30 25.7165 31.8282 26.5 34.0833 26.5Z" fill="#212121"/>
<path d="M34.6667 33.4839C34.4759 33.4932 34.2822 33.4996 34.0833 33.4996C32.3619 33.4996 30.9316 33.1269 30 32.501C30 32.9361 30 33.2231 30 33.4996C30 34.4662 31.8282 35.2496 34.0833 35.2496C34.2817 35.2496 34.4759 35.2415 34.6667 35.2298V33.4839Z" fill="#212121"/>
<path d="M34.6667 30.5679C34.4759 30.5772 34.2822 30.5836 34.0833 30.5836C32.3619 30.5836 30.9316 30.2109 30 29.585C30 30.0201 30 30.3071 30 30.5836C30 31.5502 31.8282 32.3336 34.0833 32.3336C34.2817 32.3336 34.4759 32.3255 34.6667 32.3138V30.5679Z" fill="#212121"/>
<path d="M35.7867 27.5301C35.2605 27.6176 34.6912 27.6666 34.0833 27.6666C32.3619 27.6666 30.9316 27.2939 30 26.668C30 27.1031 30 27.3901 30 27.6666C30 28.6332 31.8282 29.4166 34.0833 29.4166C34.2823 29.4166 34.4765 29.4085 34.6684 29.3968C34.6754 28.6601 35.0808 28.0201 35.7867 27.5301Z" fill="#212121"/>
</g>
<g clip-path="url(#clip1_768_134)">
<path d="M53.9168 32.3336C52.1954 32.3336 50.7651 31.9609 49.8335 31.335C49.8335 31.7701 49.8335 32.0571 49.8335 32.3336C49.8335 33.3002 51.6617 34.0836 53.9168 34.0836C56.172 34.0836 58.0002 33.3002 58.0002 32.3336C58.0002 32.0571 58.0002 31.7701 58.0002 31.335C57.0686 31.9609 55.6382 32.3336 53.9168 32.3336Z" fill="#212121"/>
<path d="M53.9168 35.2496C52.1954 35.2496 50.7651 34.8769 49.8335 34.251C49.8335 34.6861 49.8335 34.9731 49.8335 35.2496C49.8335 36.2162 51.6617 36.9996 53.9168 36.9996C56.172 36.9996 58.0002 36.2162 58.0002 35.2496C58.0002 34.9731 58.0002 34.6861 58.0002 34.251C57.0686 34.8769 55.6382 35.2496 53.9168 35.2496Z" fill="#212121"/>
<path d="M53.9168 31.167C56.172 31.167 58.0002 30.3835 58.0002 29.417C58.0002 28.4505 56.172 27.667 53.9168 27.667C51.6617 27.667 49.8335 28.4505 49.8335 29.417C49.8335 30.3835 51.6617 31.167 53.9168 31.167Z" fill="#212121"/>
<path d="M48.0833 26.5C50.3385 26.5 52.1667 25.7165 52.1667 24.75C52.1667 23.7835 50.3385 23 48.0833 23C45.8282 23 44 23.7835 44 24.75C44 25.7165 45.8282 26.5 48.0833 26.5Z" fill="#212121"/>
<path d="M48.6667 33.4839C48.4759 33.4932 48.2822 33.4996 48.0833 33.4996C46.3619 33.4996 44.9316 33.1269 44 32.501C44 32.9361 44 33.2231 44 33.4996C44 34.4662 45.8282 35.2496 48.0833 35.2496C48.2817 35.2496 48.4759 35.2415 48.6667 35.2298V33.4839Z" fill="#212121"/>
<path d="M48.6667 30.5679C48.4759 30.5772 48.2822 30.5836 48.0833 30.5836C46.3619 30.5836 44.9316 30.2109 44 29.585C44 30.0201 44 30.3071 44 30.5836C44 31.5502 45.8282 32.3336 48.0833 32.3336C48.2817 32.3336 48.4759 32.3255 48.6667 32.3138V30.5679Z" fill="#212121"/>
<path d="M49.7867 27.5301C49.2605 27.6176 48.6912 27.6666 48.0833 27.6666C46.3619 27.6666 44.9316 27.2939 44 26.668C44 27.1031 44 27.3901 44 27.6666C44 28.6332 45.8282 29.4166 48.0833 29.4166C48.2823 29.4166 48.4765 29.4085 48.6684 29.3968C48.6754 28.6601 49.0808 28.0201 49.7867 27.5301Z" fill="#212121"/>
</g>
<path d="M76.8574 4.63531L70.6699 2.31781C70.0287 2.08156 68.9824 2.08156 68.3412 2.31781L62.1537 4.63531C60.9612 5.08531 59.9937 6.48031 59.9937 7.75156V16.8641C59.9937 17.7753 60.5899 18.9791 61.3212 19.5191L67.5087 24.1428C68.5999 24.9641 70.3887 24.9641 71.4799 24.1428L77.6674 19.5191C78.3987 18.9678 78.9949 17.7753 78.9949 16.8641V7.75156C79.0062 6.48031 78.0387 5.08531 76.8574 4.63531ZM73.4149 10.9353L68.5774 15.7728C68.4087 15.9416 68.1949 16.0203 67.9812 16.0203C67.7674 16.0203 67.5537 15.9416 67.3849 15.7728L65.5849 13.9503C65.2587 13.6241 65.2587 13.0841 65.5849 12.7578C65.9112 12.4316 66.4512 12.4316 66.7774 12.7578L67.9924 13.9728L72.2337 9.73156C72.5599 9.40531 73.0999 9.40531 73.4262 9.73156C73.7524 10.0578 73.7524 10.6091 73.4149 10.9353Z" fill="black"/>
<path d="M117.562 59.625H74.4375C74.2469 59.625 74.0641 59.7007 73.9293 59.8355C73.7945 59.9703 73.7188 60.1531 73.7188 60.3438V89.0938C73.7188 89.2844 73.7945 89.4672 73.9293 89.602C74.0641 89.7368 74.2469 89.8125 74.4375 89.8125H117.562C117.753 89.8125 117.936 89.7368 118.071 89.602C118.206 89.4672 118.281 89.2844 118.281 89.0938V60.3438C118.281 60.1531 118.206 59.9703 118.071 59.8355C117.936 59.7007 117.753 59.625 117.562 59.625ZM116.844 88.375H75.1562V61.0625H116.844V88.375Z" fill="black"/>
<path d="M77.3125 84.0625C77.8844 84.0625 78.4328 84.2897 78.8372 84.6941C79.2416 85.0984 79.4688 85.6469 79.4688 86.2188C79.4688 86.4094 79.5445 86.5922 79.6793 86.727C79.8141 86.8618 79.9969 86.9375 80.1875 86.9375H111.812C112.003 86.9375 112.186 86.8618 112.321 86.727C112.456 86.5922 112.531 86.4094 112.531 86.2188C112.531 85.6469 112.758 85.0984 113.163 84.6941C113.567 84.2897 114.116 84.0625 114.688 84.0625C114.878 84.0625 115.061 83.9868 115.196 83.852C115.331 83.7172 115.406 83.5344 115.406 83.3438V66.0938C115.406 65.9031 115.331 65.7203 115.196 65.5855C115.061 65.4507 114.878 65.375 114.688 65.375C114.116 65.375 113.567 65.1478 113.163 64.7434C112.758 64.3391 112.531 63.7906 112.531 63.2188C112.531 63.0281 112.456 62.8453 112.321 62.7105C112.186 62.5757 112.003 62.5 111.812 62.5H80.1875C79.9969 62.5 79.8141 62.5757 79.6793 62.7105C79.5445 62.8453 79.4688 63.0281 79.4688 63.2188C79.4688 63.7906 79.2416 64.3391 78.8372 64.7434C78.4328 65.1478 77.8844 65.375 77.3125 65.375C77.1219 65.375 76.9391 65.4507 76.8043 65.5855C76.6695 65.7203 76.5938 65.9031 76.5938 66.0938V83.3438C76.5938 83.5344 76.6695 83.7172 76.8043 83.852C76.9391 83.9868 77.1219 84.0625 77.3125 84.0625ZM78.0312 66.7406C78.7214 66.5986 79.3547 66.2574 79.853 65.7592C80.3512 65.261 80.6924 64.6276 80.8344 63.9375H111.166C111.308 64.6276 111.649 65.261 112.147 65.7592C112.645 66.2574 113.279 66.5986 113.969 66.7406V82.6969C113.279 82.8389 112.645 83.1801 112.147 83.6783C111.649 84.1765 111.308 84.8099 111.166 85.5H80.8344C80.6924 84.8099 80.3512 84.1765 79.853 83.6783C79.3547 83.1801 78.7214 82.8389 78.0312 82.6969V66.7406Z" fill="black"/>
<path d="M106.062 79.7498H85.9375C85.7469 79.7498 85.5641 79.8256 85.4293 79.9604C85.2945 80.0952 85.2188 80.278 85.2188 80.4686V83.3436C85.2188 83.5342 85.2945 83.717 85.4293 83.8518C85.5641 83.9866 85.7469 84.0623 85.9375 84.0623H106.062C106.253 84.0623 106.436 83.9866 106.571 83.8518C106.706 83.717 106.781 83.5342 106.781 83.3436V80.4686C106.781 80.278 106.706 80.0952 106.571 79.9604C106.436 79.8256 106.253 79.7498 106.062 79.7498ZM105.344 82.6248H86.6562V81.1873H105.344V82.6248ZM102.469 76.8748H101.031V72.5623H101.75C101.892 72.5623 102.031 72.5201 102.149 72.4412C102.267 72.3622 102.36 72.2499 102.414 72.1186C102.468 71.9873 102.483 71.8428 102.455 71.7034C102.427 71.564 102.359 71.436 102.258 71.3354L96.5082 65.5854C96.3734 65.4507 96.1906 65.375 96 65.375C95.8094 65.375 95.6266 65.4507 95.4918 65.5854L89.7418 71.3354C89.6414 71.436 89.5729 71.564 89.5452 71.7034C89.5175 71.8428 89.5317 71.9873 89.5861 72.1186C89.6405 72.2499 89.7326 72.3622 89.8508 72.4412C89.9689 72.5201 90.1079 72.5623 90.25 72.5623H90.9688V76.8748H89.5312V78.3123H102.469V76.8748ZM99.5938 76.8748H96.7188V72.5623H99.5938V76.8748ZM96 67.1099L100.015 71.1248H91.9851L96 67.1099ZM92.4062 72.5623H95.2812V76.8748H92.4062V72.5623Z" fill="black"/>
<path d="M95.2812 68.9688H96.7188V70.4062H95.2812V68.9688ZM104.625 68.9688H111.812V70.4062H104.625V68.9688ZM104.625 71.8438H111.812V73.2812H104.625V71.8438ZM104.625 74.7188H111.812V76.1562H104.625V74.7188ZM80.1875 68.9688H87.375V70.4062H80.1875V68.9688ZM80.1875 71.8438H87.375V73.2812H80.1875V71.8438ZM80.1875 74.7188H87.375V76.1562H80.1875V74.7188Z" fill="black"/>
<path d="M128.857 48.6353L122.67 46.3178C122.029 46.0816 120.982 46.0816 120.341 46.3178L114.154 48.6353C112.961 49.0853 111.994 50.4803 111.994 51.7516V60.8641C111.994 61.7753 112.59 62.9791 113.321 63.5191L119.509 68.1428C120.6 68.9641 122.389 68.9641 123.48 68.1428L129.667 63.5191C130.399 62.9678 130.995 61.7753 130.995 60.8641V51.7516C131.006 50.4803 130.039 49.0853 128.857 48.6353ZM125.415 54.9353L120.577 59.7728C120.409 59.9416 120.195 60.0203 119.981 60.0203C119.767 60.0203 119.554 59.9416 119.385 59.7728L117.585 57.9503C117.259 57.6241 117.259 57.0841 117.585 56.7578C117.911 56.4316 118.451 56.4316 118.777 56.7578L119.992 57.9728L124.234 53.7316C124.56 53.4053 125.1 53.4053 125.426 53.7316C125.752 54.0578 125.752 54.6091 125.415 54.9353Z" fill="black"/>
<defs>
<clipPath id="clip0_768_134">
<rect width="14" height="14" fill="white" transform="translate(30 23)"/>
</clipPath>
<clipPath id="clip1_768_134">
<rect width="14" height="14" fill="white" transform="translate(44 23)"/>
</clipPath>
</defs>
</svg>
