<svg width="20" height="16" viewBox="0 0 20 16" fill="none" xmlns="http://www.w3.org/2000/svg">
<path d="M20 5.5H0V1.33333C0 0.872917 0.372917 0.5 0.833333 0.5H19.1667C19.6271 0.5 20 0.872917 20 1.33333V5.5Z" fill="#FD9840"/>
<path d="M20 5.5H0V10.5H20V5.5Z" fill="#E6E6E6"/>
<path d="M20 14.6667C20 15.1271 19.6271 15.5 19.1667 15.5H0.833333C0.372917 15.5 0 15.1271 0 14.6667V10.5H20V14.6667Z" fill="#1B8717"/>
<path d="M9.99992 6.33301C9.0795 6.33301 8.33325 7.07926 8.33325 7.99968C8.33325 8.92009 9.0795 9.66634 9.99992 9.66634C10.9203 9.66634 11.6666 8.92009 11.6666 7.99968C11.6666 7.07926 10.9203 6.33301 9.99992 6.33301ZM9.99992 8.83301C9.53992 8.83301 9.16659 8.46009 9.16659 7.99968C9.16659 7.53926 9.53992 7.16634 9.99992 7.16634C10.4599 7.16634 10.8333 7.53926 10.8333 7.99968C10.8333 8.46009 10.4599 8.83301 9.99992 8.83301Z" fill="#11188A"/>
</svg>
