<svg width="892" height="20" viewBox="0 0 892 20" fill="none" xmlns="http://www.w3.org/2000/svg">
<path d="M0.99999 5.85481L6.52945 6.04772L12.0588 3.6938L17.5884 3.45267L23.1177 5.95586L28.6472 6.31411L34.1767 5.28068L39.7061 5.75606L45.2355 7.7035L50.765 2.5777L56.2944 3.55601L61.8239 6.39678L67.3533 5.4667L72.8828 2.03802L78.4122 6.30722L83.9416 7.01225L89.4711 1.61776L95.0005 2.21026L100.53 3.09901L106.059 3.48023L111.589 6.97091L117.118 4.69048L122.648 3.41592L128.177 9.18244L133.707 7.30161L139.236 5.65961L144.765 7.34065L150.295 1.67517L155.824 5.84792L161.354 9.59811L166.883 8.79204L172.413 5.30365L177.942 6.47027L183.472 4.85813L189.001 5.71243L194.531 5.0717L200.06 7.34754L205.589 4.92243L211.119 2.94973L216.648 1L222.178 1.61776L227.707 3.70299L233.237 10.5098L238.766 9.0148L244.295 6.76423L249.825 9.61878L255.354 6.29574L260.884 8.77137L266.413 7.3085L271.943 7.20745L277.472 7.14315L283.002 7.93315L288.531 10.4937L294.06 11.681L299.59 9.83006L305.119 11.5088L310.649 8.74381L316.178 12.4986L321.708 4.44016L327.237 3.26435L332.767 8.25695L338.296 10.5052L343.825 10.9599L349.355 11.0219L354.884 12.0783L360.414 11.2654L365.943 8.36948L371.473 11.8211L377.002 9.46721L382.532 12.6364L388.061 12.3953L393.59 8.7507L399.12 9.10436L404.649 8.73003L410.179 10.48L415.708 10.2871L421.238 11.9957L426.767 11.1069L432.297 12.2919L437.826 10.689L443.355 10.8796L448.885 10.5512L454.414 14.0097L459.944 13.4149L465.473 11.5639L471.003 12.1449L476.532 11.1528L482.062 13.0934L487.591 11.3779L493.12 12.8247L498.65 12.889L504.179 12.2689L509.478 11.8326L515.008 13.0038L520.537 12.4779L526.067 12.9992L531.596 13.8076L537.126 11.4812L542.655 12.4343L548.184 12.223L553.714 11.6535L559.243 13.346L564.773 8.46134L570.302 8.14902L575.832 9.16178L581.361 10.186L586.891 12.1587L592.42 9.84613L597.949 13.0612L603.479 11.6144L609.008 4.0865L614.538 6.68385L620.067 11.1896L625.597 11.8556L631.126 13.2771L636.656 8.79663L642.185 8.69559L647.714 10.1516L653.244 13.6285L658.773 11.9222L664.303 10.0666L669.832 11.5203L675.362 14.1934L680.891 14.7377L686.421 12.6731L691.95 13.6468L697.479 13.617L703.009 12.866L708.538 15.0087L714.068 15.2843L719.597 12.0324L725.127 14.6412L730.656 13.8489L736.185 12.06L741.715 10.6912L747.244 9.74509L752.774 13.2679L758.303 14.1337L763.833 12.4641L769.362 8.6221L774.892 10.9714L780.421 10.4892L785.95 10.3031L791.48 13.3828L797.009 14.678L802.539 14.1636L808.068 13.8926L813.598 15.2016L819.127 16.3154L824.657 12.3585L830.186 8.10768L835.715 10.5718L841.245 12.9349L846.774 12.099L852.304 15.1557L857.833 17.8012L863.363 19L868.892 18.4626L874.422 16.4578L879.951 15.4863L885.48 16.0674L891 17.7668" stroke="#0037B7" stroke-opacity="0.24" stroke-linecap="round" stroke-linejoin="round"/>
</svg>
