<svg width="88" height="26" viewBox="0 0 88 26" fill="none" xmlns="http://www.w3.org/2000/svg">
<rect x="0.5" y="0.5" width="87" height="25" rx="12.5" fill="white"/>
<rect x="0.5" y="0.5" width="87" height="25" rx="12.5" fill="url(#paint0_linear_1261_37961)" fill-opacity="0.2"/>
<g clip-path="url(#clip0_1261_37961)">
<path d="M15.7 6.33601C16.446 6.11301 17.221 5.99901 18 6.00001C22.414 5.99601 25.996 9.57201 26 13.986C26 14.765 25.888 15.54 25.664 16.286C25.538 16.71 25.148 17 24.706 17H21.652C21.717 16.406 21.783 15.723 21.848 15H23.915C23.972 14.67 24 14.335 24 14C24 10.686 21.314 8.00001 18 8.00001C14.686 8.00001 12 10.686 12 14C12 14.335 12.028 14.67 12.085 15H15.592C15.115 15.91 14.749 16.659 14.65 16.984C14.648 16.989 14.648 16.994 14.647 17H11.294C10.852 17 10.462 16.71 10.336 16.286C9.07 12.057 11.471 7.60201 15.7 6.33601Z" fill="#43A833"/>
<path d="M16.086 17.4183C16.335 16.5963 19.394 11.1893 19.742 10.5753C19.856 10.3733 20.092 10.2763 20.322 10.3433C20.546 10.4113 20.692 10.6253 20.676 10.8583C20.624 11.5623 20.163 17.7573 19.914 18.5793C19.652 19.4413 18.857 19.9983 17.999 19.9983C17.807 19.9983 17.612 19.9703 17.419 19.9123C16.364 19.5923 15.767 18.4743 16.086 17.4183Z" fill="#43A833"/>
</g>
<path d="M32.8789 17.5V9.5H34.0859V16.4609H37.7109V17.5H32.8789ZM41.3215 17.6211C40.759 17.6211 40.2681 17.4922 39.8488 17.2344C39.4296 16.9766 39.104 16.6159 38.8723 16.1523C38.6405 15.6888 38.5246 15.1471 38.5246 14.5273C38.5246 13.9049 38.6405 13.3607 38.8723 12.8945C39.104 12.4284 39.4296 12.0664 39.8488 11.8086C40.2681 11.5508 40.759 11.4219 41.3215 11.4219C41.884 11.4219 42.3749 11.5508 42.7941 11.8086C43.2134 12.0664 43.5389 12.4284 43.7707 12.8945C44.0025 13.3607 44.1184 13.9049 44.1184 14.5273C44.1184 15.1471 44.0025 15.6888 43.7707 16.1523C43.5389 16.6159 43.2134 16.9766 42.7941 17.2344C42.3749 17.4922 41.884 17.6211 41.3215 17.6211ZM41.3254 16.6406C41.69 16.6406 41.9921 16.5443 42.2316 16.3516C42.4712 16.1589 42.6483 15.9023 42.7629 15.582C42.8801 15.2617 42.9387 14.9089 42.9387 14.5234C42.9387 14.1406 42.8801 13.7891 42.7629 13.4687C42.6483 13.1458 42.4712 12.8867 42.2316 12.6914C41.9921 12.4961 41.69 12.3984 41.3254 12.3984C40.9582 12.3984 40.6535 12.4961 40.4113 12.6914C40.1717 12.8867 39.9934 13.1458 39.8762 13.4687C39.7616 13.7891 39.7043 14.1406 39.7043 14.5234C39.7043 14.9089 39.7616 15.2617 39.8762 15.582C39.9934 15.9023 40.1717 16.1589 40.4113 16.3516C40.6535 16.5443 40.9582 16.6406 41.3254 16.6406ZM46.3402 17.5L44.5746 11.5H45.7816L46.9574 15.9062H47.016L48.1957 11.5H49.4027L50.5746 15.8867H50.6332L51.8012 11.5H53.0082L51.2465 17.5H50.0551L48.8363 13.168H48.7465L47.5277 17.5H46.3402ZM56.7215 17.5V9.5H59.573C60.1928 9.5 60.7072 9.60677 61.116 9.82031C61.5275 10.0339 61.8348 10.3294 62.0379 10.707C62.241 11.082 62.3426 11.5156 62.3426 12.0078C62.3426 12.4974 62.2397 12.9284 62.034 13.3008C61.8309 13.6706 61.5236 13.9583 61.1121 14.1641C60.7033 14.3698 60.1889 14.4727 59.5691 14.4727H57.409V13.4336H59.4598C59.8504 13.4336 60.1681 13.3776 60.4129 13.2656C60.6603 13.1536 60.8413 12.9909 60.9559 12.7773C61.0704 12.5638 61.1277 12.3073 61.1277 12.0078C61.1277 11.7057 61.0691 11.444 60.952 11.2227C60.8374 11.0013 60.6564 10.832 60.409 10.7148C60.1642 10.5951 59.8426 10.5352 59.4441 10.5352H57.9285V17.5H56.7215ZM60.6707 13.8906L62.6473 17.5H61.2723L59.3348 13.8906H60.6707ZM63.5176 17.5V11.5H64.6855V17.5H63.5176ZM64.1074 10.5742C63.9043 10.5742 63.7298 10.5065 63.584 10.3711C63.4408 10.2331 63.3691 10.069 63.3691 9.87891C63.3691 9.6862 63.4408 9.52214 63.584 9.38672C63.7298 9.2487 63.9043 9.17969 64.1074 9.17969C64.3105 9.17969 64.4837 9.2487 64.627 9.38672C64.7728 9.52214 64.8457 9.6862 64.8457 9.87891C64.8457 10.069 64.7728 10.2331 64.627 10.3711C64.4837 10.5065 64.3105 10.5742 64.1074 10.5742ZM70.5529 12.9648L69.4943 13.1523C69.4501 13.0169 69.3798 12.888 69.2834 12.7656C69.1896 12.6432 69.062 12.543 68.9006 12.4648C68.7391 12.3867 68.5373 12.3477 68.2951 12.3477C67.9644 12.3477 67.6883 12.4219 67.467 12.5703C67.2456 12.7161 67.135 12.9049 67.135 13.1367C67.135 13.3372 67.2092 13.4987 67.3576 13.6211C67.5061 13.7435 67.7456 13.8437 68.0764 13.9219L69.0295 14.1406C69.5816 14.2682 69.993 14.4648 70.2639 14.7305C70.5347 14.9961 70.6701 15.3411 70.6701 15.7656C70.6701 16.125 70.5659 16.4453 70.3576 16.7266C70.1519 17.0052 69.8641 17.224 69.4943 17.3828C69.1271 17.5417 68.7014 17.6211 68.217 17.6211C67.5451 17.6211 66.9969 17.4779 66.5725 17.1914C66.148 16.9023 65.8876 16.4922 65.7912 15.9609L66.9201 15.7891C66.9904 16.0833 67.135 16.306 67.3537 16.457C67.5725 16.6055 67.8576 16.6797 68.2092 16.6797C68.592 16.6797 68.898 16.6003 69.1271 16.4414C69.3563 16.2799 69.4709 16.0833 69.4709 15.8516C69.4709 15.6641 69.4006 15.5065 69.26 15.3789C69.1219 15.2513 68.9097 15.1549 68.6232 15.0898L67.6076 14.8672C67.0477 14.7396 66.6337 14.5365 66.3654 14.2578C66.0998 13.9792 65.967 13.6263 65.967 13.1992C65.967 12.8451 66.0659 12.5352 66.2639 12.2695C66.4618 12.0039 66.7352 11.7969 67.0842 11.6484C67.4331 11.4974 67.8329 11.4219 68.2834 11.4219C68.9318 11.4219 69.4423 11.5625 69.8146 11.8437C70.187 12.1224 70.4331 12.4961 70.5529 12.9648ZM72.8285 15.4648L72.8207 14.0391H73.0238L75.4145 11.5H76.8129L74.0863 14.3906H73.9027L72.8285 15.4648ZM71.7543 17.5V9.5H72.9223V17.5H71.7543ZM75.5434 17.5L73.3949 14.6484L74.1996 13.832L76.977 17.5H75.5434Z" fill="#282B2F"/>
<rect x="0.5" y="0.5" width="87" height="25" rx="12.5" stroke="#CCCCCC"/>
<defs>
<linearGradient id="paint0_linear_1261_37961" x1="44" y1="0" x2="44" y2="26" gradientUnits="userSpaceOnUse">
<stop stop-color="#FBFBFB"/>
<stop offset="1" stop-color="#F9FAFA"/>
</linearGradient>
<clipPath id="clip0_1261_37961">
<rect width="16" height="16" fill="white" transform="matrix(-1 0 0 1 26 5)"/>
</clipPath>
</defs>
</svg>
