<svg width="8" height="8" viewBox="0 0 8 8" fill="none" xmlns="http://www.w3.org/2000/svg">
<g clip-path="url(#clip0_331_7551)">
<path d="M7.33333 0.666992H0.666667C0.489856 0.666992 0.320286 0.73723 0.195262 0.862254C0.0702379 0.987279 0 1.15685 0 1.33366L0 6.66699C0 6.8438 0.0702379 7.01337 0.195262 7.1384C0.320286 7.26342 0.489856 7.33366 0.666667 7.33366H7.33333C7.51014 7.33366 7.67971 7.26342 7.80474 7.1384C7.92976 7.01337 8 6.8438 8 6.66699V1.33366C8 1.15685 7.92976 0.987279 7.80474 0.862254C7.67971 0.73723 7.51014 0.666992 7.33333 0.666992ZM3.66667 5.33366H1.66667C1.57826 5.33366 1.49348 5.29854 1.43096 5.23603C1.36845 5.17352 1.33333 5.08873 1.33333 5.00033C1.33333 4.91192 1.36845 4.82714 1.43096 4.76462C1.49348 4.70211 1.57826 4.66699 1.66667 4.66699H3.66667C3.75507 4.66699 3.83986 4.70211 3.90237 4.76462C3.96488 4.82714 4 4.91192 4 5.00033C4 5.08873 3.96488 5.17352 3.90237 5.23603C3.83986 5.29854 3.75507 5.33366 3.66667 5.33366ZM6.33333 3.33366H1.66667C1.57826 3.33366 1.49348 3.29854 1.43096 3.23603C1.36845 3.17352 1.33333 3.08873 1.33333 3.00033C1.33333 2.91192 1.36845 2.82714 1.43096 2.76462C1.49348 2.70211 1.57826 2.66699 1.66667 2.66699H6.33333C6.42174 2.66699 6.50652 2.70211 6.56904 2.76462C6.63155 2.82714 6.66667 2.91192 6.66667 3.00033C6.66667 3.08873 6.63155 3.17352 6.56904 3.23603C6.50652 3.29854 6.42174 3.33366 6.33333 3.33366Z" fill="#666666"/>
</g>
<defs>
<clipPath id="clip0_331_7551">
<rect width="8" height="8" fill="white"/>
</clipPath>
</defs>
</svg>
