<svg width="46" height="46" viewBox="0 0 46 46" fill="none" xmlns="http://www.w3.org/2000/svg">
<path d="M23 46C35.7025 46 46 35.7025 46 23C46 10.2975 35.7025 0 23 0C10.2975 0 0 10.2975 0 23C0 35.7025 10.2975 46 23 46Z" fill="black"/>
<path d="M23 38.9999C22.7348 38.9999 22.4804 38.8945 22.2929 38.707C22.1054 38.5194 22 38.2651 22 37.9999V34.9999C22 34.7347 22.1054 34.4803 22.2929 34.2928C22.4804 34.1052 22.7348 33.9999 23 33.9999C23.2652 33.9999 23.5196 34.1052 23.7071 34.2928C23.8946 34.4803 24 34.7347 24 34.9999V37.9999C24 38.2651 23.8946 38.5194 23.7071 38.707C23.5196 38.8945 23.2652 38.9999 23 38.9999Z" fill="white"/>
<path d="M38.217 27.9439C38.135 28.1961 37.9562 28.4054 37.72 28.5258C37.4837 28.6462 37.2092 28.6678 36.957 28.5859L34.1 27.6589C33.9698 27.6229 33.8482 27.5609 33.7426 27.4766C33.637 27.3924 33.5495 27.2876 33.4855 27.1686C33.4216 27.0496 33.3823 26.9189 33.3703 26.7843C33.3582 26.6498 33.3735 26.5141 33.4153 26.3857C33.4571 26.2572 33.5245 26.1385 33.6134 26.0368C33.7023 25.9351 33.811 25.8524 33.9327 25.7939C34.0544 25.7353 34.1868 25.702 34.3218 25.696C34.4567 25.6899 34.5915 25.7113 34.718 25.7589L37.571 26.6859C37.8235 26.767 38.0334 26.9452 38.1545 27.1811C38.2757 27.417 38.2981 27.6914 38.217 27.9439Z" fill="white"/>
<path d="M32.405 10.0559C32.5117 10.1331 32.602 10.2306 32.6709 10.3429C32.7398 10.4551 32.7858 10.5799 32.8064 10.71C32.8269 10.84 32.8215 10.9729 32.7906 11.1009C32.7596 11.2289 32.7037 11.3495 32.626 11.4559L30.862 13.8799C30.7055 14.0944 30.4702 14.238 30.2079 14.2791C29.9455 14.3202 29.6776 14.2553 29.463 14.0989C29.2484 13.9424 29.1048 13.7071 29.0638 13.4447C29.0227 13.1824 29.0875 12.9144 29.244 12.6999L31.008 10.2729C31.1645 10.0589 31.3996 9.91587 31.6616 9.87517C31.9235 9.83448 32.1909 9.89948 32.405 10.0559Z" fill="white"/>
<path d="M13.6 10.0559C13.7063 9.97817 13.827 9.92224 13.955 9.89129C14.083 9.86034 14.2158 9.85498 14.3459 9.87551C14.476 9.89605 14.6007 9.94207 14.713 10.0109C14.8252 10.0798 14.9228 10.1702 15 10.2769L16.756 12.6999C16.9119 12.9144 16.9763 13.1822 16.9348 13.4441C16.8934 13.7061 16.7496 13.9409 16.535 14.0969C16.3204 14.2528 16.0527 14.3171 15.7907 14.2757C15.5287 14.2343 15.2939 14.0904 15.138 13.8759L13.374 11.4489C13.2198 11.234 13.157 10.9668 13.1994 10.7057C13.2417 10.4446 13.3858 10.211 13.6 10.0559Z" fill="white"/>
<path d="M7.783 27.9439C7.70106 27.6916 7.72267 27.4172 7.84307 27.1809C7.96346 26.9446 8.17279 26.7658 8.425 26.6839L11.278 25.7569C11.4045 25.7093 11.5393 25.6879 11.6742 25.694C11.8092 25.7 11.9416 25.7333 12.0633 25.7919C12.185 25.8504 12.2937 25.9331 12.3826 26.0348C12.4715 26.1365 12.5389 26.2552 12.5807 26.3837C12.6225 26.5121 12.6378 26.6478 12.6257 26.7823C12.6137 26.9169 12.5744 27.0476 12.5105 27.1666C12.4465 27.2856 12.359 27.3904 12.2534 27.4746C12.1478 27.5589 12.0262 27.6209 11.896 27.6569L9.043 28.5839C8.79104 28.6659 8.51683 28.6446 8.28058 28.5246C8.04434 28.4046 7.86538 28.1957 7.783 27.9439Z" fill="white"/>
<path d="M29.181 32.4779C29.0189 32.4778 28.8592 32.438 28.716 32.3619L23 29.3619L17.284 32.3619C17.119 32.4483 16.9331 32.487 16.7472 32.4734C16.5614 32.4599 16.3831 32.3947 16.2323 32.2852C16.0816 32.1757 15.9644 32.0263 15.894 31.8538C15.8236 31.6813 15.8028 31.4926 15.834 31.3089L16.926 24.9439L12.3 20.4379C12.1663 20.3076 12.0717 20.1426 12.0269 19.9614C11.9821 19.7802 11.989 19.5901 12.0466 19.4126C12.1042 19.2351 12.2104 19.0773 12.3531 18.957C12.4958 18.8367 12.6693 18.7587 12.854 18.7319L19.244 17.8039L22.102 12.0139C22.1937 11.8577 22.3246 11.7282 22.4818 11.6382C22.6389 11.5482 22.8169 11.5009 22.998 11.5009C23.1791 11.5009 23.3571 11.5482 23.5142 11.6382C23.6714 11.7282 23.8023 11.8577 23.894 12.0139L26.752 17.8039L33.142 18.7319C33.3267 18.7587 33.5002 18.8367 33.6429 18.957C33.7856 19.0773 33.8918 19.2351 33.9494 19.4126C34.007 19.5901 34.0139 19.7802 33.9691 19.9614C33.9243 20.1426 33.8297 20.3076 33.696 20.4379L29.072 24.9439L30.164 31.3089C30.1886 31.4523 30.1816 31.5995 30.1434 31.74C30.1053 31.8804 30.0369 32.0109 29.9431 32.1222C29.8493 32.2336 29.7323 32.3231 29.6004 32.3845C29.4684 32.4459 29.3246 32.4778 29.179 32.4779H29.181Z" fill="white"/>
</svg>
