<svg width="10" height="10" viewBox="0 0 10 10" fill="none" xmlns="http://www.w3.org/2000/svg">
<path d="M9.91667 9.5C9.91667 9.58333 9.83333 9.66667 9.75 9.75C9.66667 9.83333 9.58333 9.91667 9.5 9.91667C9.41667 10 9.25 10 9.16667 10H1.66667C1.16667 10 0.833333 9.66667 0.833333 9.16667C0.833333 8.66667 1.16667 8.33333 1.66667 8.33333H7.16667L0.25 1.41667C-0.0833333 1.08333 -0.0833333 0.583333 0.25 0.25C0.416667 0.083333 0.583333 0 0.833333 0C1.08333 0 1.25 0.083333 1.41667 0.25L8.33333 7.16667V1.66667C8.33333 1.16667 8.66667 0.833334 9.16667 0.833334C9.66667 0.833334 10 1.16667 10 1.66667V9.16667C10 9.25 10 9.41667 9.91667 9.5Z" fill="#FF1717"/>
</svg>
