<svg width="46" height="45" viewBox="0 0 46 45" fill="none" xmlns="http://www.w3.org/2000/svg">
<path d="M45.13 28.9332C44.6392 28.4328 44.0003 28.1035 43.308 27.994C42.6156 27.8845 41.9063 28.0006 41.285 28.3252L32.756 32.5852C32.433 33.5652 31.8272 34.4277 31.0148 35.0639C30.2024 35.7001 29.2199 36.0815 28.191 36.1602L17.091 36.9532H17.018C16.7528 36.9625 16.4948 36.866 16.3007 36.6851C16.1066 36.5041 15.9923 36.2534 15.983 35.9882C15.9737 35.723 16.0702 35.4649 16.2512 35.2708C16.4321 35.0767 16.6828 34.9625 16.948 34.9532L17.019 34.9482L28.027 34.3752C28.8389 34.3161 29.5983 33.9519 30.1527 33.3558C30.707 32.7596 31.0151 31.9757 31.0151 31.1617C31.0151 30.3477 30.707 29.5638 30.1527 28.9677C29.5983 28.3715 28.8389 28.0073 28.027 27.9482L17.727 26.0762C17.257 25.9908 16.7955 25.8637 16.348 25.6962L10.812 23.6202C9.63438 23.1784 8.36914 23.0204 7.11902 23.1592L0.91002 23.8492C0.665332 23.8763 0.439231 23.9927 0.275014 24.1761C0.110796 24.3595 0.0200027 24.597 0.0200195 24.8432V36.9432C0.0200195 37.2084 0.125376 37.4628 0.312913 37.6503C0.500449 37.8378 0.754803 37.9432 1.02002 37.9432H1.85802C3.27449 37.9433 4.66554 38.3194 5.88902 39.0332L13.358 43.4002C15.0714 44.3995 17.095 44.7267 19.036 44.3182L33.295 41.3182C34.4385 41.0777 35.5154 40.5896 36.45 39.8882L44.726 33.6752C45.0851 33.4053 45.3832 33.0627 45.6008 32.6697C45.8183 32.2767 45.9505 31.8421 45.9886 31.3946C46.0268 30.947 45.97 30.4964 45.822 30.0722C45.6741 29.6481 45.4383 29.26 45.13 28.9332Z" fill="#EEBC99"/>
<path d="M28 22C34.0751 22 39 17.0751 39 11C39 4.92487 34.0751 0 28 0C21.9249 0 17 4.92487 17 11C17 17.0751 21.9249 22 28 22Z" fill="#EFD358"/>
<path d="M28 20C26.22 20 24.4799 19.4722 22.9999 18.4832C21.5198 17.4943 20.3663 16.0887 19.6851 14.4442C19.0039 12.7996 18.8257 10.99 19.1729 9.24419C19.5202 7.49836 20.3774 5.89472 21.636 4.63604C22.8947 3.37737 24.4984 2.5202 26.2442 2.17294C27.99 1.82567 29.7996 2.0039 31.4442 2.68509C33.0887 3.36628 34.4943 4.51983 35.4832 5.99987C36.4722 7.47991 37 9.21997 37 11C36.9974 13.3861 36.0483 15.6738 34.361 17.361C32.6738 19.0483 30.3861 19.9974 28 20Z" fill="#D8BC48"/>
<path d="M28 18C26.6155 18 25.2622 17.5895 24.111 16.8203C22.9599 16.0511 22.0627 14.9579 21.5328 13.6788C21.003 12.3997 20.8644 10.9922 21.1345 9.63437C21.4046 8.2765 22.0713 7.02922 23.0503 6.05026C24.0292 5.07129 25.2765 4.4046 26.6344 4.13451C27.9922 3.86441 29.3997 4.00303 30.6788 4.53285C31.9579 5.06266 33.0511 5.95987 33.8203 7.11101C34.5895 8.26216 35 9.61553 35 11C34.9979 12.8559 34.2597 14.6351 32.9474 15.9474C31.6351 17.2597 29.8559 17.9979 28 18Z" fill="#EFD358"/>
<path d="M27.9998 14.9998C27.7346 14.9997 27.4803 14.8943 27.2928 14.7068L24.2928 11.7068C24.1053 11.5193 24 11.265 24 10.9998C24 10.7346 24.1053 10.4803 24.2928 10.2928L27.2928 7.29279C27.4803 7.10532 27.7346 7 27.9998 7C28.265 7 28.5193 7.10532 28.7068 7.29279L31.7068 10.2928C31.8943 10.4803 31.9996 10.7346 31.9996 10.9998C31.9996 11.265 31.8943 11.5193 31.7068 11.7068L28.7068 14.7068C28.5193 14.8943 28.265 14.9997 27.9998 14.9998Z" fill="#D8BC48"/>
</svg>
