<svg width="77" height="65" viewBox="0 0 77 65" fill="none" xmlns="http://www.w3.org/2000/svg">
<path d="M67 0L64 36H76L73 0H67Z" fill="#FFDCD1"/>
<path d="M14.25 39L0 48H14.25V39Z" fill="#FFDCD1"/>
<path d="M28.5 39L14.25 48H28.5V39Z" fill="#FFDCD1"/>
<path d="M42.75 39L28.5 48H42.75V39Z" fill="#FFDCD1"/>
<path d="M57 39L42.75 48H57V39Z" fill="#FFDCD1"/>
<g clip-path="url(#clip0_331_4074)">
<path d="M75.9328 38.3338H72.6613L70.5996 8.39483C70.581 8.12472 70.4605 7.87175 70.2624 7.68716C70.0644 7.50257 69.8036 7.40015 69.5328 7.40063H63.1328C62.8621 7.40014 62.6013 7.50255 62.4032 7.68712C62.2051 7.8717 62.0846 8.12463 62.066 8.39473L60.0043 38.3337H57.8V31.9337C57.8 31.3451 57.3223 30.867 56.7336 30.867C56.491 30.8667 56.2556 30.9492 56.0664 31.101L47.1332 38.2475V31.9338C47.1332 31.3451 46.6559 30.867 46.0668 30.867C45.8244 30.8667 45.5891 30.9493 45.4 31.101L36.4668 38.2475V31.9338C36.4668 31.3451 35.9895 30.867 35.4004 30.867C35.1579 30.8667 34.9227 30.9492 34.7336 31.101L25.8004 38.2475V31.9338C25.8003 31.745 25.7501 31.5596 25.6549 31.3966C25.5597 31.2335 25.4229 31.0987 25.2586 31.0057C25.0942 30.9128 24.9082 30.8651 24.7194 30.8676C24.5306 30.8701 24.3459 30.9226 24.184 31.0198L13.5172 37.4198C13.3595 37.5146 13.229 37.6486 13.1384 37.8087C13.0477 37.9689 13.0001 38.1497 13 38.3337V63.9337C13 64.5228 13.4777 65.0002 14.0668 65.0002H75.9328C76.5218 65.0002 76.9996 64.5229 76.9996 63.9338V39.4006C76.9996 38.8111 76.5219 38.3338 75.9328 38.3338ZM64.1289 9.53383H68.5367L70.5234 38.3338H62.1422L64.1289 9.53383ZM49.266 62.867V50.067H55.666V62.867H49.266ZM74.8664 62.867H57.8V49.0002C57.8 48.4115 57.3219 47.9338 56.7328 47.9338H48.1996C47.6106 47.9338 47.1328 48.4115 47.1328 49.0002V62.867H15.1332V38.9377L23.6664 33.8177V40.467C23.6664 41.0564 24.1437 41.5338 24.7328 41.5346C24.975 41.5346 25.2105 41.4518 25.4 41.3002L34.3332 34.1537V40.467C34.3332 41.0564 34.8102 41.5338 35.3996 41.5346C35.6418 41.5346 35.877 41.4518 36.0664 41.3006L44.9996 34.1541V40.4674C44.9996 41.0564 45.4766 41.5346 46.066 41.5346C46.3082 41.5346 46.5434 41.4518 46.7328 41.3006L55.666 34.1541V39.4006C55.666 39.99 56.1437 40.4674 56.7328 40.4674H74.8656V62.867H74.8664ZM49.259 3.13423C49.6468 3.34211 49.9973 3.61315 50.296 3.93623C50.8939 4.66513 51.7455 5.14072 52.6797 5.26743C53.6635 5.14216 54.5624 4.64619 55.193 3.88073C55.4629 3.59752 55.7651 3.34698 56.0934 3.13423C56.3129 3.14403 56.8879 3.68223 57.1973 3.97123C57.7725 4.68313 58.599 5.14711 59.5063 5.26743C60.5535 5.13471 61.5113 4.6093 62.1859 3.79743C62.4473 3.55223 62.8429 3.17993 62.9195 3.13423C63.4922 3.13423 63.6235 3.32403 63.9758 3.83183C64.203 4.26124 64.542 4.6213 64.957 4.87399C65.3719 5.12668 65.8474 5.26261 66.3332 5.26743C66.9219 5.26743 67.3996 4.78973 67.3996 4.20103C67.3996 3.61153 66.9219 3.13423 66.3332 3.13423C66.1195 3.13423 66.0782 3.11933 65.7316 2.61903C65.4536 2.11968 65.0452 1.70529 64.5498 1.4202C64.0545 1.13511 63.491 0.990045 62.9196 1.00053C62.0566 1.12024 61.2717 1.5643 60.7246 2.24233C60.3703 2.57633 59.7766 3.13413 59.5512 3.13923C59.2209 2.93894 58.9187 2.69549 58.6527 2.41533C58.0113 1.6343 57.0955 1.12815 56.093 1.00063C55.1686 1.12684 54.3261 1.59777 53.7344 2.31903C53.435 2.64006 53.0896 2.9148 52.7094 3.13423C52.3538 2.93054 52.0304 2.6753 51.7496 2.37683C51.1261 1.61992 50.2384 1.12803 49.266 1.00063C48.6773 0.998631 48.1977 1.47443 48.1957 2.06393C48.1937 2.65253 48.6699 3.13223 49.259 3.13423Z" fill="black"/>
<path d="M24.7335 50.0664H20.4663C19.8773 50.0664 19.3999 50.5441 19.3999 51.1328V57.5328C19.3999 58.1223 19.8772 58.5996 20.4663 58.5996H24.7335C25.3222 58.5996 25.7999 58.1223 25.7999 57.5328V51.1328C25.7999 50.5441 25.3222 50.0664 24.7335 50.0664ZM23.6663 56.4664H21.5331V52.2H23.6663V56.4664ZM33.2667 50.0664H28.9999C28.4104 50.0664 27.9331 50.5441 27.9331 51.1328V57.5328C27.9331 57.6729 27.9606 57.8117 28.0142 57.9411C28.0678 58.0706 28.1464 58.1882 28.2454 58.2873C28.3445 58.3863 28.4621 58.4649 28.5916 58.5185C28.721 58.5721 28.8598 58.5997 28.9999 58.5996H33.2667C33.8554 58.5996 34.3331 58.1223 34.3331 57.5328V51.1328C34.3331 50.5441 33.8554 50.0664 33.2667 50.0664ZM32.1995 56.4664H30.0663V52.2H32.1995V56.4664ZM41.7999 50.0664H37.5331C36.9437 50.0664 36.4663 50.5441 36.4663 51.1328V57.5328C36.4662 57.6729 36.4938 57.8117 36.5474 57.9411C36.601 58.0706 36.6796 58.1882 36.7786 58.2873C36.8777 58.3863 36.9953 58.4649 37.1248 58.5185C37.2542 58.5721 37.393 58.5997 37.5331 58.5996H41.7999C42.3886 58.5996 42.8663 58.1223 42.8663 57.5328V51.1328C42.8663 50.5441 42.3886 50.0664 41.7999 50.0664ZM40.7327 56.4664H38.5995V52.2H40.7327V56.4664Z" fill="black"/>
</g>
<defs>
<clipPath id="clip0_331_4074">
<rect width="64" height="64" fill="white" transform="translate(13 1)"/>
</clipPath>
</defs>
</svg>
