<svg width="48" height="47" viewBox="0 0 48 47" fill="none" xmlns="http://www.w3.org/2000/svg">
<rect x="18" width="24.75" height="33" rx="4" fill="#FFDCD1"/>
<path d="M47.6884 40.4396C47.4534 40.1781 47.1306 40.0339 46.7794 40.0339H40.4711V6.57677C40.4711 3.82155 38.2309 1.58008 35.4771 1.58008H5.61244C2.72512 1.58008 0.314998 3.74627 0.00534175 6.6273C-0.0278457 6.97314 0.0814668 7.30577 0.312561 7.5632C0.545717 7.82383 0.867842 7.96727 1.21969 7.96727H9.74953V40.7838C9.74953 43.8922 12.2784 46.421 15.3867 46.421H42.3867C43.783 46.421 45.125 45.9024 46.1654 44.9607C47.1978 44.0262 47.8468 42.756 47.9923 41.3906C48.0326 41.0414 47.9248 40.7039 47.6884 40.4396ZM1.54294 6.46727C1.90172 4.51539 3.59897 3.08008 5.61234 3.08008C7.63753 3.08008 9.32747 4.54286 9.68128 6.46727H1.54294ZM15.3866 44.921C13.1054 44.921 11.2494 43.065 11.2494 40.7838V7.21736C11.2494 5.58405 10.551 4.11067 9.43753 3.08017H35.4772C37.4037 3.08017 38.9712 4.6488 38.9712 6.57686V40.034H20.7228C20.0859 40.034 19.5637 40.5121 19.5081 41.1456C19.3205 43.2626 17.5101 44.921 15.3866 44.921ZM42.3866 44.921H19.1944C20.1385 44.0517 20.7927 42.8667 20.9735 41.5338H46.4569C46.1012 43.4854 44.4031 44.921 42.3866 44.921ZM22.7366 10.6453C22.7366 10.4464 22.8156 10.2557 22.9563 10.115C23.0969 9.97435 23.2877 9.89533 23.4866 9.89533H34.4539C34.6528 9.89533 34.8436 9.97435 34.9842 10.115C35.1249 10.2557 35.2039 10.4464 35.2039 10.6453C35.2039 10.8442 35.1249 11.035 34.9842 11.1757C34.8436 11.3163 34.6528 11.3953 34.4539 11.3953H23.4865C23.2876 11.3953 23.0969 11.3163 22.9562 11.1757C22.8155 11.035 22.7366 10.8442 22.7366 10.6453ZM22.7366 16.5264C22.7366 16.3274 22.8156 16.1367 22.9563 15.996C23.0969 15.8554 23.2877 15.7764 23.4866 15.7764H34.4539C34.6528 15.7764 34.8436 15.8554 34.9842 15.996C35.1249 16.1367 35.2039 16.3274 35.2039 16.5264C35.2039 16.7253 35.1249 16.916 34.9842 17.0567C34.8436 17.1973 34.6528 17.2764 34.4539 17.2764H23.4865C23.2876 17.2764 23.0969 17.1973 22.9562 17.0567C22.8155 16.916 22.7366 16.7253 22.7366 16.5264ZM22.7366 22.4073C22.7366 22.2084 22.8156 22.0176 22.9563 21.877C23.0969 21.7363 23.2877 21.6573 23.4866 21.6573H34.4539C34.6528 21.6573 34.8436 21.7363 34.9842 21.877C35.1249 22.0176 35.2039 22.2084 35.2039 22.4073C35.2039 22.6062 35.1249 22.797 34.9842 22.9376C34.8436 23.0783 34.6528 23.1573 34.4539 23.1573H23.4865C23.2876 23.1573 23.0969 23.0783 22.9562 22.9376C22.8155 22.797 22.7366 22.6062 22.7366 22.4073ZM22.7366 28.2883C22.7366 28.0894 22.8156 27.8986 22.9563 27.758C23.0969 27.6173 23.2877 27.5383 23.4866 27.5383H34.4539C34.6528 27.5383 34.8436 27.6173 34.9842 27.758C35.1249 27.8986 35.2039 28.0894 35.2039 28.2883C35.2039 28.4872 35.1249 28.678 34.9842 28.8187C34.8436 28.9593 34.6528 29.0383 34.4539 29.0383H23.4865C23.2876 29.0383 23.0969 28.9593 22.9562 28.8187C22.8155 28.678 22.7366 28.4872 22.7366 28.2883ZM22.7366 34.1694C22.7366 33.9704 22.8156 33.7797 22.9563 33.639C23.0969 33.4984 23.2877 33.4194 23.4866 33.4194H34.4539C34.6528 33.4194 34.8436 33.4984 34.9842 33.639C35.1249 33.7797 35.2039 33.9704 35.2039 34.1694C35.2039 34.3683 35.1249 34.559 34.9842 34.6997C34.8436 34.8403 34.6528 34.9194 34.4539 34.9194H23.4865C23.2876 34.9194 23.0969 34.8403 22.9562 34.6997C22.8155 34.559 22.7366 34.3683 22.7366 34.1694ZM15.1956 10.682C15.0694 10.5296 15.0085 10.3336 15.0262 10.1365C15.044 9.93948 15.1388 9.75742 15.2901 9.62999C15.4414 9.50255 15.637 9.44007 15.8342 9.45614C16.0313 9.47221 16.2142 9.56554 16.3429 9.7158L17.2706 10.8176L18.9478 8.82564C19.0112 8.75028 19.0889 8.68816 19.1763 8.64281C19.2638 8.59747 19.3593 8.56979 19.4574 8.56136C19.5556 8.55294 19.6544 8.56392 19.7483 8.5937C19.8422 8.62347 19.9293 8.67145 20.0047 8.73489C20.1568 8.86301 20.2518 9.04631 20.2688 9.24449C20.2858 9.44267 20.2234 9.63948 20.0953 9.79164L17.8446 12.4651C17.7742 12.5487 17.6863 12.616 17.5872 12.6621C17.4881 12.7082 17.3801 12.7321 17.2708 12.7321C17.1615 12.7321 17.0535 12.7082 16.9544 12.6621C16.8553 12.616 16.7675 12.5487 16.6971 12.4651L15.1956 10.682ZM15.1956 16.5629C15.0694 16.4105 15.0085 16.2145 15.0262 16.0175C15.044 15.8204 15.1388 15.6384 15.2901 15.5109C15.4414 15.3835 15.637 15.321 15.8342 15.3371C16.0313 15.3532 16.2142 15.4465 16.3429 15.5967L17.2708 16.6987L18.9478 14.7067C19.0112 14.6313 19.0889 14.5692 19.1763 14.5238C19.2638 14.4785 19.3593 14.4508 19.4574 14.4424C19.5556 14.434 19.6544 14.445 19.7483 14.4747C19.8422 14.5045 19.9293 14.5525 20.0047 14.6159C20.1568 14.744 20.2519 14.9273 20.2689 15.1255C20.2859 15.3237 20.2235 15.5205 20.0954 15.6727L17.8445 18.3461C17.7741 18.4297 17.6863 18.4969 17.5872 18.543C17.4881 18.5891 17.3801 18.613 17.2708 18.613C17.1615 18.613 17.0536 18.5891 16.9545 18.543C16.8554 18.4969 16.7676 18.4297 16.6972 18.3461L15.1956 16.5629ZM15.1956 22.444C15.0694 22.2917 15.0085 22.0956 15.0262 21.8986C15.044 21.7015 15.1388 21.5195 15.2901 21.392C15.4414 21.2646 15.637 21.2021 15.8342 21.2182C16.0313 21.2343 16.2142 21.3276 16.3429 21.4779L17.2706 22.5796L18.9478 20.5876C19.0113 20.5123 19.0889 20.4501 19.1764 20.4048C19.2638 20.3595 19.3593 20.3318 19.4575 20.3234C19.5556 20.315 19.6544 20.326 19.7483 20.3557C19.8422 20.3855 19.9293 20.4335 20.0047 20.497C20.1568 20.6251 20.2518 20.8084 20.2688 21.0066C20.2858 21.2047 20.2234 21.4015 20.0953 21.5537L17.8446 24.2272C17.7742 24.3108 17.6863 24.378 17.5872 24.4241C17.4881 24.4703 17.3801 24.4941 17.2708 24.4941C17.1615 24.4941 17.0535 24.4703 16.9544 24.4241C16.8553 24.378 16.7675 24.3108 16.6971 24.2272L15.1956 22.444ZM15.1956 28.3277C15.0694 28.1753 15.0085 27.9793 15.0262 27.7822C15.044 27.5852 15.1388 27.4031 15.2901 27.2757C15.4414 27.1483 15.637 27.0858 15.8342 27.1019C16.0313 27.1179 16.2142 27.2113 16.3429 27.3615L17.2704 28.463L18.9476 26.4689C19.0762 26.3184 19.259 26.2249 19.4563 26.2086C19.6535 26.1924 19.8492 26.2547 20.0006 26.3821C20.1521 26.5095 20.2471 26.6916 20.2648 26.8888C20.2826 27.0859 20.2217 27.282 20.0955 27.4345L17.8447 30.1105C17.7744 30.1941 17.6866 30.2614 17.5874 30.3075C17.4883 30.3537 17.3803 30.3776 17.271 30.3776C17.1617 30.3776 17.0535 30.3538 16.9544 30.3077C16.8553 30.2616 16.7675 30.1944 16.6971 30.1108L15.1956 28.3277ZM20.0955 33.3154L17.8447 35.9915C17.7743 36.0752 17.6865 36.1425 17.5874 36.1886C17.4883 36.2348 17.3802 36.2587 17.2709 36.2588C17.0497 36.2588 16.8395 36.1611 16.6971 35.9919L15.1956 34.2087C15.1312 34.1335 15.0823 34.0463 15.0517 33.9521C15.0212 33.8579 15.0096 33.7586 15.0177 33.6599C15.0257 33.5612 15.0532 33.4651 15.0986 33.3771C15.144 33.2891 15.2064 33.211 15.2821 33.1472C15.3578 33.0834 15.4454 33.0353 15.5399 33.0055C15.6343 32.9758 15.7337 32.965 15.8323 32.9739C15.931 32.9827 16.0269 33.011 16.1145 33.0572C16.2021 33.1033 16.2797 33.1663 16.3429 33.2425L17.2704 34.344L18.9476 32.35C19.0106 32.2733 19.0882 32.2098 19.1758 32.1633C19.2635 32.1168 19.3595 32.0882 19.4583 32.0791C19.5572 32.07 19.6568 32.0805 19.7515 32.1102C19.8462 32.1399 19.9341 32.188 20.01 32.2519C20.086 32.3158 20.1485 32.3941 20.1939 32.4823C20.2394 32.5705 20.2669 32.6669 20.2749 32.7658C20.2828 32.8647 20.271 32.9642 20.2403 33.0586C20.2095 33.1529 20.1603 33.2402 20.0955 33.3154Z" fill="black"/>
</svg>
