<svg width="48" height="48" viewBox="0 0 48 48" fill="none" xmlns="http://www.w3.org/2000/svg">
<rect x="31.7646" width="14.1176" height="31.0588" rx="4" fill="#FFDCD1"/>
<rect y="42.3535" width="41.6471" height="5.64706" rx="2.82353" fill="#FFDCD1"/>
<g clip-path="url(#clip0_331_3846)">
<path d="M45.2083 43.6537H43.9393V3.807C43.9393 3.60507 43.8591 3.41141 43.7163 3.26862C43.5735 3.12583 43.3799 3.04562 43.178 3.04562H28.9651C28.8651 3.04561 28.7661 3.06529 28.6737 3.10355C28.5813 3.14181 28.4974 3.19789 28.4267 3.2686C28.356 3.3393 28.2999 3.42324 28.2616 3.51562C28.2234 3.608 28.2037 3.70701 28.2037 3.807V7.10638H26.6809V3.807C26.6809 3.60507 26.6007 3.41141 26.4579 3.26862C26.3152 3.12583 26.1215 3.04562 25.9196 3.04562H22.6201V0.761382C22.6201 0.340765 22.2792 0 21.8587 0C21.4383 0 21.0973 0.340765 21.0973 0.761382V3.04562H17.7979C17.698 3.04561 17.5989 3.06529 17.5066 3.10355C17.4142 3.14181 17.3302 3.19789 17.2595 3.2686C17.1888 3.3393 17.1328 3.42324 17.0945 3.51562C17.0562 3.608 17.0366 3.70701 17.0366 3.807V7.10638H14.7523C14.6523 7.10637 14.5533 7.12606 14.4609 7.16432C14.3686 7.20257 14.2846 7.25866 14.2139 7.32936C14.1432 7.40006 14.0871 7.484 14.0489 7.57638C14.0106 7.66876 13.9909 7.76778 13.9909 7.86776V14.2128H7.64595C7.54596 14.2128 7.44694 14.2324 7.35456 14.2707C7.26218 14.309 7.17824 14.365 7.10754 14.4357C7.03684 14.5064 6.98076 14.5904 6.9425 14.6828C6.90424 14.7751 6.88455 14.8742 6.88456 14.9741V43.6536H5.61539C5.19486 43.6536 4.854 43.9944 4.854 44.415C4.854 44.8356 5.19495 45.1765 5.61539 45.1765H45.2083C45.6289 45.1765 45.9697 44.8357 45.9697 44.4151C45.9697 43.9945 45.6288 43.6537 45.2083 43.6537ZM18.5592 4.56838H25.158V7.10638H18.5592V4.56838ZM16.0212 43.6537H15.5136V42.3847C15.5136 41.9641 15.1727 41.6233 14.7522 41.6233C14.3318 41.6233 13.9909 41.9641 13.9909 42.3847V43.6537H13.4832V41.1157H16.0212V43.6537ZM21.0972 24.111V43.6537H17.544V40.3543C17.544 40.1524 17.4638 39.9587 17.321 39.8159C17.1782 39.6732 16.9846 39.5929 16.7826 39.5929H12.7219C12.6219 39.5929 12.5229 39.6126 12.4305 39.6509C12.3381 39.6891 12.2542 39.7452 12.1835 39.8159C12.1127 39.8866 12.0567 39.9706 12.0184 40.0629C11.9801 40.1553 11.9605 40.2543 11.9605 40.3543V43.6537H8.40724V15.7356H21.0972V24.111ZM21.8586 14.2129H15.5136V8.62924H28.2036V23.3496H22.6201V20.8116H24.9043C25.3249 20.8116 25.6657 20.4709 25.6657 20.0502C25.6657 19.6296 25.3248 19.2889 24.9043 19.2889H22.6201V16.7509H24.9043C25.3249 16.7509 25.6657 16.4101 25.6657 15.9895C25.6657 15.5689 25.3248 15.2281 24.9043 15.2281H22.6201V14.9743C22.6201 14.8743 22.6004 14.7753 22.5622 14.6829C22.5239 14.5905 22.4678 14.5066 22.3971 14.4359C22.3264 14.3651 22.2424 14.3091 22.15 14.2708C22.0576 14.2325 21.9586 14.2128 21.8586 14.2129ZM35.3101 43.6537H22.6201V24.8725H35.3101V43.6537ZM42.4165 43.6537H36.8329V23.0958C36.8329 22.6751 36.4919 22.3344 36.0715 22.3344C35.651 22.3344 35.3101 22.6751 35.3101 23.0958V23.3495H33.7873V23.0958C33.7873 22.6751 33.4464 22.3344 33.0259 22.3344C32.6055 22.3344 32.2646 22.6751 32.2646 23.0958V23.3495H29.7266V4.56838H42.4166V43.6537H42.4165Z" fill="black"/>
<path d="M25.9195 42.132C26.1215 42.132 26.3151 42.0517 26.4579 41.909C26.6007 41.7662 26.6809 41.5725 26.6809 41.3706V27.1578C26.6809 26.7372 26.34 26.3965 25.9195 26.3965C25.4991 26.3965 25.1582 26.7372 25.1582 27.1578V41.3707C25.1582 41.4707 25.1779 41.5697 25.2161 41.662C25.2544 41.7544 25.3105 41.8383 25.3812 41.909C25.4519 41.9797 25.5358 42.0358 25.6282 42.0741C25.7206 42.1123 25.8196 42.132 25.9195 42.132ZM28.9652 42.132C29.1671 42.132 29.3607 42.0517 29.5035 41.909C29.6463 41.7662 29.7265 41.5725 29.7265 41.3706V27.1578C29.7265 26.7372 29.3856 26.3965 28.9652 26.3965C28.5447 26.3965 28.2038 26.7372 28.2038 27.1578V41.3707C28.2038 41.4707 28.2235 41.5697 28.2617 41.662C28.3 41.7544 28.3561 41.8383 28.4268 41.909C28.4975 41.9797 28.5814 42.0358 28.6738 42.0741C28.7662 42.1123 28.8652 42.132 28.9652 42.132ZM32.0107 42.132C32.2126 42.132 32.4063 42.0517 32.549 41.909C32.6918 41.7662 32.7721 41.5725 32.7721 41.3706V27.1578C32.7721 26.7372 32.4311 26.3965 32.0107 26.3965C31.5903 26.3965 31.2493 26.7372 31.2493 27.1578V41.3707C31.2493 41.5726 31.3296 41.7662 31.4723 41.909C31.6151 42.0518 31.8088 42.132 32.0107 42.132ZM33.0259 9.64533C33.1259 9.64535 33.2249 9.62566 33.3173 9.5874C33.4097 9.54914 33.4936 9.49306 33.5643 9.42236C33.635 9.35165 33.6911 9.26771 33.7294 9.17533C33.7676 9.08295 33.7873 8.98394 33.7873 8.88395V7.8688C33.7873 7.44819 33.4464 7.10742 33.0259 7.10742C32.6055 7.10742 32.2645 7.44819 32.2645 7.8688V8.88404C32.2645 8.98402 32.2842 9.08302 32.3225 9.17539C32.3608 9.26776 32.4169 9.35169 32.4876 9.42239C32.5583 9.49308 32.6422 9.54916 32.7346 9.58741C32.8269 9.62566 32.9259 9.64535 33.0259 9.64533ZM36.0715 9.64533C36.1715 9.64535 36.2705 9.62566 36.3629 9.5874C36.4553 9.54914 36.5392 9.49306 36.6099 9.42236C36.6807 9.35165 36.7367 9.26771 36.775 9.17533C36.8133 9.08295 36.8329 8.98394 36.8329 8.88395V7.8688C36.8329 7.44819 36.492 7.10742 36.0715 7.10742C35.6511 7.10742 35.3102 7.44819 35.3102 7.8688V8.88404C35.3102 8.98402 35.3299 9.08302 35.3681 9.17539C35.4064 9.26776 35.4625 9.35169 35.5332 9.42239C35.6039 9.49308 35.6878 9.54916 35.7802 9.58741C35.8726 9.62566 35.9716 9.64535 36.0715 9.64533ZM39.1172 9.64533C39.2172 9.64535 39.3162 9.62566 39.4085 9.5874C39.5009 9.54914 39.5849 9.49306 39.6556 9.42236C39.7263 9.35165 39.7824 9.26771 39.8206 9.17533C39.8589 9.08295 39.8786 8.98394 39.8785 8.88395V7.8688C39.8785 7.44819 39.5376 7.10742 39.1172 7.10742C38.6967 7.10742 38.3558 7.44819 38.3558 7.8688V8.88404C38.3558 8.98402 38.3755 9.08302 38.4137 9.17539C38.452 9.26776 38.5081 9.35169 38.5788 9.42239C38.6495 9.49308 38.7334 9.54916 38.8258 9.58741C38.9182 9.62566 39.0172 9.64535 39.1172 9.64533ZM33.0259 14.7213C33.1259 14.7213 33.2249 14.7017 33.3173 14.6634C33.4097 14.6251 33.4936 14.5691 33.5643 14.4984C33.635 14.4277 33.6911 14.3437 33.7294 14.2513C33.7676 14.159 33.7873 14.0599 33.7873 13.96V12.9447C33.7873 12.5241 33.4464 12.1833 33.0259 12.1833C32.6055 12.1833 32.2645 12.5241 32.2645 12.9447V13.96C32.2645 14.0599 32.2842 14.159 32.3225 14.2513C32.3607 14.3437 32.4168 14.4277 32.4875 14.4984C32.5582 14.5691 32.6422 14.6251 32.7345 14.6634C32.8269 14.7017 32.9259 14.7213 33.0259 14.7213ZM36.0715 14.7213C36.1715 14.7213 36.2705 14.7017 36.3629 14.6634C36.4553 14.6251 36.5392 14.5691 36.6099 14.4984C36.6807 14.4277 36.7367 14.3437 36.775 14.2513C36.8133 14.159 36.8329 14.0599 36.8329 13.96V12.9447C36.8329 12.5241 36.492 12.1833 36.0715 12.1833C35.6511 12.1833 35.3102 12.5241 35.3102 12.9447V13.96C35.3102 14.0599 35.3298 14.159 35.3681 14.2513C35.4064 14.3437 35.4624 14.4277 35.5331 14.4984C35.6038 14.5691 35.6878 14.6251 35.7802 14.6634C35.8725 14.7017 35.9716 14.7213 36.0715 14.7213ZM39.1172 14.7213C39.2172 14.7213 39.3162 14.7017 39.4085 14.6634C39.5009 14.6251 39.5849 14.5691 39.6556 14.4984C39.7263 14.4277 39.7824 14.3437 39.8206 14.2513C39.8589 14.159 39.8786 14.0599 39.8785 13.96V12.9447C39.8785 12.5241 39.5376 12.1833 39.1172 12.1833C38.6967 12.1833 38.3558 12.5241 38.3558 12.9447V13.96C38.3558 14.0599 38.3755 14.159 38.4137 14.2513C38.452 14.3437 38.5081 14.4277 38.5788 14.4984C38.6495 14.5691 38.7334 14.6251 38.8258 14.6634C38.9182 14.7017 39.0172 14.7213 39.1172 14.7213ZM33.0259 19.7974C33.1259 19.7974 33.2249 19.7777 33.3173 19.7395C33.4097 19.7012 33.4936 19.6451 33.5643 19.5744C33.635 19.5037 33.6911 19.4198 33.7294 19.3274C33.7676 19.235 33.7873 19.136 33.7873 19.036V18.0208C33.7873 17.6002 33.4464 17.2594 33.0259 17.2594C32.6055 17.2594 32.2645 17.6002 32.2645 18.0208V19.036C32.2645 19.238 32.3448 19.4316 32.4876 19.5744C32.6303 19.7172 32.824 19.7974 33.0259 19.7974ZM36.0715 19.7974C36.1715 19.7974 36.2705 19.7777 36.3629 19.7395C36.4553 19.7012 36.5392 19.6451 36.6099 19.5744C36.6807 19.5037 36.7367 19.4198 36.775 19.3274C36.8133 19.235 36.8329 19.136 36.8329 19.036V18.0208C36.8329 17.6002 36.492 17.2594 36.0715 17.2594C35.6511 17.2594 35.3102 17.6002 35.3102 18.0208V19.036C35.3102 19.238 35.3904 19.4316 35.5332 19.5744C35.676 19.7172 35.8696 19.7974 36.0715 19.7974ZM39.1172 19.7974C39.2172 19.7974 39.3162 19.7777 39.4085 19.7395C39.5009 19.7012 39.5849 19.6451 39.6556 19.5744C39.7263 19.5037 39.7824 19.4198 39.8206 19.3274C39.8589 19.235 39.8786 19.136 39.8785 19.036V18.0208C39.8785 17.6002 39.5376 17.2594 39.1172 17.2594C38.6967 17.2594 38.3558 17.6002 38.3558 18.0208V19.036C38.3558 19.238 38.436 19.4316 38.5788 19.5744C38.7216 19.7172 38.9152 19.7974 39.1172 19.7974ZM11.7067 21.8278C11.8067 21.8278 11.9057 21.8081 11.9981 21.7699C12.0905 21.7316 12.1744 21.6755 12.2451 21.6048C12.3158 21.5341 12.3719 21.4502 12.4101 21.3578C12.4484 21.2654 12.4681 21.1664 12.4681 21.0664V20.0512C12.4681 19.6306 12.1271 19.2898 11.7067 19.2898C11.2863 19.2898 10.9453 19.6306 10.9453 20.0512V21.0664C10.9453 21.2683 11.0256 21.462 11.1683 21.6048C11.3111 21.7476 11.5048 21.8278 11.7067 21.8278ZM14.7523 21.8278C14.8523 21.8278 14.9513 21.8081 15.0437 21.7699C15.1361 21.7316 15.22 21.6755 15.2907 21.6048C15.3614 21.5341 15.4175 21.4502 15.4558 21.3578C15.494 21.2654 15.5137 21.1664 15.5137 21.0664V20.0512C15.5137 19.6306 15.1728 19.2898 14.7523 19.2898C14.3319 19.2898 13.9909 19.6306 13.9909 20.0512V21.0664C13.9909 21.2684 14.0711 21.462 14.2139 21.6048C14.3567 21.7476 14.5504 21.8278 14.7523 21.8278ZM17.7979 21.8278C17.8979 21.8278 17.9969 21.8081 18.0893 21.7699C18.1817 21.7316 18.2656 21.6755 18.3363 21.6048C18.407 21.5341 18.4631 21.4502 18.5014 21.3578C18.5396 21.2654 18.5593 21.1664 18.5593 21.0664V20.0512C18.5593 19.6306 18.2184 19.2898 17.7979 19.2898C17.3775 19.2898 17.0365 19.6306 17.0365 20.0512V21.0664C17.0365 21.2684 17.1168 21.462 17.2596 21.6048C17.4023 21.7476 17.596 21.8278 17.7979 21.8278ZM11.7067 26.9038C11.8067 26.9038 11.9057 26.8841 11.9981 26.8459C12.0905 26.8076 12.1744 26.7515 12.2451 26.6808C12.3158 26.6101 12.3719 26.5262 12.4101 26.4338C12.4484 26.3414 12.4681 26.2424 12.4681 26.1424V25.1272C12.4681 24.7066 12.1271 24.3658 11.7067 24.3658C11.2863 24.3658 10.9453 24.7066 10.9453 25.1272V26.1424C10.9453 26.3443 11.0256 26.538 11.1683 26.6808C11.3111 26.8236 11.5048 26.9038 11.7067 26.9038ZM14.7523 26.9038C14.8523 26.9038 14.9513 26.8841 15.0437 26.8459C15.1361 26.8076 15.22 26.7515 15.2907 26.6808C15.3614 26.6101 15.4175 26.5262 15.4558 26.4338C15.494 26.3414 15.5137 26.2424 15.5137 26.1424V25.1272C15.5137 24.7066 15.1728 24.3658 14.7523 24.3658C14.3319 24.3658 13.9909 24.7066 13.9909 25.1272V26.1424C13.9909 26.3444 14.0711 26.538 14.2139 26.6808C14.3567 26.8236 14.5504 26.9038 14.7523 26.9038ZM17.7979 26.9038C17.8979 26.9038 17.9969 26.8841 18.0893 26.8459C18.1817 26.8076 18.2656 26.7515 18.3363 26.6808C18.407 26.6101 18.4631 26.5262 18.5014 26.4338C18.5396 26.3414 18.5593 26.2424 18.5593 26.1424V25.1272C18.5593 24.7066 18.2184 24.3658 17.7979 24.3658C17.3775 24.3658 17.0365 24.7066 17.0365 25.1272V26.1424C17.0365 26.3444 17.1168 26.538 17.2596 26.6808C17.4023 26.8236 17.596 26.9038 17.7979 26.9038ZM11.7067 31.9798C11.8067 31.9798 11.9057 31.9601 11.9981 31.9219C12.0905 31.8836 12.1744 31.8275 12.2451 31.7568C12.3158 31.6861 12.3719 31.6022 12.4101 31.5098C12.4484 31.4174 12.4681 31.3184 12.4681 31.2184V30.2032C12.4681 29.7826 12.1271 29.4418 11.7067 29.4418C11.2863 29.4418 10.9453 29.7826 10.9453 30.2032V31.2184C10.9453 31.3184 10.965 31.4174 11.0033 31.5098C11.0415 31.6022 11.0976 31.6861 11.1683 31.7568C11.239 31.8275 11.323 31.8836 11.4153 31.9218C11.5077 31.9601 11.6067 31.9798 11.7067 31.9798ZM14.7523 31.9798C14.8523 31.9798 14.9513 31.9601 15.0437 31.9219C15.1361 31.8836 15.22 31.8275 15.2907 31.7568C15.3614 31.6861 15.4175 31.6022 15.4558 31.5098C15.494 31.4174 15.5137 31.3184 15.5137 31.2184V30.2032C15.5137 29.7826 15.1728 29.4418 14.7523 29.4418C14.3319 29.4418 13.9909 29.7826 13.9909 30.2032V31.2184C13.9909 31.3184 14.0106 31.4174 14.0489 31.5098C14.0871 31.6022 14.1432 31.6861 14.2139 31.7568C14.2846 31.8275 14.3686 31.8836 14.4609 31.9219C14.5533 31.9601 14.6523 31.9798 14.7523 31.9798ZM17.7979 31.9798C17.8979 31.9798 17.9969 31.9601 18.0893 31.9219C18.1817 31.8836 18.2656 31.8275 18.3363 31.7568C18.407 31.6861 18.4631 31.6022 18.5014 31.5098C18.5396 31.4174 18.5593 31.3184 18.5593 31.2184V30.2032C18.5593 29.7826 18.2184 29.4418 17.7979 29.4418C17.3775 29.4418 17.0365 29.7826 17.0365 30.2032V31.2184C17.0365 31.3184 17.0562 31.4174 17.0945 31.5098C17.1327 31.6022 17.1888 31.6861 17.2595 31.7568C17.3302 31.8275 17.4142 31.8836 17.5065 31.9219C17.5989 31.9601 17.6979 31.9798 17.7979 31.9798ZM11.7067 37.0558C11.8067 37.0558 11.9057 37.0361 11.9981 36.9979C12.0905 36.9596 12.1744 36.9035 12.2451 36.8328C12.3158 36.7621 12.3719 36.6782 12.4101 36.5858C12.4484 36.4934 12.4681 36.3944 12.4681 36.2944V35.2792C12.4681 34.8586 12.1271 34.5178 11.7067 34.5178C11.2863 34.5178 10.9453 34.8586 10.9453 35.2792V36.2944C10.9453 36.4964 11.0255 36.69 11.1683 36.8328C11.3111 36.9756 11.5048 37.0558 11.7067 37.0558ZM14.7523 37.0558C14.8523 37.0558 14.9513 37.0361 15.0437 36.9979C15.1361 36.9596 15.22 36.9035 15.2907 36.8328C15.3614 36.7621 15.4175 36.6782 15.4558 36.5858C15.494 36.4934 15.5137 36.3944 15.5137 36.2944V35.2792C15.5137 34.8586 15.1728 34.5178 14.7523 34.5178C14.3319 34.5178 13.9909 34.8586 13.9909 35.2792V36.2944C13.9909 36.3944 14.0106 36.4934 14.0489 36.5858C14.0871 36.6782 14.1432 36.7621 14.2139 36.8328C14.2846 36.9035 14.3686 36.9596 14.4609 36.9979C14.5533 37.0361 14.6523 37.0558 14.7523 37.0558ZM17.7979 37.0558C17.8979 37.0558 17.9969 37.0361 18.0893 36.9979C18.1817 36.9596 18.2656 36.9035 18.3363 36.8328C18.407 36.7621 18.4631 36.6782 18.5014 36.5858C18.5396 36.4934 18.5593 36.3944 18.5593 36.2944V35.2792C18.5593 34.8586 18.2184 34.5178 17.7979 34.5178C17.3775 34.5178 17.0365 34.8586 17.0365 35.2792V36.2944C17.0365 36.3944 17.0562 36.4934 17.0945 36.5858C17.1327 36.6782 17.1888 36.7621 17.2595 36.8328C17.3302 36.9035 17.4142 36.9596 17.5065 36.9979C17.5989 37.0361 17.6979 37.0558 17.7979 37.0558ZM39.1172 24.8734C39.2172 24.8734 39.3162 24.8537 39.4085 24.8155C39.5009 24.7772 39.5849 24.7211 39.6556 24.6504C39.7263 24.5797 39.7824 24.4958 39.8206 24.4034C39.8589 24.311 39.8786 24.212 39.8785 24.112V23.0968C39.8785 22.6762 39.5376 22.3354 39.1172 22.3354C38.6967 22.3354 38.3558 22.6762 38.3558 23.0968V24.112C38.3558 24.314 38.436 24.5076 38.5788 24.6504C38.7216 24.7932 38.9152 24.8734 39.1172 24.8734ZM39.1172 29.9494C39.2172 29.9494 39.3162 29.9297 39.4085 29.8915C39.5009 29.8532 39.5849 29.7971 39.6556 29.7264C39.7263 29.6557 39.7824 29.5718 39.8206 29.4794C39.8589 29.387 39.8786 29.288 39.8785 29.188V28.1728C39.8785 27.7522 39.5376 27.4114 39.1172 27.4114C38.6967 27.4114 38.3558 27.7522 38.3558 28.1728V29.188C38.3558 29.39 38.436 29.5836 38.5788 29.7264C38.7216 29.8692 38.9152 29.9494 39.1172 29.9494ZM39.1172 35.0254C39.2172 35.0254 39.3162 35.0057 39.4085 34.9675C39.5009 34.9292 39.5849 34.8731 39.6556 34.8024C39.7263 34.7317 39.7824 34.6478 39.8206 34.5554C39.8589 34.463 39.8786 34.364 39.8785 34.264V33.2488C39.8785 32.8282 39.5376 32.4874 39.1172 32.4874C38.6967 32.4874 38.3558 32.8282 38.3558 33.2488V34.264C38.3558 34.364 38.3755 34.463 38.4137 34.5554C38.452 34.6478 38.5081 34.7317 38.5788 34.8024C38.6495 34.8731 38.7334 34.9292 38.8258 34.9675C38.9182 35.0057 39.0172 35.0254 39.1172 35.0254ZM39.1172 40.1014C39.2172 40.1014 39.3162 40.0817 39.4085 40.0435C39.5009 40.0052 39.5849 39.9491 39.6556 39.8784C39.7263 39.8077 39.7824 39.7238 39.8206 39.6314C39.8589 39.539 39.8786 39.44 39.8785 39.34V38.3248C39.8785 37.9042 39.5376 37.5634 39.1172 37.5634C38.6967 37.5634 38.3558 37.9042 38.3558 38.3248V39.34C38.3558 39.542 38.436 39.7356 38.5788 39.8784C38.7216 40.0212 38.9152 40.1014 39.1172 40.1014ZM25.6657 11.9296C25.6657 11.7276 25.5855 11.534 25.4427 11.3912C25.2999 11.2484 25.1062 11.1682 24.9043 11.1682H18.8131C18.7131 11.1682 18.6141 11.1879 18.5217 11.2261C18.4293 11.2644 18.3454 11.3205 18.2747 11.3912C18.204 11.4619 18.1479 11.5458 18.1096 11.6382C18.0714 11.7306 18.0517 11.8296 18.0517 11.9296C18.0517 12.1315 18.1319 12.3252 18.2747 12.4679C18.4175 12.6107 18.6111 12.691 18.8131 12.691H24.9043C25.0043 12.691 25.1033 12.6713 25.1957 12.633C25.2881 12.5948 25.372 12.5387 25.4427 12.468C25.5134 12.3973 25.5695 12.3133 25.6078 12.221C25.646 12.1286 25.6657 12.0296 25.6657 11.9296Z" fill="black"/>
</g>
<defs>
<clipPath id="clip0_331_3846">
<rect width="45.1765" height="45.1765" fill="white" transform="translate(2.82373)"/>
</clipPath>
</defs>
</svg>
