<svg width="48" height="48" viewBox="0 0 48 48" fill="none" xmlns="http://www.w3.org/2000/svg">
<path d="M24 31C27.866 31 31 27.866 31 24C31 20.134 27.866 17 24 17C20.134 17 17 20.134 17 24C17 27.866 20.134 31 24 31Z" fill="#FF7163"/>
<path d="M5 24.0001C4.997 20.5991 5.90776 17.2598 7.63705 14.3312C9.36634 11.4027 11.8506 8.99248 14.8302 7.35266C17.8098 5.71285 21.1752 4.90363 24.5746 5.00961C27.9739 5.11559 31.2824 6.13289 34.154 7.95514L31.125 10.5241C30.9864 10.6414 30.8824 10.7942 30.824 10.966C30.7657 11.1379 30.7552 11.3225 30.7937 11.4998C30.8323 11.6772 30.9184 11.8408 31.0428 11.973C31.1672 12.1051 31.3253 12.201 31.5 12.2501L42.367 15.2781C42.4542 15.3029 42.5444 15.3154 42.635 15.3151C42.9002 15.3151 43.1546 15.2098 43.3421 15.0222C43.5296 14.8347 43.635 14.5804 43.635 14.3151C43.6349 14.2733 43.6322 14.2316 43.627 14.1901L42.24 3.12314C42.2177 2.94417 42.1473 2.77459 42.0365 2.63233C41.9256 2.49008 41.7783 2.38045 41.6103 2.31507C41.4422 2.24968 41.2595 2.23096 41.0817 2.2609C40.9038 2.29084 40.7374 2.36832 40.6 2.48514L37.332 5.25814C33.8915 2.81075 29.8437 1.35763 25.6322 1.058C21.4207 0.758367 17.208 1.62379 13.4557 3.55944C9.70334 5.49509 6.55623 8.42626 4.35919 12.0318C2.16216 15.6373 0.999977 19.778 1 24.0001C1 24.5306 1.21071 25.0393 1.58579 25.4143C1.96086 25.7894 2.46957 26.0001 3 26.0001C3.53043 26.0001 4.03914 25.7894 4.41421 25.4143C4.78929 25.0393 5 24.5306 5 24.0001Z" fill="#6D82EE"/>
<path d="M45 22C44.4696 22 43.9608 22.2107 43.5858 22.5858C43.2107 22.9609 43 23.4696 43 24C43.0032 27.401 42.0926 30.7404 40.3635 33.669C38.6343 36.5976 36.1501 39.0078 33.1705 40.6476C30.191 42.2875 26.8256 43.0967 23.4263 42.9907C20.027 42.8847 16.7185 41.8673 13.847 40.045L16.875 37.476C17.0136 37.3587 17.1176 37.206 17.176 37.0341C17.2343 36.8622 17.2448 36.6777 17.2063 36.5003C17.1677 36.3229 17.0816 36.1593 16.9572 36.0272C16.8328 35.895 16.6747 35.7992 16.5 35.75L5.62899 32.722C5.47028 32.6779 5.30313 32.6737 5.1424 32.7097C4.98167 32.7458 4.83233 32.8209 4.70765 32.9286C4.58297 33.0363 4.48682 33.173 4.42774 33.3268C4.36866 33.4806 4.34848 33.6466 4.36899 33.81L5.75999 44.877C5.78245 45.0558 5.8528 45.2252 5.9636 45.3673C6.0744 45.5094 6.22153 45.6189 6.38944 45.6842C6.55735 45.7496 6.7398 45.7684 6.91751 45.7386C7.09521 45.7088 7.26157 45.6315 7.39899 45.515L10.668 42.742C14.1085 45.1894 18.1563 46.6425 22.3678 46.9421C26.5793 47.2418 30.792 46.3763 34.5443 44.4407C38.2967 42.505 41.4438 39.5739 43.6408 35.9684C45.8378 32.3629 47 28.2222 47 24C47 23.4696 46.7893 22.9609 46.4142 22.5858C46.0391 22.2107 45.5304 22 45 22Z" fill="#213597"/>
</svg>
