<svg width="48" height="48" viewBox="0 0 48 48" fill="none" xmlns="http://www.w3.org/2000/svg">
<path d="M24 47C36.7025 47 47 36.7025 47 24C47 11.2975 36.7025 1 24 1C11.2975 1 1 11.2975 1 24C1 36.7025 11.2975 47 24 47Z" fill="black"/>
<path d="M21.6667 23.8326H17.5833V19.7493C17.5833 19.6389 17.552 19.5307 17.4929 19.4374C17.4339 19.3441 17.3496 19.2695 17.2498 19.2222C17.1501 19.1749 17.0389 19.1569 16.9294 19.1703C16.8198 19.1837 16.7162 19.2279 16.6307 19.2978L10.2141 24.5478C10.0944 24.6457 10.0184 24.7872 10.003 24.9411C9.98758 25.095 10.0339 25.2488 10.1318 25.3685C10.1563 25.3988 10.1838 25.4263 10.2141 25.4508L16.6307 30.7008C16.7159 30.7712 16.8196 30.8156 16.9294 30.8286C17.0392 30.8416 17.1503 30.8228 17.2497 30.7743C17.3491 30.7271 17.4333 30.6529 17.4923 30.5599C17.5514 30.467 17.5829 30.3593 17.5833 30.2493V26.1659H21.6667C21.9761 26.1659 22.2728 26.043 22.4916 25.8242C22.7104 25.6054 22.8333 25.3087 22.8333 24.9993C22.8333 24.6898 22.7104 24.3931 22.4916 24.1743C22.2728 23.9555 21.9761 23.8326 21.6667 23.8326Z" fill="white"/>
<path d="M31.3692 19.2978C31.2838 19.2279 31.1802 19.1837 31.0706 19.1703C30.961 19.1569 30.8499 19.1749 30.7501 19.2222C30.6504 19.2695 30.5661 19.3441 30.5071 19.4374C30.448 19.5307 30.4167 19.6389 30.4167 19.7493V23.8326H26.3333C26.0239 23.8326 25.7272 23.9555 25.5084 24.1743C25.2896 24.3931 25.1667 24.6898 25.1667 24.9993C25.1667 25.3087 25.2896 25.6054 25.5084 25.8242C25.7272 26.043 26.0239 26.1659 26.3333 26.1659H30.4167V30.2493C30.4171 30.3593 30.4486 30.467 30.5077 30.5599C30.5667 30.6529 30.6508 30.7272 30.7503 30.7743C30.828 30.8124 30.9134 30.8323 31 30.8326C31.1347 30.8327 31.2653 30.7859 31.3692 30.7002L37.7859 25.4502C37.9056 25.3522 37.9816 25.2108 37.997 25.0568C38.0124 24.9029 37.9661 24.7492 37.8682 24.6294C37.8437 24.5992 37.8162 24.5716 37.7859 24.5472L31.3692 19.2978Z" fill="white"/>
</svg>
