<svg width="64" height="64" viewBox="0 0 64 64" fill="none" xmlns="http://www.w3.org/2000/svg">
<g id="white-house 1">
<g id="Group">
<g id="Group_2">
<path id="Vector" d="M46.6641 60.0013V36.0013C46.6641 35.6477 46.8045 35.3085 47.0546 35.0585C47.3046 34.8084 47.6438 34.668 47.9974 34.668H59.9974C60.351 34.668 60.6902 34.8084 60.9402 35.0585C61.1903 35.3085 61.3307 35.6477 61.3307 36.0013V60.0013C61.3307 60.3549 61.1903 60.6941 60.9402 60.9441C60.6902 61.1942 60.351 61.3346 59.9974 61.3346H47.9974C47.6438 61.3346 47.3046 61.1942 47.0546 60.9441C46.8045 60.6941 46.6641 60.3549 46.6641 60.0013Z" fill="#B3B3B3"/>
<path id="Vector_2" d="M15.9974 61.3346H3.9974C3.64377 61.3346 3.30464 61.1942 3.05459 60.9441C2.80454 60.6941 2.66406 60.3549 2.66406 60.0013V36.0013C2.66406 35.6477 2.80454 35.3085 3.05459 35.0585C3.30464 34.8084 3.64377 34.668 3.9974 34.668H15.9974C16.351 34.668 16.6902 34.8084 16.9402 35.0585C17.1903 35.3085 17.3307 35.6477 17.3307 36.0013V60.0013C17.3307 60.3549 17.1903 60.6941 16.9402 60.9441C16.6902 61.1942 16.351 61.3346 15.9974 61.3346Z" fill="#B3B3B3"/>
<path id="Vector_3" d="M47.9974 61.3333H15.9974C15.6438 61.3333 15.3046 61.1929 15.0546 60.9428C14.8045 60.6928 14.6641 60.3536 14.6641 60V29.3333C14.6641 28.9797 14.8045 28.6406 15.0546 28.3905C15.3046 28.1405 15.6438 28 15.9974 28H47.9974C48.351 28 48.6902 28.1405 48.9402 28.3905C49.1903 28.6406 49.3307 28.9797 49.3307 29.3333V60C49.3307 60.3536 49.1903 60.6928 48.9402 60.9428C48.6902 61.1929 48.351 61.3333 47.9974 61.3333Z" fill="#B3B3B3"/>
<path id="Vector_4" d="M31.9974 18.6667C31.6438 18.6667 31.3046 18.5262 31.0546 18.2761C30.8045 18.0261 30.6641 17.687 30.6641 17.3333V1.33333C30.6641 0.979711 30.8045 0.640573 31.0546 0.390524C31.3046 0.140476 31.6438 0 31.9974 0C32.351 0 32.6902 0.140476 32.9402 0.390524C33.1903 0.640573 33.3307 0.979711 33.3307 1.33333V17.3333C33.3307 17.687 33.1903 18.0261 32.9402 18.2761C32.6902 18.5262 32.351 18.6667 31.9974 18.6667Z" fill="#4C4C4C"/>
<path id="Vector_5" d="M43.9987 12.0013H33.332V2.66797H43.9987C44.3523 2.66797 44.6915 2.80844 44.9415 3.05849C45.1916 3.30854 45.332 3.64768 45.332 4.0013V10.668C45.332 11.0216 45.1916 11.3607 44.9415 11.6108C44.6915 11.8608 44.3523 12.0013 43.9987 12.0013Z" fill="#F74B3B"/>
<path id="Vector_6" d="M53.3307 30.668H10.664C10.3746 30.6677 10.0932 30.5732 9.86217 30.3989C9.63117 30.2246 9.46316 29.9798 9.38352 29.7016C9.30387 29.4233 9.31691 29.1268 9.42068 28.8566C9.52444 28.5864 9.71329 28.3574 9.9587 28.204L31.292 14.8706C31.5039 14.7382 31.7488 14.668 31.9987 14.668C32.2486 14.668 32.4935 14.7382 32.7054 14.8706L54.0387 28.204C54.2843 28.3575 54.4733 28.5868 54.577 28.8572C54.6807 29.1276 54.6935 29.4245 54.6135 29.7029C54.5335 29.9812 54.3651 30.226 54.1336 30.4001C53.9022 30.5742 53.6203 30.6683 53.3307 30.668Z" fill="#E3E3E3"/>
<path id="Vector_7" d="M18.6654 30.668H13.332V61.3346H18.6654V30.668Z" fill="#E3E3E3"/>
<path id="Vector_8" d="M50.6654 30.668H45.332V61.3346H50.6654V30.668Z" fill="#E3E3E3"/>
<path id="Vector_9" d="M29.3333 30.668H24V61.3346H29.3333V30.668Z" fill="#E3E3E3"/>
<path id="Vector_10" d="M39.9974 30.668H34.6641V61.3346H39.9974V30.668Z" fill="#E3E3E3"/>
<path id="Vector_11" d="M50.6654 58.668H13.332V61.3346H50.6654V58.668Z" fill="#E3E3E3"/>
<path id="Vector_12" d="M19.0841 61.3315C19.6896 60.0665 20.0022 58.6813 19.9987 57.2789C19.9952 55.8764 19.6757 54.4928 19.0639 53.2308C18.4522 51.9688 17.5639 50.8609 16.465 49.9894C15.3662 49.118 14.0851 48.5053 12.717 48.197C11.3488 47.8888 9.92879 47.8928 8.5624 48.2088C7.19602 48.5247 5.91841 49.1446 4.82452 50.0223C3.73064 50.8999 2.84861 52.0128 2.24397 53.2782C1.63934 54.5437 1.32765 55.9291 1.33208 57.3315C1.33341 58.7165 1.646 60.0836 2.24674 61.3315H19.0841Z" fill="#49C549"/>
<path id="Vector_13" d="M44.9147 61.3316C44.2337 59.9089 43.9244 58.3368 44.0156 56.7621C44.1069 55.1874 44.5957 53.6616 45.4365 52.327C46.2773 50.9925 47.4425 49.8928 48.8235 49.1306C50.2044 48.3685 51.756 47.9688 53.3333 47.9688C54.9106 47.9688 56.4622 48.3685 57.8432 49.1306C59.2241 49.8928 60.3894 50.9925 61.2302 52.327C62.0709 53.6616 62.5598 55.1874 62.651 56.7621C62.7423 58.3368 62.433 59.9089 61.752 61.3316H44.9147Z" fill="#49C549"/>
<path id="Vector_14" d="M18.6654 30.668H13.332V34.668H18.6654V30.668Z" fill="#C8C8C8"/>
<path id="Vector_15" d="M29.3333 30.668H24V34.668H29.3333V30.668Z" fill="#C8C8C8"/>
<path id="Vector_16" d="M39.9974 30.668H34.6641V34.668H39.9974V30.668Z" fill="#C8C8C8"/>
<path id="Vector_17" d="M23.9974 30.668H18.6641V34.668H23.9974V30.668Z" fill="#949494"/>
<path id="Vector_18" d="M34.6654 30.668H29.332V34.668H34.6654V30.668Z" fill="#949494"/>
<path id="Vector_19" d="M45.3333 30.668H40V34.668H45.3333V30.668Z" fill="#949494"/>
<path id="Vector_20" d="M50.6654 30.668H45.332V34.668H50.6654V30.668Z" fill="#C8C8C8"/>
</g>
</g>
</g>
</svg>
