<svg width="64" height="64" viewBox="0 0 64 64" fill="none" xmlns="http://www.w3.org/2000/svg">
<g id="gold 1">
<g id="Group">
<g id="Group_2">
<path id="Vector" d="M10.6654 33.3307H2.66536C1.92903 33.3307 1.33203 32.7344 1.33203 31.9974C1.33203 31.2604 1.92903 30.6641 2.66536 30.6641H10.6654C11.4017 30.6641 11.9987 31.2604 11.9987 31.9974C11.9987 32.7344 11.4017 33.3307 10.6654 33.3307Z" fill="#B29930"/>
<path id="Vector_2" d="M16.916 18.2461C16.5749 18.2461 16.2337 18.1159 15.9733 17.8555L10.3164 12.1979C9.79557 11.6771 9.79557 10.8333 10.3164 10.3125C10.8372 9.79167 11.681 9.79167 12.2018 10.3125L17.8587 15.97C18.3795 16.4909 18.3795 17.3346 17.8587 17.8555C17.5983 18.1159 17.2571 18.2461 16.916 18.2461Z" fill="#B29930"/>
<path id="Vector_3" d="M31.9974 11.9987C31.2611 11.9987 30.6641 11.4023 30.6641 10.6654V2.66536C30.6641 1.92839 31.2611 1.33203 31.9974 1.33203C32.7337 1.33203 33.3307 1.92839 33.3307 2.66536V10.6654C33.3307 11.4023 32.7337 11.9987 31.9974 11.9987Z" fill="#B29930"/>
<path id="Vector_4" d="M47.0833 18.2461C46.7422 18.2461 46.401 18.1159 46.1406 17.8555C45.6198 17.3346 45.6198 16.4909 46.1406 15.97L51.7975 10.3125C52.3184 9.79167 53.1621 9.79167 53.6829 10.3125C54.2038 10.8333 54.2038 11.6771 53.6829 12.1979L48.026 17.8555C47.7656 18.1159 47.4245 18.2461 47.0833 18.2461Z" fill="#B29930"/>
<path id="Vector_5" d="M61.3333 33.3307H53.3333C52.597 33.3307 52 32.7344 52 31.9974C52 31.2604 52.597 30.6641 53.3333 30.6641H61.3333C62.0697 30.6641 62.6667 31.2604 62.6667 31.9974C62.6667 32.7344 62.0697 33.3307 61.3333 33.3307Z" fill="#B29930"/>
<path id="Vector_6" d="M41.2626 20.9115C41.081 20.3672 40.5719 20 39.9976 20H23.9976C23.4234 20 22.9143 20.3672 22.7327 20.9115L17.7031 36H46.2922L41.2626 20.9115Z" fill="#EFD358"/>
<path id="Vector_7" d="M46.4134 38.1133C46.664 37.7656 46.7324 37.3177 46.597 36.9115L46.2932 36H17.7041L17.4003 36.9115C17.2649 37.3177 17.3333 37.7656 17.5839 38.1133C17.8346 38.4609 18.2369 38.6667 18.6653 38.6667H45.332C45.7604 38.6667 46.1627 38.4609 46.4134 38.1133Z" fill="#B29930"/>
<path id="Vector_8" d="M54.5973 39.5755C54.4156 39.0312 53.9065 38.6641 53.3323 38.6641H37.3323C36.7581 38.6641 36.2489 39.0312 36.0673 39.5755L31.9989 51.7806L27.9306 39.5755C27.7489 39.0312 27.2398 38.6641 26.6656 38.6641H10.6656C10.0914 38.6641 9.58228 39.0312 9.40064 39.5755L4.37109 54.6641H59.6268L54.5973 39.5755Z" fill="#EFD358"/>
<path id="Vector_9" d="M4.25189 56.7773C4.50254 57.125 4.90489 57.3307 5.33327 57.3307H31.9999H58.6666C59.095 57.3307 59.4973 57.125 59.748 56.7773C59.9986 56.4297 60.067 55.9818 59.9316 55.5755L59.6278 54.6641H4.37209L4.0683 55.5755C3.93289 55.9818 4.00125 56.4297 4.25189 56.7773Z" fill="#B29930"/>
</g>
</g>
</g>
</svg>
