<svg width="48" height="48" viewBox="0 0 48 48" fill="none" xmlns="http://www.w3.org/2000/svg">
<g id="hotel 1">
<g id="Group">
<g id="Group_2">
<path id="Vector" d="M11 47H2C1.73478 47 1.48043 46.8946 1.29289 46.7071C1.10536 46.5196 1 46.2652 1 46V28C1 27.7348 1.10536 27.4804 1.29289 27.2929C1.48043 27.1054 1.73478 27 2 27H11C11.2652 27 11.5196 27.1054 11.7071 27.2929C11.8946 27.4804 12 27.7348 12 28V46C12 46.2652 11.8946 46.5196 11.7071 46.7071C11.5196 46.8946 11.2652 47 11 47Z" fill="#C8C8C8"/>
<path id="Vector_2" d="M46 47H37C36.7348 47 36.4804 46.8946 36.2929 46.7071C36.1054 46.5196 36 46.2652 36 46V28C36 27.7348 36.1054 27.4804 36.2929 27.2929C36.4804 27.1054 36.7348 27 37 27H46C46.2652 27 46.5196 27.1054 46.7071 27.2929C46.8946 27.4804 47 27.7348 47 28V46C47 46.2652 46.8946 46.5196 46.7071 46.7071C46.5196 46.8946 46.2652 47 46 47Z" fill="#C8C8C8"/>
<path id="Vector_3" d="M27 2V4H21V2C21 1.73478 20.8946 1.48043 20.7071 1.29289C20.5196 1.10536 20.2652 1 20 1C19.7348 1 19.4804 1.10536 19.2929 1.29289C19.1054 1.48043 19 1.73478 19 2V11H21V6H27V11H29V2C29 1.73478 28.8946 1.48043 28.7071 1.29289C28.5196 1.10536 28.2652 1 28 1C27.7348 1 27.4804 1.10536 27.2929 1.29289C27.1054 1.48043 27 1.73478 27 2Z" fill="#363636"/>
<path id="Vector_4" d="M38 47H10V10C10 9.73478 10.1054 9.48043 10.2929 9.29289C10.4804 9.10536 10.7348 9 11 9H37C37.2652 9 37.5196 9.10536 37.7071 9.29289C37.8946 9.48043 38 9.73478 38 10V47Z" fill="#E3E3E3"/>
<path id="Vector_5" d="M20.5 23H16.5C16.3674 23 16.2402 22.9473 16.1464 22.8536C16.0527 22.7598 16 22.6326 16 22.5V20.5C16 20.3674 16.0527 20.2402 16.1464 20.1464C16.2402 20.0527 16.3674 20 16.5 20H20.5C20.6326 20 20.7598 20.0527 20.8536 20.1464C20.9473 20.2402 21 20.3674 21 20.5V22.5C21 22.6326 20.9473 22.7598 20.8536 22.8536C20.7598 22.9473 20.6326 23 20.5 23Z" fill="#43A6DD"/>
<path id="Vector_6" d="M20.5 17H16.5C16.3674 17 16.2402 16.9473 16.1464 16.8536C16.0527 16.7598 16 16.6326 16 16.5V14.5C16 14.3674 16.0527 14.2402 16.1464 14.1464C16.2402 14.0527 16.3674 14 16.5 14H20.5C20.6326 14 20.7598 14.0527 20.8536 14.1464C20.9473 14.2402 21 14.3674 21 14.5V16.5C21 16.6326 20.9473 16.7598 20.8536 16.8536C20.7598 16.9473 20.6326 17 20.5 17Z" fill="#43A6DD"/>
<path id="Vector_7" d="M20.5 29H16.5C16.3674 29 16.2402 28.9473 16.1464 28.8536C16.0527 28.7598 16 28.6326 16 28.5V26.5C16 26.3674 16.0527 26.2402 16.1464 26.1464C16.2402 26.0527 16.3674 26 16.5 26H20.5C20.6326 26 20.7598 26.0527 20.8536 26.1464C20.9473 26.2402 21 26.3674 21 26.5V28.5C21 28.6326 20.9473 28.7598 20.8536 28.8536C20.7598 28.9473 20.6326 29 20.5 29Z" fill="#43A6DD"/>
<path id="Vector_8" d="M20.5 35H16.5C16.3674 35 16.2402 34.9473 16.1464 34.8536C16.0527 34.7598 16 34.6326 16 34.5V32.5C16 32.3674 16.0527 32.2402 16.1464 32.1464C16.2402 32.0527 16.3674 32 16.5 32H20.5C20.6326 32 20.7598 32.0527 20.8536 32.1464C20.9473 32.2402 21 32.3674 21 32.5V34.5C21 34.6326 20.9473 34.7598 20.8536 34.8536C20.7598 34.9473 20.6326 35 20.5 35Z" fill="#43A6DD"/>
<path id="Vector_9" d="M31.5 23H27.5C27.3674 23 27.2402 22.9473 27.1464 22.8536C27.0527 22.7598 27 22.6326 27 22.5V20.5C27 20.3674 27.0527 20.2402 27.1464 20.1464C27.2402 20.0527 27.3674 20 27.5 20H31.5C31.6326 20 31.7598 20.0527 31.8536 20.1464C31.9473 20.2402 32 20.3674 32 20.5V22.5C32 22.6326 31.9473 22.7598 31.8536 22.8536C31.7598 22.9473 31.6326 23 31.5 23Z" fill="#43A6DD"/>
<path id="Vector_10" d="M31.5 17H27.5C27.3674 17 27.2402 16.9473 27.1464 16.8536C27.0527 16.7598 27 16.6326 27 16.5V14.5C27 14.3674 27.0527 14.2402 27.1464 14.1464C27.2402 14.0527 27.3674 14 27.5 14H31.5C31.6326 14 31.7598 14.0527 31.8536 14.1464C31.9473 14.2402 32 14.3674 32 14.5V16.5C32 16.6326 31.9473 16.7598 31.8536 16.8536C31.7598 16.9473 31.6326 17 31.5 17Z" fill="#43A6DD"/>
<path id="Vector_11" d="M31.5 29H27.5C27.3674 29 27.2402 28.9473 27.1464 28.8536C27.0527 28.7598 27 28.6326 27 28.5V26.5C27 26.3674 27.0527 26.2402 27.1464 26.1464C27.2402 26.0527 27.3674 26 27.5 26H31.5C31.6326 26 31.7598 26.0527 31.8536 26.1464C31.9473 26.2402 32 26.3674 32 26.5V28.5C32 28.6326 31.9473 28.7598 31.8536 28.8536C31.7598 28.9473 31.6326 29 31.5 29Z" fill="#43A6DD"/>
<path id="Vector_12" d="M31.5 35H27.5C27.3674 35 27.2402 34.9473 27.1464 34.8536C27.0527 34.7598 27 34.6326 27 34.5V32.5C27 32.3674 27.0527 32.2402 27.1464 32.1464C27.2402 32.0527 27.3674 32 27.5 32H31.5C31.6326 32 31.7598 32.0527 31.8536 32.1464C31.9473 32.2402 32 32.3674 32 32.5V34.5C32 34.6326 31.9473 34.7598 31.8536 34.8536C31.7598 34.9473 31.6326 35 31.5 35Z" fill="#43A6DD"/>
<path id="Vector_13" d="M26 40H22C21.7348 40 21.4804 40.1054 21.2929 40.2929C21.1054 40.4804 21 40.7348 21 41V47H27V41C27 40.7348 26.8946 40.4804 26.7071 40.2929C26.5196 40.1054 26.2652 40 26 40Z" fill="#363636"/>
</g>
</g>
</g>
</svg>
