<svg xmlns="http://www.w3.org/2000/svg" width="20" height="20" viewBox="0 0 20 20" fill="none">
<g clip-path="url(#clip0_5057_61011)">
<path d="M5.83464 17.0833C5.83464 18.0775 4.83964 18.2892 4.5513 18.33C3.87714 18.3117 3.33464 17.7608 3.33464 17.0833V1.66667H10.8346V0H2.5013C2.0413 0 1.66797 0.373333 1.66797 0.833333V17.0833C1.66797 18.6917 2.9763 20 4.58464 20H17.0846C18.693 20 20.0013 18.6917 20.0013 17.0833V15.8333H5.83464V17.0833Z" fill="#F9CD6C"/>
<path d="M15.8333 10.0006C14.5942 10.0006 13.4458 9.60893 12.5 8.94727V14.1673L15.8333 11.6673L19.1667 14.1673V8.94727C18.2208 9.60893 17.0725 10.0006 15.8333 10.0006Z" fill="#F9CD6C"/>
<path d="M15.8346 8.33333C18.1358 8.33333 20.0013 6.46785 20.0013 4.16667C20.0013 1.86548 18.1358 0 15.8346 0C13.5334 0 11.668 1.86548 11.668 4.16667C11.668 6.46785 13.5334 8.33333 15.8346 8.33333Z" fill="#F9CD6C"/>
</g>
<defs>
<clipPath id="clip0_5057_61011">
<rect width="20" height="20" fill="white"/>
</clipPath>
</defs>
</svg>