<svg width="18" height="18" viewBox="0 0 18 18" fill="none" xmlns="http://www.w3.org/2000/svg">
<g clip-path="url(#clip0_331_20101)">
<path d="M17.0822 6.03649C16.7283 5.1451 16.1201 4.37749 15.3332 3.82924C15.7624 4.66058 16.0602 5.55343 16.216 6.47599V6.49099C15.2297 4.03249 13.558 3.04099 12.1922 0.883235C12.1232 0.774485 12.0542 0.664985 11.9867 0.549485C11.9537 0.490235 11.9252 0.430235 11.8922 0.368735C11.8354 0.259464 11.7916 0.14393 11.7617 0.0244853C11.7621 0.0215686 11.7619 0.0185972 11.7612 0.0157514C11.7604 0.0129055 11.7591 0.0102445 11.7573 0.00793C11.7554 0.00561545 11.7532 0.00369558 11.7506 0.0022869C11.748 0.000878227 11.7451 1.01262e-05 11.7422 -0.000264715C11.7396 -0.00137878 11.7368 -0.00195312 11.734 -0.00195312C11.7311 -0.00195313 11.7283 -0.00137878 11.7257 -0.000264715H11.7212H11.7152H11.719C10.9416 0.477506 10.2759 1.11669 9.76702 1.87404C9.25811 2.63139 8.91783 3.48922 8.76921 4.38949C8.1712 4.42419 7.5855 4.57392 7.04421 4.83049C6.99508 4.85526 6.95673 4.89718 6.93642 4.94831C6.9161 4.99944 6.91523 5.05625 6.93396 5.10799C6.94339 5.13518 6.9581 5.16025 6.97723 5.18176C6.99637 5.20327 7.01956 5.22079 7.04547 5.23333C7.07138 5.24587 7.09951 5.25317 7.12825 5.25483C7.15699 5.25649 7.18577 5.25246 7.21296 5.24299L7.23171 5.23549C7.7047 5.01216 8.21516 4.87888 8.73696 4.84249H8.78796C8.86296 4.84249 8.93121 4.83574 9.00321 4.83499C9.42662 4.83212 9.84823 4.89048 10.255 5.00824L10.3255 5.03074C10.393 5.05174 10.4597 5.07349 10.5265 5.09749C10.5752 5.11549 10.6232 5.13499 10.6712 5.15449L10.7875 5.20249C10.8475 5.22949 10.9067 5.25724 10.9652 5.28649L11.0462 5.32699C11.1032 5.35699 11.1595 5.38849 11.2157 5.42074L11.323 5.48524C11.9543 5.87522 12.4784 6.41657 12.8477 7.06024C12.2349 6.63619 11.4868 6.45423 10.7477 6.54949C11.4784 6.9456 12.0499 7.58179 12.3657 8.35058C12.6814 9.11936 12.7222 9.97359 12.4809 10.7689C12.2397 11.5643 11.7313 12.2519 11.0416 12.7157C10.3519 13.1795 9.52329 13.391 8.69571 13.3145C8.30861 13.2989 7.92607 13.225 7.56096 13.0955C7.47471 13.0632 7.38921 13.028 7.30521 12.9912C7.25571 12.9687 7.20621 12.9455 7.15521 12.9207C6.60234 12.6545 6.12477 12.2544 5.76588 11.7566C5.40699 11.2589 5.17817 10.6794 5.10021 10.0707C5.10021 10.0707 5.50296 8.57074 7.98321 8.57074C8.43477 8.3812 8.80609 8.04011 9.03321 7.60624C8.29101 7.25 7.58219 6.82807 6.91521 6.34549C6.59871 6.03349 6.44871 5.88349 6.31521 5.77099C6.24315 5.71022 6.16805 5.65314 6.09021 5.59999C5.89122 4.90452 5.88267 4.16838 6.06546 3.46849C5.26068 3.85799 4.54557 4.41041 3.96546 5.09074H3.96171C3.61596 4.65349 3.64071 3.20824 3.66171 2.90674C3.55959 2.94795 3.46206 2.99974 3.37071 3.06124C3.06546 3.2788 2.78032 3.52328 2.51871 3.79174C2.22036 4.09333 1.9479 4.41948 1.70421 4.76674C1.1427 5.56192 0.744281 6.46047 0.531957 7.41049C0.531957 7.42024 0.449457 7.77499 0.390207 8.21449C0.379707 8.28274 0.370707 8.35099 0.361707 8.41924C0.341457 8.55124 0.325707 8.69524 0.310707 8.91874V8.94499C0.304707 9.04174 0.298707 9.13849 0.293457 9.23524C0.293457 9.24949 0.293457 9.26449 0.293457 9.27949C0.297178 11.4619 1.11896 13.5636 2.59658 15.1697C4.07419 16.7758 6.10025 17.7696 8.27479 17.9549C10.4493 18.1401 12.6143 17.5034 14.3423 16.1704C16.0703 14.8375 17.2358 12.9051 17.6087 10.7547C17.6237 10.6437 17.635 10.5297 17.6485 10.4187C17.8283 8.93362 17.6336 7.42711 17.0822 6.03649Z" fill="#FDA237"/>
</g>
<defs>
<clipPath id="clip0_331_20101">
<rect width="18" height="18" fill="white"/>
</clipPath>
</defs>
</svg>
