<svg width="14" height="14" viewBox="0 0 14 14" fill="none" xmlns="http://www.w3.org/2000/svg">
<path d="M3.24151 6.33887H1.53704C1.3324 6.33887 1.1665 6.52093 1.1665 6.74553V11.8423C1.1665 12.0669 1.3324 12.249 1.53704 12.249H3.24151C3.44615 12.249 3.61205 12.0669 3.61205 11.8423V6.74553C3.61205 6.52093 3.44615 6.33887 3.24151 6.33887Z" fill="black"/>
<path d="M12.4632 3.8623H10.7587C10.5541 3.8623 10.3882 4.04437 10.3882 4.26896V11.8436C10.3882 12.0682 10.5541 12.2503 10.7587 12.2503H12.4632C12.6678 12.2503 12.8337 12.0682 12.8337 11.8436V4.26896C12.8337 4.04437 12.6678 3.8623 12.4632 3.8623Z" fill="black"/>
<path d="M7.85154 1.75H6.14693C5.94228 1.75 5.77637 1.93208 5.77637 2.15669V11.8427C5.77637 12.0673 5.94228 12.2494 6.14693 12.2494H7.85154C8.0562 12.2494 8.2221 12.0673 8.2221 11.8427V2.15669C8.2221 1.93208 8.0562 1.75 7.85154 1.75Z" fill="black"/>
</svg>
