<svg width="18" height="18" viewBox="0 0 18 18" fill="none" xmlns="http://www.w3.org/2000/svg">
<circle cx="9" cy="9" r="9" fill="#D34645"/>
<path d="M11.801 12.5996H7.00754C6.79565 12.5996 6.59245 12.5154 6.44262 12.3656C6.2928 12.2158 6.20863 12.0126 6.20863 11.8007C6.20863 11.5888 6.2928 11.3856 6.44262 11.2358C6.59245 11.086 6.79565 11.0018 7.00754 11.0018H9.87243L5.6438 6.77316C5.5675 6.69947 5.50663 6.61131 5.46476 6.51384C5.42289 6.41637 5.40085 6.31154 5.39993 6.20546C5.39901 6.09938 5.41922 5.99418 5.45939 5.896C5.49956 5.79782 5.55889 5.70862 5.6339 5.63361C5.70891 5.55859 5.79811 5.49927 5.89629 5.4591C5.99447 5.41893 6.09967 5.39872 6.20575 5.39964C6.31183 5.40056 6.41666 5.4226 6.51414 5.46447C6.61161 5.50634 6.69976 5.5672 6.77346 5.64351L11.0021 9.87213V7.00725C11.0021 6.79536 11.0863 6.59216 11.2361 6.44233C11.3859 6.29251 11.5891 6.20834 11.801 6.20834C12.0129 6.20834 12.2161 6.29251 12.3659 6.44233C12.5157 6.59216 12.5999 6.79536 12.5999 7.00725V11.8007C12.5999 12.0126 12.5157 12.2158 12.3659 12.3656C12.2161 12.5154 12.0129 12.5996 11.801 12.5996Z" fill="white"/>
</svg>
