<svg width="18" height="18" viewBox="0 0 18 18" fill="none" xmlns="http://www.w3.org/2000/svg">
<circle cx="9" cy="9" r="9" fill="#3FA965"/>
<path d="M11.801 5.40039H7.00754C6.79565 5.40039 6.59245 5.48456 6.44262 5.63439C6.2928 5.78421 6.20863 5.98742 6.20863 6.1993C6.20863 6.41118 6.2928 6.61439 6.44262 6.76421C6.59245 6.91404 6.79565 6.99821 7.00754 6.99821H9.87243L5.6438 11.2268C5.5675 11.3005 5.50663 11.3887 5.46476 11.4862C5.42289 11.5836 5.40085 11.6885 5.39993 11.7945C5.39901 11.9006 5.41922 12.0058 5.45939 12.104C5.49956 12.2022 5.55889 12.2914 5.6339 12.3664C5.70891 12.4414 5.79811 12.5007 5.89629 12.5409C5.99447 12.5811 6.09967 12.6013 6.20575 12.6004C6.31183 12.5994 6.41666 12.5774 6.51414 12.5355C6.61161 12.4937 6.69976 12.4328 6.77346 12.3565L11.0021 8.12787V10.9928C11.0021 11.2046 11.0863 11.4078 11.2361 11.5577C11.3859 11.7075 11.5891 11.7917 11.801 11.7917C12.0129 11.7917 12.2161 11.7075 12.3659 11.5577C12.5157 11.4078 12.5999 11.2046 12.5999 10.9928V6.1993C12.5999 5.98742 12.5157 5.78421 12.3659 5.63439C12.2161 5.48456 12.0129 5.40039 11.801 5.40039Z" fill="white"/>
</svg>
