<svg xmlns="http://www.w3.org/2000/svg" width="18" height="18" viewBox="0 0 18 18" fill="none">
<path d="M9 7.76703L15.75 4.01703L9.3645 0.469531C9.25302 0.407536 9.12756 0.375 9 0.375C8.87244 0.375 8.74698 0.407536 8.6355 0.469531L2.25 4.01703L9 7.76703Z" fill="#7CD36E"/>
<path d="M8.25 9.06641L1.5 5.31641V13.1254C1.49999 13.2591 1.53573 13.3904 1.60351 13.5056C1.67129 13.6209 1.76865 13.7159 1.8855 13.7809L8.25 17.3164V9.06641Z" fill="#7CD36E"/>
<path d="M9.75 9.06566V17.3157L16.1145 13.7802C16.2314 13.7152 16.3287 13.6201 16.3965 13.5049C16.4643 13.3896 16.5 13.2584 16.5 13.1247V5.31641L9.75 9.06566Z" fill="#7CD36E"/>
</svg>