<svg width="20" height="20" viewBox="0 0 20 20" fill="none" xmlns="http://www.w3.org/2000/svg">
<g clip-path="url(#clip0_331_17273)">
<path d="M5.83342 17.0833C5.83342 18.0775 4.83841 18.2892 4.55008 18.33C3.87591 18.3117 3.33341 17.7608 3.33341 17.0833V1.66667H10.8334V0H2.50008C2.04008 0 1.66675 0.373333 1.66675 0.833333V17.0833C1.66675 18.6917 2.97508 20 4.58341 20H17.0834C18.6917 20 20.0001 18.6917 20.0001 17.0833V15.8333H5.83342V17.0833Z" fill="#FF6421"/>
<path d="M15.8333 9.99962C14.5942 9.99962 13.4458 9.60796 12.5 8.94629V14.1663L15.8333 11.6663L19.1667 14.1663V8.94629C18.2208 9.60796 17.0725 9.99962 15.8333 9.99962Z" fill="#FF6421"/>
<path d="M15.8334 8.33333C18.1346 8.33333 20.0001 6.46785 20.0001 4.16667C20.0001 1.86548 18.1346 0 15.8334 0C13.5322 0 11.6667 1.86548 11.6667 4.16667C11.6667 6.46785 13.5322 8.33333 15.8334 8.33333Z" fill="#FF6421"/>
</g>
<defs>
<clipPath id="clip0_331_17273">
<rect width="20" height="20" fill="white"/>
</clipPath>
</defs>
</svg>
