<svg width="20" height="20" viewBox="0 0 20 20" fill="none" xmlns="http://www.w3.org/2000/svg">
<path d="M19.1664 10.4163H15.8327C15.6026 10.4163 15.416 10.2298 15.416 9.99967C15.416 9.76956 15.6026 9.58301 15.8327 9.58301H19.1664C19.3965 9.58301 19.5831 9.76955 19.5831 9.99967C19.5831 10.2298 19.3965 10.4163 19.1664 10.4163Z" fill="#49505A"/>
<path d="M4.1665 10.4163H0.833171C0.603054 10.4163 0.416504 10.2298 0.416504 9.99967C0.416504 9.76956 0.60305 9.58301 0.833171 9.58301H4.1665C4.39662 9.58301 4.58317 9.76955 4.58317 9.99967C4.58317 10.2298 4.39662 10.4163 4.1665 10.4163Z" fill="#49505A"/>
<path d="M10 16.25C6.55375 16.25 3.75 13.4462 3.75 10C3.75 6.55375 6.55375 3.75 10 3.75C13.4462 3.75 16.25 6.55375 16.25 10C16.25 13.4462 13.4462 16.25 10 16.25Z" fill="#49505A"/>
<path d="M8.8717 11.9615L7.20503 10.2949C7.04233 10.1322 7.04233 9.86838 7.20503 9.70568C7.36773 9.54298 7.63152 9.54298 7.79422 9.70568L9.1663 11.0778L12.205 8.03902C12.3677 7.87632 12.6315 7.87632 12.7942 8.03902C12.9569 8.20172 12.9569 8.46551 12.7942 8.62821L9.46089 11.9615C9.29819 12.1242 9.0344 12.1242 8.8717 11.9615Z" fill="white"/>
</svg>
