<svg width="20" height="20" viewBox="0 0 20 20" fill="none" xmlns="http://www.w3.org/2000/svg">
<path d="M19.1664 10.4163H15.8327C15.6026 10.4163 15.416 10.2298 15.416 9.99967C15.416 9.76956 15.6026 9.58301 15.8327 9.58301H19.1664C19.3965 9.58301 19.5831 9.76955 19.5831 9.99967C19.5831 10.2298 19.3965 10.4163 19.1664 10.4163Z" fill="#49505A"/>
<path d="M4.1665 10.4163H0.833171C0.603054 10.4163 0.416504 10.2298 0.416504 9.99967C0.416504 9.76956 0.60305 9.58301 0.833171 9.58301H4.1665C4.39662 9.58301 4.58317 9.76955 4.58317 9.99967C4.58317 10.2298 4.39662 10.4163 4.1665 10.4163Z" fill="#49505A"/>
<path d="M10 16.25C6.55375 16.25 3.75 13.4462 3.75 10C3.75 6.55375 6.55375 3.75 10 3.75C13.4462 3.75 16.25 6.55375 16.25 10C16.25 13.4462 13.4462 16.25 10 16.25Z" fill="#49505A"/>
<path d="M10.589 10.0003L11.961 8.62821C12.1237 8.46551 12.1237 8.20171 11.961 8.03902C11.7984 7.87632 11.5346 7.87632 11.3718 8.03902L9.99978 9.41109L8.62771 8.03902C8.46502 7.87632 8.20122 7.87632 8.03852 8.03902C7.87583 8.20171 7.87583 8.46551 8.03852 8.62821L9.41059 10.0003L8.03852 11.3724C7.87583 11.535 7.87583 11.7988 8.03852 11.9615C8.20122 12.1242 8.46502 12.1242 8.62771 11.9615L9.99978 10.5895L11.3718 11.9615C11.5346 12.1242 11.7984 12.1242 11.961 11.9615C12.1237 11.7988 12.1237 11.535 11.961 11.3724L10.589 10.0003Z" fill="white"/>
</svg>
