<svg width="12" height="7" viewBox="0 0 12 7" fill="none" xmlns="http://www.w3.org/2000/svg">
<path d="M0.749962 7.00043C0.60165 7.0004 0.456676 6.95639 0.333368 6.87398C0.210061 6.79156 0.113956 6.67444 0.0572038 6.53742C0.00045125 6.40039 -0.014401 6.24962 0.0145247 6.10415C0.0434504 5.95869 0.114855 5.82507 0.219712 5.72018L3.59471 2.34518C3.73536 2.20457 3.92609 2.12559 4.12496 2.12559C4.32384 2.12559 4.51457 2.20457 4.65521 2.34518L7.12496 4.81493L10.7197 1.22018C10.7889 1.14854 10.8717 1.09141 10.9632 1.0521C11.0547 1.01279 11.1531 0.992105 11.2527 0.991239C11.3522 0.990374 11.451 1.00935 11.5432 1.04706C11.6354 1.08477 11.7191 1.14046 11.7895 1.21088C11.8599 1.2813 11.9156 1.36504 11.9533 1.45721C11.991 1.54938 12.01 1.64814 12.0091 1.74773C12.0083 1.84731 11.9876 1.94573 11.9483 2.03723C11.909 2.12873 11.8518 2.21149 11.7802 2.28068L7.65521 6.40568C7.51457 6.54628 7.32384 6.62527 7.12496 6.62527C6.92609 6.62527 6.73536 6.54628 6.59471 6.40568L4.12496 3.93593L1.28021 6.78068C1.13959 6.92134 0.948858 7.00038 0.749962 7.00043Z" fill="#666666"/>
</svg>
