<svg width="46" height="45" viewBox="0 0 46 45" fill="none" xmlns="http://www.w3.org/2000/svg">
<path d="M45.1295 28.9332C44.6387 28.4328 43.9999 28.1035 43.3075 27.994C42.6151 27.8845 41.9058 28.0006 41.2845 28.3252L32.7555 32.5852C32.4326 33.5652 31.8267 34.4277 31.0143 35.0639C30.2019 35.7001 29.2194 36.0815 28.1905 36.1602L17.0905 36.9532H17.0175C16.7523 36.9625 16.4943 36.866 16.3002 36.6851C16.1061 36.5041 15.9918 36.2534 15.9825 35.9882C15.9732 35.723 16.0697 35.4649 16.2507 35.2708C16.4316 35.0767 16.6823 34.9625 16.9475 34.9532L17.0185 34.9482L28.0265 34.3752C28.8384 34.3161 29.5979 33.9519 30.1522 33.3558C30.7065 32.7596 31.0146 31.9757 31.0146 31.1617C31.0146 30.3477 30.7065 29.5638 30.1522 28.9677C29.5979 28.3715 28.8384 28.0073 28.0265 27.9482L17.7265 26.0762C17.2565 25.9908 16.795 25.8637 16.3475 25.6962L10.8115 23.6202C9.63389 23.1784 8.36866 23.0204 7.11853 23.1592L0.909531 23.8492C0.664843 23.8763 0.438743 23.9927 0.274525 24.1761C0.110308 24.3595 0.0195144 24.597 0.0195313 24.8432V36.9432C0.0195313 37.2084 0.124888 37.4628 0.312425 37.6503C0.499961 37.8378 0.754315 37.9432 1.01953 37.9432H1.85753C3.274 37.9433 4.66506 38.3194 5.88853 39.0332L13.3575 43.4002C15.0709 44.3995 17.0945 44.7267 19.0355 44.3182L33.2945 41.3182C34.438 41.0777 35.5149 40.5896 36.4495 39.8882L44.7255 33.6752C45.0846 33.4053 45.3827 33.0627 45.6003 32.6697C45.8178 32.2767 45.95 31.8421 45.9882 31.3946C46.0263 30.947 45.9695 30.4964 45.8216 30.0722C45.6736 29.6481 45.4378 29.26 45.1295 28.9332Z" fill="#EEBC99"/>
<path d="M28 22C34.0751 22 39 17.0751 39 11C39 4.92487 34.0751 0 28 0C21.9249 0 17 4.92487 17 11C17 17.0751 21.9249 22 28 22Z" fill="#EFD358"/>
<path d="M28 20C26.22 20 24.4799 19.4722 22.9999 18.4832C21.5198 17.4943 20.3663 16.0887 19.6851 14.4442C19.0039 12.7996 18.8257 10.99 19.1729 9.24419C19.5202 7.49836 20.3774 5.89472 21.636 4.63604C22.8947 3.37737 24.4984 2.5202 26.2442 2.17294C27.99 1.82567 29.7996 2.0039 31.4442 2.68509C33.0887 3.36628 34.4943 4.51983 35.4832 5.99987C36.4722 7.47991 37 9.21997 37 11C36.9974 13.3861 36.0483 15.6738 34.361 17.361C32.6738 19.0483 30.3861 19.9974 28 20Z" fill="#D8BC48"/>
<path d="M28 18C26.6155 18 25.2622 17.5895 24.111 16.8203C22.9599 16.0511 22.0627 14.9579 21.5328 13.6788C21.003 12.3997 20.8644 10.9922 21.1345 9.63437C21.4046 8.2765 22.0713 7.02922 23.0503 6.05026C24.0292 5.07129 25.2765 4.4046 26.6344 4.13451C27.9922 3.86441 29.3997 4.00303 30.6788 4.53285C31.9579 5.06266 33.0511 5.95987 33.8203 7.11101C34.5895 8.26216 35 9.61553 35 11C34.9979 12.8559 34.2597 14.6351 32.9474 15.9474C31.6351 17.2597 29.8559 17.9979 28 18Z" fill="#EFD358"/>
<path d="M27.9998 14.9998C27.7346 14.9997 27.4803 14.8943 27.2928 14.7068L24.2928 11.7068C24.1053 11.5193 24 11.265 24 10.9998C24 10.7346 24.1053 10.4803 24.2928 10.2928L27.2928 7.29279C27.4803 7.10532 27.7346 7 27.9998 7C28.265 7 28.5193 7.10532 28.7068 7.29279L31.7068 10.2928C31.8943 10.4803 31.9996 10.7346 31.9996 10.9998C31.9996 11.265 31.8943 11.5193 31.7068 11.7068L28.7068 14.7068C28.5193 14.8943 28.265 14.9997 27.9998 14.9998Z" fill="#D8BC48"/>
</svg>
