<svg width="7" height="8" viewBox="0 0 7 8" fill="none" xmlns="http://www.w3.org/2000/svg">
<path d="M1.00016 8C0.823352 8 0.653782 7.92976 0.528758 7.80474C0.403734 7.67971 0.333496 7.51014 0.333496 7.33333V0.666667C0.333496 0.489856 0.403734 0.320286 0.528758 0.195262C0.653782 0.0702379 0.823352 0 1.00016 0C1.17697 0 1.34654 0.0702379 1.47157 0.195262C1.59659 0.320286 1.66683 0.489856 1.66683 0.666667V7.33333C1.66683 7.51014 1.59659 7.67971 1.47157 7.80474C1.34654 7.92976 1.17697 8 1.00016 8Z" fill="#666666"/>
<path d="M2.3335 4.33366V0.666992L6.3335 0.666992V4.33366H2.3335Z" fill="#666666"/>
</svg>
