<svg width="233" height="285" viewBox="0 0 233 285" fill="none" xmlns="http://www.w3.org/2000/svg">
<g filter="url(#filter0_dddd_331_258)">
<rect x="26" y="2" width="181" height="219" rx="16" fill="white"/>
<rect x="26" y="2" width="181" height="219" rx="16" fill="url(#paint0_linear_331_258)"/>
</g>
<path d="M46.0781 187V175.359H50.4688C51.3021 175.359 51.9922 175.495 52.5391 175.766C53.0911 176.031 53.5026 176.393 53.7734 176.852C54.0495 177.31 54.1875 177.823 54.1875 178.391C54.1875 178.875 54.0964 179.286 53.9141 179.625C53.737 179.958 53.4974 180.227 53.1953 180.43C52.8932 180.633 52.5547 180.781 52.1797 180.875V180.969C52.5859 180.99 52.974 181.117 53.3438 181.352C53.7188 181.581 54.026 181.906 54.2656 182.328C54.5104 182.745 54.6328 183.25 54.6328 183.844C54.6328 184.443 54.4896 184.982 54.2031 185.461C53.9219 185.935 53.4896 186.31 52.9062 186.586C52.3281 186.862 51.5885 187 50.6875 187H46.0781ZM48.0469 185.359H50.4609C51.237 185.359 51.7969 185.206 52.1406 184.898C52.4844 184.586 52.6562 184.198 52.6562 183.734C52.6562 183.385 52.5677 183.068 52.3906 182.781C52.2188 182.495 51.974 182.268 51.6562 182.102C51.3385 181.93 50.9609 181.844 50.5234 181.844H48.0469V185.359ZM48.0469 180.336H50.2891C50.6536 180.336 50.9844 180.266 51.2812 180.125C51.5781 179.979 51.8125 179.776 51.9844 179.516C52.1562 179.255 52.2422 178.951 52.2422 178.602C52.2422 178.143 52.0833 177.76 51.7656 177.453C51.4479 177.146 50.9688 176.992 50.3281 176.992H48.0469V180.336ZM61.5003 183.43V178.531H63.3988V187H61.5316V185.539H61.4769C61.2842 185.997 60.9717 186.38 60.5394 186.688C60.1123 186.99 59.5732 187.141 58.9222 187.141C58.3545 187.141 57.8415 187.016 57.3831 186.766C56.93 186.51 56.5706 186.141 56.305 185.656C56.0446 185.167 55.9144 184.57 55.9144 183.867V178.531H57.8128V183.602C57.8128 184.195 57.9743 184.659 58.2972 184.992C58.6201 185.32 59.0472 185.484 59.5784 185.484C59.9118 185.484 60.2243 185.411 60.5159 185.266C60.8076 185.115 61.0446 184.888 61.2269 184.586C61.4092 184.279 61.5003 183.893 61.5003 183.43ZM66.3834 190.281C66.1491 190.286 65.9251 190.279 65.7116 190.258C65.5032 190.242 65.3131 190.221 65.1413 190.195L65.3444 188.633L65.8522 188.641C66.2064 188.693 66.4928 188.643 66.7116 188.492C66.9303 188.346 67.1074 188.086 67.2428 187.711L67.485 187.07L64.3522 178.531H66.3678L68.4772 184.922H68.5397L70.6334 178.531H72.6413L69.0475 188.273C68.8913 188.706 68.6881 189.07 68.4381 189.367C68.1933 189.669 67.8991 189.896 67.5553 190.047C67.2116 190.203 66.8209 190.281 66.3834 190.281ZM83.72 180.953L81.9544 181.055C81.9231 180.831 81.8424 180.628 81.7122 180.445C81.582 180.258 81.4023 180.109 81.1731 180C80.9492 179.885 80.6783 179.828 80.3606 179.828C79.9127 179.828 79.5507 179.93 79.2747 180.133C78.9986 180.331 78.8606 180.578 78.8606 180.875C78.8606 181.135 78.9596 181.349 79.1575 181.516C79.3606 181.677 79.6601 181.802 80.0559 181.891L81.5091 182.203C82.3268 182.38 82.9309 182.659 83.3216 183.039C83.7122 183.414 83.9075 183.906 83.9075 184.516C83.9075 185.052 83.7565 185.521 83.4544 185.922C83.1523 186.323 82.733 186.635 82.1966 186.859C81.6653 187.078 81.0533 187.188 80.3606 187.188C79.6887 187.188 79.0924 187.086 78.5716 186.883C78.0507 186.68 77.6315 186.383 77.3137 185.992C76.996 185.596 76.8059 185.117 76.7434 184.555L78.6106 184.461C78.6783 184.872 78.8606 185.188 79.1575 185.406C79.4544 185.62 79.8476 185.727 80.3372 185.727C80.8424 185.727 81.2408 185.625 81.5325 185.422C81.8294 185.219 81.9778 184.966 81.9778 184.664C81.9778 184.404 81.8762 184.193 81.6731 184.031C81.47 183.87 81.1809 183.747 80.8059 183.664L79.3684 183.359C78.5664 183.188 77.9648 182.901 77.5637 182.5C77.1627 182.094 76.9622 181.578 76.9622 180.953C76.9622 180.443 77.1002 179.995 77.3762 179.609C77.6575 179.224 78.0507 178.924 78.5559 178.711C79.0664 178.492 79.6575 178.383 80.3294 178.383C80.9856 178.383 81.5559 178.49 82.0403 178.703C82.5299 178.911 82.9179 179.208 83.2044 179.594C83.496 179.974 83.6679 180.427 83.72 180.953ZM89.3297 178.531V180.055H84.4781V178.531H89.3297ZM85.7125 176.188H87.6188V184.477C87.6188 184.706 87.65 184.896 87.7125 185.047C87.7802 185.193 87.8844 185.299 88.025 185.367C88.1656 185.435 88.3479 185.469 88.5719 185.469C88.6708 185.469 88.7906 185.466 88.9313 185.461C89.0719 185.456 89.1813 185.448 89.2594 185.438L89.4078 186.969C89.2724 186.995 89.0979 187.016 88.8844 187.031C88.6708 187.047 88.4521 187.055 88.2281 187.055C87.6969 187.055 87.2438 186.966 86.8688 186.789C86.4938 186.607 86.2073 186.349 86.0094 186.016C85.8115 185.677 85.7125 185.271 85.7125 184.797V176.188ZM94.1425 187.18C93.3248 187.18 92.6086 186.997 91.9941 186.633C91.3847 186.263 90.9107 185.75 90.5722 185.094C90.2336 184.432 90.0644 183.667 90.0644 182.797C90.0644 181.917 90.2336 181.146 90.5722 180.484C90.9107 179.823 91.3847 179.307 91.9941 178.938C92.6086 178.568 93.3248 178.383 94.1425 178.383C94.9654 178.383 95.6816 178.568 96.2909 178.938C96.9055 179.307 97.3821 179.823 97.7206 180.484C98.0592 181.146 98.2284 181.917 98.2284 182.797C98.2284 183.667 98.0592 184.432 97.7206 185.094C97.3821 185.75 96.9055 186.263 96.2909 186.633C95.6816 186.997 94.9654 187.18 94.1425 187.18ZM94.1425 185.602C94.606 185.602 94.9967 185.482 95.3144 185.242C95.6373 185.003 95.8821 184.672 96.0488 184.25C96.2206 183.823 96.3066 183.336 96.3066 182.789C96.3066 182.237 96.2206 181.75 96.0488 181.328C95.8821 180.901 95.6373 180.568 95.3144 180.328C94.9967 180.083 94.606 179.961 94.1425 179.961C93.6842 179.961 93.2935 180.083 92.9706 180.328C92.6529 180.568 92.4081 180.901 92.2363 181.328C92.0696 181.75 91.9863 182.237 91.9863 182.789C91.9863 183.341 92.0696 183.828 92.2363 184.25C92.4081 184.672 92.6529 185.003 92.9706 185.242C93.2935 185.482 93.6842 185.602 94.1425 185.602ZM103.166 187.18C102.343 187.18 101.627 186.995 101.018 186.625C100.408 186.25 99.9371 185.734 99.6037 185.078C99.2704 184.417 99.1037 183.656 99.1037 182.797C99.1037 181.927 99.2704 181.161 99.6037 180.5C99.9423 179.833 100.416 179.315 101.026 178.945C101.635 178.57 102.346 178.383 103.158 178.383C103.846 178.383 104.458 178.513 104.994 178.773C105.531 179.034 105.963 179.396 106.291 179.859C106.619 180.323 106.809 180.859 106.862 181.469H105.01C104.958 181.177 104.854 180.919 104.697 180.695C104.541 180.466 104.336 180.286 104.08 180.156C103.83 180.026 103.531 179.961 103.182 179.961C102.744 179.961 102.364 180.076 102.041 180.305C101.718 180.534 101.468 180.859 101.291 181.281C101.114 181.703 101.026 182.201 101.026 182.773C101.026 183.352 101.112 183.854 101.283 184.281C101.461 184.703 101.711 185.029 102.033 185.258C102.356 185.487 102.739 185.602 103.182 185.602C103.52 185.602 103.812 185.542 104.057 185.422C104.307 185.297 104.51 185.12 104.666 184.891C104.828 184.661 104.94 184.393 105.002 184.086H106.862C106.815 184.68 106.63 185.211 106.307 185.68C105.984 186.148 105.554 186.516 105.018 186.781C104.481 187.047 103.864 187.18 103.166 187.18ZM110.073 184.289V181.984H110.338L113.588 178.531H115.862L111.995 182.68H111.627L110.073 184.289ZM108.331 187V175.359H110.229V187H108.331ZM113.784 187L110.846 183.109L112.135 181.773L116.081 187H113.784ZM123.339 180.953L121.573 181.055C121.542 180.831 121.461 180.628 121.331 180.445C121.201 180.258 121.021 180.109 120.792 180C120.568 179.885 120.297 179.828 119.979 179.828C119.531 179.828 119.169 179.93 118.893 180.133C118.617 180.331 118.479 180.578 118.479 180.875C118.479 181.135 118.578 181.349 118.776 181.516C118.979 181.677 119.279 181.802 119.675 181.891L121.128 182.203C121.946 182.38 122.55 182.659 122.94 183.039C123.331 183.414 123.526 183.906 123.526 184.516C123.526 185.052 123.375 185.521 123.073 185.922C122.771 186.323 122.352 186.635 121.815 186.859C121.284 187.078 120.672 187.188 119.979 187.188C119.308 187.188 118.711 187.086 118.19 186.883C117.669 186.68 117.25 186.383 116.933 185.992C116.615 185.596 116.425 185.117 116.362 184.555L118.229 184.461C118.297 184.872 118.479 185.188 118.776 185.406C119.073 185.62 119.466 185.727 119.956 185.727C120.461 185.727 120.86 185.625 121.151 185.422C121.448 185.219 121.597 184.966 121.597 184.664C121.597 184.404 121.495 184.193 121.292 184.031C121.089 183.87 120.8 183.747 120.425 183.664L118.987 183.359C118.185 183.188 117.584 182.901 117.183 182.5C116.781 182.094 116.581 181.578 116.581 180.953C116.581 180.443 116.719 179.995 116.995 179.609C117.276 179.224 117.669 178.924 118.175 178.711C118.685 178.492 119.276 178.383 119.948 178.383C120.604 178.383 121.175 178.49 121.659 178.703C122.149 178.911 122.537 179.208 122.823 179.594C123.115 179.974 123.287 180.427 123.339 180.953ZM47.7734 203L45.3047 194.531H47.25L48.8203 200.539H48.875L50.4688 194.531H52.375L53.9609 200.516H54.0156L55.5859 194.531H57.5312L55.0625 203H53.1172L51.4531 197.188H51.3828L49.7109 203H47.7734ZM58.5081 203V194.531H60.4066V203H58.5081ZM59.4613 193.234C59.1435 193.234 58.8701 193.13 58.6409 192.922C58.417 192.708 58.305 192.451 58.305 192.148C58.305 191.852 58.417 191.596 58.6409 191.383C58.8701 191.169 59.1435 191.062 59.4613 191.062C59.779 191.062 60.0498 191.169 60.2738 191.383C60.5029 191.596 60.6175 191.852 60.6175 192.148C60.6175 192.451 60.5029 192.708 60.2738 192.922C60.0498 193.13 59.779 193.234 59.4613 193.234ZM66.4928 194.531V196.055H61.6413V194.531H66.4928ZM62.8756 192.188H64.7819V200.477C64.7819 200.706 64.8131 200.896 64.8756 201.047C64.9433 201.193 65.0475 201.299 65.1881 201.367C65.3288 201.435 65.511 201.469 65.735 201.469C65.834 201.469 65.9538 201.466 66.0944 201.461C66.235 201.456 66.3444 201.448 66.4225 201.438L66.5709 202.969C66.4355 202.995 66.261 203.016 66.0475 203.031C65.834 203.047 65.6152 203.055 65.3913 203.055C64.86 203.055 64.4069 202.966 64.0319 202.789C63.6569 202.607 63.3704 202.349 63.1725 202.016C62.9746 201.677 62.8756 201.271 62.8756 200.797V192.188ZM69.7822 198.078V203H67.8838V191.359H69.7666V195.969H69.8369C70.0296 195.505 70.3343 195.128 70.7509 194.836C71.1728 194.539 71.7145 194.391 72.3759 194.391C72.9593 194.391 73.4801 194.518 73.9384 194.773C74.3968 195.023 74.7588 195.393 75.0244 195.883C75.29 196.367 75.4228 196.964 75.4228 197.672V203H73.5166V197.938C73.5166 197.323 73.3551 196.852 73.0322 196.523C72.7145 196.19 72.2796 196.023 71.7275 196.023C71.3629 196.023 71.0322 196.102 70.7353 196.258C70.4436 196.409 70.2119 196.638 70.04 196.945C69.8681 197.247 69.7822 197.625 69.7822 198.078ZM83.0953 203.156C82.5432 203.156 82.0484 203.06 81.6109 202.867C81.1786 202.674 80.8349 202.388 80.5797 202.008C80.3297 201.628 80.2047 201.159 80.2047 200.602C80.2047 200.122 80.2958 199.729 80.4781 199.422C80.6604 199.109 80.9052 198.859 81.2125 198.672C81.525 198.484 81.8766 198.344 82.2672 198.25C82.6578 198.156 83.0641 198.086 83.4859 198.039C84.0016 197.982 84.413 197.932 84.7203 197.891C85.0328 197.849 85.2568 197.784 85.3922 197.695C85.5276 197.602 85.5953 197.458 85.5953 197.266V197.211C85.5953 196.94 85.5354 196.706 85.4156 196.508C85.2958 196.31 85.1188 196.156 84.8844 196.047C84.6552 195.938 84.3766 195.883 84.0484 195.883C83.7099 195.883 83.4156 195.938 83.1656 196.047C82.9156 196.151 82.7151 196.294 82.5641 196.477C82.413 196.654 82.3141 196.854 82.2672 197.078L80.4547 196.945C80.5432 196.424 80.7464 195.974 81.0641 195.594C81.387 195.214 81.801 194.919 82.3063 194.711C82.8167 194.497 83.3974 194.391 84.0484 194.391C84.512 194.391 84.9495 194.451 85.3609 194.57C85.7776 194.685 86.1448 194.859 86.4625 195.094C86.7854 195.328 87.038 195.625 87.2203 195.984C87.4026 196.344 87.4938 196.768 87.4938 197.258V203H85.6578V201.82H85.6109C85.4859 202.055 85.3141 202.273 85.0953 202.477C84.8818 202.68 84.6109 202.844 84.2828 202.969C83.9547 203.094 83.5589 203.156 83.0953 203.156ZM83.5484 201.719C83.9911 201.719 84.3635 201.635 84.6656 201.469C84.9729 201.302 85.2047 201.083 85.3609 200.812C85.5224 200.536 85.6031 200.234 85.6031 199.906V198.922C85.5406 198.969 85.4391 199.013 85.2984 199.055C85.163 199.096 85.0042 199.135 84.8219 199.172C84.6396 199.208 84.4495 199.242 84.2516 199.273C84.0536 199.299 83.8688 199.326 83.6969 199.352C83.4 199.393 83.1266 199.461 82.8766 199.555C82.6266 199.648 82.426 199.779 82.275 199.945C82.1292 200.112 82.0563 200.328 82.0563 200.594C82.0563 200.953 82.1943 201.232 82.4703 201.43C82.7464 201.622 83.1057 201.719 83.5484 201.719ZM96.3537 203.18C95.5308 203.18 94.8147 202.995 94.2053 202.625C93.5959 202.25 93.1246 201.734 92.7912 201.078C92.4579 200.417 92.2912 199.656 92.2912 198.797C92.2912 197.927 92.4579 197.161 92.7912 196.5C93.1298 195.833 93.6037 195.315 94.2131 194.945C94.8225 194.57 95.5334 194.383 96.3459 194.383C97.0334 194.383 97.6454 194.513 98.1819 194.773C98.7183 195.034 99.1506 195.396 99.4787 195.859C99.8069 196.323 99.997 196.859 100.049 197.469H98.1975C98.1454 197.177 98.0412 196.919 97.885 196.695C97.7287 196.466 97.523 196.286 97.2678 196.156C97.0178 196.026 96.7183 195.961 96.3694 195.961C95.9319 195.961 95.5517 196.076 95.2287 196.305C94.9058 196.534 94.6558 196.859 94.4787 197.281C94.3017 197.703 94.2131 198.201 94.2131 198.773C94.2131 199.352 94.2991 199.854 94.4709 200.281C94.648 200.703 94.898 201.029 95.2209 201.258C95.5439 201.487 95.9267 201.602 96.3694 201.602C96.7079 201.602 96.9996 201.542 97.2444 201.422C97.4944 201.297 97.6975 201.12 97.8537 200.891C98.0152 200.661 98.1272 200.393 98.1897 200.086H100.049C100.002 200.68 99.8173 201.211 99.4944 201.68C99.1715 202.148 98.7418 202.516 98.2053 202.781C97.6689 203.047 97.0517 203.18 96.3537 203.18ZM103.424 191.359V203H101.518V191.359H103.424ZM105.323 203V194.531H107.222V203H105.323ZM106.276 193.234C105.959 193.234 105.685 193.13 105.456 192.922C105.232 192.708 105.12 192.451 105.12 192.148C105.12 191.852 105.232 191.596 105.456 191.383C105.685 191.169 105.959 191.062 106.276 191.062C106.594 191.062 106.865 191.169 107.089 191.383C107.318 191.596 107.432 191.852 107.432 192.148C107.432 192.451 107.318 192.708 107.089 192.922C106.865 193.13 106.594 193.234 106.276 193.234ZM112.55 203.18C111.727 203.18 111.011 202.995 110.402 202.625C109.792 202.25 109.321 201.734 108.987 201.078C108.654 200.417 108.487 199.656 108.487 198.797C108.487 197.927 108.654 197.161 108.987 196.5C109.326 195.833 109.8 195.315 110.409 194.945C111.019 194.57 111.73 194.383 112.542 194.383C113.23 194.383 113.842 194.513 114.378 194.773C114.915 195.034 115.347 195.396 115.675 195.859C116.003 196.323 116.193 196.859 116.245 197.469H114.394C114.342 197.177 114.237 196.919 114.081 196.695C113.925 196.466 113.719 196.286 113.464 196.156C113.214 196.026 112.915 195.961 112.566 195.961C112.128 195.961 111.748 196.076 111.425 196.305C111.102 196.534 110.852 196.859 110.675 197.281C110.498 197.703 110.409 198.201 110.409 198.773C110.409 199.352 110.495 199.854 110.667 200.281C110.844 200.703 111.094 201.029 111.417 201.258C111.74 201.487 112.123 201.602 112.566 201.602C112.904 201.602 113.196 201.542 113.441 201.422C113.691 201.297 113.894 201.12 114.05 200.891C114.211 200.661 114.323 200.393 114.386 200.086H116.245C116.198 200.68 116.014 201.211 115.691 201.68C115.368 202.148 114.938 202.516 114.402 202.781C113.865 203.047 113.248 203.18 112.55 203.18ZM119.457 200.289V197.984H119.722L122.972 194.531H125.246L121.378 198.68H121.011L119.457 200.289ZM117.714 203V191.359H119.613V203H117.714ZM123.168 203L120.23 199.109L121.519 197.773L125.464 203H123.168ZM127.301 203.117C126.973 203.117 126.694 203.005 126.465 202.781C126.241 202.552 126.129 202.276 126.129 201.953C126.129 201.63 126.243 201.357 126.473 201.133C126.702 200.904 126.978 200.789 127.301 200.789C127.624 200.789 127.897 200.904 128.121 201.133C128.35 201.357 128.465 201.63 128.465 201.953C128.465 202.276 128.35 202.552 128.121 202.781C127.897 203.005 127.624 203.117 127.301 203.117Z" fill="black"/>
<path d="M155.69 108.606L153.065 125.394C152.818 127.051 153.279 128.72 154.349 130C154.878 130.627 155.535 131.13 156.273 131.476C157.012 131.821 157.816 132 158.629 132H177.37C179.014 132 180.58 131.269 181.65 130C182.177 129.371 182.564 128.634 182.786 127.839C183.007 127.044 183.058 126.211 182.934 125.394L180.31 108.606C180.19 107.797 179.786 107.06 179.174 106.529C178.562 105.998 177.781 105.709 176.976 105.714H174.656C174.115 102.48 171.345 100 168 100C164.655 100 161.884 102.48 161.343 105.714H159.023C157.345 105.714 155.949 106.926 155.69 108.606ZM168 102.286C170.094 102.286 171.84 103.749 172.347 105.714H163.652C164.159 103.749 165.905 102.286 168 102.286ZM162.368 110.286C162.988 110.286 163.495 110.789 163.495 111.429C163.495 113.943 165.511 116 168 116C170.489 116 172.505 113.943 172.505 111.429C172.505 110.789 173.011 110.286 173.631 110.286C174.25 110.286 174.757 110.789 174.757 111.429C174.757 115.211 171.727 118.286 168 118.286C164.272 118.286 161.242 115.211 161.242 111.429C161.242 110.789 161.749 110.286 162.368 110.286Z" fill="black"/>
<path d="M55.027 76.05C54.5487 76.05 54.152 75.6533 54.152 75.175V72.76C54.152 72.2817 54.5487 71.885 55.027 71.885C55.5053 71.885 55.902 72.2817 55.902 72.76V75.175C55.902 75.665 55.5053 76.05 55.027 76.05ZM61.0003 76.05C60.522 76.05 60.1253 75.6533 60.1253 75.175V70.3333C60.1253 69.855 60.522 69.4583 61.0003 69.4583C61.4787 69.4583 61.8753 69.855 61.8753 70.3333V75.175C61.8753 75.665 61.4787 76.05 61.0003 76.05ZM66.9737 76.05C66.4953 76.05 66.0987 75.6533 66.0987 75.175V67.9183C66.0987 67.44 66.4953 67.0433 66.9737 67.0433C67.452 67.0433 67.8487 67.44 67.8487 67.9183V75.175C67.8487 75.665 67.4637 76.05 66.9737 76.05ZM55.027 69.3767C54.6303 69.3767 54.2803 69.1083 54.1753 68.7117C54.0587 68.245 54.3387 67.7667 54.817 67.65C59.1103 66.5767 62.8903 64.2317 65.772 60.8833L66.3087 60.2533C66.6237 59.8917 67.172 59.845 67.5453 60.16C67.907 60.475 67.9537 61.0233 67.6387 61.3967L67.102 62.0267C64.0108 65.6499 59.861 68.2124 55.237 69.3533C55.167 69.3767 55.097 69.3767 55.027 69.3767Z" fill="black"/>
<path d="M66.9735 65.1059C66.4952 65.1059 66.0985 64.7092 66.0985 64.2309V61.6992H63.5552C63.0768 61.6992 62.6802 61.3026 62.6802 60.8242C62.6802 60.3459 63.0768 59.9492 63.5552 59.9492H66.9735C67.4518 59.9492 67.8485 60.3459 67.8485 60.8242V64.2426C67.8485 64.7209 67.4635 65.1059 66.9735 65.1059Z" fill="black"/>
<path d="M64.5002 80.5413H57.5002C51.1652 80.5413 48.4585 77.8347 48.4585 71.4997V64.4997C48.4585 58.1647 51.1652 55.458 57.5002 55.458H64.5002C70.8352 55.458 73.5418 58.1647 73.5418 64.4997V71.4997C73.5418 77.8347 70.8352 80.5413 64.5002 80.5413ZM57.5002 57.208C52.1218 57.208 50.2085 59.1213 50.2085 64.4997V71.4997C50.2085 76.878 52.1218 78.7913 57.5002 78.7913H64.5002C69.8785 78.7913 71.7918 76.878 71.7918 71.4997V64.4997C71.7918 59.1213 69.8785 57.208 64.5002 57.208H57.5002Z" fill="black"/>
<path d="M72.027 145.05C71.5487 145.05 71.152 144.653 71.152 144.175V141.76C71.152 141.282 71.5487 140.885 72.027 140.885C72.5053 140.885 72.902 141.282 72.902 141.76V144.175C72.902 144.665 72.5053 145.05 72.027 145.05ZM78.0003 145.05C77.522 145.05 77.1253 144.653 77.1253 144.175V139.333C77.1253 138.855 77.522 138.458 78.0003 138.458C78.4787 138.458 78.8753 138.855 78.8753 139.333V144.175C78.8753 144.665 78.4787 145.05 78.0003 145.05ZM83.9737 145.05C83.4953 145.05 83.0987 144.653 83.0987 144.175V136.918C83.0987 136.44 83.4953 136.043 83.9737 136.043C84.452 136.043 84.8487 136.44 84.8487 136.918V144.175C84.8487 144.665 84.4637 145.05 83.9737 145.05ZM72.027 138.377C71.6303 138.377 71.2803 138.108 71.1753 137.712C71.0587 137.245 71.3387 136.767 71.817 136.65C76.1103 135.577 79.8903 133.232 82.772 129.883L83.3087 129.253C83.6237 128.892 84.172 128.845 84.5453 129.16C84.907 129.475 84.9537 130.023 84.6387 130.397L84.102 131.027C81.0108 134.65 76.861 137.212 72.237 138.353C72.167 138.377 72.097 138.377 72.027 138.377Z" fill="black"/>
<path d="M83.9735 134.106C83.4952 134.106 83.0985 133.709 83.0985 133.231V130.699H80.5552C80.0768 130.699 79.6802 130.303 79.6802 129.824C79.6802 129.346 80.0768 128.949 80.5552 128.949H83.9735C84.4518 128.949 84.8485 129.346 84.8485 129.824V133.243C84.8485 133.721 84.4635 134.106 83.9735 134.106Z" fill="black"/>
<path d="M81.5002 149.541H74.5002C68.1652 149.541 65.4585 146.835 65.4585 140.5V133.5C65.4585 127.165 68.1652 124.458 74.5002 124.458H81.5002C87.8352 124.458 90.5418 127.165 90.5418 133.5V140.5C90.5418 146.835 87.8352 149.541 81.5002 149.541ZM74.5002 126.208C69.1218 126.208 67.2085 128.121 67.2085 133.5V140.5C67.2085 145.878 69.1218 147.791 74.5002 147.791H81.5002C86.8785 147.791 88.7918 145.878 88.7918 140.5V133.5C88.7918 128.121 86.8785 126.208 81.5002 126.208H74.5002Z" fill="black"/>
<path d="M110.027 96.05C109.549 96.05 109.152 95.6533 109.152 95.175V92.76C109.152 92.2817 109.549 91.885 110.027 91.885C110.505 91.885 110.902 92.2817 110.902 92.76V95.175C110.902 95.665 110.505 96.05 110.027 96.05ZM116 96.05C115.522 96.05 115.125 95.6533 115.125 95.175V90.3333C115.125 89.855 115.522 89.4583 116 89.4583C116.479 89.4583 116.875 89.855 116.875 90.3333V95.175C116.875 95.665 116.479 96.05 116 96.05ZM121.974 96.05C121.495 96.05 121.099 95.6533 121.099 95.175V87.9183C121.099 87.44 121.495 87.0433 121.974 87.0433C122.452 87.0433 122.849 87.44 122.849 87.9183V95.175C122.849 95.665 122.464 96.05 121.974 96.05ZM110.027 89.3767C109.63 89.3767 109.28 89.1083 109.175 88.7117C109.059 88.245 109.339 87.7667 109.817 87.65C114.11 86.5767 117.89 84.2317 120.772 80.8833L121.309 80.2533C121.624 79.8917 122.172 79.845 122.545 80.16C122.907 80.475 122.954 81.0233 122.639 81.3967L122.102 82.0267C119.011 85.6499 114.861 88.2124 110.237 89.3533C110.167 89.3767 110.097 89.3767 110.027 89.3767Z" fill="black"/>
<path d="M121.974 85.1059C121.495 85.1059 121.099 84.7092 121.099 84.2309V81.6992H118.555C118.077 81.6992 117.68 81.3026 117.68 80.8242C117.68 80.3459 118.077 79.9492 118.555 79.9492H121.974C122.452 79.9492 122.849 80.3459 122.849 80.8242V84.2426C122.849 84.7209 122.464 85.1059 121.974 85.1059Z" fill="black"/>
<path d="M119.5 100.541H112.5C106.165 100.541 103.458 97.8347 103.458 91.4997V84.4997C103.458 78.1647 106.165 75.458 112.5 75.458H119.5C125.835 75.458 128.542 78.1647 128.542 84.4997V91.4997C128.542 97.8347 125.835 100.541 119.5 100.541ZM112.5 77.208C107.122 77.208 105.208 79.1213 105.208 84.4997V91.4997C105.208 96.878 107.122 98.7913 112.5 98.7913H119.5C124.878 98.7913 126.792 96.878 126.792 91.4997V84.4997C126.792 79.1213 124.878 77.208 119.5 77.208H112.5Z" fill="black"/>
<path d="M148.027 41.05C147.549 41.05 147.152 40.6533 147.152 40.175V37.76C147.152 37.2817 147.549 36.885 148.027 36.885C148.505 36.885 148.902 37.2817 148.902 37.76V40.175C148.902 40.665 148.505 41.05 148.027 41.05ZM154 41.05C153.522 41.05 153.125 40.6533 153.125 40.175V35.3333C153.125 34.855 153.522 34.4583 154 34.4583C154.479 34.4583 154.875 34.855 154.875 35.3333V40.175C154.875 40.665 154.479 41.05 154 41.05ZM159.974 41.05C159.495 41.05 159.099 40.6533 159.099 40.175V32.9183C159.099 32.44 159.495 32.0433 159.974 32.0433C160.452 32.0433 160.849 32.44 160.849 32.9183V40.175C160.849 40.665 160.464 41.05 159.974 41.05ZM148.027 34.3767C147.63 34.3767 147.28 34.1083 147.175 33.7117C147.059 33.245 147.339 32.7667 147.817 32.65C152.11 31.5767 155.89 29.2317 158.772 25.8833L159.309 25.2533C159.624 24.8917 160.172 24.845 160.545 25.16C160.907 25.475 160.954 26.0233 160.639 26.3967L160.102 27.0267C157.011 30.6499 152.861 33.2124 148.237 34.3533C148.167 34.3767 148.097 34.3767 148.027 34.3767Z" fill="black"/>
<path d="M159.974 30.1059C159.495 30.1059 159.099 29.7092 159.099 29.2309V26.6992H156.555C156.077 26.6992 155.68 26.3026 155.68 25.8242C155.68 25.3459 156.077 24.9492 156.555 24.9492H159.974C160.452 24.9492 160.849 25.3459 160.849 25.8242V29.2426C160.849 29.7209 160.464 30.1059 159.974 30.1059Z" fill="black"/>
<path d="M157.5 45.5413H150.5C144.165 45.5413 141.458 42.8347 141.458 36.4997V29.4997C141.458 23.1647 144.165 20.458 150.5 20.458H157.5C163.835 20.458 166.542 23.1647 166.542 29.4997V36.4997C166.542 42.8347 163.835 45.5413 157.5 45.5413ZM150.5 22.208C145.122 22.208 143.208 24.1213 143.208 29.4997V36.4997C143.208 41.878 145.122 43.7913 150.5 43.7913H157.5C162.878 43.7913 164.792 41.878 164.792 36.4997V29.4997C164.792 24.1213 162.878 22.208 157.5 22.208H150.5Z" fill="black"/>
<path d="M94.9902 142.134C107.857 142.134 121.095 141.514 133.698 138.713C137.181 137.939 145.525 136.358 146.84 132.412" stroke="#999999" stroke-width="2" stroke-linecap="round" stroke-dasharray="4 4"/>
<path d="M167.094 47.3457C175.398 54.3717 181.382 59.8987 184.558 70.6602C185.967 75.4372 185.728 80.0863 185.728 85.018C185.728 89.824 185.34 93.4638 184.063 97.9355C183.76 98.9954 180.867 102.927 180.867 102.436" stroke="#999999" stroke-width="2" stroke-linecap="round" stroke-dasharray="4 4"/>
<path d="M76.3564 57.0676C76.9568 55.2665 81.4487 54.4096 83.0177 53.782C87.0212 52.1806 91.4456 51.0623 95.7552 50.6314C100.249 50.182 105.469 50.2393 109.978 50.6314C118.089 51.3366 129.873 54.7568 136.758 59.138C140.923 61.7884 145.418 63.9514 149.451 66.7895C154.284 70.1906 157.14 76.1464 160.613 80.7422C164.38 85.728 166.816 91.07 168.714 96.7653" stroke="#999999" stroke-width="2" stroke-linecap="round" stroke-dasharray="4 4"/>
<path d="M124.966 102.437C124.966 116.139 138.808 119.45 150.081 119.45" stroke="#999999" stroke-width="2" stroke-linecap="round" stroke-dasharray="4 4"/>
<defs>
<filter id="filter0_dddd_331_258" x="0.518499" y="0.7037" width="231.963" height="284.296" filterUnits="userSpaceOnUse" color-interpolation-filters="sRGB">
<feFlood flood-opacity="0" result="BackgroundImageFix"/>
<feColorMatrix in="SourceAlpha" type="matrix" values="0 0 0 0 0 0 0 0 0 0 0 0 0 0 0 0 0 0 127 0" result="hardAlpha"/>
<feOffset dy="38.5185"/>
<feGaussianBlur stdDeviation="12.7408"/>
<feComposite in2="hardAlpha" operator="out"/>
<feColorMatrix type="matrix" values="0 0 0 0 0.32549 0 0 0 0 0.117647 0 0 0 0 0 0 0 0 0.04 0"/>
<feBlend mode="normal" in2="BackgroundImageFix" result="effect1_dropShadow_331_258"/>
<feColorMatrix in="SourceAlpha" type="matrix" values="0 0 0 0 0 0 0 0 0 0 0 0 0 0 0 0 0 0 127 0" result="hardAlpha"/>
<feOffset dy="20"/>
<feGaussianBlur stdDeviation="6.5"/>
<feComposite in2="hardAlpha" operator="out"/>
<feColorMatrix type="matrix" values="0 0 0 0 0.32549 0 0 0 0 0.117647 0 0 0 0 0 0 0 0 0.04 0"/>
<feBlend mode="normal" in2="effect1_dropShadow_331_258" result="effect2_dropShadow_331_258"/>
<feColorMatrix in="SourceAlpha" type="matrix" values="0 0 0 0 0 0 0 0 0 0 0 0 0 0 0 0 0 0 127 0" result="hardAlpha"/>
<feOffset dy="8.14815"/>
<feGaussianBlur stdDeviation="3.25926"/>
<feComposite in2="hardAlpha" operator="out"/>
<feColorMatrix type="matrix" values="0 0 0 0 0.32549 0 0 0 0 0.117647 0 0 0 0 0 0 0 0 0.03 0"/>
<feBlend mode="normal" in2="effect2_dropShadow_331_258" result="effect3_dropShadow_331_258"/>
<feColorMatrix in="SourceAlpha" type="matrix" values="0 0 0 0 0 0 0 0 0 0 0 0 0 0 0 0 0 0 127 0" result="hardAlpha"/>
<feOffset dy="1.85185"/>
<feGaussianBlur stdDeviation="1.57407"/>
<feComposite in2="hardAlpha" operator="out"/>
<feColorMatrix type="matrix" values="0 0 0 0 0.325 0 0 0 0 0.117867 0 0 0 0 0.00135416 0 0 0 0.02 0"/>
<feBlend mode="normal" in2="effect3_dropShadow_331_258" result="effect4_dropShadow_331_258"/>
<feBlend mode="normal" in="SourceGraphic" in2="effect4_dropShadow_331_258" result="shape"/>
</filter>
<linearGradient id="paint0_linear_331_258" x1="184.636" y1="111.5" x2="-1.15102" y2="111.5" gradientUnits="userSpaceOnUse">
<stop offset="0.630214" stop-color="white"/>
<stop offset="1" stop-color="#F6F6F6"/>
</linearGradient>
</defs>
</svg>
