<svg width="140" height="132" viewBox="0 0 140 132" fill="none" xmlns="http://www.w3.org/2000/svg">
<path d="M108.69 89.6057L106.065 106.394C105.818 108.051 106.279 109.72 107.349 111C107.878 111.627 108.535 112.13 109.273 112.476C110.012 112.821 110.816 113 111.629 113H130.37C132.014 113 133.58 112.269 134.65 111C135.177 110.371 135.564 109.634 135.786 108.839C136.007 108.044 136.058 107.211 135.934 106.394L133.31 89.6057C133.19 88.7975 132.786 88.0602 132.174 87.5291C131.562 86.998 130.781 86.7087 129.976 86.7143H127.656C127.115 83.48 124.345 81 121 81C117.655 81 114.884 83.48 114.343 86.7143H112.023C110.345 86.7143 108.949 87.9257 108.69 89.6057ZM121 83.2857C123.094 83.2857 124.84 84.7486 125.347 86.7143H116.652C117.159 84.7486 118.905 83.2857 121 83.2857ZM115.368 91.2857C115.988 91.2857 116.495 91.7886 116.495 92.4286C116.495 94.9429 118.511 97 121 97C123.489 97 125.505 94.9429 125.505 92.4286C125.505 91.7886 126.011 91.2857 126.631 91.2857C127.25 91.2857 127.757 91.7886 127.757 92.4286C127.757 96.2114 124.727 99.2857 121 99.2857C117.272 99.2857 114.242 96.2114 114.242 92.4286C114.242 91.7886 114.749 91.2857 115.368 91.2857Z" fill="black"/>
<path d="M8.027 57.05C7.54866 57.05 7.152 56.6533 7.152 56.175V53.76C7.152 53.2817 7.54866 52.885 8.027 52.885C8.50533 52.885 8.902 53.2817 8.902 53.76V56.175C8.902 56.665 8.50533 57.05 8.027 57.05ZM14.0003 57.05C13.522 57.05 13.1253 56.6533 13.1253 56.175V51.3333C13.1253 50.855 13.522 50.4583 14.0003 50.4583C14.4787 50.4583 14.8753 50.855 14.8753 51.3333V56.175C14.8753 56.665 14.4787 57.05 14.0003 57.05ZM19.9737 57.05C19.4953 57.05 19.0987 56.6533 19.0987 56.175V48.9183C19.0987 48.44 19.4953 48.0433 19.9737 48.0433C20.452 48.0433 20.8487 48.44 20.8487 48.9183V56.175C20.8487 56.665 20.4637 57.05 19.9737 57.05ZM8.027 50.3767C7.63033 50.3767 7.28033 50.1083 7.17533 49.7117C7.05866 49.245 7.33866 48.7667 7.817 48.65C12.1103 47.5767 15.8903 45.2317 18.772 41.8833L19.3087 41.2533C19.6237 40.8917 20.172 40.845 20.5453 41.16C20.907 41.475 20.9537 42.0233 20.6387 42.3967L20.102 43.0267C17.0108 46.6499 12.861 49.2124 8.237 50.3533C8.167 50.3767 8.097 50.3767 8.027 50.3767Z" fill="black"/>
<path d="M19.9735 46.1059C19.4952 46.1059 19.0985 45.7092 19.0985 45.2309V42.6992H16.5552C16.0768 42.6992 15.6802 42.3026 15.6802 41.8242C15.6802 41.3459 16.0768 40.9492 16.5552 40.9492H19.9735C20.4518 40.9492 20.8485 41.3459 20.8485 41.8242V45.2426C20.8485 45.7209 20.4635 46.1059 19.9735 46.1059Z" fill="black"/>
<path d="M17.5002 61.5413H10.5002C4.16516 61.5413 1.4585 58.8347 1.4585 52.4997V45.4997C1.4585 39.1647 4.16516 36.458 10.5002 36.458H17.5002C23.8352 36.458 26.5418 39.1647 26.5418 45.4997V52.4997C26.5418 58.8347 23.8352 61.5413 17.5002 61.5413ZM10.5002 38.208C5.12183 38.208 3.2085 40.1213 3.2085 45.4997V52.4997C3.2085 57.878 5.12183 59.7913 10.5002 59.7913H17.5002C22.8785 59.7913 24.7918 57.878 24.7918 52.4997V45.4997C24.7918 40.1213 22.8785 38.208 17.5002 38.208H10.5002Z" fill="black"/>
<path d="M25.027 126.05C24.5487 126.05 24.152 125.653 24.152 125.175V122.76C24.152 122.282 24.5487 121.885 25.027 121.885C25.5053 121.885 25.902 122.282 25.902 122.76V125.175C25.902 125.665 25.5053 126.05 25.027 126.05ZM31.0003 126.05C30.522 126.05 30.1253 125.653 30.1253 125.175V120.333C30.1253 119.855 30.522 119.458 31.0003 119.458C31.4787 119.458 31.8753 119.855 31.8753 120.333V125.175C31.8753 125.665 31.4787 126.05 31.0003 126.05ZM36.9737 126.05C36.4953 126.05 36.0987 125.653 36.0987 125.175V117.918C36.0987 117.44 36.4953 117.043 36.9737 117.043C37.452 117.043 37.8487 117.44 37.8487 117.918V125.175C37.8487 125.665 37.4637 126.05 36.9737 126.05ZM25.027 119.377C24.6303 119.377 24.2803 119.108 24.1753 118.712C24.0587 118.245 24.3387 117.767 24.817 117.65C29.1103 116.577 32.8903 114.232 35.772 110.883L36.3087 110.253C36.6237 109.892 37.172 109.845 37.5453 110.16C37.907 110.475 37.9537 111.023 37.6387 111.397L37.102 112.027C34.0108 115.65 29.861 118.212 25.237 119.353C25.167 119.377 25.097 119.377 25.027 119.377Z" fill="black"/>
<path d="M36.9735 115.106C36.4952 115.106 36.0985 114.709 36.0985 114.231V111.699H33.5552C33.0768 111.699 32.6802 111.303 32.6802 110.824C32.6802 110.346 33.0768 109.949 33.5552 109.949H36.9735C37.4518 109.949 37.8485 110.346 37.8485 110.824V114.243C37.8485 114.721 37.4635 115.106 36.9735 115.106Z" fill="black"/>
<path d="M34.5002 130.541H27.5002C21.1652 130.541 18.4585 127.835 18.4585 121.5V114.5C18.4585 108.165 21.1652 105.458 27.5002 105.458H34.5002C40.8352 105.458 43.5418 108.165 43.5418 114.5V121.5C43.5418 127.835 40.8352 130.541 34.5002 130.541ZM27.5002 107.208C22.1218 107.208 20.2085 109.121 20.2085 114.5V121.5C20.2085 126.878 22.1218 128.791 27.5002 128.791H34.5002C39.8785 128.791 41.7918 126.878 41.7918 121.5V114.5C41.7918 109.121 39.8785 107.208 34.5002 107.208H27.5002Z" fill="black"/>
<path d="M63.027 77.05C62.5487 77.05 62.152 76.6533 62.152 76.175V73.76C62.152 73.2817 62.5487 72.885 63.027 72.885C63.5053 72.885 63.902 73.2817 63.902 73.76V76.175C63.902 76.665 63.5053 77.05 63.027 77.05ZM69.0003 77.05C68.522 77.05 68.1253 76.6533 68.1253 76.175V71.3333C68.1253 70.855 68.522 70.4583 69.0003 70.4583C69.4787 70.4583 69.8753 70.855 69.8753 71.3333V76.175C69.8753 76.665 69.4787 77.05 69.0003 77.05ZM74.9737 77.05C74.4953 77.05 74.0987 76.6533 74.0987 76.175V68.9183C74.0987 68.44 74.4953 68.0433 74.9737 68.0433C75.452 68.0433 75.8487 68.44 75.8487 68.9183V76.175C75.8487 76.665 75.4637 77.05 74.9737 77.05ZM63.027 70.3767C62.6303 70.3767 62.2803 70.1083 62.1753 69.7117C62.0587 69.245 62.3387 68.7667 62.817 68.65C67.1103 67.5767 70.8903 65.2317 73.772 61.8833L74.3087 61.2533C74.6237 60.8917 75.172 60.845 75.5453 61.16C75.907 61.475 75.9537 62.0233 75.6387 62.3967L75.102 63.0267C72.0108 66.6499 67.861 69.2124 63.237 70.3533C63.167 70.3767 63.097 70.3767 63.027 70.3767Z" fill="black"/>
<path d="M74.9735 66.1059C74.4952 66.1059 74.0985 65.7092 74.0985 65.2309V62.6992H71.5552C71.0768 62.6992 70.6802 62.3026 70.6802 61.8242C70.6802 61.3459 71.0768 60.9492 71.5552 60.9492H74.9735C75.4518 60.9492 75.8485 61.3459 75.8485 61.8242V65.2426C75.8485 65.7209 75.4635 66.1059 74.9735 66.1059Z" fill="black"/>
<path d="M72.5002 81.5413H65.5002C59.1652 81.5413 56.4585 78.8347 56.4585 72.4997V65.4997C56.4585 59.1647 59.1652 56.458 65.5002 56.458H72.5002C78.8352 56.458 81.5418 59.1647 81.5418 65.4997V72.4997C81.5418 78.8347 78.8352 81.5413 72.5002 81.5413ZM65.5002 58.208C60.1218 58.208 58.2085 60.1213 58.2085 65.4997V72.4997C58.2085 77.878 60.1218 79.7913 65.5002 79.7913H72.5002C77.8785 79.7913 79.7918 77.878 79.7918 72.4997V65.4997C79.7918 60.1213 77.8785 58.208 72.5002 58.208H65.5002Z" fill="black"/>
<path d="M101.027 22.05C100.549 22.05 100.152 21.6533 100.152 21.175V18.76C100.152 18.2817 100.549 17.885 101.027 17.885C101.505 17.885 101.902 18.2817 101.902 18.76V21.175C101.902 21.665 101.505 22.05 101.027 22.05ZM107 22.05C106.522 22.05 106.125 21.6533 106.125 21.175V16.3333C106.125 15.855 106.522 15.4583 107 15.4583C107.479 15.4583 107.875 15.855 107.875 16.3333V21.175C107.875 21.665 107.479 22.05 107 22.05ZM112.974 22.05C112.495 22.05 112.099 21.6533 112.099 21.175V13.9183C112.099 13.44 112.495 13.0433 112.974 13.0433C113.452 13.0433 113.849 13.44 113.849 13.9183V21.175C113.849 21.665 113.464 22.05 112.974 22.05ZM101.027 15.3767C100.63 15.3767 100.28 15.1083 100.175 14.7117C100.059 14.245 100.339 13.7667 100.817 13.65C105.11 12.5767 108.89 10.2317 111.772 6.88332L112.309 6.25332C112.624 5.89165 113.172 5.84499 113.545 6.15999C113.907 6.47499 113.954 7.02332 113.639 7.39665L113.102 8.02665C110.011 11.6499 105.861 14.2124 101.237 15.3533C101.167 15.3767 101.097 15.3767 101.027 15.3767Z" fill="black"/>
<path d="M112.974 11.1059C112.495 11.1059 112.099 10.7092 112.099 10.2309V7.69922H109.555C109.077 7.69922 108.68 7.30255 108.68 6.82422C108.68 6.34589 109.077 5.94922 109.555 5.94922H112.974C113.452 5.94922 113.849 6.34589 113.849 6.82422V10.2426C113.849 10.7209 113.464 11.1059 112.974 11.1059Z" fill="black"/>
<path d="M110.5 26.5413H103.5C97.1652 26.5413 94.4585 23.8347 94.4585 17.4997V10.4997C94.4585 4.16467 97.1652 1.45801 103.5 1.45801H110.5C116.835 1.45801 119.542 4.16467 119.542 10.4997V17.4997C119.542 23.8347 116.835 26.5413 110.5 26.5413ZM103.5 3.20801C98.1218 3.20801 96.2085 5.12134 96.2085 10.4997V17.4997C96.2085 22.878 98.1218 24.7913 103.5 24.7913H110.5C115.878 24.7913 117.792 22.878 117.792 17.4997V10.4997C117.792 5.12134 115.878 3.20801 110.5 3.20801H103.5Z" fill="black"/>
<path d="M47.9902 123.134C60.8568 123.134 74.0954 122.514 86.6978 119.713C90.1809 118.939 98.5249 117.358 99.8403 113.412" stroke="#999999" stroke-width="2" stroke-linecap="round" stroke-dasharray="4 4"/>
<path d="M120.094 28.3457C128.398 35.3717 134.382 40.8987 137.558 51.6602C138.967 56.4372 138.728 61.0863 138.728 66.018C138.728 70.824 138.34 74.4638 137.063 78.9355C136.76 79.9954 133.867 83.9274 133.867 83.4364" stroke="#999999" stroke-width="2" stroke-linecap="round" stroke-dasharray="4 4"/>
<path d="M29.3564 38.0676C29.9568 36.2665 34.4487 35.4096 36.0177 34.782C40.0212 33.1806 44.4456 32.0623 48.7552 31.6314C53.2492 31.182 58.4689 31.2393 62.978 31.6314C71.0886 32.3366 82.8734 35.7568 89.7582 40.138C93.923 42.7884 98.4175 44.9514 102.451 47.7895C107.284 51.1906 110.14 57.1464 113.613 61.7422C117.38 66.728 119.816 72.07 121.714 77.7653" stroke="#999999" stroke-width="2" stroke-linecap="round" stroke-dasharray="4 4"/>
<path d="M77.9663 83.4365C77.9663 97.1388 91.8083 100.45 103.081 100.45" stroke="#999999" stroke-width="2" stroke-linecap="round" stroke-dasharray="4 4"/>
</svg>
