<svg width="20" height="20" viewBox="0 0 20 20" fill="none" xmlns="http://www.w3.org/2000/svg">
<path d="M15.8334 9.16634V6.66634C15.8334 5.11924 15.2188 3.63551 14.1249 2.54155C13.0309 1.44759 11.5472 0.833008 10.0001 0.833008C8.45299 0.833008 6.96925 1.44759 5.87529 2.54155C4.78133 3.63551 4.16675 5.11924 4.16675 6.66634V9.16634C4.16675 11.9163 1.66675 12.583 1.66675 14.1663C1.66675 15.583 4.91675 16.6663 10.0001 16.6663C15.0834 16.6663 18.3334 15.583 18.3334 14.1663C18.3334 12.583 15.8334 11.9163 15.8334 9.16634Z" stroke="#212121" stroke-width="2" stroke-miterlimit="10" stroke-linecap="square"/>
<path d="M10 18.3333C9.15752 18.3333 8.36585 18.305 7.62085 18.25C7.77968 18.7566 8.0961 19.1994 8.52403 19.5137C8.95196 19.828 9.46906 19.9975 10 19.9975C10.531 19.9975 11.0481 19.828 11.476 19.5137C11.9039 19.1994 12.2204 18.7566 12.3792 18.25C11.6342 18.305 10.8425 18.3333 10 18.3333Z" fill="#212121"/>
</svg>
