<svg width="20" height="14" viewBox="0 0 20 14" fill="none" xmlns="http://www.w3.org/2000/svg">
<path d="M19.1667 7.41634H15.8329C15.6028 7.41634 15.4163 7.2298 15.4163 6.99967C15.4163 6.76956 15.6028 6.58301 15.8329 6.58301H19.1667C19.3968 6.58301 19.5833 6.76955 19.5833 6.99967C19.5833 7.2298 19.3968 7.41634 19.1667 7.41634Z" fill="#506D84"/>
<path d="M4.16663 7.41634H0.833293C0.603176 7.41634 0.416626 7.2298 0.416626 6.99967C0.416626 6.76956 0.603172 6.58301 0.833293 6.58301H4.16663C4.39674 6.58301 4.58329 6.76955 4.58329 6.99967C4.58329 7.2298 4.39675 7.41634 4.16663 7.41634Z" fill="#506D84"/>
<path d="M10 13.25C6.55375 13.25 3.75 10.4462 3.75 7C3.75 3.55375 6.55375 0.75 10 0.75C13.4462 0.75 16.25 3.55375 16.25 7C16.25 10.4462 13.4462 13.25 10 13.25Z" fill="#506D84"/>
<path d="M10.5891 7.00029L11.9612 5.62821C12.1239 5.46551 12.1239 5.20171 11.9612 5.03902C11.7985 4.87632 11.5347 4.87632 11.372 5.03902L9.9999 6.41109L8.62783 5.03902C8.46515 4.87632 8.20135 4.87632 8.03864 5.03902C7.87596 5.20171 7.87596 5.46551 8.03864 5.62821L9.41071 7.00029L8.03864 8.37236C7.87596 8.53504 7.87596 8.79884 8.03864 8.96155C8.20135 9.12423 8.46515 9.12423 8.62783 8.96155L9.9999 7.58948L11.372 8.96155C11.5347 9.12423 11.7985 9.12423 11.9612 8.96155C12.1239 8.79884 12.1239 8.53504 11.9612 8.37236L10.5891 7.00029Z" fill="white"/>
</svg>
