<svg width="16" height="14" viewBox="0 0 16 14" fill="none" xmlns="http://www.w3.org/2000/svg">
<path d="M10.3 0.336006C9.554 0.113006 8.779 -0.000993478 8 6.52224e-06C3.586 -0.00399348 0.004 3.57201 0 7.98601C0 8.76501 0.112 9.54001 0.336 10.286C0.462 10.71 0.852 11 1.294 11H4.348C4.283 10.406 4.217 9.72301 4.152 9.00001H2.085C2.028 8.67001 2 8.33501 2 8.00001C2 4.68601 4.686 2.00001 8 2.00001C11.314 2.00001 14 4.68601 14 8.00001C14 8.33501 13.972 8.67001 13.915 9.00001H10.408C10.885 9.91001 11.251 10.659 11.35 10.984C11.352 10.989 11.352 10.994 11.353 11H14.706C15.148 11 15.538 10.71 15.664 10.286C16.93 6.05701 14.529 1.60201 10.3 0.336006Z" fill="#E85C51"/>
<path d="M9.91395 11.4193C9.66495 10.5973 6.60595 5.1903 6.25795 4.5763C6.14395 4.3743 5.90795 4.2773 5.67795 4.3443C5.45395 4.4123 5.30795 4.6263 5.32395 4.8593C5.37595 5.5633 5.83695 11.7583 6.08595 12.5803C6.34795 13.4423 7.14295 13.9993 8.00095 13.9993C8.19295 13.9993 8.38795 13.9713 8.58095 13.9133C9.63595 13.5933 10.2329 12.4753 9.91395 11.4193Z" fill="#E85C51"/>
</svg>
