<svg width="8" height="8" viewBox="0 0 8 8" fill="none" xmlns="http://www.w3.org/2000/svg">
<path d="M6.66667 1.33333V0.333333C6.66667 0.244928 6.63155 0.160143 6.56904 0.0976311C6.50652 0.035119 6.42174 0 6.33333 0L5.66667 0C5.57826 0 5.49348 0.035119 5.43096 0.0976311C5.36845 0.160143 5.33333 0.244928 5.33333 0.333333V1.33333H2.66667V0.333333C2.66667 0.244928 2.63155 0.160143 2.56904 0.0976311C2.50652 0.035119 2.42174 0 2.33333 0L1.66667 0C1.57826 0 1.49348 0.035119 1.43096 0.0976311C1.36845 0.160143 1.33333 0.244928 1.33333 0.333333V1.33333C0.979711 1.33333 0.640573 1.47381 0.390524 1.72386C0.140476 1.97391 0 2.31304 0 2.66667L0 6.66667C0 7.02029 0.140476 7.35943 0.390524 7.60948C0.640573 7.85952 0.979711 8 1.33333 8H6.66667C7.02029 8 7.35943 7.85952 7.60948 7.60948C7.85952 7.35943 8 7.02029 8 6.66667V2.66667C8 2.31304 7.85952 1.97391 7.60948 1.72386C7.35943 1.47381 7.02029 1.33333 6.66667 1.33333ZM6.66667 6.66667H1.33333V3.33333H6.66667V6.66667Z" fill="#666666"/>
</svg>
