<svg width="18" height="18" viewBox="0 0 18 18" fill="none" xmlns="http://www.w3.org/2000/svg">
<path d="M17.7187 6.91453L13.9687 3.91453C13.8584 3.8262 13.7254 3.77084 13.585 3.75483C13.4446 3.73882 13.3025 3.7628 13.1751 3.82402C13.0477 3.88524 12.9402 3.9812 12.865 4.10085C12.7898 4.22049 12.7499 4.35896 12.75 4.50028V6.75028H8.25C8.05109 6.75028 7.86032 6.8293 7.71967 6.96995C7.57902 7.1106 7.5 7.30137 7.5 7.50028C7.5 7.69919 7.57902 7.88996 7.71967 8.03061C7.86032 8.17126 8.05109 8.25028 8.25 8.25028H12.75V10.5003C12.7499 10.6416 12.7898 10.7801 12.865 10.8997C12.9402 11.0194 13.0477 11.1153 13.1751 11.1765C13.3025 11.2378 13.4446 11.2617 13.585 11.2457C13.7254 11.2297 13.8584 11.1744 13.9687 11.086L17.7187 8.08603C17.8066 8.01577 17.8775 7.92664 17.9263 7.82524C17.975 7.72385 18.0004 7.61279 18.0004 7.50028C18.0004 7.38778 17.975 7.27671 17.9263 7.17532C17.8775 7.07392 17.8066 6.98479 17.7187 6.91453Z" fill="#978FED"/>
<path d="M9.75 5.25C9.94891 5.25 10.1397 5.17098 10.2803 5.03033C10.421 4.88968 10.5 4.69891 10.5 4.5V0.75C10.5 0.551088 10.421 0.360322 10.2803 0.21967C10.1397 0.0790176 9.94891 0 9.75 0L0.75 0C0.551088 0 0.360322 0.0790176 0.21967 0.21967C0.0790177 0.360322 3.48842e-09 0.551088 3.48842e-09 0.75V13.5C-1.15143e-05 13.6194 0.0284986 13.7371 0.083158 13.8433C0.137817 13.9495 0.217046 14.0411 0.31425 14.1105L5.56425 17.8605C5.69115 17.9518 5.84367 18.0006 6 18C6.11937 17.9997 6.23702 17.9715 6.3435 17.9175C6.46607 17.8544 6.56885 17.7586 6.64057 17.6409C6.71228 17.5231 6.75015 17.3879 6.75 17.25V14.25H9.75C9.94891 14.25 10.1397 14.171 10.2803 14.0303C10.421 13.8897 10.5 13.6989 10.5 13.5V10.5C10.5 10.3011 10.421 10.1103 10.2803 9.96967C10.1397 9.82902 9.94891 9.75 9.75 9.75C9.55109 9.75 9.36032 9.82902 9.21967 9.96967C9.07902 10.1103 9 10.3011 9 10.5V12.75H6.75V4.512C6.75042 4.39245 6.72226 4.27453 6.66785 4.16807C6.61345 4.06161 6.53439 3.9697 6.43725 3.9L3.084 1.5H9V4.5C9 4.69891 9.07902 4.88968 9.21967 5.03033C9.36032 5.17098 9.55109 5.25 9.75 5.25Z" fill="#978FED"/>
</svg>
