<svg width="20" height="14" viewBox="0 0 20 14" fill="none" xmlns="http://www.w3.org/2000/svg">
<path d="M19.1667 7.41634H15.8329C15.6028 7.41634 15.4163 7.2298 15.4163 6.99967C15.4163 6.76956 15.6028 6.58301 15.8329 6.58301H19.1667C19.3968 6.58301 19.5833 6.76955 19.5833 6.99967C19.5833 7.2298 19.3968 7.41634 19.1667 7.41634Z" fill="#306CDE"/>
<path d="M4.16663 7.41634H0.833293C0.603176 7.41634 0.416626 7.2298 0.416626 6.99967C0.416626 6.76956 0.603172 6.58301 0.833293 6.58301H4.16663C4.39674 6.58301 4.58329 6.76955 4.58329 6.99967C4.58329 7.2298 4.39675 7.41634 4.16663 7.41634Z" fill="#306CDE"/>
<path d="M10 13.25C6.55375 13.25 3.75 10.4462 3.75 7C3.75 3.55375 6.55375 0.75 10 0.75C13.4462 0.75 16.25 3.55375 16.25 7C16.25 10.4462 13.4462 13.25 10 13.25Z" fill="#306CDE"/>
<path d="M8.87207 8.96154L7.2054 7.29487C7.0427 7.13217 7.0427 6.86838 7.2054 6.70568C7.3681 6.54298 7.63189 6.54298 7.79459 6.70568L9.16666 8.07775L12.2054 5.03902C12.3681 4.87632 12.6319 4.87632 12.7946 5.03902C12.9573 5.20172 12.9573 5.46551 12.7946 5.62821L9.46126 8.96154C9.29856 9.12424 9.03477 9.12424 8.87207 8.96154Z" fill="white"/>
</svg>
