<svg width="16" height="14" viewBox="0 0 16 14" fill="none" xmlns="http://www.w3.org/2000/svg">
<path d="M3.16787 6.14941H0.976404C0.713294 6.14941 0.5 6.3835 0.5 6.67226V13.2253C0.5 13.514 0.713294 13.7481 0.976404 13.7481H3.16787C3.43098 13.7481 3.64427 13.514 3.64427 13.2253V6.67226C3.64427 6.3835 3.43098 6.14941 3.16787 6.14941Z" fill="#ACD7FF"/>
<path d="M15.0243 2.96582H12.8328C12.5697 2.96582 12.3564 3.19991 12.3564 3.48867V13.2275C12.3564 13.5163 12.5697 13.7504 12.8328 13.7504H15.0243C15.2874 13.7504 15.5007 13.5163 15.5007 13.2275V3.48867C15.5007 3.19991 15.2874 2.96582 15.0243 2.96582Z" fill="#2B71E4"/>
<path d="M9.09483 0.25H6.9032C6.64007 0.25 6.42676 0.484105 6.42676 0.772888V13.2263C6.42676 13.5151 6.64007 13.7492 6.9032 13.7492H9.09483C9.35797 13.7492 9.57128 13.5151 9.57128 13.2263V0.772888C9.57128 0.484105 9.35797 0.25 9.09483 0.25Z" fill="#7DB9FF"/>
</svg>
