<svg width="13" height="13" viewBox="0 0 13 13" fill="none" xmlns="http://www.w3.org/2000/svg">
<g id="news 2" clip-path="url(#clip0_5251_58834)">
<g id="Group">
<g id="Group_2">
<path id="Vector" d="M12.1888 0.541016H2.98047C2.90864 0.541016 2.83975 0.56955 2.78896 0.620341C2.73817 0.671132 2.70964 0.74002 2.70964 0.811849V11.1035C2.70964 11.319 2.62403 11.5257 2.47166 11.678C2.31929 11.8304 2.11262 11.916 1.89714 11.916C1.68165 11.916 1.47498 11.8304 1.32261 11.678C1.17024 11.5257 1.08464 11.319 1.08464 11.1035V7.04102H1.89714C1.96896 7.04102 2.03785 7.01248 2.08864 6.96169C2.13943 6.9109 2.16797 6.84201 2.16797 6.77018C2.16797 6.69835 2.13943 6.62947 2.08864 6.57867C2.03785 6.52788 1.96896 6.49935 1.89714 6.49935H0.813802C0.741973 6.49935 0.673085 6.52788 0.622294 6.57867C0.571503 6.62947 0.542969 6.69835 0.542969 6.77018V11.1035C0.543399 11.4625 0.686208 11.8067 0.94007 12.0606C1.19393 12.3144 1.53812 12.4573 1.89714 12.4577H11.1055C11.4645 12.4573 11.8087 12.3144 12.0625 12.0606C12.3164 11.8067 12.4592 11.4625 12.4596 11.1035V0.811849C12.4596 0.74002 12.4311 0.671132 12.3803 0.620341C12.3295 0.56955 12.2606 0.541016 12.1888 0.541016ZM10.293 9.74935H4.8763C4.80447 9.74935 4.73559 9.72082 4.68479 9.67002C4.634 9.61923 4.60547 9.55035 4.60547 9.47852C4.60547 9.40669 4.634 9.3378 4.68479 9.28701C4.73559 9.23622 4.80447 9.20768 4.8763 9.20768H10.293C10.3648 9.20768 10.4337 9.23622 10.4845 9.28701C10.5353 9.3378 10.5638 9.40669 10.5638 9.47852C10.5638 9.55035 10.5353 9.61923 10.4845 9.67002C10.4337 9.72082 10.3648 9.74935 10.293 9.74935ZM10.293 7.58268H4.8763C4.80447 7.58268 4.73559 7.55415 4.68479 7.50336C4.634 7.45257 4.60547 7.38368 4.60547 7.31185C4.60547 7.24002 4.634 7.17113 4.68479 7.12034C4.73559 7.06955 4.80447 7.04102 4.8763 7.04102H10.293C10.3648 7.04102 10.4337 7.06955 10.4845 7.12034C10.5353 7.17113 10.5638 7.24002 10.5638 7.31185C10.5638 7.38368 10.5353 7.45257 10.4845 7.50336C10.4337 7.55415 10.3648 7.58268 10.293 7.58268ZM10.5638 5.14518C10.5638 5.21701 10.5353 5.2859 10.4845 5.33669C10.4337 5.38748 10.3648 5.41602 10.293 5.41602H4.8763C4.80447 5.41602 4.73559 5.38748 4.68479 5.33669C4.634 5.2859 4.60547 5.21701 4.60547 5.14518V2.97852C4.60547 2.90669 4.634 2.8378 4.68479 2.78701C4.73559 2.73622 4.80447 2.70768 4.8763 2.70768H10.293C10.3648 2.70768 10.4337 2.73622 10.4845 2.78701C10.5353 2.8378 10.5638 2.90669 10.5638 2.97852V5.14518Z" fill="#999999"/>
</g>
</g>
</g>
<defs>
<clipPath id="clip0_5251_58834">
<rect width="13" height="13" fill="white"/>
</clipPath>
</defs>
</svg>
