<svg width="12" height="12" viewBox="0 0 12 12" fill="none" xmlns="http://www.w3.org/2000/svg">
<g id="briefcase-24 1" clip-path="url(#clip0_5251_58772)">
<g id="Group">
<g id="Group_2">
<path id="Vector" d="M9 2H8V1H4V2H3V0.5C3 0.367392 3.05268 0.240215 3.14645 0.146447C3.24021 0.0526784 3.36739 0 3.5 0L8.5 0C8.63261 0 8.75979 0.0526784 8.85355 0.146447C8.94732 0.240215 9 0.367392 9 0.5V2Z" fill="#999999"/>
<path id="Vector_2" d="M4 7V6.5C4 6.36739 4.05268 6.24021 4.14645 6.14645C4.24021 6.05268 4.36739 6 4.5 6H7.5C7.63261 6 7.75979 6.05268 7.85355 6.14645C7.94732 6.24021 8 6.36739 8 6.5V7H12V4C12 3.73478 11.8946 3.48043 11.7071 3.29289C11.5196 3.10536 11.2652 3 11 3H1C0.734784 3 0.48043 3.10536 0.292893 3.29289C0.105357 3.48043 0 3.73478 0 4L0 7H4Z" fill="#999999"/>
<path id="Vector_3" d="M8 8V8.5C8 8.63261 7.94732 8.75979 7.85355 8.85355C7.75979 8.94732 7.63261 9 7.5 9H4.5C4.36739 9 4.24021 8.94732 4.14645 8.85355C4.05268 8.75979 4 8.63261 4 8.5V8H0V11C0 11.2652 0.105357 11.5196 0.292893 11.7071C0.48043 11.8946 0.734784 12 1 12H11C11.2652 12 11.5196 11.8946 11.7071 11.7071C11.8946 11.5196 12 11.2652 12 11V8H8Z" fill="#999999"/>
</g>
</g>
</g>
<defs>
<clipPath id="clip0_5251_58772">
<rect width="12" height="12" fill="white"/>
</clipPath>
</defs>
</svg>
