<svg width="12" height="12" viewBox="0 0 12 12" fill="none" xmlns="http://www.w3.org/2000/svg">
<g id="wallet-90 2" clip-path="url(#clip0_5251_58794)">
<g id="Group">
<g id="Group_2">
<path id="Vector" d="M3 0.375V2.25H10.125V0.375C10.125 0.168 9.957 0 9.75 0H3.375C3.168 0 3 0.168 3 0.375Z" fill="#999999"/>
<path id="Vector_2" d="M11.25 3H1.875C1.46137 3 1.125 2.66363 1.125 2.25C1.125 1.83637 1.46137 1.5 1.875 1.5H2.25V0.75H1.875C1.04775 0.75 0.375 1.42275 0.375 2.25V10.125C0.375 11.1589 1.21613 12 2.25 12H11.25C11.457 12 11.625 11.832 11.625 11.625V3.375C11.625 3.168 11.457 3 11.25 3ZM9.375 8.25C8.96062 8.25 8.625 7.91437 8.625 7.5C8.625 7.08563 8.96062 6.75 9.375 6.75C9.78938 6.75 10.125 7.08563 10.125 7.5C10.125 7.91437 9.78938 8.25 9.375 8.25Z" fill="#999999"/>
</g>
</g>
</g>
<defs>
<clipPath id="clip0_5251_58794">
<rect width="12" height="12" fill="white"/>
</clipPath>
</defs>
</svg>
