<svg width="265" height="180" viewBox="0 0 265 180" fill="none" xmlns="http://www.w3.org/2000/svg">
<path d="M264 155C264.276 155 264.5 154.776 264.5 154.5C264.5 154.224 264.276 154 264 154V155ZM0 155H264V154H0V155Z" fill="#D6D6E6"/>
<path d="M19.7891 178.5V177.68L22.4766 174.848C22.7708 174.533 23.0143 174.257 23.207 174.02C23.3997 173.783 23.543 173.557 23.6367 173.344C23.7305 173.13 23.7773 172.905 23.7773 172.668C23.7773 172.397 23.7135 172.164 23.5859 171.969C23.4583 171.771 23.2839 171.618 23.0625 171.512C22.8438 171.402 22.5951 171.348 22.3164 171.348C22.0247 171.348 21.7695 171.408 21.5508 171.527C21.3346 171.647 21.1667 171.816 21.0469 172.035C20.9297 172.251 20.8711 172.507 20.8711 172.801H19.793C19.793 172.319 19.9036 171.897 20.125 171.535C20.3464 171.173 20.6497 170.892 21.0352 170.691C21.4206 170.491 21.8568 170.391 22.3438 170.391C22.8359 170.391 23.2708 170.491 23.6484 170.691C24.026 170.889 24.3203 171.159 24.5313 171.5C24.7448 171.839 24.8516 172.22 24.8516 172.645C24.8516 172.941 24.7969 173.232 24.6875 173.516C24.5807 173.797 24.3919 174.111 24.1211 174.457C23.8529 174.803 23.4792 175.223 23 175.715L21.3477 177.461V177.52H24.9844V178.5H19.7891ZM29.2295 178.625C28.6227 178.625 28.1045 178.464 27.6748 178.141C27.2451 177.815 26.9157 177.345 26.6865 176.73C26.46 176.116 26.3467 175.374 26.3467 174.504C26.3467 173.637 26.4613 172.897 26.6904 172.285C26.9196 171.671 27.249 171.202 27.6787 170.879C28.111 170.553 28.6279 170.391 29.2295 170.391C29.8337 170.391 30.3506 170.553 30.7803 170.879C31.2126 171.202 31.5433 171.671 31.7725 172.285C32.0016 172.897 32.1162 173.637 32.1162 174.504C32.1162 175.374 32.0016 176.117 31.7725 176.734C31.5459 177.349 31.2178 177.818 30.7881 178.141C30.3584 178.464 29.8389 178.625 29.2295 178.625ZM29.2295 177.641C29.7842 177.641 30.2178 177.371 30.5303 176.832C30.8428 176.293 30.999 175.517 30.999 174.504C30.999 173.829 30.9274 173.259 30.7842 172.793C30.6436 172.324 30.4404 171.969 30.1748 171.727C29.9118 171.482 29.5967 171.359 29.2295 171.359C28.68 171.359 28.249 171.632 27.9365 172.176C27.624 172.717 27.4665 173.493 27.4639 174.504C27.4639 175.178 27.5342 175.749 27.6748 176.215C27.8154 176.681 28.0173 177.035 28.2803 177.277C28.5459 177.52 28.8623 177.641 29.2295 177.641ZM33.5391 178.5V177.68L36.2266 174.848C36.5208 174.533 36.7643 174.257 36.957 174.02C37.1497 173.783 37.293 173.557 37.3867 173.344C37.4805 173.13 37.5273 172.905 37.5273 172.668C37.5273 172.397 37.4635 172.164 37.3359 171.969C37.2083 171.771 37.0339 171.618 36.8125 171.512C36.5938 171.402 36.3451 171.348 36.0664 171.348C35.7747 171.348 35.5195 171.408 35.3008 171.527C35.0846 171.647 34.9167 171.816 34.7969 172.035C34.6797 172.251 34.6211 172.507 34.6211 172.801H33.543C33.543 172.319 33.6536 171.897 33.875 171.535C34.0964 171.173 34.3997 170.892 34.7852 170.691C35.1706 170.491 35.6068 170.391 36.0938 170.391C36.5859 170.391 37.0208 170.491 37.3984 170.691C37.776 170.889 38.0703 171.159 38.2813 171.5C38.4948 171.839 38.6016 172.22 38.6016 172.645C38.6016 172.941 38.5469 173.232 38.4375 173.516C38.3307 173.797 38.1419 174.111 37.8711 174.457C37.6029 174.803 37.2292 175.223 36.75 175.715L35.0977 177.461V177.52H38.7344V178.5H33.5391ZM43.2178 170.5V178.5H42.0811V171.652H42.0342L40.1084 172.914V171.812L42.1045 170.5H43.2178Z" fill="#5D626D"/>
<rect x="16" y="34" width="32" height="120" fill="#ECEFF8"/>
<path d="M85.7891 178.5V177.68L88.4766 174.848C88.7708 174.533 89.0143 174.257 89.207 174.02C89.3997 173.783 89.543 173.557 89.6367 173.344C89.7305 173.13 89.7773 172.905 89.7773 172.668C89.7773 172.397 89.7135 172.164 89.5859 171.969C89.4583 171.771 89.2839 171.618 89.0625 171.512C88.8438 171.402 88.5951 171.348 88.3164 171.348C88.0247 171.348 87.7695 171.408 87.5508 171.527C87.3346 171.647 87.1667 171.816 87.0469 172.035C86.9297 172.251 86.8711 172.507 86.8711 172.801H85.793C85.793 172.319 85.9036 171.897 86.125 171.535C86.3464 171.173 86.6497 170.892 87.0352 170.691C87.4206 170.491 87.8568 170.391 88.3438 170.391C88.8359 170.391 89.2708 170.491 89.6484 170.691C90.026 170.889 90.3203 171.159 90.5313 171.5C90.7448 171.839 90.8516 172.22 90.8516 172.645C90.8516 172.941 90.7969 173.232 90.6875 173.516C90.5807 173.797 90.3919 174.111 90.1211 174.457C89.8529 174.803 89.4792 175.223 89 175.715L87.3477 177.461V177.52H90.9844V178.5H85.7891ZM95.2295 178.625C94.6227 178.625 94.1045 178.464 93.6748 178.141C93.2451 177.815 92.9157 177.345 92.6865 176.73C92.46 176.116 92.3467 175.374 92.3467 174.504C92.3467 173.637 92.4613 172.897 92.6904 172.285C92.9196 171.671 93.249 171.202 93.6787 170.879C94.111 170.553 94.6279 170.391 95.2295 170.391C95.8337 170.391 96.3506 170.553 96.7803 170.879C97.2126 171.202 97.5433 171.671 97.7725 172.285C98.0016 172.897 98.1162 173.637 98.1162 174.504C98.1162 175.374 98.0016 176.117 97.7725 176.734C97.5459 177.349 97.2178 177.818 96.7881 178.141C96.3584 178.464 95.8389 178.625 95.2295 178.625ZM95.2295 177.641C95.7842 177.641 96.2178 177.371 96.5303 176.832C96.8428 176.293 96.999 175.517 96.999 174.504C96.999 173.829 96.9274 173.259 96.7842 172.793C96.6436 172.324 96.4404 171.969 96.1748 171.727C95.9118 171.482 95.5967 171.359 95.2295 171.359C94.68 171.359 94.249 171.632 93.9365 172.176C93.624 172.717 93.4665 173.493 93.4639 174.504C93.4639 175.178 93.5342 175.749 93.6748 176.215C93.8154 176.681 94.0173 177.035 94.2803 177.277C94.5459 177.52 94.8623 177.641 95.2295 177.641ZM99.5391 178.5V177.68L102.227 174.848C102.521 174.533 102.764 174.257 102.957 174.02C103.15 173.783 103.293 173.557 103.387 173.344C103.48 173.13 103.527 172.905 103.527 172.668C103.527 172.397 103.464 172.164 103.336 171.969C103.208 171.771 103.034 171.618 102.813 171.512C102.594 171.402 102.345 171.348 102.066 171.348C101.775 171.348 101.52 171.408 101.301 171.527C101.085 171.647 100.917 171.816 100.797 172.035C100.68 172.251 100.621 172.507 100.621 172.801H99.543C99.543 172.319 99.6536 171.897 99.875 171.535C100.096 171.173 100.4 170.892 100.785 170.691C101.171 170.491 101.607 170.391 102.094 170.391C102.586 170.391 103.021 170.491 103.398 170.691C103.776 170.889 104.07 171.159 104.281 171.5C104.495 171.839 104.602 172.22 104.602 172.645C104.602 172.941 104.547 173.232 104.438 173.516C104.331 173.797 104.142 174.111 103.871 174.457C103.603 174.803 103.229 175.223 102.75 175.715L101.098 177.461V177.52H104.734V178.5H99.5391ZM106.253 178.5V177.68L108.94 174.848C109.235 174.533 109.478 174.257 109.671 174.02C109.864 173.783 110.007 173.557 110.101 173.344C110.194 173.13 110.241 172.905 110.241 172.668C110.241 172.397 110.177 172.164 110.05 171.969C109.922 171.771 109.748 171.618 109.526 171.512C109.308 171.402 109.059 171.348 108.78 171.348C108.489 171.348 108.233 171.408 108.015 171.527C107.799 171.647 107.631 171.816 107.511 172.035C107.394 172.251 107.335 172.507 107.335 172.801H106.257C106.257 172.319 106.368 171.897 106.589 171.535C106.81 171.173 107.114 170.892 107.499 170.691C107.884 170.491 108.321 170.391 108.808 170.391C109.3 170.391 109.735 170.491 110.112 170.691C110.49 170.889 110.784 171.159 110.995 171.5C111.209 171.839 111.315 172.22 111.315 172.645C111.315 172.941 111.261 173.232 111.151 173.516C111.045 173.797 110.856 174.111 110.585 174.457C110.317 174.803 109.943 175.223 109.464 175.715L107.812 177.461V177.52H111.448V178.5H106.253Z" fill="#5D626D"/>
<rect x="83" y="91" width="32" height="63" fill="#ECEFF8"/>
<path d="M152.789 178.5V177.68L155.477 174.848C155.771 174.533 156.014 174.257 156.207 174.02C156.4 173.783 156.543 173.557 156.637 173.344C156.73 173.13 156.777 172.905 156.777 172.668C156.777 172.397 156.714 172.164 156.586 171.969C156.458 171.771 156.284 171.618 156.063 171.512C155.844 171.402 155.595 171.348 155.316 171.348C155.025 171.348 154.77 171.408 154.551 171.527C154.335 171.647 154.167 171.816 154.047 172.035C153.93 172.251 153.871 172.507 153.871 172.801H152.793C152.793 172.319 152.904 171.897 153.125 171.535C153.346 171.173 153.65 170.892 154.035 170.691C154.421 170.491 154.857 170.391 155.344 170.391C155.836 170.391 156.271 170.491 156.648 170.691C157.026 170.889 157.32 171.159 157.531 171.5C157.745 171.839 157.852 172.22 157.852 172.645C157.852 172.941 157.797 173.232 157.688 173.516C157.581 173.797 157.392 174.111 157.121 174.457C156.853 174.803 156.479 175.223 156 175.715L154.348 177.461V177.52H157.984V178.5H152.789ZM162.229 178.625C161.623 178.625 161.104 178.464 160.675 178.141C160.245 177.815 159.916 177.345 159.687 176.73C159.46 176.116 159.347 175.374 159.347 174.504C159.347 173.637 159.461 172.897 159.69 172.285C159.92 171.671 160.249 171.202 160.679 170.879C161.111 170.553 161.628 170.391 162.229 170.391C162.834 170.391 163.351 170.553 163.78 170.879C164.213 171.202 164.543 171.671 164.772 172.285C165.002 172.897 165.116 173.637 165.116 174.504C165.116 175.374 165.002 176.117 164.772 176.734C164.546 177.349 164.218 177.818 163.788 178.141C163.358 178.464 162.839 178.625 162.229 178.625ZM162.229 177.641C162.784 177.641 163.218 177.371 163.53 176.832C163.843 176.293 163.999 175.517 163.999 174.504C163.999 173.829 163.927 173.259 163.784 172.793C163.644 172.324 163.44 171.969 163.175 171.727C162.912 171.482 162.597 171.359 162.229 171.359C161.68 171.359 161.249 171.632 160.937 172.176C160.624 172.717 160.466 173.493 160.464 174.504C160.464 175.178 160.534 175.749 160.675 176.215C160.815 176.681 161.017 177.035 161.28 177.277C161.546 177.52 161.862 177.641 162.229 177.641ZM166.539 178.5V177.68L169.227 174.848C169.521 174.533 169.764 174.257 169.957 174.02C170.15 173.783 170.293 173.557 170.387 173.344C170.48 173.13 170.527 172.905 170.527 172.668C170.527 172.397 170.464 172.164 170.336 171.969C170.208 171.771 170.034 171.618 169.813 171.512C169.594 171.402 169.345 171.348 169.066 171.348C168.775 171.348 168.52 171.408 168.301 171.527C168.085 171.647 167.917 171.816 167.797 172.035C167.68 172.251 167.621 172.507 167.621 172.801H166.543C166.543 172.319 166.654 171.897 166.875 171.535C167.096 171.173 167.4 170.892 167.785 170.691C168.171 170.491 168.607 170.391 169.094 170.391C169.586 170.391 170.021 170.491 170.398 170.691C170.776 170.889 171.07 171.159 171.281 171.5C171.495 171.839 171.602 172.22 171.602 172.645C171.602 172.941 171.547 173.232 171.438 173.516C171.331 173.797 171.142 174.111 170.871 174.457C170.603 174.803 170.229 175.223 169.75 175.715L168.098 177.461V177.52H171.734V178.5H166.539ZM176.011 178.609C175.479 178.609 175.007 178.518 174.593 178.336C174.179 178.154 173.851 177.9 173.608 177.574C173.369 177.249 173.24 176.871 173.222 176.441H174.37C174.388 176.684 174.47 176.893 174.616 177.07C174.765 177.247 174.959 177.385 175.198 177.484C175.44 177.581 175.709 177.629 176.003 177.629C176.326 177.629 176.612 177.573 176.862 177.461C177.112 177.346 177.308 177.189 177.448 176.988C177.591 176.785 177.663 176.551 177.663 176.285C177.663 176.009 177.593 175.766 177.452 175.555C177.314 175.344 177.111 175.178 176.843 175.059C176.577 174.939 176.253 174.879 175.87 174.879H175.206V173.93H175.87C176.172 173.93 176.438 173.876 176.667 173.77C176.899 173.66 177.08 173.508 177.21 173.312C177.343 173.115 177.409 172.883 177.409 172.617C177.409 172.362 177.352 172.141 177.237 171.953C177.123 171.763 176.961 171.615 176.753 171.508C176.547 171.401 176.305 171.348 176.026 171.348C175.763 171.348 175.516 171.396 175.284 171.492C175.052 171.589 174.864 171.727 174.718 171.906C174.575 172.086 174.496 172.302 174.483 172.555H173.39C173.403 172.125 173.53 171.749 173.772 171.426C174.015 171.1 174.332 170.846 174.726 170.664C175.121 170.482 175.56 170.391 176.042 170.391C176.55 170.391 176.987 170.491 177.354 170.691C177.724 170.889 178.008 171.154 178.206 171.484C178.407 171.812 178.506 172.171 178.503 172.559C178.506 173.007 178.383 173.388 178.136 173.703C177.891 174.016 177.562 174.228 177.147 174.34V174.402C177.671 174.486 178.077 174.699 178.366 175.043C178.658 175.384 178.802 175.807 178.8 176.312C178.802 176.75 178.683 177.143 178.44 177.492C178.198 177.839 177.868 178.112 177.448 178.312C177.029 178.51 176.55 178.609 176.011 178.609Z" fill="#5D626D"/>
<rect x="150" y="54" width="32" height="100" fill="#ECEFF8"/>
<path d="M219.789 178.5V177.68L222.477 174.848C222.771 174.533 223.014 174.257 223.207 174.02C223.4 173.783 223.543 173.557 223.637 173.344C223.73 173.13 223.777 172.905 223.777 172.668C223.777 172.397 223.714 172.164 223.586 171.969C223.458 171.771 223.284 171.618 223.063 171.512C222.844 171.402 222.595 171.348 222.316 171.348C222.025 171.348 221.77 171.408 221.551 171.527C221.335 171.647 221.167 171.816 221.047 172.035C220.93 172.251 220.871 172.507 220.871 172.801H219.793C219.793 172.319 219.904 171.897 220.125 171.535C220.346 171.173 220.65 170.892 221.035 170.691C221.421 170.491 221.857 170.391 222.344 170.391C222.836 170.391 223.271 170.491 223.648 170.691C224.026 170.889 224.32 171.159 224.531 171.5C224.745 171.839 224.852 172.22 224.852 172.645C224.852 172.941 224.797 173.232 224.688 173.516C224.581 173.797 224.392 174.111 224.121 174.457C223.853 174.803 223.479 175.223 223 175.715L221.348 177.461V177.52H224.984V178.5H219.789ZM229.229 178.625C228.623 178.625 228.104 178.464 227.675 178.141C227.245 177.815 226.916 177.345 226.687 176.73C226.46 176.116 226.347 175.374 226.347 174.504C226.347 173.637 226.461 172.897 226.69 172.285C226.92 171.671 227.249 171.202 227.679 170.879C228.111 170.553 228.628 170.391 229.229 170.391C229.834 170.391 230.351 170.553 230.78 170.879C231.213 171.202 231.543 171.671 231.772 172.285C232.002 172.897 232.116 173.637 232.116 174.504C232.116 175.374 232.002 176.117 231.772 176.734C231.546 177.349 231.218 177.818 230.788 178.141C230.358 178.464 229.839 178.625 229.229 178.625ZM229.229 177.641C229.784 177.641 230.218 177.371 230.53 176.832C230.843 176.293 230.999 175.517 230.999 174.504C230.999 173.829 230.927 173.259 230.784 172.793C230.644 172.324 230.44 171.969 230.175 171.727C229.912 171.482 229.597 171.359 229.229 171.359C228.68 171.359 228.249 171.632 227.937 172.176C227.624 172.717 227.466 173.493 227.464 174.504C227.464 175.178 227.534 175.749 227.675 176.215C227.815 176.681 228.017 177.035 228.28 177.277C228.546 177.52 228.862 177.641 229.229 177.641ZM233.539 178.5V177.68L236.227 174.848C236.521 174.533 236.764 174.257 236.957 174.02C237.15 173.783 237.293 173.557 237.387 173.344C237.48 173.13 237.527 172.905 237.527 172.668C237.527 172.397 237.464 172.164 237.336 171.969C237.208 171.771 237.034 171.618 236.813 171.512C236.594 171.402 236.345 171.348 236.066 171.348C235.775 171.348 235.52 171.408 235.301 171.527C235.085 171.647 234.917 171.816 234.797 172.035C234.68 172.251 234.621 172.507 234.621 172.801H233.543C233.543 172.319 233.654 171.897 233.875 171.535C234.096 171.173 234.4 170.892 234.785 170.691C235.171 170.491 235.607 170.391 236.094 170.391C236.586 170.391 237.021 170.491 237.398 170.691C237.776 170.889 238.07 171.159 238.281 171.5C238.495 171.839 238.602 172.22 238.602 172.645C238.602 172.941 238.547 173.232 238.438 173.516C238.331 173.797 238.142 174.111 237.871 174.457C237.603 174.803 237.229 175.223 236.75 175.715L235.098 177.461V177.52H238.734V178.5H233.539ZM239.905 176.914V175.992L243.382 170.5H244.093V171.875H243.632L241.104 175.879V175.941H245.843V176.914H239.905ZM243.69 178.5V176.633L243.694 176.211V170.5H244.772V178.5H243.69Z" fill="#5D626D"/>
<rect x="217" width="32" height="154" fill="#ECEFF8"/>
</svg>
