<svg width="560" height="28" viewBox="0 0 560 28" fill="none" xmlns="http://www.w3.org/2000/svg">
<rect width="28" height="207" transform="matrix(0 -1 1 0 0 28)" fill="#B6B0FB"/>
<mask id="mask0_331_24388" style="mask-type:alpha" maskUnits="userSpaceOnUse" x="0" y="0" width="207" height="28">
<rect y="28" width="28" height="207" transform="rotate(-90 0 28)" fill="#D9D9D9"/>
</mask>
<g mask="url(#mask0_331_24388)">
<path d="M-25.2891 27.5897L231.9 27.5897" stroke="#978FED" stroke-width="1.04266"/>
<path d="M-25.2891 25.5038L231.9 25.5038" stroke="#978FED" stroke-width="1.04266"/>
<path d="M-25.2891 23.4198L231.9 23.4198" stroke="#978FED" stroke-width="1.04266"/>
<path d="M-25.2891 21.3338L231.9 21.3338" stroke="#978FED" stroke-width="1.04266"/>
<path d="M-25.2891 19.2479L231.9 19.2479" stroke="#978FED" stroke-width="1.04266"/>
<path d="M-25.2891 17.1639L231.9 17.1639" stroke="#978FED" stroke-width="1.04266"/>
<path d="M-25.2891 15.078L231.9 15.078" stroke="#978FED" stroke-width="1.04266"/>
<path d="M-25.2891 12.992L231.9 12.992" stroke="#978FED" stroke-width="1.04266"/>
<path d="M-25.2891 10.908L231.9 10.908" stroke="#978FED" stroke-width="1.04266"/>
<path d="M-25.2891 8.82211L231.9 8.82211" stroke="#978FED" stroke-width="1.04266"/>
<path d="M-25.2891 6.73633L231.9 6.73633" stroke="#978FED" stroke-width="1.04266"/>
<path d="M-25.2891 4.65219L231.9 4.65219" stroke="#978FED" stroke-width="1.04266"/>
<path d="M-25.2891 2.56625L231.9 2.56625" stroke="#978FED" stroke-width="1.04266"/>
<path d="M-25.2891 0.480313L231.9 0.480313" stroke="#978FED" stroke-width="1.04266"/>
</g>
<rect width="28" height="134" transform="matrix(0 -1 1 0 207 28)" fill="#F7AAED"/>
<mask id="mask1_331_24388" style="mask-type:alpha" maskUnits="userSpaceOnUse" x="207" y="0" width="134" height="28">
<rect x="207" y="28" width="28" height="134" transform="rotate(-90 207 28)" fill="#D9D9D9"/>
</mask>
<g mask="url(#mask1_331_24388)">
<path d="M144.711 27.5897L401.9 27.5897" stroke="#EE89DF" stroke-width="1.04266"/>
<path d="M144.711 25.5038L401.9 25.5038" stroke="#EE89DF" stroke-width="1.04266"/>
<path d="M144.711 23.4198L401.9 23.4198" stroke="#EE89DF" stroke-width="1.04266"/>
<path d="M144.711 21.3338L401.9 21.3338" stroke="#EE89DF" stroke-width="1.04266"/>
<path d="M144.711 19.248L401.9 19.248" stroke="#EE89DF" stroke-width="1.04266"/>
<path d="M144.711 17.1639L401.9 17.1639" stroke="#EE89DF" stroke-width="1.04266"/>
<path d="M144.711 15.078L401.9 15.078" stroke="#EE89DF" stroke-width="1.04266"/>
<path d="M144.711 12.992L401.9 12.992" stroke="#EE89DF" stroke-width="1.04266"/>
<path d="M144.711 10.908L401.9 10.908" stroke="#EE89DF" stroke-width="1.04266"/>
<path d="M144.711 8.82211L401.9 8.82211" stroke="#EE89DF" stroke-width="1.04266"/>
<path d="M144.711 6.73617L401.9 6.73617" stroke="#EE89DF" stroke-width="1.04266"/>
<path d="M144.711 4.65219L401.9 4.65219" stroke="#EE89DF" stroke-width="1.04266"/>
<path d="M144.711 2.56625L401.9 2.56625" stroke="#EE89DF" stroke-width="1.04266"/>
<path d="M144.711 0.480313L401.9 0.480313" stroke="#EE89DF" stroke-width="1.04266"/>
</g>
<rect width="28" height="67" transform="matrix(0 -1 1 0 454 28)" fill="#86B5F3"/>
<mask id="mask2_331_24388" style="mask-type:alpha" maskUnits="userSpaceOnUse" x="454" y="0" width="67" height="28">
<rect x="454" y="28" width="28" height="67" transform="rotate(-90 454 28)" fill="#D9D9D9"/>
</mask>
<g mask="url(#mask2_331_24388)">
<path d="M358.711 27.5897L615.9 27.5897" stroke="#4E93EF" stroke-width="1.04266"/>
<path d="M358.711 25.5038L615.9 25.5038" stroke="#4E93EF" stroke-width="1.04266"/>
<path d="M358.711 23.4198L615.9 23.4198" stroke="#4E93EF" stroke-width="1.04266"/>
<path d="M358.711 21.3338L615.9 21.3338" stroke="#4E93EF" stroke-width="1.04266"/>
<path d="M358.711 19.248L615.9 19.248" stroke="#4E93EF" stroke-width="1.04266"/>
<path d="M358.711 17.1639L615.9 17.1639" stroke="#4E93EF" stroke-width="1.04266"/>
<path d="M358.711 15.078L615.9 15.078" stroke="#4E93EF" stroke-width="1.04266"/>
<path d="M358.711 12.992L615.9 12.992" stroke="#4E93EF" stroke-width="1.04266"/>
<path d="M358.711 10.908L615.9 10.908" stroke="#4E93EF" stroke-width="1.04266"/>
<path d="M358.711 8.82211L615.9 8.82211" stroke="#4E93EF" stroke-width="1.04266"/>
<path d="M358.711 6.73617L615.9 6.73617" stroke="#4E93EF" stroke-width="1.04266"/>
<path d="M358.711 4.65219L615.9 4.65219" stroke="#4E93EF" stroke-width="1.04266"/>
<path d="M358.711 2.56625L615.9 2.56625" stroke="#4E93EF" stroke-width="1.04266"/>
<path d="M358.711 0.480313L615.9 0.480313" stroke="#4E93EF" stroke-width="1.04266"/>
</g>
<rect width="28" height="39" transform="matrix(0 -1 1 0 521 28)" fill="#AA8AC7"/>
<mask id="mask3_331_24388" style="mask-type:alpha" maskUnits="userSpaceOnUse" x="521" y="0" width="39" height="28">
<rect x="521" y="28" width="28" height="39" transform="rotate(-90 521 28)" fill="#D9D9D9"/>
</mask>
<g mask="url(#mask3_331_24388)">
<path d="M411.711 27.5897L668.9 27.5897" stroke="#674188" stroke-width="1.04266"/>
<path d="M411.711 25.5038L668.9 25.5038" stroke="#674188" stroke-width="1.04266"/>
<path d="M411.711 23.4198L668.9 23.4198" stroke="#674188" stroke-width="1.04266"/>
<path d="M411.711 21.3338L668.9 21.3338" stroke="#674188" stroke-width="1.04266"/>
<path d="M411.711 19.248L668.9 19.248" stroke="#674188" stroke-width="1.04266"/>
<path d="M411.711 17.1639L668.9 17.1639" stroke="#674188" stroke-width="1.04266"/>
<path d="M411.711 15.078L668.9 15.078" stroke="#674188" stroke-width="1.04266"/>
<path d="M411.711 12.992L668.9 12.992" stroke="#674188" stroke-width="1.04266"/>
<path d="M411.711 10.908L668.9 10.908" stroke="#674188" stroke-width="1.04266"/>
<path d="M411.711 8.82211L668.9 8.82211" stroke="#674188" stroke-width="1.04266"/>
<path d="M411.711 6.73617L668.9 6.73617" stroke="#674188" stroke-width="1.04266"/>
<path d="M411.711 4.65219L668.9 4.65219" stroke="#674188" stroke-width="1.04266"/>
<path d="M411.711 2.56625L668.9 2.56625" stroke="#674188" stroke-width="1.04266"/>
<path d="M411.711 0.480313L668.9 0.480313" stroke="#674188" stroke-width="1.04266"/>
</g>
<rect width="28" height="113" transform="matrix(0 -1 1 0 341 28)" fill="#FBDE9D"/>
<mask id="mask4_331_24388" style="mask-type:alpha" maskUnits="userSpaceOnUse" x="341" y="0" width="113" height="28">
<rect x="341" y="28" width="28" height="113" transform="rotate(-90 341 28)" fill="#D9D9D9"/>
</mask>
<g mask="url(#mask4_331_24388)">
<path d="M268.711 27.5897L525.9 27.5897" stroke="#F6CF7D" stroke-width="1.04266"/>
<path d="M268.711 25.5038L525.9 25.5038" stroke="#F6CF7D" stroke-width="1.04266"/>
<path d="M268.711 23.4198L525.9 23.4198" stroke="#F6CF7D" stroke-width="1.04266"/>
<path d="M268.711 21.3338L525.9 21.3338" stroke="#F6CF7D" stroke-width="1.04266"/>
<path d="M268.711 19.248L525.9 19.248" stroke="#F6CF7D" stroke-width="1.04266"/>
<path d="M268.711 17.1639L525.9 17.1639" stroke="#F6CF7D" stroke-width="1.04266"/>
<path d="M268.711 15.078L525.9 15.078" stroke="#F6CF7D" stroke-width="1.04266"/>
<path d="M268.711 12.992L525.9 12.992" stroke="#F6CF7D" stroke-width="1.04266"/>
<path d="M268.711 10.908L525.9 10.908" stroke="#F6CF7D" stroke-width="1.04266"/>
<path d="M268.711 8.82211L525.9 8.82211" stroke="#F6CF7D" stroke-width="1.04266"/>
<path d="M268.711 6.73617L525.9 6.73617" stroke="#F6CF7D" stroke-width="1.04266"/>
<path d="M268.711 4.65219L525.9 4.65219" stroke="#F6CF7D" stroke-width="1.04266"/>
<path d="M268.711 2.56625L525.9 2.56625" stroke="#F6CF7D" stroke-width="1.04266"/>
<path d="M268.711 0.480313L525.9 0.480313" stroke="#F6CF7D" stroke-width="1.04266"/>
</g>
</svg>
