<svg width="38" height="38" viewBox="0 0 38 38" fill="none" xmlns="http://www.w3.org/2000/svg">
<rect width="38" height="38" rx="4" fill="#43A833"/>
<path d="M13.5735 27V11.7273H19.3232C20.4169 11.7273 21.3242 11.9013 22.0451 12.2493C22.771 12.5973 23.3129 13.0721 23.6708 13.6737C24.0337 14.2752 24.2152 14.9538 24.2152 15.7095C24.2152 16.3359 24.0959 16.8679 23.8572 17.3054C23.6236 17.7429 23.3079 18.0959 22.9102 18.3643C22.5124 18.6328 22.07 18.8267 21.5827 18.946V19.0952C22.1147 19.125 22.6268 19.2915 23.119 19.5948C23.6112 19.8931 24.0163 20.3182 24.3345 20.87C24.6527 21.4169 24.8118 22.0806 24.8118 22.8612C24.8118 23.6467 24.6229 24.3526 24.245 24.979C23.8722 25.6005 23.3004 26.0927 22.5298 26.4556C21.7642 26.8185 20.7947 27 19.6214 27H13.5735ZM16.1538 24.8299H19.271C20.32 24.8299 21.0732 24.6286 21.5305 24.2259C21.9879 23.8182 22.2166 23.3061 22.2166 22.6896C22.2166 22.2223 22.0998 21.7997 21.8661 21.4219C21.6374 21.0391 21.3068 20.7383 20.8743 20.5195C20.4467 20.2958 19.9396 20.1839 19.353 20.1839H16.1538V24.8299ZM16.1538 18.2674H19.0323C19.5295 18.2674 19.9744 18.1754 20.3672 17.9915C20.7649 17.8026 21.0781 17.5391 21.3068 17.201C21.5405 16.8629 21.6573 16.4602 21.6573 15.9929C21.6573 15.3864 21.4435 14.8842 21.016 14.4865C20.5884 14.0838 19.9471 13.8825 19.092 13.8825H16.1538V18.2674Z" fill="white"/>
</svg>
