<svg width="288" height="195" viewBox="0 0 288 195" fill="none" xmlns="http://www.w3.org/2000/svg">
<rect width="32" height="131" transform="translate(251 38)" fill="#B6B0FB"/>
<mask id="mask0_331_24197" style="mask-type:alpha" maskUnits="userSpaceOnUse" x="251" y="38" width="32" height="131">
<rect x="251" y="38" width="32" height="131" fill="#D9D9D9"/>
</mask>
<g mask="url(#mask0_331_24197)">
<path d="M251.173 -25.2891L251.173 231.9" stroke="#978FED" stroke-width="1.04266"/>
<path d="M253.258 -25.2891L253.258 231.9" stroke="#978FED" stroke-width="1.04266"/>
<path d="M255.343 -25.2891L255.343 231.9" stroke="#978FED" stroke-width="1.04266"/>
<path d="M257.428 -25.2891V231.9" stroke="#978FED" stroke-width="1.04266"/>
<path d="M259.514 -25.2891V231.9" stroke="#978FED" stroke-width="1.04266"/>
<path d="M261.599 -25.2891V231.9" stroke="#978FED" stroke-width="1.04266"/>
<path d="M263.684 -25.2891V231.9" stroke="#978FED" stroke-width="1.04266"/>
<path d="M265.77 -25.2891V231.9" stroke="#978FED" stroke-width="1.04266"/>
<path d="M267.855 -25.2891V231.9" stroke="#978FED" stroke-width="1.04266"/>
<path d="M269.94 -25.2891V231.9" stroke="#978FED" stroke-width="1.04266"/>
<path d="M272.026 -25.2891V231.9" stroke="#978FED" stroke-width="1.04266"/>
<path d="M274.111 -25.2891V231.9" stroke="#978FED" stroke-width="1.04266"/>
<path d="M276.196 -25.2891V231.9" stroke="#978FED" stroke-width="1.04266"/>
<path d="M278.281 -25.2891V231.9" stroke="#978FED" stroke-width="1.04266"/>
<path d="M280.367 -25.2891V231.9" stroke="#978FED" stroke-width="1.04266"/>
<path d="M282.452 -25.2891V231.9" stroke="#978FED" stroke-width="1.04266"/>
</g>
<path d="M256.369 183.93H257.74L260.337 190.277H260.431L263.033 183.93H264.404V191.93H263.33V186.051H263.251L260.849 191.922H259.919L257.517 186.047H257.443V191.93H256.369V183.93ZM267.868 192.063C267.487 192.063 267.144 191.992 266.836 191.852C266.529 191.708 266.286 191.501 266.106 191.23C265.926 190.957 265.836 190.625 265.836 190.234C265.836 189.891 265.902 189.611 266.032 189.395C266.165 189.178 266.342 189.008 266.563 188.883C266.787 188.755 267.036 188.66 267.309 188.598C267.583 188.533 267.861 188.483 268.145 188.449C268.507 188.405 268.8 188.37 269.024 188.344C269.248 188.315 269.412 188.271 269.516 188.211C269.62 188.148 269.672 188.046 269.672 187.902V187.875C269.672 187.521 269.573 187.246 269.375 187.051C269.178 186.855 268.883 186.758 268.493 186.758C268.084 186.758 267.762 186.848 267.528 187.027C267.296 187.204 267.135 187.4 267.043 187.613L266.016 187.344C266.154 186.979 266.349 186.687 266.602 186.469C266.857 186.25 267.146 186.092 267.469 185.996C267.792 185.9 268.125 185.852 268.469 185.852C268.693 185.852 268.937 185.879 269.2 185.934C269.465 185.986 269.715 186.085 269.95 186.23C270.187 186.376 270.381 186.589 270.532 186.867C270.685 187.143 270.762 187.505 270.762 187.953V191.93H269.692V191.113H269.645C269.575 191.257 269.464 191.402 269.313 191.551C269.165 191.697 268.971 191.819 268.731 191.918C268.494 192.014 268.206 192.063 267.868 192.063ZM268.086 191.164C268.422 191.164 268.709 191.098 268.946 190.965C269.183 190.832 269.362 190.659 269.485 190.445C269.61 190.232 269.672 190.005 269.672 189.766V188.969C269.631 189.013 269.549 189.053 269.426 189.09C269.304 189.124 269.165 189.154 269.008 189.18C268.852 189.206 268.698 189.228 268.547 189.246C268.399 189.264 268.277 189.28 268.18 189.293C267.951 189.324 267.74 189.374 267.547 189.441C267.355 189.509 267.2 189.608 267.083 189.738C266.968 189.866 266.911 190.039 266.911 190.258C266.911 190.555 267.021 190.78 267.243 190.934C267.464 191.087 267.745 191.164 268.086 191.164ZM272.835 194.18C272.666 194.18 272.513 194.167 272.375 194.141C272.239 194.115 272.14 194.086 272.078 194.055L272.343 193.145C272.562 193.202 272.755 193.225 272.921 193.215C273.091 193.204 273.24 193.137 273.371 193.012C273.501 192.889 273.618 192.69 273.722 192.414L273.875 191.992L271.671 185.93H272.843L274.406 190.625H274.468L276.031 185.93H277.207L274.71 192.754C274.596 193.066 274.451 193.328 274.277 193.539C274.102 193.753 273.895 193.913 273.656 194.02C273.419 194.126 273.145 194.18 272.835 194.18Z" fill="#5D626D"/>
<path d="M251.001 25.4844V24.4023L254.423 19H255.302V20.5586H254.759L252.395 24.2969V24.3594H257.134V25.4844H251.001ZM254.805 27V25.1562L254.821 24.668V19H256.095V27H254.805ZM261.046 18.8906C261.418 18.8932 261.782 18.9596 262.136 19.0898C262.493 19.2201 262.814 19.4323 263.101 19.7266C263.39 20.0182 263.619 20.4102 263.788 20.9023C263.96 21.3945 264.046 22.0065 264.046 22.7383C264.046 23.431 263.974 24.0482 263.831 24.5898C263.688 25.1315 263.481 25.5898 263.21 25.9648C262.942 26.3372 262.618 26.6211 262.237 26.8164C261.857 27.0117 261.43 27.1094 260.956 27.1094C260.461 27.1094 260.023 27.013 259.64 26.8203C259.26 26.625 258.951 26.3581 258.714 26.0195C258.48 25.681 258.334 25.293 258.277 24.8555H259.609C259.684 25.1836 259.836 25.4466 260.066 25.6445C260.297 25.8398 260.594 25.9375 260.956 25.9375C261.521 25.9375 261.96 25.6914 262.273 25.1992C262.585 24.7044 262.741 24.0156 262.741 23.1328H262.683C262.553 23.3594 262.386 23.5547 262.183 23.7187C261.982 23.8828 261.754 24.0091 261.499 24.0977C261.247 24.1862 260.977 24.2305 260.691 24.2305C260.224 24.2305 259.804 24.1185 259.429 23.8945C259.054 23.668 258.756 23.3581 258.534 22.9648C258.316 22.5716 258.206 22.1224 258.206 21.6172C258.204 21.1016 258.321 20.638 258.558 20.2266C258.795 19.8125 259.125 19.4857 259.55 19.2461C259.977 19.0039 260.476 18.8854 261.046 18.8906ZM261.05 20C260.758 20 260.497 20.0716 260.265 20.2148C260.033 20.3555 259.849 20.5469 259.714 20.7891C259.581 21.0286 259.515 21.2969 259.515 21.5937C259.515 21.888 259.58 22.1549 259.71 22.3945C259.843 22.6341 260.023 22.8242 260.249 22.9648C260.476 23.1055 260.736 23.1758 261.03 23.1758C261.249 23.1758 261.452 23.1341 261.64 23.0508C261.83 22.9648 261.995 22.8477 262.136 22.6992C262.277 22.5508 262.387 22.3802 262.468 22.1875C262.549 21.9948 262.588 21.793 262.585 21.582C262.585 21.3008 262.519 21.0404 262.386 20.8008C262.253 20.5586 262.071 20.3646 261.839 20.2187C261.607 20.0729 261.344 20 261.05 20ZM265.832 27.082C265.602 27.082 265.406 27.0013 265.242 26.8398C265.08 26.6784 265.001 26.4831 265.003 26.2539C265.001 26.0299 265.08 25.8372 265.242 25.6758C265.406 25.5143 265.602 25.4336 265.832 25.4336C266.053 25.4336 266.246 25.5143 266.41 25.6758C266.574 25.8372 266.656 26.0299 266.656 26.2539C266.656 26.4076 266.617 26.5469 266.539 26.6719C266.463 26.7969 266.363 26.8971 266.238 26.9727C266.115 27.0456 265.98 27.082 265.832 27.082ZM268.081 27L271.518 20.1953V20.1367H267.534V19H272.917V20.168L269.483 27H268.081ZM278.348 25.5V25.0781C278.348 24.7708 278.412 24.4896 278.539 24.2344C278.669 23.9766 278.858 23.7695 279.106 23.6133C279.356 23.457 279.658 23.3789 280.012 23.3789C280.374 23.3789 280.679 23.457 280.926 23.6133C281.173 23.7669 281.36 23.9727 281.485 24.2305C281.612 24.4883 281.676 24.7708 281.676 25.0781V25.5C281.676 25.8073 281.612 26.0898 281.485 26.3477C281.357 26.6029 281.168 26.8086 280.918 26.9648C280.671 27.1211 280.369 27.1992 280.012 27.1992C279.653 27.1992 279.349 27.1211 279.102 26.9648C278.854 26.8086 278.667 26.6029 278.539 26.3477C278.412 26.0898 278.348 25.8073 278.348 25.5ZM279.321 25.0781V25.5C279.321 25.7135 279.371 25.9089 279.473 26.0859C279.574 26.2604 279.754 26.3477 280.012 26.3477C280.267 26.3477 280.444 26.2604 280.543 26.0859C280.642 25.9115 280.692 25.7161 280.692 25.5V25.0781C280.692 24.862 280.643 24.6667 280.547 24.4922C280.453 24.3151 280.275 24.2266 280.012 24.2266C279.762 24.2266 279.584 24.3151 279.477 24.4922C279.373 24.6667 279.321 24.862 279.321 25.0781ZM274.297 20.9219V20.5C274.297 20.1927 274.362 19.9102 274.492 19.6523C274.623 19.3945 274.811 19.1888 275.059 19.0352C275.309 18.8789 275.611 18.8008 275.965 18.8008C276.327 18.8008 276.63 18.8789 276.875 19.0352C277.123 19.1888 277.309 19.3945 277.434 19.6523C277.561 19.9102 277.625 20.1927 277.625 20.5V20.9219C277.625 21.2292 277.561 21.5117 277.434 21.7695C277.306 22.0247 277.119 22.2305 276.871 22.3867C276.624 22.5404 276.322 22.6172 275.965 22.6172C275.603 22.6172 275.298 22.5404 275.051 22.3867C274.804 22.2305 274.616 22.0247 274.488 21.7695C274.361 21.5117 274.297 21.2292 274.297 20.9219ZM275.278 20.5V20.9219C275.278 21.138 275.328 21.3333 275.43 21.5078C275.531 21.6823 275.71 21.7695 275.965 21.7695C276.22 21.7695 276.397 21.6823 276.496 21.5078C276.595 21.3333 276.645 21.138 276.645 20.9219V20.5C276.645 20.2839 276.597 20.0885 276.5 19.9141C276.406 19.737 276.228 19.6484 275.965 19.6484C275.712 19.6484 275.534 19.737 275.43 19.9141C275.328 20.0911 275.278 20.2865 275.278 20.5ZM274.711 27L280.211 19H281.172L275.672 27H274.711Z" fill="#313335"/>
<rect y="169" width="288" height="1" fill="#D6D6E6"/>
<path d="M8.37842 185.273C8.33415 184.896 8.15576 184.603 7.84326 184.395C7.53337 184.186 7.14535 184.082 6.6792 184.082C6.34326 184.082 6.0516 184.135 5.8042 184.242C5.5568 184.346 5.3641 184.491 5.22607 184.676C5.09066 184.861 5.02295 185.072 5.02295 185.309C5.02295 185.507 5.06982 185.677 5.16357 185.82C5.25732 185.961 5.37972 186.079 5.53076 186.176C5.68441 186.27 5.84717 186.348 6.01904 186.41C6.19092 186.47 6.35368 186.52 6.50732 186.559L7.29639 186.77C7.53857 186.829 7.79118 186.911 8.0542 187.016C8.31982 187.12 8.56722 187.258 8.79639 187.43C9.02816 187.599 9.21696 187.812 9.36279 188.07C9.50863 188.328 9.58154 188.639 9.58154 189.004C9.58154 189.449 9.46566 189.848 9.23389 190.199C9.00472 190.551 8.67139 190.828 8.23389 191.031C7.79639 191.234 7.26514 191.336 6.64014 191.336C6.0516 191.336 5.54118 191.242 5.10889 191.055C4.6766 190.867 4.33805 190.602 4.09326 190.258C3.84847 189.914 3.71305 189.508 3.68701 189.039H4.83154C4.85758 189.331 4.95394 189.573 5.12061 189.766C5.28988 189.958 5.50602 190.102 5.76904 190.195C6.03467 190.289 6.32373 190.336 6.63623 190.336C6.98779 190.336 7.30029 190.28 7.57373 190.168C7.84977 190.056 8.06722 189.9 8.22607 189.699C8.38753 189.496 8.46826 189.26 8.46826 188.992C8.46826 188.747 8.39795 188.547 8.25732 188.391C8.1193 188.232 7.93311 188.103 7.69873 188.004C7.46696 187.905 7.21045 187.816 6.9292 187.738L5.96826 187.473C5.33285 187.296 4.82894 187.039 4.45654 186.703C4.08675 186.367 3.90186 185.923 3.90186 185.371C3.90186 184.915 4.02555 184.517 4.27295 184.176C4.52295 183.835 4.85889 183.569 5.28076 183.379C5.70524 183.189 6.1805 183.094 6.70654 183.094C7.2404 183.094 7.71175 183.187 8.12061 183.375C8.53206 183.562 8.85758 183.82 9.09717 184.148C9.33675 184.477 9.46175 184.852 9.47217 185.273H8.37842ZM13.5298 191.324C12.9438 191.324 12.4386 191.198 12.0142 190.945C11.5897 190.69 11.2629 190.332 11.0337 189.871C10.8071 189.408 10.6938 188.866 10.6938 188.246C10.6938 187.632 10.8071 187.09 11.0337 186.621C11.2629 186.15 11.5832 185.783 11.9946 185.52C12.4087 185.257 12.8918 185.125 13.4438 185.125C13.7746 185.125 14.0962 185.18 14.4087 185.289C14.7238 185.398 15.0063 185.572 15.2563 185.809C15.509 186.046 15.7082 186.355 15.854 186.738C16.0024 187.121 16.0767 187.587 16.0767 188.137V188.543H11.3501V187.691H14.9946C14.9946 187.376 14.9308 187.095 14.8032 186.848C14.6756 186.6 14.4959 186.405 14.2642 186.262C14.0324 186.118 13.7616 186.047 13.4517 186.047C13.1105 186.047 12.8149 186.13 12.5649 186.297C12.3149 186.464 12.1222 186.681 11.9868 186.949C11.8514 187.215 11.7824 187.503 11.7798 187.812V188.445C11.7798 188.865 11.8527 189.22 11.9985 189.512C12.147 189.801 12.3527 190.022 12.6157 190.176C12.8787 190.327 13.186 190.402 13.5376 190.402C13.7668 190.402 13.9738 190.37 14.1587 190.305C14.3462 190.24 14.5076 190.142 14.6431 190.012C14.7785 189.879 14.8826 189.716 14.9556 189.523L15.9985 189.738C15.9074 190.056 15.7485 190.335 15.522 190.574C15.298 190.811 15.0168 190.996 14.6782 191.129C14.3397 191.259 13.9569 191.324 13.5298 191.324ZM17.4126 193.453V185.203H18.4751V186.168H18.5728C18.6431 186.051 18.7407 185.91 18.8657 185.746C18.9907 185.582 19.1665 185.437 19.3931 185.312C19.6222 185.188 19.9256 185.125 20.3032 185.125C20.7928 185.125 21.2277 185.249 21.6079 185.496C21.9907 185.743 22.2902 186.098 22.5063 186.559C22.7251 187.02 22.8345 187.572 22.8345 188.215C22.8345 188.858 22.7264 189.413 22.5103 189.879C22.2941 190.342 21.9959 190.699 21.6157 190.949C21.2381 191.197 20.8045 191.32 20.3149 191.32C19.9425 191.32 19.6405 191.259 19.4087 191.137C19.1795 191.012 18.9998 190.867 18.8696 190.703C18.742 190.539 18.6431 190.396 18.5728 190.273H18.5024V193.453H17.4126ZM18.4829 188.203C18.4829 188.633 18.5454 189.012 18.6704 189.34C18.7954 189.665 18.9777 189.921 19.2173 190.105C19.4569 190.288 19.7498 190.379 20.0962 190.379C20.4556 190.379 20.7563 190.284 20.9985 190.094C21.2407 189.901 21.423 189.641 21.5454 189.312C21.6704 188.982 21.7329 188.612 21.7329 188.203C21.7329 187.799 21.6717 187.436 21.5493 187.113C21.4295 186.79 21.2485 186.535 21.0063 186.348C20.7642 186.16 20.4608 186.066 20.0962 186.066C19.7446 186.066 19.4491 186.156 19.2095 186.336C18.9699 186.513 18.7889 186.762 18.6665 187.082C18.5441 187.402 18.4829 187.776 18.4829 188.203ZM28.0796 183.203V183.937C28.0796 184.156 28.0392 184.388 27.9585 184.633C27.8778 184.875 27.7632 185.108 27.6147 185.332C27.4663 185.556 27.2905 185.75 27.0874 185.914L26.5327 185.5C26.689 185.273 26.8257 185.034 26.9429 184.781C27.0601 184.526 27.1187 184.25 27.1187 183.953V183.203H28.0796ZM29.2563 191.203V190.383L31.9438 187.551C32.2381 187.236 32.4816 186.96 32.6743 186.723C32.867 186.486 33.0103 186.26 33.104 186.047C33.1978 185.833 33.2446 185.608 33.2446 185.371C33.2446 185.1 33.1808 184.867 33.0532 184.672C32.9256 184.474 32.7511 184.322 32.5298 184.215C32.311 184.105 32.0623 184.051 31.7837 184.051C31.492 184.051 31.2368 184.111 31.0181 184.23C30.8019 184.35 30.634 184.52 30.5142 184.738C30.397 184.954 30.3384 185.21 30.3384 185.504H29.2603C29.2603 185.022 29.3709 184.6 29.5923 184.238C29.8136 183.876 30.117 183.595 30.5024 183.395C30.8879 183.194 31.3241 183.094 31.811 183.094C32.3032 183.094 32.7381 183.194 33.1157 183.395C33.4933 183.592 33.7876 183.862 33.9985 184.203C34.2121 184.542 34.3188 184.923 34.3188 185.348C34.3188 185.645 34.2642 185.935 34.1548 186.219C34.048 186.5 33.8592 186.814 33.5884 187.16C33.3201 187.507 32.9465 187.926 32.4673 188.418L30.8149 190.164V190.223H34.4517V191.203H29.2563ZM35.9702 191.203V190.383L38.6577 187.551C38.952 187.236 39.1955 186.96 39.3882 186.723C39.5809 186.486 39.7241 186.26 39.8179 186.047C39.9116 185.833 39.9585 185.608 39.9585 185.371C39.9585 185.1 39.8947 184.867 39.7671 184.672C39.6395 184.474 39.465 184.322 39.2437 184.215C39.0249 184.105 38.7762 184.051 38.4976 184.051C38.2059 184.051 37.9507 184.111 37.7319 184.23C37.5158 184.35 37.3478 184.52 37.228 184.738C37.1108 184.954 37.0522 185.21 37.0522 185.504H35.9741C35.9741 185.022 36.0848 184.6 36.3062 184.238C36.5275 183.876 36.8309 183.595 37.2163 183.395C37.6017 183.194 38.0379 183.094 38.5249 183.094C39.0171 183.094 39.452 183.194 39.8296 183.395C40.2072 183.592 40.5015 183.862 40.7124 184.203C40.9259 184.542 41.0327 184.923 41.0327 185.348C41.0327 185.645 40.978 185.935 40.8687 186.219C40.7619 186.5 40.5731 186.814 40.3022 187.16C40.034 187.507 39.6603 187.926 39.1812 188.418L37.5288 190.164V190.223H41.1655V191.203H35.9702Z" fill="#5D626D"/>
<rect width="32" height="141" transform="translate(7 28)" fill="#B6B0FB"/>
<mask id="mask1_331_24197" style="mask-type:alpha" maskUnits="userSpaceOnUse" x="7" y="28" width="32" height="141">
<rect x="7" y="28" width="32" height="141" fill="#D9D9D9"/>
</mask>
<g mask="url(#mask1_331_24197)">
<path d="M7.17252 -30.2891L7.17252 226.9" stroke="#978FED" stroke-width="1.04266"/>
<path d="M9.25797 -30.2891L9.25797 226.9" stroke="#978FED" stroke-width="1.04266"/>
<path d="M11.3429 -30.2891L11.3429 226.9" stroke="#978FED" stroke-width="1.04266"/>
<path d="M13.4284 -30.2891L13.4284 226.9" stroke="#978FED" stroke-width="1.04266"/>
<path d="M15.5138 -30.2891L15.5138 226.9" stroke="#978FED" stroke-width="1.04266"/>
<path d="M17.5993 -30.2891L17.5993 226.9" stroke="#978FED" stroke-width="1.04266"/>
<path d="M19.6842 -30.2891L19.6842 226.9" stroke="#978FED" stroke-width="1.04266"/>
<path d="M21.7697 -30.2891L21.7697 226.9" stroke="#978FED" stroke-width="1.04266"/>
<path d="M23.8551 -30.2891L23.8551 226.9" stroke="#978FED" stroke-width="1.04266"/>
<path d="M25.9401 -30.2891L25.9401 226.9" stroke="#978FED" stroke-width="1.04266"/>
<path d="M28.0255 -30.2891L28.0255 226.9" stroke="#978FED" stroke-width="1.04266"/>
<path d="M30.1108 -30.2891L30.1108 226.9" stroke="#978FED" stroke-width="1.04266"/>
<path d="M32.1964 -30.2891L32.1964 226.9" stroke="#978FED" stroke-width="1.04266"/>
<path d="M34.2814 -30.2891L34.2814 226.9" stroke="#978FED" stroke-width="1.04266"/>
<path d="M36.3669 -30.2891L36.3669 226.9" stroke="#978FED" stroke-width="1.04266"/>
<path d="M38.4523 -30.2891L38.4523 226.9" stroke="#978FED" stroke-width="1.04266"/>
</g>
<path d="M7.61094 17.1094C7.10312 17.1094 6.6487 17.013 6.24766 16.8203C5.84661 16.625 5.5263 16.3594 5.28672 16.0234C5.04974 15.6849 4.92344 15.2969 4.90781 14.8594H6.22031C6.24635 15.1953 6.39219 15.4701 6.65781 15.6836C6.92344 15.8945 7.24115 16 7.61094 16C7.90521 16 8.16693 15.9336 8.39609 15.8008C8.62526 15.6654 8.80495 15.4779 8.93516 15.2383C9.06536 14.9987 9.13047 14.7253 9.13047 14.418C9.13047 14.1055 9.06276 13.8281 8.92734 13.5859C8.79453 13.3437 8.61094 13.1536 8.37656 13.0156C8.14219 12.8776 7.87266 12.8073 7.56797 12.8047C7.32839 12.8021 7.0901 12.8451 6.85312 12.9336C6.61615 13.0221 6.42604 13.138 6.28281 13.2812L5.05625 13.0859L5.48594 9H10.0328V10.1367H6.60703L6.36875 12.3086H6.41562C6.56667 12.1419 6.775 12.0039 7.04062 11.8945C7.30625 11.7852 7.59531 11.7305 7.90781 11.7305C8.39479 11.7305 8.82839 11.8451 9.20859 12.0742C9.5888 12.3034 9.88828 12.6185 10.107 13.0195C10.3258 13.418 10.4352 13.8737 10.4352 14.3867C10.4352 14.9128 10.3154 15.3815 10.0758 15.793C9.8362 16.2018 9.50417 16.5234 9.07969 16.7578C8.65521 16.9922 8.16562 17.1094 7.61094 17.1094ZM14.5722 17.1445C13.9394 17.1445 13.3977 16.9818 12.9472 16.6562C12.4967 16.3307 12.1517 15.8594 11.9121 15.2422C11.6725 14.6224 11.5527 13.8763 11.5527 13.0039C11.5527 12.1341 11.6725 11.3932 11.9121 10.7812C12.1543 10.1667 12.5006 9.69792 12.9511 9.375C13.4043 9.05208 13.9446 8.89062 14.5722 8.89062C15.2024 8.89062 15.7428 9.05208 16.1933 9.375C16.6438 9.69792 16.9889 10.1667 17.2285 10.7812C17.4707 11.3958 17.5918 12.1367 17.5918 13.0039C17.5918 13.8789 17.472 14.625 17.2324 15.2422C16.9928 15.8594 16.6477 16.3307 16.1972 16.6562C15.7467 16.9818 15.205 17.1445 14.5722 17.1445ZM14.5722 15.9961C15.0905 15.9961 15.498 15.7422 15.7949 15.2344C16.0918 14.7266 16.2389 13.9831 16.2363 13.0039C16.2363 12.3581 16.1686 11.8138 16.0332 11.3711C15.8977 10.9258 15.7063 10.5898 15.4589 10.3633C15.2115 10.1367 14.916 10.0234 14.5722 10.0234C14.0592 10.0234 13.653 10.2786 13.3535 10.7891C13.0566 11.2969 12.9082 12.0352 12.9082 13.0039C12.9082 13.6549 12.9746 14.2031 13.1074 14.6484C13.2428 15.0937 13.4342 15.4297 13.6816 15.6562C13.9316 15.8828 14.2285 15.9961 14.5722 15.9961ZM19.3626 17.082C19.1334 17.082 18.9368 17.0013 18.7728 16.8398C18.6113 16.6784 18.5319 16.4831 18.5345 16.2539C18.5319 16.0299 18.6113 15.8372 18.7728 15.6758C18.9368 15.5143 19.1334 15.4336 19.3626 15.4336C19.584 15.4336 19.7767 15.5143 19.9407 15.6758C20.1048 15.8372 20.1868 16.0299 20.1868 16.2539C20.1868 16.4076 20.1478 16.5469 20.0696 16.6719C19.9941 16.7969 19.8939 16.8971 19.7689 16.9727C19.6465 17.0456 19.5111 17.082 19.3626 17.082ZM24.1374 17.1094C23.765 17.1068 23.4004 17.0417 23.0436 16.9141C22.6869 16.7839 22.3639 16.5716 22.0749 16.2773C21.7884 15.9805 21.5606 15.5846 21.3913 15.0898C21.222 14.5951 21.1374 13.9792 21.1374 13.2422C21.1374 12.5547 21.209 11.9414 21.3522 11.4023C21.4955 10.8633 21.7012 10.4076 21.9694 10.0352C22.2402 9.66276 22.5658 9.37891 22.946 9.18359C23.3262 8.98828 23.7533 8.89062 24.2272 8.89062C24.7194 8.89062 25.1556 8.98828 25.5358 9.18359C25.9186 9.3763 26.2272 9.64193 26.4616 9.98047C26.6986 10.3164 26.847 10.6979 26.9069 11.125H25.5749C25.4994 10.8073 25.3457 10.5508 25.1139 10.3555C24.8822 10.1602 24.5866 10.0625 24.2272 10.0625C23.6595 10.0625 23.2207 10.3099 22.9108 10.8047C22.6009 11.2969 22.4447 11.9779 22.4421 12.8477H22.4968C22.6296 12.6185 22.7975 12.4232 23.0007 12.2617C23.2038 12.0977 23.4317 11.9714 23.6843 11.8828C23.9395 11.7943 24.209 11.75 24.4929 11.75C24.959 11.75 25.3796 11.8633 25.7546 12.0898C26.1296 12.3138 26.4264 12.6224 26.6452 13.0156C26.8665 13.4089 26.9772 13.8594 26.9772 14.3672C26.9772 14.888 26.8587 15.3568 26.6218 15.7734C26.3848 16.1875 26.0527 16.5143 25.6257 16.7539C25.2012 16.9935 24.7051 17.112 24.1374 17.1094ZM24.1335 16C24.4251 16 24.6869 15.9284 24.9186 15.7852C25.1504 15.6419 25.3327 15.4492 25.4655 15.207C25.6009 14.9648 25.6686 14.6927 25.6686 14.3906C25.6686 14.0964 25.6035 13.8294 25.4733 13.5898C25.3431 13.3503 25.1634 13.1602 24.9343 13.0195C24.7051 12.8763 24.4447 12.8047 24.153 12.8047C23.9343 12.8047 23.7298 12.8477 23.5397 12.9336C23.3522 13.0169 23.1882 13.1328 23.0475 13.2812C22.9069 13.4271 22.7962 13.5964 22.7155 13.7891C22.6374 13.9818 22.597 14.1862 22.5944 14.4023C22.597 14.6888 22.6647 14.9544 22.7975 15.1992C22.9304 15.4414 23.1113 15.6354 23.3405 15.7812C23.5723 15.9271 23.8366 16 24.1335 16ZM31.3955 9V17H30.044V10.3281H29.9971L28.1104 11.5469V10.2891L30.0987 9H31.3955ZM37.6127 15.5V15.0781C37.6127 14.7708 37.6765 14.4896 37.8041 14.2344C37.9343 13.9766 38.1231 13.7695 38.3705 13.6133C38.6205 13.457 38.9226 13.3789 39.2768 13.3789C39.6387 13.3789 39.9434 13.457 40.1908 13.6133C40.4382 13.7669 40.6244 13.9727 40.7494 14.2305C40.877 14.4883 40.9408 14.7708 40.9408 15.0781V15.5C40.9408 15.8073 40.877 16.0898 40.7494 16.3477C40.6218 16.6029 40.433 16.8086 40.183 16.9648C39.9356 17.1211 39.6335 17.1992 39.2768 17.1992C38.9174 17.1992 38.614 17.1211 38.3666 16.9648C38.1192 16.8086 37.9317 16.6029 37.8041 16.3477C37.6765 16.0898 37.6127 15.8073 37.6127 15.5ZM38.5854 15.0781V15.5C38.5854 15.7135 38.6361 15.9089 38.7377 16.0859C38.8393 16.2604 39.0189 16.3477 39.2768 16.3477C39.532 16.3477 39.7091 16.2604 39.808 16.0859C39.907 15.9115 39.9564 15.7161 39.9564 15.5V15.0781C39.9564 14.862 39.9083 14.6667 39.8119 14.4922C39.7182 14.3151 39.5398 14.2266 39.2768 14.2266C39.0268 14.2266 38.8484 14.3151 38.7416 14.4922C38.6374 14.6667 38.5854 14.862 38.5854 15.0781ZM33.5619 10.9219V10.5C33.5619 10.1927 33.627 9.91016 33.7572 9.65234C33.8874 9.39453 34.0762 9.1888 34.3236 9.03516C34.5736 8.87891 34.8757 8.80078 35.2299 8.80078C35.5919 8.80078 35.8952 8.87891 36.14 9.03516C36.3874 9.1888 36.5736 9.39453 36.6986 9.65234C36.8262 9.91016 36.89 10.1927 36.89 10.5V10.9219C36.89 11.2292 36.8262 11.5117 36.6986 11.7695C36.571 12.0247 36.3835 12.2305 36.1361 12.3867C35.8887 12.5404 35.5867 12.6172 35.2299 12.6172C34.8679 12.6172 34.5632 12.5404 34.3158 12.3867C34.0684 12.2305 33.8809 12.0247 33.7533 11.7695C33.6257 11.5117 33.5619 11.2292 33.5619 10.9219ZM34.5424 10.5V10.9219C34.5424 11.138 34.5932 11.3333 34.6947 11.5078C34.7963 11.6823 34.9747 11.7695 35.2299 11.7695C35.4851 11.7695 35.6622 11.6823 35.7611 11.5078C35.8601 11.3333 35.9096 11.138 35.9096 10.9219V10.5C35.9096 10.2839 35.8614 10.0885 35.765 9.91406C35.6713 9.73698 35.4929 9.64844 35.2299 9.64844C34.9773 9.64844 34.7989 9.73698 34.6947 9.91406C34.5932 10.0911 34.5424 10.2865 34.5424 10.5ZM33.976 17L39.476 9H40.4369L34.9369 17H33.976Z" fill="#313335"/>
<rect width="32" height="148" transform="translate(68 21)" fill="#B6B0FB"/>
<mask id="mask2_331_24197" style="mask-type:alpha" maskUnits="userSpaceOnUse" x="68" y="21" width="32" height="148">
<rect x="68" y="21" width="32" height="148" fill="#D9D9D9"/>
</mask>
<g mask="url(#mask2_331_24197)">
<path d="M68.1725 -34.2891L68.1725 222.9" stroke="#978FED" stroke-width="1.04266"/>
<path d="M70.258 -34.2891L70.258 222.9" stroke="#978FED" stroke-width="1.04266"/>
<path d="M72.3429 -34.2891L72.3429 222.9" stroke="#978FED" stroke-width="1.04266"/>
<path d="M74.4284 -34.2891L74.4284 222.9" stroke="#978FED" stroke-width="1.04266"/>
<path d="M76.5138 -34.2891L76.5138 222.9" stroke="#978FED" stroke-width="1.04266"/>
<path d="M78.5993 -34.2891L78.5993 222.9" stroke="#978FED" stroke-width="1.04266"/>
<path d="M80.6842 -34.2891L80.6842 222.9" stroke="#978FED" stroke-width="1.04266"/>
<path d="M82.7697 -34.2891L82.7697 222.9" stroke="#978FED" stroke-width="1.04266"/>
<path d="M84.8551 -34.2891L84.8551 222.9" stroke="#978FED" stroke-width="1.04266"/>
<path d="M86.9401 -34.2891L86.9401 222.9" stroke="#978FED" stroke-width="1.04266"/>
<path d="M89.0255 -34.2891L89.0255 222.9" stroke="#978FED" stroke-width="1.04266"/>
<path d="M91.1108 -34.2891L91.1108 222.9" stroke="#978FED" stroke-width="1.04266"/>
<path d="M93.1964 -34.2891L93.1964 222.9" stroke="#978FED" stroke-width="1.04266"/>
<path d="M95.2814 -34.2891L95.2814 222.9" stroke="#978FED" stroke-width="1.04266"/>
<path d="M97.3669 -34.2891L97.3669 222.9" stroke="#978FED" stroke-width="1.04266"/>
<path d="M99.4523 -34.2891L99.4523 222.9" stroke="#978FED" stroke-width="1.04266"/>
</g>
<path d="M81.4136 183V191H80.3589L76.1987 185.004H76.1245V191H74.9917V183H76.0542L80.2183 189.004H80.2925V183H81.4136ZM85.6294 191.121C85.0721 191.121 84.5851 190.992 84.1685 190.734C83.7544 190.477 83.4315 190.116 83.1997 189.652C82.9705 189.189 82.856 188.647 82.856 188.027C82.856 187.405 82.9705 186.861 83.1997 186.395C83.4315 185.928 83.7544 185.566 84.1685 185.309C84.5851 185.051 85.0721 184.922 85.6294 184.922C86.1841 184.922 86.6685 185.051 87.0825 185.309C87.4992 185.566 87.8221 185.928 88.0513 186.395C88.283 186.861 88.3989 187.405 88.3989 188.027C88.3989 188.647 88.283 189.189 88.0513 189.652C87.8221 190.116 87.4992 190.477 87.0825 190.734C86.6685 190.992 86.1841 191.121 85.6294 191.121ZM85.6294 190.187C86.0096 190.187 86.3234 190.089 86.5708 189.891C86.8182 189.693 87.0018 189.43 87.1216 189.102C87.2414 188.773 87.3013 188.415 87.3013 188.027C87.3013 187.637 87.2414 187.277 87.1216 186.949C87.0018 186.618 86.8182 186.353 86.5708 186.152C86.3234 185.952 86.0096 185.852 85.6294 185.852C85.2492 185.852 84.9341 185.952 84.6841 186.152C84.4367 186.353 84.2531 186.618 84.1333 186.949C84.0135 187.277 83.9536 187.637 83.9536 188.027C83.9536 188.415 84.0135 188.773 84.1333 189.102C84.2531 189.43 84.4367 189.693 84.6841 189.891C84.9341 190.089 85.2492 190.187 85.6294 190.187ZM94.5835 185L92.3921 191H91.2397L89.0483 185H90.2241L91.7827 189.668H91.8452L93.4077 185H94.5835Z" fill="#5D626D"/>
<path d="M67.6979 10.1094C67.19 10.1094 66.7356 10.013 66.3346 9.82031C65.9335 9.625 65.6132 9.35937 65.3736 9.02344C65.1367 8.6849 65.0104 8.29687 64.9947 7.85937H66.3072C66.3333 8.19531 66.4791 8.47005 66.7447 8.68359C67.0104 8.89453 67.3281 9 67.6979 9C67.9921 9 68.2538 8.93359 68.483 8.80078C68.7122 8.66536 68.8919 8.47786 69.0221 8.23828C69.1523 7.9987 69.2174 7.72526 69.2174 7.41797C69.2174 7.10547 69.1497 6.82813 69.0143 6.58594C68.8814 6.34375 68.6979 6.15365 68.4635 6.01563C68.2291 5.8776 67.9596 5.80729 67.6549 5.80469C67.4153 5.80208 67.177 5.84505 66.94 5.93359C66.7031 6.02214 66.513 6.13802 66.3697 6.28125L65.1432 6.08594L65.5729 2H70.1197V3.13672H66.6939L66.4557 5.30859H66.5025C66.6536 5.14193 66.8619 5.00391 67.1275 4.89453C67.3932 4.78516 67.6822 4.73047 67.9947 4.73047C68.4817 4.73047 68.9153 4.84505 69.2955 5.07422C69.6757 5.30339 69.9752 5.61849 70.1939 6.01953C70.4127 6.41797 70.5221 6.8737 70.5221 7.38672C70.5221 7.91276 70.4023 8.38151 70.1627 8.79297C69.9231 9.20182 69.5911 9.52344 69.1666 9.75781C68.7421 9.99219 68.2525 10.1094 67.6979 10.1094ZM74.6591 10.1445C74.0263 10.1445 73.4847 9.98177 73.0341 9.65625C72.5836 9.33073 72.2386 8.85937 71.999 8.24219C71.7594 7.6224 71.6396 6.8763 71.6396 6.00391C71.6396 5.13411 71.7594 4.39323 71.999 3.78125C72.2412 3.16667 72.5875 2.69792 73.038 2.375C73.4912 2.05208 74.0315 1.89062 74.6591 1.89062C75.2893 1.89062 75.8297 2.05208 76.2802 2.375C76.7308 2.69792 77.0758 3.16667 77.3154 3.78125C77.5576 4.39583 77.6787 5.13672 77.6787 6.00391C77.6787 6.87891 77.5589 7.625 77.3193 8.24219C77.0797 8.85937 76.7347 9.33073 76.2841 9.65625C75.8336 9.98177 75.292 10.1445 74.6591 10.1445ZM74.6591 8.99609C75.1774 8.99609 75.5849 8.74219 75.8818 8.23437C76.1787 7.72656 76.3258 6.98307 76.3232 6.00391C76.3232 5.35807 76.2555 4.8138 76.1201 4.37109C75.9847 3.92578 75.7933 3.58984 75.5459 3.36328C75.2985 3.13672 75.0029 3.02344 74.6591 3.02344C74.1461 3.02344 73.7399 3.27865 73.4404 3.78906C73.1435 4.29687 72.9951 5.03516 72.9951 6.00391C72.9951 6.65495 73.0615 7.20312 73.1943 7.64844C73.3297 8.09375 73.5211 8.42969 73.7685 8.65625C74.0185 8.88281 74.3154 8.99609 74.6591 8.99609ZM79.4495 10.082C79.2204 10.082 79.0237 10.0013 78.8597 9.83984C78.6982 9.67839 78.6188 9.48307 78.6214 9.25391C78.6188 9.02995 78.6982 8.83724 78.8597 8.67578C79.0237 8.51432 79.2204 8.43359 79.4495 8.43359C79.6709 8.43359 79.8636 8.51432 80.0277 8.67578C80.1917 8.83724 80.2737 9.02995 80.2737 9.25391C80.2737 9.40755 80.2347 9.54687 80.1566 9.67187C80.081 9.79687 79.9808 9.89714 79.8558 9.97266C79.7334 10.0456 79.598 10.082 79.4495 10.082ZM84.2243 10.1094C83.8519 10.1068 83.4873 10.0417 83.1305 9.91406C82.7738 9.78385 82.4509 9.57161 82.1618 9.27734C81.8753 8.98047 81.6475 8.58464 81.4782 8.08984C81.3089 7.59505 81.2243 6.97917 81.2243 6.24219C81.2243 5.55469 81.2959 4.94141 81.4391 4.40234C81.5824 3.86328 81.7881 3.40755 82.0563 3.03516C82.3272 2.66276 82.6527 2.37891 83.0329 2.18359C83.4131 1.98828 83.8402 1.89062 84.3141 1.89062C84.8063 1.89062 85.2425 1.98828 85.6227 2.18359C86.0055 2.3763 86.3141 2.64193 86.5485 2.98047C86.7855 3.31641 86.9339 3.69792 86.9938 4.125H85.6618C85.5863 3.80729 85.4326 3.55078 85.2009 3.35547C84.9691 3.16016 84.6735 3.0625 84.3141 3.0625C83.7464 3.0625 83.3076 3.3099 82.9977 3.80469C82.6878 4.29687 82.5316 4.97786 82.529 5.84766H82.5837C82.7165 5.61849 82.8845 5.42318 83.0876 5.26172C83.2907 5.09766 83.5186 4.97135 83.7712 4.88281C84.0264 4.79427 84.2959 4.75 84.5798 4.75C85.0459 4.75 85.4665 4.86328 85.8415 5.08984C86.2165 5.3138 86.5134 5.6224 86.7321 6.01563C86.9535 6.40885 87.0641 6.85937 87.0641 7.36719C87.0641 7.88802 86.9457 8.35677 86.7087 8.77344C86.4717 9.1875 86.1397 9.51432 85.7126 9.75391C85.2881 9.99349 84.792 10.112 84.2243 10.1094ZM84.2204 9C84.5121 9 84.7738 8.92839 85.0055 8.78516C85.2373 8.64193 85.4196 8.44922 85.5524 8.20703C85.6878 7.96484 85.7555 7.69271 85.7555 7.39062C85.7555 7.09635 85.6904 6.82943 85.5602 6.58984C85.43 6.35026 85.2503 6.16016 85.0212 6.01953C84.792 5.8763 84.5316 5.80469 84.2399 5.80469C84.0212 5.80469 83.8167 5.84766 83.6266 5.93359C83.4391 6.01693 83.2751 6.13281 83.1345 6.28125C82.9938 6.42708 82.8832 6.59635 82.8024 6.78906C82.7243 6.98177 82.6839 7.1862 82.6813 7.40234C82.6839 7.6888 82.7516 7.95443 82.8845 8.19922C83.0173 8.44141 83.1983 8.63542 83.4274 8.78125C83.6592 8.92708 83.9235 9 84.2204 9ZM91.1934 10.1094C90.821 10.1068 90.4564 10.0417 90.0996 9.91406C89.7429 9.78385 89.42 9.57161 89.1309 9.27734C88.8444 8.98047 88.6166 8.58464 88.4473 8.08984C88.278 7.59505 88.1934 6.97917 88.1934 6.24219C88.1934 5.55469 88.265 4.94141 88.4082 4.40234C88.5515 3.86328 88.7572 3.40755 89.0254 3.03516C89.2963 2.66276 89.6218 2.37891 90.002 2.18359C90.3822 1.98828 90.8093 1.89062 91.2832 1.89062C91.7754 1.89062 92.2116 1.98828 92.5918 2.18359C92.9746 2.3763 93.2832 2.64193 93.5176 2.98047C93.7546 3.31641 93.903 3.69792 93.9629 4.125H92.6309C92.5554 3.80729 92.4017 3.55078 92.17 3.35547C91.9382 3.16016 91.6426 3.0625 91.2832 3.0625C90.7155 3.0625 90.2767 3.3099 89.9668 3.80469C89.6569 4.29687 89.5007 4.97786 89.4981 5.84766H89.5528C89.6856 5.61849 89.8536 5.42318 90.0567 5.26172C90.2598 5.09766 90.4877 4.97135 90.7403 4.88281C90.9955 4.79427 91.265 4.75 91.5489 4.75C92.015 4.75 92.4356 4.86328 92.8106 5.08984C93.1856 5.3138 93.4825 5.6224 93.7012 6.01563C93.9226 6.40885 94.0332 6.85937 94.0332 7.36719C94.0332 7.88802 93.9148 8.35677 93.6778 8.77344C93.4408 9.1875 93.1088 9.51432 92.6817 9.75391C92.2572 9.99349 91.7611 10.112 91.1934 10.1094ZM91.1895 9C91.4812 9 91.7429 8.92839 91.9746 8.78516C92.2064 8.64193 92.3887 8.44922 92.5215 8.20703C92.6569 7.96484 92.7246 7.69271 92.7246 7.39062C92.7246 7.09635 92.6595 6.82943 92.5293 6.58984C92.3991 6.35026 92.2194 6.16016 91.9903 6.01953C91.7611 5.8763 91.5007 5.80469 91.209 5.80469C90.9903 5.80469 90.7858 5.84766 90.5957 5.93359C90.4082 6.01693 90.2442 6.13281 90.1036 6.28125C89.9629 6.42708 89.8523 6.59635 89.7715 6.78906C89.6934 6.98177 89.653 7.1862 89.6504 7.40234C89.653 7.6888 89.7207 7.95443 89.8536 8.19922C89.9864 8.44141 90.1674 8.63542 90.3965 8.78125C90.6283 8.92708 90.8926 9 91.1895 9ZM99.5258 8.5V8.07812C99.5258 7.77083 99.5896 7.48958 99.7172 7.23437C99.8474 6.97656 100.036 6.76953 100.284 6.61328C100.534 6.45703 100.836 6.37891 101.19 6.37891C101.552 6.37891 101.857 6.45703 102.104 6.61328C102.351 6.76693 102.538 6.97266 102.663 7.23047C102.79 7.48828 102.854 7.77083 102.854 8.07812V8.5C102.854 8.80729 102.79 9.08984 102.663 9.34766C102.535 9.60286 102.346 9.80859 102.096 9.96484C101.849 10.1211 101.547 10.1992 101.19 10.1992C100.83 10.1992 100.527 10.1211 100.28 9.96484C100.032 9.80859 99.8448 9.60286 99.7172 9.34766C99.5896 9.08984 99.5258 8.80729 99.5258 8.5ZM100.498 8.07812V8.5C100.498 8.71354 100.549 8.90885 100.651 9.08594C100.752 9.26042 100.932 9.34766 101.19 9.34766C101.445 9.34766 101.622 9.26042 101.721 9.08594C101.82 8.91146 101.87 8.71615 101.87 8.5V8.07812C101.87 7.86198 101.821 7.66667 101.725 7.49219C101.631 7.3151 101.453 7.22656 101.19 7.22656C100.94 7.22656 100.761 7.3151 100.655 7.49219C100.551 7.66667 100.498 7.86198 100.498 8.07812ZM95.475 3.92188V3.5C95.475 3.19271 95.5401 2.91016 95.6703 2.65234C95.8005 2.39453 95.9893 2.1888 96.2367 2.03516C96.4867 1.87891 96.7888 1.80078 97.143 1.80078C97.5049 1.80078 97.8083 1.87891 98.0531 2.03516C98.3005 2.1888 98.4867 2.39453 98.6117 2.65234C98.7393 2.91016 98.8031 3.19271 98.8031 3.5V3.92188C98.8031 4.22917 98.7393 4.51172 98.6117 4.76953C98.4841 5.02474 98.2966 5.23047 98.0492 5.38672C97.8018 5.54036 97.4997 5.61719 97.143 5.61719C96.781 5.61719 96.4763 5.54036 96.2289 5.38672C95.9815 5.23047 95.794 5.02474 95.6664 4.76953C95.5388 4.51172 95.475 4.22917 95.475 3.92188ZM96.4555 3.5V3.92188C96.4555 4.13802 96.5063 4.33333 96.6078 4.50781C96.7094 4.68229 96.8878 4.76953 97.143 4.76953C97.3982 4.76953 97.5753 4.68229 97.6742 4.50781C97.7732 4.33333 97.8227 4.13802 97.8227 3.92188V3.5C97.8227 3.28385 97.7745 3.08854 97.6781 2.91406C97.5844 2.73698 97.406 2.64844 97.143 2.64844C96.8904 2.64844 96.712 2.73698 96.6078 2.91406C96.5063 3.09115 96.4555 3.28646 96.4555 3.5ZM95.8891 10L101.389 2H102.35L96.85 10H95.8891Z" fill="#313335"/>
<rect width="32" height="142" transform="translate(130 27)" fill="#B6B0FB"/>
<mask id="mask3_331_24197" style="mask-type:alpha" maskUnits="userSpaceOnUse" x="130" y="27" width="32" height="142">
<rect x="130" y="27" width="32" height="142" fill="#D9D9D9"/>
</mask>
<g mask="url(#mask3_331_24197)">
<path d="M130.173 -31.2891L130.173 225.9" stroke="#978FED" stroke-width="1.04266"/>
<path d="M132.258 -31.2891L132.258 225.9" stroke="#978FED" stroke-width="1.04266"/>
<path d="M134.343 -31.2891L134.343 225.9" stroke="#978FED" stroke-width="1.04266"/>
<path d="M136.428 -31.2891L136.428 225.9" stroke="#978FED" stroke-width="1.04266"/>
<path d="M138.514 -31.2891L138.514 225.9" stroke="#978FED" stroke-width="1.04266"/>
<path d="M140.599 -31.2891L140.599 225.9" stroke="#978FED" stroke-width="1.04266"/>
<path d="M142.684 -31.2891L142.684 225.9" stroke="#978FED" stroke-width="1.04266"/>
<path d="M144.77 -31.2891L144.77 225.9" stroke="#978FED" stroke-width="1.04266"/>
<path d="M146.855 -31.2891L146.855 225.9" stroke="#978FED" stroke-width="1.04266"/>
<path d="M148.94 -31.2891L148.94 225.9" stroke="#978FED" stroke-width="1.04266"/>
<path d="M151.026 -31.2891L151.026 225.9" stroke="#978FED" stroke-width="1.04266"/>
<path d="M153.111 -31.2891L153.111 225.9" stroke="#978FED" stroke-width="1.04266"/>
<path d="M155.196 -31.2891L155.196 225.9" stroke="#978FED" stroke-width="1.04266"/>
<path d="M157.281 -31.2891L157.281 225.9" stroke="#978FED" stroke-width="1.04266"/>
<path d="M159.367 -31.2891L159.367 225.9" stroke="#978FED" stroke-width="1.04266"/>
<path d="M161.452 -31.2891L161.452 225.9" stroke="#978FED" stroke-width="1.04266"/>
</g>
<path d="M131.158 183.195H132.291V188.883C132.291 189.393 132.192 189.829 131.994 190.191C131.796 190.553 131.519 190.829 131.162 191.02C130.805 191.21 130.386 191.305 129.904 191.305C129.456 191.305 129.055 191.224 128.701 191.062C128.35 190.898 128.072 190.663 127.869 190.355C127.666 190.046 127.564 189.672 127.564 189.234H128.686C128.688 189.458 128.742 189.652 128.846 189.816C128.952 189.978 129.098 190.104 129.283 190.195C129.471 190.286 129.684 190.332 129.924 190.332C130.187 190.332 130.41 190.277 130.592 190.168C130.777 190.056 130.917 189.892 131.014 189.676C131.11 189.46 131.158 189.195 131.158 188.883V183.195ZM135.75 191.328C135.37 191.328 135.026 191.258 134.719 191.117C134.411 190.974 134.168 190.767 133.988 190.496C133.809 190.223 133.719 189.891 133.719 189.5C133.719 189.156 133.784 188.876 133.914 188.66C134.047 188.444 134.224 188.273 134.445 188.148C134.669 188.021 134.918 187.926 135.191 187.863C135.465 187.798 135.743 187.749 136.027 187.715C136.389 187.671 136.682 187.635 136.906 187.609C137.13 187.581 137.294 187.536 137.398 187.477C137.503 187.414 137.555 187.311 137.555 187.168V187.141C137.555 186.786 137.456 186.512 137.258 186.316C137.06 186.121 136.766 186.023 136.375 186.023C135.966 186.023 135.645 186.113 135.41 186.293C135.178 186.47 135.017 186.665 134.926 186.879L133.898 186.609C134.036 186.245 134.232 185.953 134.484 185.734C134.74 185.516 135.029 185.358 135.352 185.262C135.674 185.165 136.008 185.117 136.352 185.117C136.576 185.117 136.819 185.145 137.082 185.199C137.348 185.251 137.598 185.35 137.832 185.496C138.069 185.642 138.263 185.854 138.414 186.133C138.568 186.409 138.645 186.771 138.645 187.219V191.195H137.574V190.379H137.527C137.457 190.522 137.346 190.668 137.195 190.816C137.047 190.962 136.853 191.085 136.613 191.184C136.376 191.28 136.089 191.328 135.75 191.328ZM135.969 190.43C136.305 190.43 136.591 190.363 136.828 190.23C137.065 190.098 137.245 189.924 137.367 189.711C137.492 189.497 137.555 189.271 137.555 189.031V188.234C137.513 188.279 137.431 188.319 137.309 188.355C137.186 188.389 137.047 188.419 136.891 188.445C136.734 188.471 136.581 188.493 136.43 188.512C136.281 188.53 136.159 188.546 136.062 188.559C135.833 188.59 135.622 188.639 135.43 188.707C135.237 188.775 135.082 188.874 134.965 189.004C134.85 189.132 134.793 189.305 134.793 189.523C134.793 189.82 134.904 190.046 135.125 190.199C135.346 190.353 135.628 190.43 135.969 190.43ZM141.331 187.617V191.195H140.241V185.195H141.288V186.16H141.366C141.504 185.845 141.719 185.592 142.011 185.402C142.305 185.212 142.677 185.117 143.128 185.117C143.537 185.117 143.894 185.202 144.198 185.371C144.506 185.54 144.744 185.793 144.913 186.129C145.082 186.462 145.167 186.879 145.167 187.379V191.195H144.077V187.496C144.077 187.048 143.961 186.699 143.729 186.449C143.498 186.199 143.179 186.074 142.772 186.074C142.494 186.074 142.246 186.134 142.03 186.254C141.814 186.374 141.644 186.549 141.519 186.781C141.394 187.01 141.331 187.289 141.331 187.617ZM150.683 183.195V183.93C150.683 184.148 150.642 184.38 150.562 184.625C150.481 184.867 150.366 185.1 150.218 185.324C150.069 185.548 149.894 185.742 149.69 185.906L149.136 185.492C149.292 185.266 149.429 185.026 149.546 184.773C149.663 184.518 149.722 184.242 149.722 183.945V183.195H150.683ZM151.859 191.195V190.375L154.547 187.543C154.841 187.228 155.085 186.952 155.277 186.715C155.47 186.478 155.613 186.253 155.707 186.039C155.801 185.826 155.848 185.6 155.848 185.363C155.848 185.092 155.784 184.859 155.656 184.664C155.529 184.466 155.354 184.314 155.133 184.207C154.914 184.098 154.665 184.043 154.387 184.043C154.095 184.043 153.84 184.103 153.621 184.223C153.405 184.342 153.237 184.512 153.117 184.73C153 184.947 152.941 185.202 152.941 185.496H151.863C151.863 185.014 151.974 184.592 152.195 184.23C152.417 183.868 152.72 183.587 153.105 183.387C153.491 183.186 153.927 183.086 154.414 183.086C154.906 183.086 155.341 183.186 155.719 183.387C156.096 183.585 156.391 183.854 156.602 184.195C156.815 184.534 156.922 184.915 156.922 185.34C156.922 185.637 156.867 185.927 156.758 186.211C156.651 186.492 156.462 186.806 156.191 187.152C155.923 187.499 155.549 187.918 155.07 188.41L153.418 190.156V190.215H157.055V191.195H151.859ZM161.331 191.305C160.8 191.305 160.327 191.214 159.913 191.031C159.499 190.849 159.171 190.595 158.929 190.27C158.689 189.944 158.56 189.566 158.542 189.137H159.69C159.709 189.379 159.791 189.589 159.937 189.766C160.085 189.943 160.279 190.081 160.519 190.18C160.761 190.276 161.029 190.324 161.323 190.324C161.646 190.324 161.933 190.268 162.183 190.156C162.433 190.042 162.628 189.884 162.769 189.684C162.912 189.48 162.983 189.246 162.983 188.98C162.983 188.704 162.913 188.461 162.772 188.25C162.634 188.039 162.431 187.874 162.163 187.754C161.897 187.634 161.573 187.574 161.19 187.574H160.526V186.625H161.19C161.493 186.625 161.758 186.572 161.987 186.465C162.219 186.355 162.4 186.203 162.53 186.008C162.663 185.81 162.729 185.578 162.729 185.313C162.729 185.057 162.672 184.836 162.558 184.648C162.443 184.458 162.282 184.31 162.073 184.203C161.868 184.096 161.625 184.043 161.347 184.043C161.084 184.043 160.836 184.091 160.604 184.187C160.373 184.284 160.184 184.422 160.038 184.602C159.895 184.781 159.817 184.997 159.804 185.25H158.71C158.723 184.82 158.851 184.444 159.093 184.121C159.335 183.796 159.653 183.542 160.046 183.359C160.442 183.177 160.881 183.086 161.362 183.086C161.87 183.086 162.308 183.186 162.675 183.387C163.045 183.585 163.328 183.849 163.526 184.18C163.727 184.508 163.826 184.866 163.823 185.254C163.826 185.702 163.703 186.083 163.456 186.398C163.211 186.711 162.882 186.923 162.468 187.035V187.098C162.991 187.181 163.397 187.395 163.687 187.738C163.978 188.079 164.123 188.503 164.12 189.008C164.123 189.445 164.003 189.839 163.761 190.187C163.519 190.534 163.188 190.807 162.769 191.008C162.349 191.206 161.87 191.305 161.331 191.305Z" fill="#5D626D"/>
<path d="M129.837 16.1094C129.33 16.1094 128.875 16.013 128.474 15.8203C128.073 15.625 127.753 15.3594 127.513 15.0234C127.276 14.6849 127.15 14.2969 127.134 13.8594H128.447C128.473 14.1953 128.619 14.4701 128.884 14.6836C129.15 14.8945 129.468 15 129.837 15C130.132 15 130.393 14.9336 130.623 14.8008C130.852 14.6654 131.032 14.4779 131.162 14.2383C131.292 13.9987 131.357 13.7253 131.357 13.418C131.357 13.1055 131.289 12.8281 131.154 12.5859C131.021 12.3437 130.837 12.1536 130.603 12.0156C130.369 11.8776 130.099 11.8073 129.795 11.8047C129.555 11.8021 129.317 11.8451 129.08 11.9336C128.843 12.0221 128.653 12.138 128.509 12.2812L127.283 12.0859L127.712 8H132.259V9.13672H128.834L128.595 11.3086H128.642C128.793 11.1419 129.002 11.0039 129.267 10.8945C129.533 10.7852 129.822 10.7305 130.134 10.7305C130.621 10.7305 131.055 10.8451 131.435 11.0742C131.815 11.3034 132.115 11.6185 132.334 12.0195C132.552 12.418 132.662 12.8737 132.662 13.3867C132.662 13.9128 132.542 14.3815 132.302 14.793C132.063 15.2018 131.731 15.5234 131.306 15.7578C130.882 15.9922 130.392 16.1094 129.837 16.1094ZM136.799 16.1445C136.166 16.1445 135.624 15.9818 135.174 15.6562C134.723 15.3307 134.378 14.8594 134.139 14.2422C133.899 13.6224 133.779 12.8763 133.779 12.0039C133.779 11.1341 133.899 10.3932 134.139 9.78125C134.381 9.16667 134.727 8.69792 135.178 8.375C135.631 8.05208 136.171 7.89062 136.799 7.89062C137.429 7.89062 137.969 8.05208 138.42 8.375C138.87 8.69792 139.215 9.16667 139.455 9.78125C139.697 10.3958 139.818 11.1367 139.818 12.0039C139.818 12.8789 139.699 13.625 139.459 14.2422C139.219 14.8594 138.874 15.3307 138.424 15.6562C137.973 15.9818 137.432 16.1445 136.799 16.1445ZM136.799 14.9961C137.317 14.9961 137.725 14.7422 138.021 14.2344C138.318 13.7266 138.465 12.9831 138.463 12.0039C138.463 11.3581 138.395 10.8138 138.26 10.3711C138.124 9.92578 137.933 9.58984 137.686 9.36328C137.438 9.13672 137.143 9.02344 136.799 9.02344C136.286 9.02344 135.88 9.27865 135.58 9.78906C135.283 10.2969 135.135 11.0352 135.135 12.0039C135.135 12.6549 135.201 13.2031 135.334 13.6484C135.469 14.0937 135.661 14.4297 135.908 14.6562C136.158 14.8828 136.455 14.9961 136.799 14.9961ZM141.589 16.082C141.36 16.082 141.163 16.0013 140.999 15.8398C140.838 15.6784 140.758 15.4831 140.761 15.2539C140.758 15.0299 140.838 14.8372 140.999 14.6758C141.163 14.5143 141.36 14.4336 141.589 14.4336C141.811 14.4336 142.003 14.5143 142.167 14.6758C142.331 14.8372 142.413 15.0299 142.413 15.2539C142.413 15.4076 142.374 15.5469 142.296 15.6719C142.221 15.7969 142.12 15.8971 141.995 15.9727C141.873 16.0456 141.738 16.082 141.589 16.082ZM146.364 16.1094C145.992 16.1068 145.627 16.0417 145.27 15.9141C144.913 15.7839 144.591 15.5716 144.301 15.2773C144.015 14.9805 143.787 14.5846 143.618 14.0898C143.449 13.5951 143.364 12.9792 143.364 12.2422C143.364 11.5547 143.436 10.9414 143.579 10.4023C143.722 9.86328 143.928 9.40755 144.196 9.03516C144.467 8.66276 144.792 8.37891 145.173 8.18359C145.553 7.98828 145.98 7.89062 146.454 7.89062C146.946 7.89062 147.382 7.98828 147.762 8.18359C148.145 8.3763 148.454 8.64193 148.688 8.98047C148.925 9.31641 149.074 9.69792 149.133 10.125H147.801C147.726 9.80729 147.572 9.55078 147.341 9.35547C147.109 9.16016 146.813 9.0625 146.454 9.0625C145.886 9.0625 145.447 9.3099 145.137 9.80469C144.827 10.2969 144.671 10.9779 144.669 11.8477H144.723C144.856 11.6185 145.024 11.4232 145.227 11.2617C145.43 11.0977 145.658 10.9714 145.911 10.8828C146.166 10.7943 146.436 10.75 146.719 10.75C147.186 10.75 147.606 10.8633 147.981 11.0898C148.356 11.3138 148.653 11.6224 148.872 12.0156C149.093 12.4089 149.204 12.8594 149.204 13.3672C149.204 13.888 149.085 14.3568 148.848 14.7734C148.611 15.1875 148.279 15.5143 147.852 15.7539C147.428 15.9935 146.932 16.112 146.364 16.1094ZM146.36 15C146.652 15 146.913 14.9284 147.145 14.7852C147.377 14.6419 147.559 14.4492 147.692 14.207C147.827 13.9648 147.895 13.6927 147.895 13.3906C147.895 13.0964 147.83 12.8294 147.7 12.5898C147.57 12.3503 147.39 12.1602 147.161 12.0195C146.932 11.8763 146.671 11.8047 146.38 11.8047C146.161 11.8047 145.956 11.8477 145.766 11.9336C145.579 12.0169 145.415 12.1328 145.274 12.2812C145.133 12.4271 145.023 12.5964 144.942 12.7891C144.864 12.9818 144.824 13.1862 144.821 13.4023C144.824 13.6888 144.891 13.9544 145.024 14.1992C145.157 14.4414 145.338 14.6354 145.567 14.7812C145.799 14.9271 146.063 15 146.36 15ZM150.458 16V15.0234L153.208 12.2656C153.481 11.9844 153.709 11.7357 153.892 11.5195C154.074 11.3008 154.211 11.0911 154.302 10.8906C154.393 10.6901 154.439 10.4766 154.439 10.25C154.439 9.99219 154.379 9.76953 154.259 9.58203C154.139 9.39453 153.975 9.25 153.767 9.14844C153.561 9.04688 153.328 8.99609 153.067 8.99609C152.794 8.99609 152.556 9.05208 152.353 9.16406C152.149 9.27604 151.992 9.4349 151.88 9.64062C151.768 9.84375 151.712 10.0846 151.712 10.3633H150.431C150.431 9.86589 150.544 9.43229 150.771 9.0625C150.997 8.6901 151.311 8.40234 151.712 8.19922C152.116 7.99349 152.575 7.89062 153.091 7.89062C153.614 7.89062 154.074 7.99089 154.47 8.19141C154.866 8.39193 155.174 8.66536 155.396 9.01172C155.617 9.35807 155.728 9.75 155.728 10.1875C155.728 10.487 155.672 10.7812 155.56 11.0703C155.448 11.3568 155.25 11.6758 154.966 12.0273C154.685 12.3763 154.291 12.7995 153.786 13.2969L152.321 14.8047V14.8633H155.853V16H150.458ZM161.386 14.5V14.0781C161.386 13.7708 161.45 13.4896 161.578 13.2344C161.708 12.9766 161.897 12.7695 162.144 12.6133C162.394 12.457 162.696 12.3789 163.05 12.3789C163.412 12.3789 163.717 12.457 163.964 12.6133C164.212 12.7669 164.398 12.9727 164.523 13.2305C164.65 13.4883 164.714 13.7708 164.714 14.0781V14.5C164.714 14.8073 164.65 15.0898 164.523 15.3477C164.395 15.6029 164.206 15.8086 163.956 15.9648C163.709 16.1211 163.407 16.1992 163.05 16.1992C162.691 16.1992 162.387 16.1211 162.14 15.9648C161.893 15.8086 161.705 15.6029 161.578 15.3477C161.45 15.0898 161.386 14.8073 161.386 14.5ZM162.359 14.0781V14.5C162.359 14.7135 162.41 14.9089 162.511 15.0859C162.613 15.2604 162.792 15.3477 163.05 15.3477C163.305 15.3477 163.482 15.2604 163.581 15.0859C163.68 14.9115 163.73 14.7161 163.73 14.5V14.0781C163.73 13.862 163.682 13.6667 163.585 13.4922C163.492 13.3151 163.313 13.2266 163.05 13.2266C162.8 13.2266 162.622 13.3151 162.515 13.4922C162.411 13.6667 162.359 13.862 162.359 14.0781ZM157.335 9.92188V9.5C157.335 9.19271 157.4 8.91016 157.531 8.65234C157.661 8.39453 157.85 8.1888 158.097 8.03516C158.347 7.87891 158.649 7.80078 159.003 7.80078C159.365 7.80078 159.669 7.87891 159.913 8.03516C160.161 8.1888 160.347 8.39453 160.472 8.65234C160.6 8.91016 160.663 9.19271 160.663 9.5V9.92188C160.663 10.2292 160.6 10.5117 160.472 10.7695C160.344 11.0247 160.157 11.2305 159.91 11.3867C159.662 11.5404 159.36 11.6172 159.003 11.6172C158.641 11.6172 158.337 11.5404 158.089 11.3867C157.842 11.2305 157.654 11.0247 157.527 10.7695C157.399 10.5117 157.335 10.2292 157.335 9.92188ZM158.316 9.5V9.92188C158.316 10.138 158.367 10.3333 158.468 10.5078C158.57 10.6823 158.748 10.7695 159.003 10.7695C159.259 10.7695 159.436 10.6823 159.535 10.5078C159.634 10.3333 159.683 10.138 159.683 9.92188V9.5C159.683 9.28385 159.635 9.08854 159.538 8.91406C159.445 8.73698 159.266 8.64844 159.003 8.64844C158.751 8.64844 158.572 8.73698 158.468 8.91406C158.367 9.09115 158.316 9.28646 158.316 9.5ZM157.749 16L163.249 8H164.21L158.71 16H157.749Z" fill="#313335"/>
<rect width="32" height="138" transform="translate(192 31)" fill="#B6B0FB"/>
<mask id="mask4_331_24197" style="mask-type:alpha" maskUnits="userSpaceOnUse" x="192" y="31" width="32" height="138">
<rect x="192" y="31" width="32" height="138" fill="#D9D9D9"/>
</mask>
<g mask="url(#mask4_331_24197)">
<path d="M192.173 -29.2891L192.173 227.9" stroke="#978FED" stroke-width="1.04266"/>
<path d="M194.258 -29.2891L194.258 227.9" stroke="#978FED" stroke-width="1.04266"/>
<path d="M196.343 -29.2891L196.343 227.9" stroke="#978FED" stroke-width="1.04266"/>
<path d="M198.428 -29.2891L198.428 227.9" stroke="#978FED" stroke-width="1.04266"/>
<path d="M200.514 -29.2891L200.514 227.9" stroke="#978FED" stroke-width="1.04266"/>
<path d="M202.599 -29.2891L202.599 227.9" stroke="#978FED" stroke-width="1.04266"/>
<path d="M204.684 -29.2891L204.684 227.9" stroke="#978FED" stroke-width="1.04266"/>
<path d="M206.77 -29.2891L206.77 227.9" stroke="#978FED" stroke-width="1.04266"/>
<path d="M208.855 -29.2891L208.855 227.9" stroke="#978FED" stroke-width="1.04266"/>
<path d="M210.94 -29.2891L210.94 227.9" stroke="#978FED" stroke-width="1.04266"/>
<path d="M213.026 -29.2891L213.026 227.9" stroke="#978FED" stroke-width="1.04266"/>
<path d="M215.111 -29.2891L215.111 227.9" stroke="#978FED" stroke-width="1.04266"/>
<path d="M217.196 -29.2891L217.196 227.9" stroke="#978FED" stroke-width="1.04266"/>
<path d="M219.281 -29.2891L219.281 227.9" stroke="#978FED" stroke-width="1.04266"/>
<path d="M221.367 -29.2891L221.367 227.9" stroke="#978FED" stroke-width="1.04266"/>
<path d="M223.452 -29.2891L223.452 227.9" stroke="#978FED" stroke-width="1.04266"/>
</g>
<path d="M198.266 183.469H199.637L202.234 189.816H202.328L204.93 183.469H206.301V191.469H205.227V185.59H205.148L202.746 191.461H201.816L199.414 185.586H199.34V191.469H198.266V183.469ZM209.765 191.602C209.384 191.602 209.041 191.531 208.733 191.391C208.426 191.247 208.183 191.04 208.003 190.77C207.823 190.496 207.733 190.164 207.733 189.773C207.733 189.43 207.799 189.15 207.929 188.934C208.062 188.717 208.239 188.547 208.46 188.422C208.684 188.294 208.933 188.199 209.206 188.137C209.479 188.072 209.758 188.022 210.042 187.988C210.404 187.944 210.697 187.909 210.921 187.883C211.145 187.854 211.309 187.81 211.413 187.75C211.517 187.688 211.569 187.585 211.569 187.441V187.414C211.569 187.06 211.47 186.785 211.272 186.59C211.075 186.395 210.78 186.297 210.39 186.297C209.981 186.297 209.659 186.387 209.425 186.566C209.193 186.743 209.032 186.939 208.94 187.152L207.913 186.883C208.051 186.518 208.246 186.227 208.499 186.008C208.754 185.789 209.043 185.632 209.366 185.535C209.689 185.439 210.022 185.391 210.366 185.391C210.59 185.391 210.834 185.418 211.097 185.473C211.362 185.525 211.612 185.624 211.847 185.77C212.084 185.915 212.278 186.128 212.429 186.406C212.582 186.682 212.659 187.044 212.659 187.492V191.469H211.589V190.652H211.542C211.472 190.796 211.361 190.941 211.21 191.09C211.062 191.236 210.868 191.358 210.628 191.457C210.391 191.553 210.103 191.602 209.765 191.602ZM209.983 190.703C210.319 190.703 210.606 190.637 210.843 190.504C211.08 190.371 211.259 190.198 211.382 189.984C211.507 189.771 211.569 189.544 211.569 189.305V188.508C211.528 188.552 211.446 188.592 211.323 188.629C211.201 188.663 211.062 188.693 210.905 188.719C210.749 188.745 210.595 188.767 210.444 188.785C210.296 188.803 210.174 188.819 210.077 188.832C209.848 188.863 209.637 188.913 209.444 188.98C209.252 189.048 209.097 189.147 208.979 189.277C208.865 189.405 208.808 189.578 208.808 189.797C208.808 190.094 208.918 190.319 209.14 190.473C209.361 190.626 209.642 190.703 209.983 190.703ZM214.256 191.469V185.469H215.311V186.406H215.373C215.482 186.094 215.676 185.845 215.955 185.66C216.236 185.473 216.554 185.379 216.908 185.379C216.979 185.379 217.063 185.382 217.162 185.387C217.264 185.389 217.343 185.395 217.4 185.402V186.465C217.359 186.452 217.279 186.437 217.162 186.422C217.045 186.404 216.926 186.395 216.807 186.395C216.525 186.395 216.274 186.453 216.053 186.57C215.834 186.687 215.661 186.85 215.533 187.059C215.408 187.264 215.346 187.5 215.346 187.766V191.469H214.256Z" fill="#5D626D"/>
<path d="M191.515 20.1094C191.007 20.1094 190.553 20.013 190.151 19.8203C189.75 19.625 189.43 19.3594 189.191 19.0234C188.954 18.6849 188.827 18.2969 188.812 17.8594H190.124C190.15 18.1953 190.296 18.4701 190.562 18.6836C190.827 18.8945 191.145 19 191.515 19C191.809 19 192.071 18.9336 192.3 18.8008C192.529 18.6654 192.709 18.4779 192.839 18.2383C192.969 17.9987 193.034 17.7253 193.034 17.418C193.034 17.1055 192.967 16.8281 192.831 16.5859C192.698 16.3437 192.515 16.1536 192.28 16.0156C192.046 15.8776 191.776 15.8073 191.472 15.8047C191.232 15.8021 190.994 15.8451 190.757 15.9336C190.52 16.0221 190.33 16.138 190.187 16.2812L188.96 16.0859L189.39 12H193.937V13.1367H190.511L190.273 15.3086H190.319C190.47 15.1419 190.679 15.0039 190.944 14.8945C191.21 14.7852 191.499 14.7305 191.812 14.7305C192.299 14.7305 192.732 14.8451 193.112 15.0742C193.493 15.3034 193.792 15.6185 194.011 16.0195C194.23 16.418 194.339 16.8737 194.339 17.3867C194.339 17.9128 194.219 18.3815 193.98 18.793C193.74 19.2018 193.408 19.5234 192.983 19.7578C192.559 19.9922 192.069 20.1094 191.515 20.1094ZM198.476 20.1445C197.843 20.1445 197.302 19.9818 196.851 19.6562C196.401 19.3307 196.055 18.8594 195.816 18.2422C195.576 17.6224 195.457 16.8763 195.457 16.0039C195.457 15.1341 195.576 14.3932 195.816 13.7812C196.058 13.1667 196.404 12.6979 196.855 12.375C197.308 12.0521 197.848 11.8906 198.476 11.8906C199.106 11.8906 199.647 12.0521 200.097 12.375C200.548 12.6979 200.893 13.1667 201.132 13.7812C201.374 14.3958 201.496 15.1367 201.496 16.0039C201.496 16.8789 201.376 17.625 201.136 18.2422C200.897 18.8594 200.552 19.3307 200.101 19.6562C199.651 19.9818 199.109 20.1445 198.476 20.1445ZM198.476 18.9961C198.994 18.9961 199.402 18.7422 199.699 18.2344C199.996 17.7266 200.143 16.9831 200.14 16.0039C200.14 15.3581 200.072 14.8138 199.937 14.3711C199.802 13.9258 199.61 13.5898 199.363 13.3633C199.115 13.1367 198.82 13.0234 198.476 13.0234C197.963 13.0234 197.557 13.2786 197.257 13.7891C196.96 14.2969 196.812 15.0352 196.812 16.0039C196.812 16.6549 196.878 17.2031 197.011 17.6484C197.147 18.0937 197.338 18.4297 197.585 18.6562C197.835 18.8828 198.132 18.9961 198.476 18.9961ZM203.266 20.082C203.037 20.082 202.841 20.0013 202.677 19.8398C202.515 19.6784 202.436 19.4831 202.438 19.2539C202.436 19.0299 202.515 18.8372 202.677 18.6758C202.841 18.5143 203.037 18.4336 203.266 18.4336C203.488 18.4336 203.68 18.5143 203.845 18.6758C204.009 18.8372 204.091 19.0299 204.091 19.2539C204.091 19.4076 204.052 19.5469 203.973 19.6719C203.898 19.7969 203.798 19.8971 203.673 19.9727C203.55 20.0456 203.415 20.082 203.266 20.082ZM208.082 20.1094C207.574 20.1094 207.12 20.013 206.719 19.8203C206.318 19.625 205.998 19.3594 205.758 19.0234C205.521 18.6849 205.395 18.2969 205.379 17.8594H206.692C206.718 18.1953 206.863 18.4701 207.129 18.6836C207.395 18.8945 207.712 19 208.082 19C208.376 19 208.638 18.9336 208.867 18.8008C209.097 18.6654 209.276 18.4779 209.406 18.2383C209.537 17.9987 209.602 17.7253 209.602 17.418C209.602 17.1055 209.534 16.8281 209.399 16.5859C209.266 16.3437 209.082 16.1536 208.848 16.0156C208.613 15.8776 208.344 15.8073 208.039 15.8047C207.8 15.8021 207.561 15.8451 207.324 15.9336C207.087 16.0221 206.897 16.138 206.754 16.2812L205.528 16.0859L205.957 12H210.504V13.1367H207.078L206.84 15.3086H206.887C207.038 15.1419 207.246 15.0039 207.512 14.8945C207.778 14.7852 208.067 14.7305 208.379 14.7305C208.866 14.7305 209.3 14.8451 209.68 15.0742C210.06 15.3034 210.36 15.6185 210.578 16.0195C210.797 16.418 210.906 16.8737 210.906 17.3867C210.906 17.9128 210.787 18.3815 210.547 18.793C210.307 19.2018 209.975 19.5234 209.551 19.7578C209.126 19.9922 208.637 20.1094 208.082 20.1094ZM212.442 20L215.879 13.1953V13.1367H211.895V12H217.278V13.168L213.844 20H212.442ZM222.709 18.5V18.0781C222.709 17.7708 222.773 17.4896 222.9 17.2344C223.031 16.9766 223.219 16.7695 223.467 16.6133C223.717 16.457 224.019 16.3789 224.373 16.3789C224.735 16.3789 225.04 16.457 225.287 16.6133C225.534 16.7669 225.721 16.9727 225.846 17.2305C225.973 17.4883 226.037 17.7708 226.037 18.0781V18.5C226.037 18.8073 225.973 19.0898 225.846 19.3477C225.718 19.6029 225.529 19.8086 225.279 19.9648C225.032 20.1211 224.73 20.1992 224.373 20.1992C224.014 20.1992 223.71 20.1211 223.463 19.9648C223.215 19.8086 223.028 19.6029 222.9 19.3477C222.773 19.0898 222.709 18.8073 222.709 18.5ZM223.682 18.0781V18.5C223.682 18.7135 223.732 18.9089 223.834 19.0859C223.935 19.2604 224.115 19.3477 224.373 19.3477C224.628 19.3477 224.805 19.2604 224.904 19.0859C225.003 18.9115 225.053 18.7161 225.053 18.5V18.0781C225.053 17.862 225.004 17.6667 224.908 17.4922C224.814 17.3151 224.636 17.2266 224.373 17.2266C224.123 17.2266 223.945 17.3151 223.838 17.4922C223.734 17.6667 223.682 17.862 223.682 18.0781ZM218.658 13.9219V13.5C218.658 13.1927 218.723 12.9102 218.853 12.6523C218.984 12.3945 219.172 12.1888 219.42 12.0352C219.67 11.8789 219.972 11.8008 220.326 11.8008C220.688 11.8008 220.991 11.8789 221.236 12.0352C221.484 12.1888 221.67 12.3945 221.795 12.6523C221.922 12.9102 221.986 13.1927 221.986 13.5V13.9219C221.986 14.2292 221.922 14.5117 221.795 14.7695C221.667 15.0247 221.48 15.2305 221.232 15.3867C220.985 15.5404 220.683 15.6172 220.326 15.6172C219.964 15.6172 219.659 15.5404 219.412 15.3867C219.165 15.2305 218.977 15.0247 218.85 14.7695C218.722 14.5117 218.658 14.2292 218.658 13.9219ZM219.639 13.5V13.9219C219.639 14.138 219.689 14.3333 219.791 14.5078C219.892 14.6823 220.071 14.7695 220.326 14.7695C220.581 14.7695 220.758 14.6823 220.857 14.5078C220.956 14.3333 221.006 14.138 221.006 13.9219V13.5C221.006 13.2839 220.958 13.0885 220.861 12.9141C220.767 12.737 220.589 12.6484 220.326 12.6484C220.073 12.6484 219.895 12.737 219.791 12.9141C219.689 13.0911 219.639 13.2865 219.639 13.5ZM219.072 20L224.572 12H225.533L220.033 20H219.072Z" fill="#313335"/>
</svg>
