<svg width="16" height="12" viewBox="0 0 16 12" fill="none" xmlns="http://www.w3.org/2000/svg">
<path d="M6.5 8.5V9C6.5 9.828 5.828 10.5 5 10.5H2C1.172 10.5 0.5 9.828 0.5 9V3C0.5 2.172 1.172 1.5 2 1.5H5C5.828 1.5 6.5 2.172 6.5 3V3.5" stroke="#0037B7" stroke-width="1.5" stroke-linecap="round" stroke-linejoin="round"/>
<path d="M9.5 8.5V9C9.5 9.828 10.172 10.5 11 10.5H14C14.828 10.5 15.5 9.828 15.5 9V3C15.5 2.172 14.828 1.5 14 1.5H11C10.172 1.5 9.5 2.172 9.5 3V3.5" stroke="#0037B7" stroke-width="1.5" stroke-linecap="round" stroke-linejoin="round"/>
<path d="M3.5 6H12.5" stroke="#0037B7" stroke-width="1.5" stroke-linecap="round" stroke-linejoin="round"/>
</svg>
