<svg width="168" height="168" viewBox="0 0 168 168" fill="none" xmlns="http://www.w3.org/2000/svg">
<mask id="path-1-inside-1_331_22233" fill="white">
<path d="M168 84C168 130.392 130.392 168 84 168C37.6081 168 0 130.392 0 84C0 37.6081 37.6081 0 84 0C130.392 0 168 37.6081 168 84ZM18.7118 84C18.7118 120.058 47.9423 149.288 84 149.288C120.058 149.288 149.288 120.058 149.288 84C149.288 47.9423 120.058 18.7118 84 18.7118C47.9423 18.7118 18.7118 47.9423 18.7118 84Z"/>
</mask>
<path d="M168 84C168 130.392 130.392 168 84 168C37.6081 168 0 130.392 0 84C0 37.6081 37.6081 0 84 0C130.392 0 168 37.6081 168 84ZM18.7118 84C18.7118 120.058 47.9423 149.288 84 149.288C120.058 149.288 149.288 120.058 149.288 84C149.288 47.9423 120.058 18.7118 84 18.7118C47.9423 18.7118 18.7118 47.9423 18.7118 84Z" fill="white" stroke="#ECEFF8" stroke-width="48" mask="url(#path-1-inside-1_331_22233)"/>
<mask id="path-2-inside-2_331_22233" fill="white">
<path d="M121.954 158.937C138.888 150.36 152.417 136.301 160.337 119.051C168.258 101.801 170.103 82.3771 165.571 63.9446C161.039 45.512 150.398 29.1578 135.381 17.5472C120.365 5.93658 101.859 -0.245847 82.8789 0.00748128L83.1312 18.9073C97.8402 18.7109 112.182 23.5022 123.82 32.5002C135.457 41.4983 143.704 54.1725 147.216 68.4574C150.728 82.7423 149.298 97.7956 143.16 111.164C137.022 124.533 126.537 135.428 113.414 142.075L121.954 158.937Z"/>
</mask>
<path d="M121.954 158.937C138.888 150.36 152.417 136.301 160.337 119.051C168.258 101.801 170.103 82.3771 165.571 63.9446C161.039 45.512 150.398 29.1578 135.381 17.5472C120.365 5.93658 101.859 -0.245847 82.8789 0.00748128L83.1312 18.9073C97.8402 18.7109 112.182 23.5022 123.82 32.5002C135.457 41.4983 143.704 54.1725 147.216 68.4574C150.728 82.7423 149.298 97.7956 143.16 111.164C137.022 124.533 126.537 135.428 113.414 142.075L121.954 158.937Z" stroke="#3E54AC" stroke-width="48" stroke-linejoin="round" mask="url(#path-2-inside-2_331_22233)"/>
</svg>
