<svg width="24" height="24" viewBox="0 0 24 24" fill="none" xmlns="http://www.w3.org/2000/svg">
<rect x="0.5" y="0.5" width="23" height="23" rx="11.5" fill="white"/>
<rect x="0.5" y="0.5" width="23" height="23" rx="11.5" fill="url(#paint0_linear_2682_18656)" fill-opacity="0.2"/>
<path d="M15.1814 10.9391L10.7027 15.4189C10.4624 15.6592 10.1613 15.8296 9.83164 15.9121L8.11339 16.3416C7.83874 16.4103 7.58997 16.1615 7.65863 15.8869L8.08819 14.1686C8.17062 13.8389 8.34109 13.5378 8.58139 13.2975L13.06 8.81783L15.1814 10.9391ZM16.2426 7.7577C16.8283 8.34349 16.8283 9.29323 16.2426 9.87902L15.7117 10.4088L13.5904 8.2875L14.1212 7.7577C14.707 7.17191 15.6568 7.17191 16.2426 7.7577Z" fill="#666666"/>
<rect x="0.5" y="0.5" width="23" height="23" rx="11.5" stroke="#CCCCCC"/>
<defs>
<linearGradient id="paint0_linear_2682_18656" x1="12" y1="0" x2="12" y2="24" gradientUnits="userSpaceOnUse">
<stop stop-color="#FBFBFB"/>
<stop offset="1" stop-color="#F9FAFA"/>
</linearGradient>
</defs>
</svg>
