<svg width="259" height="61" viewBox="0 0 259 61" fill="none" xmlns="http://www.w3.org/2000/svg">
<path d="M0.599609 44.3962L4.62736 48.4391C5.0723 48.8857 5.81449 48.8142 6.16596 48.2908L7.47055 46.3482C7.65629 46.0716 7.96757 45.9057 8.30072 45.9057H11.751C12.1087 45.9057 12.4392 46.0968 12.6177 46.4068L13.619 48.1463C13.9516 48.7241 14.7457 48.8208 15.2073 48.3397L17.5424 45.9057L22.2002 41.8598C22.5305 41.5728 23.0091 41.534 23.3815 41.764L27.4764 44.2934C27.5864 44.3613 27.6821 44.4499 27.7583 44.5542L30.5789 48.4148C30.9265 48.8907 31.6082 48.9642 32.0493 48.5735L36.1216 44.9669C36.492 44.6389 37.0466 44.631 37.4262 44.9485L41.7943 48.6022C42.2441 48.9784 42.9196 48.8887 43.2555 48.4081L47.3733 42.5168C47.7648 41.9567 48.5902 41.9455 48.9967 42.4948L53.7347 48.8968C53.9233 49.1516 54.2215 49.3019 54.5385 49.3019H60.6244C60.9822 49.3019 61.3126 49.1108 61.4911 48.8008L62.9564 46.2552C63.0855 46.0309 63.2964 45.8655 63.5449 45.7935L68.1162 44.4699C68.283 44.4216 68.4344 44.3307 68.5554 44.2061L71.0086 41.6806C71.1969 41.4867 71.4556 41.3774 71.7259 41.3774H75.4419C75.7122 41.3774 75.9709 41.4867 76.1592 41.6806L78.6613 44.2564C78.751 44.3488 78.822 44.4575 78.8704 44.5768L80.0668 47.5212C80.4469 48.4566 81.8161 48.3034 81.98 47.307L88.3546 8.54654C88.5343 7.45389 90.0933 7.4201 90.3202 8.50395L91.6636 14.9219C91.7605 15.3851 92.169 15.717 92.6423 15.717H93.5221C93.8854 15.717 94.2201 15.5199 94.3964 15.2023L96.4785 11.4512C96.7756 10.916 97.4795 10.7709 97.964 11.145L99.7101 12.4932C99.8824 12.6262 100.007 12.8117 100.064 13.0216L100.908 16.1162C101.179 17.1136 102.601 17.093 102.844 16.0881L103.825 12.0322C104.001 11.3035 104.887 11.0206 105.453 11.5123L106.199 12.1609C106.559 12.4733 107.089 12.4886 107.466 12.1974L108.539 11.3691C109.11 10.9282 109.946 11.2186 110.121 11.9186L117.706 42.3287C117.911 43.1507 118.981 43.3613 119.482 42.6784L123.461 37.2574C123.649 37.0007 123.949 36.8491 124.267 36.8491H129.224C129.658 36.8491 130.042 37.1285 130.175 37.541L132.134 43.5902C132.409 44.4404 133.576 44.5302 133.978 43.732L134.099 43.4924C134.497 42.7026 135.649 42.7799 135.937 43.6157L138.19 50.1378C138.329 50.5409 138.709 50.8113 139.135 50.8113H140.81C141.309 50.8113 141.732 50.4429 141.8 49.9482L142.865 42.2405C142.933 41.7458 143.356 41.3774 143.856 41.3774H144.055C144.56 41.3774 144.986 41.0009 145.047 40.4998L146.679 27.2697C146.774 26.5008 147.67 26.1271 148.283 26.6006L148.568 26.8206C149.151 27.2708 150.004 26.9575 150.157 26.237L153.989 8.20923C154.216 7.13773 155.753 7.15946 155.95 8.23696L156.88 13.3146C157.042 14.1948 158.189 14.4363 158.692 13.6958L160.732 10.6882C160.844 10.5225 160.904 10.3269 160.904 10.1268V2C160.904 1.44772 161.352 1 161.904 1H163.636C164.127 1 164.546 1.35655 164.624 1.8414L166.506 13.557C166.668 14.566 168.06 14.7108 168.427 13.7567L169.455 11.0757C169.604 10.6891 169.975 10.434 170.389 10.434H171.865C172.318 10.434 172.715 10.1289 172.831 9.69073L172.943 9.27203C173.208 8.27382 174.628 8.2838 174.879 9.28564L176.816 17.0121C176.851 17.1533 176.917 17.285 177.009 17.3981L180.443 21.6408C180.971 22.2936 182.021 22.0436 182.198 21.2226L183.6 14.7282C183.771 13.9321 184.799 13.7053 185.29 14.3552V14.3552C185.739 14.95 186.667 14.8209 186.937 14.1261L188.619 9.79757C188.898 9.07709 189.855 8.93303 190.335 9.53912L192.708 12.5378C192.792 12.6436 192.853 12.7652 192.889 12.8954L194.589 19.131C194.708 19.5661 195.103 19.8679 195.554 19.8679H196.97C197.415 19.8679 197.807 20.163 197.931 20.5913L198.766 23.4935C199.061 24.52 200.544 24.4304 200.714 23.3758L203.206 7.89449C203.347 7.01737 204.477 6.74614 205.001 7.4635L206.872 10.0239C207.06 10.2816 207.36 10.434 207.679 10.434H210.239C210.726 10.434 211.142 10.0837 211.224 9.60413L211.589 7.49021C211.672 7.01068 212.088 6.66038 212.575 6.66038H214.133C214.627 6.66038 215.046 7.02031 215.122 7.50799L216.489 16.3788C216.565 16.8665 216.984 17.2264 217.478 17.2264H221.01C221.488 17.2264 221.9 17.5648 221.992 18.0339L222.433 20.2803C222.646 21.3668 224.205 21.3528 224.398 20.2628L224.545 19.4381C224.747 18.3032 226.392 18.354 226.523 19.4992L230.987 58.4305C231.092 59.3386 232.259 59.6425 232.793 58.9006L234.352 56.7334C234.474 56.5632 234.54 56.3589 234.54 56.1493V44.6399C234.54 44.4798 234.579 44.322 234.652 44.1799L237.213 39.2376C237.639 38.4147 238.859 38.5643 239.074 39.4659L240.085 43.7138C240.329 44.7378 241.786 44.7383 242.031 43.7143L244.638 32.7989C244.856 31.8828 246.105 31.7495 246.512 32.5986L248.279 36.2816C248.445 36.6284 248.795 36.8491 249.18 36.8491H251.082C251.515 36.8491 251.899 37.1285 252.033 37.541L254.623 45.5406C254.699 45.7756 254.86 45.9742 255.073 46.0979L258 47.7925" stroke="#33A34D" stroke-width="1.5"/>
</svg>
