<svg width="8" height="8" viewBox="0 0 8 8" fill="none" xmlns="http://www.w3.org/2000/svg">
<path d="M2 8C1.82319 8 1.65362 7.92976 1.52859 7.80474C1.40357 7.67971 1.33333 7.51014 1.33333 7.33333V0.666667C1.33333 0.489856 1.40357 0.320286 1.52859 0.195262C1.65362 0.0702379 1.82319 0 2 0C2.17681 0 2.34638 0.0702379 2.4714 0.195262C2.59643 0.320286 2.66667 0.489856 2.66667 0.666667V7.33333C2.66667 7.51014 2.59643 7.67971 2.4714 7.80474C2.34638 7.92976 2.17681 8 2 8Z" fill="#666666"/>
<path d="M3.33333 4.33366V0.666992L7.33333 0.666992V4.33366H3.33333Z" fill="#666666"/>
</svg>
