<svg width="64" height="64" viewBox="0 0 64 64" fill="none" xmlns="http://www.w3.org/2000/svg">
<path d="M60.0451 61.8428H58.2473V5.39325C58.2473 5.10718 58.1337 4.83283 57.9314 4.63055C57.7291 4.42827 57.4548 4.31462 57.1687 4.31462H37.0338C36.8922 4.31461 36.7519 4.3425 36.6211 4.3967C36.4902 4.4509 36.3713 4.53035 36.2711 4.63051C36.1709 4.73067 36.0915 4.84959 36.0373 4.98046C35.9831 5.11133 35.9552 5.2516 35.9552 5.39325V10.0674H33.798V5.39325C33.798 5.10718 33.6843 4.83283 33.482 4.63055C33.2798 4.42827 33.0054 4.31462 32.7193 4.31462H28.0451V1.07862C28.0451 0.48275 27.5621 0 26.9665 0C26.3708 0 25.8878 0.48275 25.8878 1.07862V4.31462H21.2137C21.0721 4.31461 20.9318 4.3425 20.8009 4.3967C20.67 4.4509 20.5511 4.53035 20.451 4.63051C20.3508 4.73067 20.2714 4.84959 20.2172 4.98046C20.163 5.11133 20.1351 5.2516 20.1351 5.39325V10.0674H16.8991C16.7574 10.0674 16.6172 10.0952 16.4863 10.1494C16.3554 10.2036 16.2365 10.2831 16.1364 10.3833C16.0362 10.4834 15.9567 10.6023 15.9025 10.7332C15.8483 10.8641 15.8204 11.0043 15.8205 11.146V20.1348H6.83171C6.69006 20.1347 6.5498 20.1626 6.41892 20.2168C6.28805 20.271 6.16914 20.3505 6.06898 20.4506C5.96881 20.5508 5.88936 20.6697 5.83516 20.8006C5.78096 20.9315 5.75307 21.0717 5.75309 21.2134V61.8426H3.95509C3.35934 61.8426 2.87646 62.3254 2.87646 62.9212C2.87646 63.5171 3.35946 64 3.95509 64H60.0451C60.6408 64 61.1237 63.5173 61.1237 62.9214C61.1237 62.3255 60.6407 61.8428 60.0451 61.8428ZM22.2922 6.47188H31.6405V10.0674H22.2922V6.47188ZM18.6967 61.8428H17.9776V60.045C17.9776 59.4491 17.4946 58.9664 16.899 58.9664C16.3033 58.9664 15.8203 59.4491 15.8203 60.045V61.8428H15.1012V58.2472H18.6967V61.8428ZM25.8877 34.1572V61.8428H20.854V57.1686C20.854 56.8826 20.7403 56.6082 20.538 56.4059C20.3358 56.2036 20.0614 56.09 19.7753 56.09H14.0226C13.8809 56.09 13.7407 56.1179 13.6098 56.1721C13.4789 56.2263 13.36 56.3057 13.2598 56.4059C13.1597 56.506 13.0802 56.625 13.026 56.7558C12.9718 56.8867 12.9439 57.027 12.944 57.1686V61.8428H7.91021V22.2921H25.8877V34.1572ZM26.9663 20.1349H17.9776V12.2247H35.9551V33.0786H28.0451V29.4831H31.2811C31.8768 29.4831 32.3597 29.0004 32.3597 28.4045C32.3597 27.8086 31.8767 27.3259 31.2811 27.3259H28.0451V23.7304H31.2811C31.8768 23.7304 32.3597 23.2476 32.3597 22.6518C32.3597 22.0559 31.8767 21.5731 31.2811 21.5731H28.0451V21.2136C28.0451 21.072 28.0172 20.9317 27.963 20.8008C27.9088 20.6699 27.8293 20.551 27.7292 20.4508C27.629 20.3506 27.5101 20.2712 27.3792 20.217C27.2483 20.1628 27.108 20.1349 26.9663 20.1349ZM46.0226 61.8428H28.0451V35.236H46.0226V61.8428ZM56.09 61.8428H48.1798V32.719C48.1798 32.1231 47.6968 31.6404 47.1012 31.6404C46.5056 31.6404 46.0226 32.1231 46.0226 32.719V33.0785H43.8653V32.719C43.8653 32.1231 43.3823 31.6404 42.7867 31.6404C42.1911 31.6404 41.7081 32.1231 41.7081 32.719V33.0785H38.1126V6.47188H56.0901V61.8428H56.09Z" fill="black"/>
<path d="M32.7194 59.6865C33.0054 59.6864 33.2798 59.5728 33.482 59.3705C33.6843 59.1683 33.7979 58.8939 33.798 58.6079V38.4731C33.798 37.8772 33.315 37.3945 32.7194 37.3945C32.1237 37.3945 31.6407 37.8772 31.6407 38.4731V58.608C31.6407 58.7496 31.6686 58.8899 31.7228 59.0207C31.777 59.1516 31.8565 59.2705 31.9567 59.3706C32.0568 59.4708 32.1757 59.5502 32.3066 59.6044C32.4375 59.6586 32.5777 59.6865 32.7194 59.6865ZM37.034 59.6865C37.32 59.6864 37.5944 59.5728 37.7966 59.3705C37.9989 59.1683 38.1126 58.8939 38.1126 58.6079V38.4731C38.1126 37.8772 37.6296 37.3945 37.034 37.3945C36.4384 37.3945 35.9554 37.8772 35.9554 38.4731V58.608C35.9554 58.7496 35.9833 58.8899 36.0375 59.0207C36.0917 59.1516 36.1711 59.2705 36.2713 59.3706C36.3714 59.4708 36.4904 59.5502 36.6212 59.6044C36.7521 59.6586 36.8923 59.6865 37.034 59.6865ZM41.3485 59.6865C41.6345 59.6864 41.9089 59.5728 42.1111 59.3705C42.3134 59.1683 42.4271 58.8939 42.4271 58.6079V38.4731C42.4271 37.8772 41.9441 37.3945 41.3485 37.3945C40.7529 37.3945 40.2699 37.8772 40.2699 38.4731V58.608C40.2699 58.894 40.3835 59.1684 40.5858 59.3706C40.7881 59.5729 41.0624 59.6865 41.3485 59.6865ZM42.7867 13.6637C42.9284 13.6638 43.0686 13.6359 43.1995 13.5817C43.3304 13.5275 43.4493 13.448 43.5495 13.3478C43.6496 13.2477 43.7291 13.1288 43.7833 12.9979C43.8375 12.867 43.8654 12.7268 43.8654 12.5851V11.147C43.8654 10.5511 43.3824 10.0684 42.7867 10.0684C42.1911 10.0684 41.7081 10.5511 41.7081 11.147V12.5852C41.7081 12.7269 41.736 12.8671 41.7902 12.998C41.8444 13.1288 41.9239 13.2477 42.024 13.3479C42.1242 13.448 42.2431 13.5275 42.374 13.5817C42.5048 13.6359 42.6451 13.6638 42.7867 13.6637ZM47.1014 13.6637C47.243 13.6638 47.3833 13.6359 47.5141 13.5817C47.645 13.5275 47.7639 13.448 47.8641 13.3478C47.9643 13.2477 48.0437 13.1288 48.0979 12.9979C48.1521 12.867 48.18 12.7268 48.18 12.5851V11.147C48.18 10.5511 47.697 10.0684 47.1014 10.0684C46.5057 10.0684 46.0227 10.5511 46.0227 11.147V12.5852C46.0227 12.7269 46.0506 12.8671 46.1048 12.998C46.159 13.1288 46.2385 13.2477 46.3387 13.3479C46.4388 13.448 46.5577 13.5275 46.6886 13.5817C46.8195 13.6359 46.9597 13.6638 47.1014 13.6637ZM51.416 13.6637C51.5576 13.6638 51.6979 13.6359 51.8288 13.5817C51.9596 13.5275 52.0786 13.448 52.1787 13.3478C52.2789 13.2477 52.3583 13.1288 52.4125 12.9979C52.4667 12.867 52.4946 12.7268 52.4946 12.5851V11.147C52.4946 10.5511 52.0116 10.0684 51.416 10.0684C50.8204 10.0684 50.3374 10.5511 50.3374 11.147V12.5852C50.3374 12.7269 50.3653 12.8671 50.4195 12.998C50.4737 13.1288 50.5531 13.2477 50.6533 13.3479C50.7534 13.448 50.8724 13.5275 51.0032 13.5817C51.1341 13.6359 51.2743 13.6638 51.416 13.6637ZM42.7867 20.8547C42.9284 20.8547 43.0686 20.8269 43.1995 20.7727C43.3304 20.7185 43.4493 20.639 43.5495 20.5388C43.6496 20.4387 43.7291 20.3198 43.7833 20.1889C43.8375 20.058 43.8654 19.9178 43.8654 19.7761V18.3379C43.8654 17.742 43.3824 17.2592 42.7867 17.2592C42.1911 17.2592 41.7081 17.742 41.7081 18.3379V19.7761C41.7081 19.9178 41.736 20.058 41.7902 20.1889C41.8444 20.3198 41.9238 20.4387 42.024 20.5388C42.1242 20.639 42.2431 20.7185 42.3739 20.7727C42.5048 20.8269 42.6451 20.8547 42.7867 20.8547ZM47.1014 20.8547C47.243 20.8547 47.3833 20.8269 47.5141 20.7727C47.645 20.7185 47.7639 20.639 47.8641 20.5388C47.9643 20.4387 48.0437 20.3198 48.0979 20.1889C48.1521 20.058 48.18 19.9178 48.18 19.7761V18.3379C48.18 17.742 47.697 17.2592 47.1014 17.2592C46.5057 17.2592 46.0227 17.742 46.0227 18.3379V19.7761C46.0227 19.9178 46.0506 20.058 46.1048 20.1889C46.159 20.3198 46.2385 20.4387 46.3386 20.5388C46.4388 20.639 46.5577 20.7185 46.6886 20.7727C46.8194 20.8269 46.9597 20.8547 47.1014 20.8547ZM51.416 20.8547C51.5576 20.8547 51.6979 20.8269 51.8288 20.7727C51.9596 20.7185 52.0786 20.639 52.1787 20.5388C52.2789 20.4387 52.3583 20.3198 52.4125 20.1889C52.4667 20.058 52.4946 19.9178 52.4946 19.7761V18.3379C52.4946 17.742 52.0116 17.2592 51.416 17.2592C50.8204 17.2592 50.3374 17.742 50.3374 18.3379V19.7761C50.3373 19.9178 50.3652 20.058 50.4194 20.1889C50.4736 20.3198 50.5531 20.4387 50.6532 20.5388C50.7534 20.639 50.8723 20.7185 51.0032 20.7727C51.1341 20.8269 51.2743 20.8547 51.416 20.8547ZM42.7867 28.0459C42.9284 28.0459 43.0686 28.018 43.1995 27.9638C43.3304 27.9096 43.4493 27.8301 43.5495 27.73C43.6496 27.6298 43.7291 27.5109 43.7833 27.38C43.8375 27.2492 43.8654 27.1089 43.8654 26.9672V25.529C43.8654 24.9331 43.3824 24.4504 42.7867 24.4504C42.1911 24.4504 41.7081 24.9331 41.7081 25.529V26.9672C41.7081 27.2533 41.8217 27.5277 42.024 27.7299C42.2263 27.9322 42.5007 28.0459 42.7867 28.0459ZM47.1014 28.0459C47.243 28.0459 47.3833 28.018 47.5141 27.9638C47.645 27.9096 47.7639 27.8301 47.8641 27.73C47.9643 27.6298 48.0437 27.5109 48.0979 27.38C48.1521 27.2492 48.18 27.1089 48.18 26.9672V25.529C48.18 24.9331 47.697 24.4504 47.1014 24.4504C46.5057 24.4504 46.0227 24.9331 46.0227 25.529V26.9672C46.0227 27.2533 46.1364 27.5277 46.3386 27.7299C46.5409 27.9322 46.8153 28.0459 47.1014 28.0459ZM51.416 28.0459C51.5576 28.0459 51.6979 28.018 51.8288 27.9638C51.9596 27.9096 52.0786 27.8301 52.1787 27.73C52.2789 27.6298 52.3583 27.5109 52.4125 27.38C52.4667 27.2492 52.4946 27.1089 52.4946 26.9672V25.529C52.4946 24.9331 52.0116 24.4504 51.416 24.4504C50.8204 24.4504 50.3374 24.9331 50.3374 25.529V26.9672C50.3374 27.2533 50.451 27.5277 50.6533 27.7299C50.8556 27.9322 51.1299 28.0459 51.416 28.0459ZM12.5845 30.9222C12.7261 30.9223 12.8664 30.8944 12.9973 30.8402C13.1281 30.786 13.2471 30.7065 13.3472 30.6063C13.4474 30.5062 13.5268 30.3873 13.581 30.2564C13.6352 30.1255 13.6631 29.9853 13.6631 29.8436V28.4054C13.6631 27.8095 13.1801 27.3267 12.5845 27.3267C11.9889 27.3267 11.5059 27.8095 11.5059 28.4054V29.8436C11.5059 30.1297 11.6195 30.404 11.8218 30.6063C12.0241 30.8086 12.2984 30.9222 12.5845 30.9222ZM16.8991 30.9222C17.0408 30.9223 17.181 30.8944 17.3119 30.8402C17.4428 30.786 17.5617 30.7065 17.6618 30.6063C17.762 30.5062 17.8415 30.3873 17.8957 30.2564C17.9499 30.1255 17.9778 29.9853 17.9777 29.8436V28.4054C17.9777 27.8095 17.4947 27.3267 16.8991 27.3267C16.3035 27.3267 15.8205 27.8095 15.8205 28.4054V29.8436C15.8205 30.1297 15.9341 30.404 16.1364 30.6063C16.3387 30.8086 16.613 30.9222 16.8991 30.9222ZM21.2137 30.9222C21.3554 30.9223 21.4957 30.8944 21.6265 30.8402C21.7574 30.786 21.8763 30.7065 21.9765 30.6063C22.0766 30.5062 22.1561 30.3873 22.2103 30.2564C22.2645 30.1255 22.2924 29.9853 22.2924 29.8436V28.4054C22.2924 27.8095 21.8094 27.3267 21.2137 27.3267C20.6181 27.3267 20.1351 27.8095 20.1351 28.4054V29.8436C20.1351 30.1297 20.2487 30.404 20.451 30.6063C20.6533 30.8086 20.9277 30.9222 21.2137 30.9222ZM12.5845 38.1132C12.7261 38.1132 12.8664 38.0854 12.9973 38.0312C13.1281 37.977 13.2471 37.8975 13.3472 37.7973C13.4474 37.6972 13.5268 37.5783 13.581 37.4474C13.6352 37.3165 13.6631 37.1763 13.6631 37.0346V35.5964C13.6631 35.0005 13.1801 34.5177 12.5845 34.5177C11.9889 34.5177 11.5059 35.0005 11.5059 35.5964V37.0346C11.5059 37.3207 11.6195 37.595 11.8218 37.7973C12.0241 37.9995 12.2984 38.1132 12.5845 38.1132ZM16.8991 38.1132C17.0408 38.1132 17.181 38.0854 17.3119 38.0312C17.4428 37.977 17.5617 37.8975 17.6618 37.7973C17.762 37.6972 17.8415 37.5783 17.8957 37.4474C17.9499 37.3165 17.9778 37.1763 17.9777 37.0346V35.5964C17.9777 35.0005 17.4947 34.5177 16.8991 34.5177C16.3035 34.5177 15.8205 35.0005 15.8205 35.5964V37.0346C15.8205 37.3207 15.9341 37.595 16.1364 37.7973C16.3387 37.9996 16.613 38.1132 16.8991 38.1132ZM21.2137 38.1132C21.3554 38.1132 21.4957 38.0854 21.6265 38.0312C21.7574 37.977 21.8763 37.8975 21.9765 37.7973C22.0766 37.6972 22.1561 37.5783 22.2103 37.4474C22.2645 37.3165 22.2924 37.1763 22.2924 37.0346V35.5964C22.2924 35.0005 21.8094 34.5177 21.2137 34.5177C20.6181 34.5177 20.1351 35.0005 20.1351 35.5964V37.0346C20.1351 37.3207 20.2487 37.595 20.451 37.7973C20.6533 37.9996 20.9277 38.1132 21.2137 38.1132ZM12.5845 45.3042C12.7261 45.3042 12.8664 45.2764 12.9973 45.2222C13.1281 45.168 13.2471 45.0885 13.3472 44.9883C13.4474 44.8882 13.5268 44.7693 13.581 44.6384C13.6352 44.5075 13.6631 44.3673 13.6631 44.2256V42.7874C13.6631 42.1915 13.1801 41.7087 12.5845 41.7087C11.9889 41.7087 11.5059 42.1915 11.5059 42.7874V44.2256C11.5059 44.3673 11.5338 44.5075 11.588 44.6384C11.6422 44.7692 11.7216 44.8882 11.8218 44.9883C11.9219 45.0885 12.0408 45.1679 12.1717 45.2221C12.3026 45.2763 12.4428 45.3042 12.5845 45.3042ZM16.8991 45.3042C17.0408 45.3042 17.181 45.2764 17.3119 45.2222C17.4428 45.168 17.5617 45.0885 17.6618 44.9883C17.762 44.8882 17.8415 44.7693 17.8957 44.6384C17.9499 44.5075 17.9778 44.3673 17.9777 44.2256V42.7874C17.9777 42.1915 17.4947 41.7087 16.8991 41.7087C16.3035 41.7087 15.8205 42.1915 15.8205 42.7874V44.2256C15.8205 44.3673 15.8484 44.5075 15.9026 44.6384C15.9568 44.7693 16.0362 44.8882 16.1364 44.9883C16.2365 45.0885 16.3554 45.168 16.4863 45.2222C16.6172 45.2764 16.7575 45.3042 16.8991 45.3042ZM21.2137 45.3042C21.3554 45.3042 21.4957 45.2764 21.6265 45.2222C21.7574 45.168 21.8763 45.0885 21.9765 44.9883C22.0766 44.8882 22.1561 44.7693 22.2103 44.6384C22.2645 44.5075 22.2924 44.3673 22.2924 44.2256V42.7874C22.2924 42.1915 21.8094 41.7087 21.2137 41.7087C20.6181 41.7087 20.1351 42.1915 20.1351 42.7874V44.2256C20.1351 44.3673 20.163 44.5075 20.2172 44.6384C20.2714 44.7693 20.3508 44.8882 20.451 44.9883C20.5512 45.0885 20.6701 45.168 20.8009 45.2222C20.9318 45.2764 21.0721 45.3042 21.2137 45.3042ZM12.5845 52.4952C12.7261 52.4952 12.8664 52.4674 12.9973 52.4132C13.1281 52.359 13.2471 52.2795 13.3472 52.1793C13.4474 52.0792 13.5268 51.9603 13.581 51.8294C13.6352 51.6985 13.6631 51.5583 13.6631 51.4166V49.9784C13.6631 49.3825 13.1801 48.8997 12.5845 48.8997C11.9889 48.8997 11.5059 49.3825 11.5059 49.9784V51.4166C11.5059 51.7027 11.6195 51.977 11.8218 52.1793C12.0241 52.3816 12.2984 52.4952 12.5845 52.4952ZM16.8991 52.4952C17.0408 52.4952 17.181 52.4674 17.3119 52.4132C17.4428 52.359 17.5617 52.2795 17.6618 52.1793C17.762 52.0792 17.8415 51.9603 17.8957 51.8294C17.9499 51.6985 17.9778 51.5583 17.9777 51.4166V49.9784C17.9777 49.3825 17.4947 48.8997 16.8991 48.8997C16.3035 48.8997 15.8205 49.3825 15.8205 49.9784V51.4166C15.8205 51.5583 15.8484 51.6985 15.9026 51.8294C15.9568 51.9603 16.0362 52.0792 16.1364 52.1793C16.2365 52.2795 16.3554 52.359 16.4863 52.4132C16.6172 52.4674 16.7575 52.4952 16.8991 52.4952ZM21.2137 52.4952C21.3554 52.4952 21.4957 52.4674 21.6265 52.4132C21.7574 52.359 21.8763 52.2795 21.9765 52.1793C22.0766 52.0792 22.1561 51.9603 22.2103 51.8294C22.2645 51.6985 22.2924 51.5583 22.2924 51.4166V49.9784C22.2924 49.3825 21.8094 48.8997 21.2137 48.8997C20.6181 48.8997 20.1351 49.3825 20.1351 49.9784V51.4166C20.1351 51.5583 20.163 51.6985 20.2172 51.8294C20.2714 51.9603 20.3508 52.0792 20.451 52.1793C20.5512 52.2795 20.6701 52.359 20.8009 52.4132C20.9318 52.4674 21.0721 52.4952 21.2137 52.4952ZM51.416 35.2369C51.5576 35.2369 51.6979 35.209 51.8288 35.1548C51.9596 35.1006 52.0786 35.0211 52.1787 34.921C52.2789 34.8208 52.3583 34.7019 52.4125 34.571C52.4667 34.4402 52.4946 34.2999 52.4946 34.1582V32.72C52.4946 32.1241 52.0116 31.6414 51.416 31.6414C50.8204 31.6414 50.3374 32.1241 50.3374 32.72V34.1582C50.3374 34.4443 50.451 34.7187 50.6533 34.9209C50.8556 35.1232 51.1299 35.2369 51.416 35.2369ZM51.416 42.4279C51.5576 42.4279 51.6979 42.4 51.8288 42.3458C51.9596 42.2916 52.0786 42.2121 52.1787 42.112C52.2789 42.0118 52.3583 41.8929 52.4125 41.762C52.4667 41.6312 52.4946 41.4909 52.4946 41.3492V39.911C52.4946 39.3151 52.0116 38.8324 51.416 38.8324C50.8204 38.8324 50.3374 39.3151 50.3374 39.911V41.3492C50.3374 41.6353 50.451 41.9097 50.6533 42.1119C50.8556 42.3142 51.1299 42.4279 51.416 42.4279ZM51.416 49.6189C51.5576 49.6189 51.6979 49.591 51.8288 49.5368C51.9596 49.4826 52.0786 49.4031 52.1787 49.303C52.2789 49.2028 52.3583 49.0839 52.4125 48.953C52.4667 48.8222 52.4946 48.6819 52.4946 48.5402V47.102C52.4946 46.5061 52.0116 46.0234 51.416 46.0234C50.8204 46.0234 50.3374 46.5061 50.3374 47.102V48.5402C50.3374 48.6819 50.3653 48.8221 50.4195 48.953C50.4737 49.0839 50.5531 49.2028 50.6533 49.3029C50.7534 49.4031 50.8723 49.4825 51.0032 49.5368C51.1341 49.591 51.2743 49.6189 51.416 49.6189ZM51.416 56.8099C51.5576 56.8099 51.6979 56.782 51.8288 56.7278C51.9596 56.6736 52.0786 56.5941 52.1787 56.494C52.2789 56.3938 52.3583 56.2749 52.4125 56.144C52.4667 56.0132 52.4946 55.8729 52.4946 55.7312V54.293C52.4946 53.6971 52.0116 53.2144 51.416 53.2144C50.8204 53.2144 50.3374 53.6971 50.3374 54.293V55.7312C50.3374 56.0173 50.451 56.2917 50.6533 56.4939C50.8556 56.6962 51.1299 56.8099 51.416 56.8099ZM32.3597 16.8997C32.3597 16.6137 32.2461 16.3393 32.0438 16.137C31.8415 15.9347 31.5672 15.8211 31.2811 15.8211H22.6519C22.5102 15.8211 22.3699 15.849 22.2391 15.9032C22.1082 15.9574 21.9893 16.0368 21.8891 16.137C21.789 16.2372 21.7095 16.3561 21.6553 16.4869C21.6011 16.6178 21.5732 16.7581 21.5732 16.8997C21.5732 17.1858 21.6869 17.4602 21.8892 17.6624C22.0914 17.8647 22.3658 17.9784 22.6519 17.9784H31.2811C31.4228 17.9784 31.563 17.9505 31.6939 17.8963C31.8248 17.8421 31.9437 17.7626 32.0438 17.6625C32.144 17.5623 32.2235 17.4434 32.2777 17.3125C32.3319 17.1817 32.3597 17.0414 32.3597 16.8997Z" fill="black"/>
</svg>
