<svg width="48" height="48" viewBox="0 0 48 48" fill="none" xmlns="http://www.w3.org/2000/svg">
<path d="M7.63965 43.085V46.5005C7.63965 47.3284 8.31167 48.0004 9.13963 48.0004H13.9231C14.7511 48.0004 15.4231 47.3284 15.4231 46.5005V43.085H7.63965ZM32.5771 43.085V46.5005C32.5771 47.3284 33.2491 48.0004 34.0771 48.0004H38.8606C39.6886 48.0004 40.3606 47.3284 40.3606 46.5005V43.085H32.5771Z" fill="#454545"/>
<path d="M46.6527 12.4159C46.5504 12.416 46.4491 12.396 46.3547 12.3569C46.2602 12.3178 46.1743 12.2604 46.102 12.1881C46.0297 12.1158 45.9724 12.03 45.9333 11.9355C45.8942 11.841 45.8741 11.7397 45.8742 11.6375C45.8742 11.087 45.4257 10.6399 44.8767 10.6399H44.0216C43.5911 10.6399 43.2432 10.2919 43.2432 9.86147C43.2432 9.43105 43.5912 9.08301 44.0216 9.08301H44.8767C46.2852 9.08301 47.4311 10.229 47.4311 11.636C47.4312 12.0664 47.0832 12.4159 46.6527 12.4159Z" fill="#CACACA"/>
<path d="M44.8291 11.499H47.9521V19.932H44.8291V11.499Z" fill="#6F6F6F"/>
<path d="M1.34682 12.4159C1.77734 12.4159 2.12529 12.0679 2.12529 11.6375C2.12529 11.087 2.57234 10.6399 3.12283 10.6399H3.97786C4.40838 10.6399 4.75633 10.2919 4.75633 9.86147C4.75633 9.43105 4.40828 9.08301 3.97786 9.08301H3.12283C1.7143 9.08301 0.568359 10.229 0.568359 11.636C0.568263 12.0664 0.916309 12.4159 1.34682 12.4159Z" fill="#CACACA"/>
<path d="M0.0478516 11.499H3.17089V19.932H0.0478516V11.499Z" fill="#6F6F6F"/>
<path d="M41.0579 0H6.94186C5.28584 0 3.94189 1.34249 3.94189 2.99997V29.982H44.0579V2.99997C44.0579 1.34249 42.7154 0 41.0579 0Z" fill="#86DAF1"/>
<path d="M3.94189 39.8174V40.6423C3.94189 42.2984 5.28594 43.6423 6.94186 43.6423H41.0579C42.7154 43.6423 44.0579 42.2983 44.0579 40.6423V39.8174H3.94189Z" fill="#ED6262"/>
<path d="M3.94189 35.5049H44.0579V39.8114H3.94189V35.5049Z" fill="#CD484B"/>
<path d="M3.94189 29.0186H44.0579V35.5106H3.94189V29.0186Z" fill="#F3F3F3"/>
<path d="M3.94189 8.39844H44.0579V27.1439H3.94189V8.39844Z" fill="#6F6F6F"/>
<path d="M22.9287 8.39844H25.0707V27.1439H22.9287V8.39844Z" fill="#454545"/>
<path d="M3.94189 27.1436H44.0579V29.0186H3.94189V27.1436Z" fill="#86DAF1"/>
<path d="M8.26481 38.8363C8.91265 38.8363 9.43783 38.3111 9.43783 37.6632C9.43783 37.0154 8.91265 36.4902 8.26481 36.4902C7.61697 36.4902 7.0918 37.0154 7.0918 37.6632C7.0918 38.3111 7.61697 38.8363 8.26481 38.8363Z" fill="#F3F3F3"/>
<path d="M11.2502 38.8363C11.898 38.8363 12.4232 38.3111 12.4232 37.6632C12.4232 37.0154 11.898 36.4902 11.2502 36.4902C10.6023 36.4902 10.0771 37.0154 10.0771 37.6632C10.0771 38.3111 10.6023 38.8363 11.2502 38.8363Z" fill="#FFE21F"/>
<path d="M36.7497 38.8363C37.3975 38.8363 37.9227 38.3111 37.9227 37.6632C37.9227 37.0154 37.3975 36.4902 36.7497 36.4902C36.1018 36.4902 35.5767 37.0154 35.5767 37.6632C35.5767 38.3111 36.1018 38.8363 36.7497 38.8363Z" fill="#FFE21F"/>
<path d="M39.7316 38.8363C40.3794 38.8363 40.9046 38.3111 40.9046 37.6632C40.9046 37.0154 40.3794 36.4902 39.7316 36.4902C39.0838 36.4902 38.5586 37.0154 38.5586 37.6632C38.5586 38.3111 39.0838 38.8363 39.7316 38.8363Z" fill="#F3F3F3"/>
<path d="M39.7591 30.6348H36.8836C35.9836 30.6348 35.2531 31.3653 35.2531 32.2653C35.2531 33.1653 35.9821 33.8942 36.8836 33.8942H39.7591C40.6591 33.8942 41.3896 33.1653 41.3896 32.2653C41.3881 31.3653 40.6591 30.6348 39.7591 30.6348ZM10.8781 30.6348H8.00257C7.10258 30.6348 6.37207 31.3653 6.37207 32.2653C6.37207 33.1653 7.10104 33.8942 8.00257 33.8942H10.8781C11.7781 33.8942 12.5071 33.1653 12.5071 32.2653C12.5086 31.3653 11.7781 30.6348 10.8781 30.6348Z" fill="#FFBD49"/>
<path d="M35.4314 1.30957H11.7239C10.128 1.30957 8.83496 2.60256 8.83496 4.19855C8.83496 5.79454 10.128 7.08908 11.7239 7.08908H35.4314C37.0274 7.08908 38.3204 5.79609 38.3204 4.19855C38.3205 2.60401 37.0275 1.30957 35.4314 1.30957Z" fill="#454545"/>
<path opacity="0.1" d="M44.0579 8.39844H3.94189V17.4825C3.94189 18.3389 4.59738 19.122 5.47185 19.1579C6.38238 19.2134 7.14731 18.4844 7.14731 17.5739V14.6354C7.14731 13.8704 7.78481 13.2884 8.56782 13.3065H8.60379C9.36881 13.2885 10.0243 13.8705 10.0243 14.6354V17.8829C10.0243 18.7574 10.6618 19.5224 11.5168 19.5764C12.4304 19.6124 13.1773 18.906 13.2014 18.0164V13.6784C13.2014 12.7664 13.9589 12.0389 14.8814 12.0794C15.7424 12.1305 16.3874 12.8999 16.3874 13.7594V17.9024C16.4129 18.7379 17.0504 19.4759 17.8904 19.5299C18.8189 19.5659 19.5658 18.8385 19.5658 17.928L19.5838 14.3985C19.5838 13.4879 20.3308 12.759 21.2593 12.7949C22.1157 12.849 22.7712 13.6139 22.7712 14.4885V18.309C22.7892 19.1655 23.5002 19.857 24.3552 19.857C25.2478 19.857 25.9572 19.128 25.9572 18.255V13.704C25.9572 13.011 26.4717 12.3751 27.4137 12.3751C28.1427 12.321 28.7607 12.9211 28.7607 13.6321V18.0855C28.7607 18.96 29.3982 19.7236 30.2547 19.7791C31.1832 19.815 31.9483 19.0876 31.9483 18.1771V14.8561C31.9483 14.1601 32.4672 13.5271 33.3867 13.5271C34.1698 13.5271 34.8073 14.1646 34.8073 14.9296V17.4856C34.8073 18.3421 35.4628 19.1251 36.3192 19.1611C37.2298 19.2166 38.0128 18.4876 38.0128 17.5771V14.6386C38.0128 13.8736 38.6503 13.2916 39.4153 13.3097H39.4693C40.2343 13.2917 40.8718 13.8737 40.8718 14.6386V17.8861C40.8718 18.7606 41.5273 19.5256 42.3838 19.5796C43.3123 19.6156 44.0592 18.8866 44.0592 17.9761V8.39844H44.0579Z" fill="white"/>
</svg>
