<svg width="265" height="201" viewBox="0 0 265 201" fill="none" xmlns="http://www.w3.org/2000/svg">
<path d="M264 176C264.276 176 264.5 175.776 264.5 175.5C264.5 175.224 264.276 175 264 175V176ZM0 176H264V175H0V176Z" fill="#D6D6E6"/>
<path d="M19.7891 199.5V198.68L22.4766 195.848C22.7708 195.533 23.0143 195.257 23.207 195.02C23.3997 194.783 23.543 194.557 23.6367 194.344C23.7305 194.13 23.7773 193.905 23.7773 193.668C23.7773 193.397 23.7135 193.164 23.5859 192.969C23.4583 192.771 23.2839 192.618 23.0625 192.512C22.8438 192.402 22.5951 192.348 22.3164 192.348C22.0247 192.348 21.7695 192.408 21.5508 192.527C21.3346 192.647 21.1667 192.816 21.0469 193.035C20.9297 193.251 20.8711 193.507 20.8711 193.801H19.793C19.793 193.319 19.9036 192.897 20.125 192.535C20.3464 192.173 20.6497 191.892 21.0352 191.691C21.4206 191.491 21.8568 191.391 22.3438 191.391C22.8359 191.391 23.2708 191.491 23.6484 191.691C24.026 191.889 24.3203 192.159 24.5313 192.5C24.7448 192.839 24.8516 193.22 24.8516 193.645C24.8516 193.941 24.7969 194.232 24.6875 194.516C24.5807 194.797 24.3919 195.111 24.1211 195.457C23.8529 195.803 23.4792 196.223 23 196.715L21.3477 198.461V198.52H24.9844V199.5H19.7891ZM29.2295 199.625C28.6227 199.625 28.1045 199.464 27.6748 199.141C27.2451 198.815 26.9157 198.345 26.6865 197.73C26.46 197.116 26.3467 196.374 26.3467 195.504C26.3467 194.637 26.4613 193.897 26.6904 193.285C26.9196 192.671 27.249 192.202 27.6787 191.879C28.111 191.553 28.6279 191.391 29.2295 191.391C29.8337 191.391 30.3506 191.553 30.7803 191.879C31.2126 192.202 31.5433 192.671 31.7725 193.285C32.0016 193.897 32.1162 194.637 32.1162 195.504C32.1162 196.374 32.0016 197.117 31.7725 197.734C31.5459 198.349 31.2178 198.818 30.7881 199.141C30.3584 199.464 29.8389 199.625 29.2295 199.625ZM29.2295 198.641C29.7842 198.641 30.2178 198.371 30.5303 197.832C30.8428 197.293 30.999 196.517 30.999 195.504C30.999 194.829 30.9274 194.259 30.7842 193.793C30.6436 193.324 30.4404 192.969 30.1748 192.727C29.9118 192.482 29.5967 192.359 29.2295 192.359C28.68 192.359 28.249 192.632 27.9365 193.176C27.624 193.717 27.4665 194.493 27.4639 195.504C27.4639 196.178 27.5342 196.749 27.6748 197.215C27.8154 197.681 28.0173 198.035 28.2803 198.277C28.5459 198.52 28.8623 198.641 29.2295 198.641ZM33.5391 199.5V198.68L36.2266 195.848C36.5208 195.533 36.7643 195.257 36.957 195.02C37.1497 194.783 37.293 194.557 37.3867 194.344C37.4805 194.13 37.5273 193.905 37.5273 193.668C37.5273 193.397 37.4635 193.164 37.3359 192.969C37.2083 192.771 37.0339 192.618 36.8125 192.512C36.5938 192.402 36.3451 192.348 36.0664 192.348C35.7747 192.348 35.5195 192.408 35.3008 192.527C35.0846 192.647 34.9167 192.816 34.7969 193.035C34.6797 193.251 34.6211 193.507 34.6211 193.801H33.543C33.543 193.319 33.6536 192.897 33.875 192.535C34.0964 192.173 34.3997 191.892 34.7852 191.691C35.1706 191.491 35.6068 191.391 36.0938 191.391C36.5859 191.391 37.0208 191.491 37.3984 191.691C37.776 191.889 38.0703 192.159 38.2813 192.5C38.4948 192.839 38.6016 193.22 38.6016 193.645C38.6016 193.941 38.5469 194.232 38.4375 194.516C38.3307 194.797 38.1419 195.111 37.8711 195.457C37.6029 195.803 37.2292 196.223 36.75 196.715L35.0977 198.461V198.52H38.7344V199.5H33.5391ZM43.2178 191.5V199.5H42.0811V192.652H42.0342L40.1084 193.914V192.812L42.1045 191.5H43.2178Z" fill="#5D626D"/>
<rect x="16" y="55" width="32" height="120" fill="#ECEFF8"/>
<path d="M85.7891 199.5V198.68L88.4766 195.848C88.7708 195.533 89.0143 195.257 89.207 195.02C89.3997 194.783 89.543 194.557 89.6367 194.344C89.7305 194.13 89.7773 193.905 89.7773 193.668C89.7773 193.397 89.7135 193.164 89.5859 192.969C89.4583 192.771 89.2839 192.618 89.0625 192.512C88.8438 192.402 88.5951 192.348 88.3164 192.348C88.0247 192.348 87.7695 192.408 87.5508 192.527C87.3346 192.647 87.1667 192.816 87.0469 193.035C86.9297 193.251 86.8711 193.507 86.8711 193.801H85.793C85.793 193.319 85.9036 192.897 86.125 192.535C86.3464 192.173 86.6497 191.892 87.0352 191.691C87.4206 191.491 87.8568 191.391 88.3438 191.391C88.8359 191.391 89.2708 191.491 89.6484 191.691C90.026 191.889 90.3203 192.159 90.5313 192.5C90.7448 192.839 90.8516 193.22 90.8516 193.645C90.8516 193.941 90.7969 194.232 90.6875 194.516C90.5807 194.797 90.3919 195.111 90.1211 195.457C89.8529 195.803 89.4792 196.223 89 196.715L87.3477 198.461V198.52H90.9844V199.5H85.7891ZM95.2295 199.625C94.6227 199.625 94.1045 199.464 93.6748 199.141C93.2451 198.815 92.9157 198.345 92.6865 197.73C92.46 197.116 92.3467 196.374 92.3467 195.504C92.3467 194.637 92.4613 193.897 92.6904 193.285C92.9196 192.671 93.249 192.202 93.6787 191.879C94.111 191.553 94.6279 191.391 95.2295 191.391C95.8337 191.391 96.3506 191.553 96.7803 191.879C97.2126 192.202 97.5433 192.671 97.7725 193.285C98.0016 193.897 98.1162 194.637 98.1162 195.504C98.1162 196.374 98.0016 197.117 97.7725 197.734C97.5459 198.349 97.2178 198.818 96.7881 199.141C96.3584 199.464 95.8389 199.625 95.2295 199.625ZM95.2295 198.641C95.7842 198.641 96.2178 198.371 96.5303 197.832C96.8428 197.293 96.999 196.517 96.999 195.504C96.999 194.829 96.9274 194.259 96.7842 193.793C96.6436 193.324 96.4404 192.969 96.1748 192.727C95.9118 192.482 95.5967 192.359 95.2295 192.359C94.68 192.359 94.249 192.632 93.9365 193.176C93.624 193.717 93.4665 194.493 93.4639 195.504C93.4639 196.178 93.5342 196.749 93.6748 197.215C93.8154 197.681 94.0173 198.035 94.2803 198.277C94.5459 198.52 94.8623 198.641 95.2295 198.641ZM99.5391 199.5V198.68L102.227 195.848C102.521 195.533 102.764 195.257 102.957 195.02C103.15 194.783 103.293 194.557 103.387 194.344C103.48 194.13 103.527 193.905 103.527 193.668C103.527 193.397 103.464 193.164 103.336 192.969C103.208 192.771 103.034 192.618 102.813 192.512C102.594 192.402 102.345 192.348 102.066 192.348C101.775 192.348 101.52 192.408 101.301 192.527C101.085 192.647 100.917 192.816 100.797 193.035C100.68 193.251 100.621 193.507 100.621 193.801H99.543C99.543 193.319 99.6536 192.897 99.875 192.535C100.096 192.173 100.4 191.892 100.785 191.691C101.171 191.491 101.607 191.391 102.094 191.391C102.586 191.391 103.021 191.491 103.398 191.691C103.776 191.889 104.07 192.159 104.281 192.5C104.495 192.839 104.602 193.22 104.602 193.645C104.602 193.941 104.547 194.232 104.438 194.516C104.331 194.797 104.142 195.111 103.871 195.457C103.603 195.803 103.229 196.223 102.75 196.715L101.098 198.461V198.52H104.734V199.5H99.5391ZM106.253 199.5V198.68L108.94 195.848C109.235 195.533 109.478 195.257 109.671 195.02C109.864 194.783 110.007 194.557 110.101 194.344C110.194 194.13 110.241 193.905 110.241 193.668C110.241 193.397 110.177 193.164 110.05 192.969C109.922 192.771 109.748 192.618 109.526 192.512C109.308 192.402 109.059 192.348 108.78 192.348C108.489 192.348 108.233 192.408 108.015 192.527C107.799 192.647 107.631 192.816 107.511 193.035C107.394 193.251 107.335 193.507 107.335 193.801H106.257C106.257 193.319 106.368 192.897 106.589 192.535C106.81 192.173 107.114 191.892 107.499 191.691C107.884 191.491 108.321 191.391 108.808 191.391C109.3 191.391 109.735 191.491 110.112 191.691C110.49 191.889 110.784 192.159 110.995 192.5C111.209 192.839 111.315 193.22 111.315 193.645C111.315 193.941 111.261 194.232 111.151 194.516C111.045 194.797 110.856 195.111 110.585 195.457C110.317 195.803 109.943 196.223 109.464 196.715L107.812 198.461V198.52H111.448V199.5H106.253Z" fill="#5D626D"/>
<rect x="83" y="112" width="32" height="63" fill="#ECEFF8"/>
<path d="M152.789 199.5V198.68L155.477 195.848C155.771 195.533 156.014 195.257 156.207 195.02C156.4 194.783 156.543 194.557 156.637 194.344C156.73 194.13 156.777 193.905 156.777 193.668C156.777 193.397 156.714 193.164 156.586 192.969C156.458 192.771 156.284 192.618 156.063 192.512C155.844 192.402 155.595 192.348 155.316 192.348C155.025 192.348 154.77 192.408 154.551 192.527C154.335 192.647 154.167 192.816 154.047 193.035C153.93 193.251 153.871 193.507 153.871 193.801H152.793C152.793 193.319 152.904 192.897 153.125 192.535C153.346 192.173 153.65 191.892 154.035 191.691C154.421 191.491 154.857 191.391 155.344 191.391C155.836 191.391 156.271 191.491 156.648 191.691C157.026 191.889 157.32 192.159 157.531 192.5C157.745 192.839 157.852 193.22 157.852 193.645C157.852 193.941 157.797 194.232 157.688 194.516C157.581 194.797 157.392 195.111 157.121 195.457C156.853 195.803 156.479 196.223 156 196.715L154.348 198.461V198.52H157.984V199.5H152.789ZM162.229 199.625C161.623 199.625 161.104 199.464 160.675 199.141C160.245 198.815 159.916 198.345 159.687 197.73C159.46 197.116 159.347 196.374 159.347 195.504C159.347 194.637 159.461 193.897 159.69 193.285C159.92 192.671 160.249 192.202 160.679 191.879C161.111 191.553 161.628 191.391 162.229 191.391C162.834 191.391 163.351 191.553 163.78 191.879C164.213 192.202 164.543 192.671 164.772 193.285C165.002 193.897 165.116 194.637 165.116 195.504C165.116 196.374 165.002 197.117 164.772 197.734C164.546 198.349 164.218 198.818 163.788 199.141C163.358 199.464 162.839 199.625 162.229 199.625ZM162.229 198.641C162.784 198.641 163.218 198.371 163.53 197.832C163.843 197.293 163.999 196.517 163.999 195.504C163.999 194.829 163.927 194.259 163.784 193.793C163.644 193.324 163.44 192.969 163.175 192.727C162.912 192.482 162.597 192.359 162.229 192.359C161.68 192.359 161.249 192.632 160.937 193.176C160.624 193.717 160.466 194.493 160.464 195.504C160.464 196.178 160.534 196.749 160.675 197.215C160.815 197.681 161.017 198.035 161.28 198.277C161.546 198.52 161.862 198.641 162.229 198.641ZM166.539 199.5V198.68L169.227 195.848C169.521 195.533 169.764 195.257 169.957 195.02C170.15 194.783 170.293 194.557 170.387 194.344C170.48 194.13 170.527 193.905 170.527 193.668C170.527 193.397 170.464 193.164 170.336 192.969C170.208 192.771 170.034 192.618 169.813 192.512C169.594 192.402 169.345 192.348 169.066 192.348C168.775 192.348 168.52 192.408 168.301 192.527C168.085 192.647 167.917 192.816 167.797 193.035C167.68 193.251 167.621 193.507 167.621 193.801H166.543C166.543 193.319 166.654 192.897 166.875 192.535C167.096 192.173 167.4 191.892 167.785 191.691C168.171 191.491 168.607 191.391 169.094 191.391C169.586 191.391 170.021 191.491 170.398 191.691C170.776 191.889 171.07 192.159 171.281 192.5C171.495 192.839 171.602 193.22 171.602 193.645C171.602 193.941 171.547 194.232 171.438 194.516C171.331 194.797 171.142 195.111 170.871 195.457C170.603 195.803 170.229 196.223 169.75 196.715L168.098 198.461V198.52H171.734V199.5H166.539ZM176.011 199.609C175.479 199.609 175.007 199.518 174.593 199.336C174.179 199.154 173.851 198.9 173.608 198.574C173.369 198.249 173.24 197.871 173.222 197.441H174.37C174.388 197.684 174.47 197.893 174.616 198.07C174.765 198.247 174.959 198.385 175.198 198.484C175.44 198.581 175.709 198.629 176.003 198.629C176.326 198.629 176.612 198.573 176.862 198.461C177.112 198.346 177.308 198.189 177.448 197.988C177.591 197.785 177.663 197.551 177.663 197.285C177.663 197.009 177.593 196.766 177.452 196.555C177.314 196.344 177.111 196.178 176.843 196.059C176.577 195.939 176.253 195.879 175.87 195.879H175.206V194.93H175.87C176.172 194.93 176.438 194.876 176.667 194.77C176.899 194.66 177.08 194.508 177.21 194.312C177.343 194.115 177.409 193.883 177.409 193.617C177.409 193.362 177.352 193.141 177.237 192.953C177.123 192.763 176.961 192.615 176.753 192.508C176.547 192.401 176.305 192.348 176.026 192.348C175.763 192.348 175.516 192.396 175.284 192.492C175.052 192.589 174.864 192.727 174.718 192.906C174.575 193.086 174.496 193.302 174.483 193.555H173.39C173.403 193.125 173.53 192.749 173.772 192.426C174.015 192.1 174.332 191.846 174.726 191.664C175.121 191.482 175.56 191.391 176.042 191.391C176.55 191.391 176.987 191.491 177.354 191.691C177.724 191.889 178.008 192.154 178.206 192.484C178.407 192.812 178.506 193.171 178.503 193.559C178.506 194.007 178.383 194.388 178.136 194.703C177.891 195.016 177.562 195.228 177.147 195.34V195.402C177.671 195.486 178.077 195.699 178.366 196.043C178.658 196.384 178.802 196.807 178.8 197.312C178.802 197.75 178.683 198.143 178.44 198.492C178.198 198.839 177.868 199.112 177.448 199.312C177.029 199.51 176.55 199.609 176.011 199.609Z" fill="#5D626D"/>
<rect x="150" y="75" width="32" height="100" fill="#ECEFF8"/>
<path d="M219.789 199.5V198.68L222.477 195.848C222.771 195.533 223.014 195.257 223.207 195.02C223.4 194.783 223.543 194.557 223.637 194.344C223.73 194.13 223.777 193.905 223.777 193.668C223.777 193.397 223.714 193.164 223.586 192.969C223.458 192.771 223.284 192.618 223.063 192.512C222.844 192.402 222.595 192.348 222.316 192.348C222.025 192.348 221.77 192.408 221.551 192.527C221.335 192.647 221.167 192.816 221.047 193.035C220.93 193.251 220.871 193.507 220.871 193.801H219.793C219.793 193.319 219.904 192.897 220.125 192.535C220.346 192.173 220.65 191.892 221.035 191.691C221.421 191.491 221.857 191.391 222.344 191.391C222.836 191.391 223.271 191.491 223.648 191.691C224.026 191.889 224.32 192.159 224.531 192.5C224.745 192.839 224.852 193.22 224.852 193.645C224.852 193.941 224.797 194.232 224.688 194.516C224.581 194.797 224.392 195.111 224.121 195.457C223.853 195.803 223.479 196.223 223 196.715L221.348 198.461V198.52H224.984V199.5H219.789ZM229.229 199.625C228.623 199.625 228.104 199.464 227.675 199.141C227.245 198.815 226.916 198.345 226.687 197.73C226.46 197.116 226.347 196.374 226.347 195.504C226.347 194.637 226.461 193.897 226.69 193.285C226.92 192.671 227.249 192.202 227.679 191.879C228.111 191.553 228.628 191.391 229.229 191.391C229.834 191.391 230.351 191.553 230.78 191.879C231.213 192.202 231.543 192.671 231.772 193.285C232.002 193.897 232.116 194.637 232.116 195.504C232.116 196.374 232.002 197.117 231.772 197.734C231.546 198.349 231.218 198.818 230.788 199.141C230.358 199.464 229.839 199.625 229.229 199.625ZM229.229 198.641C229.784 198.641 230.218 198.371 230.53 197.832C230.843 197.293 230.999 196.517 230.999 195.504C230.999 194.829 230.927 194.259 230.784 193.793C230.644 193.324 230.44 192.969 230.175 192.727C229.912 192.482 229.597 192.359 229.229 192.359C228.68 192.359 228.249 192.632 227.937 193.176C227.624 193.717 227.466 194.493 227.464 195.504C227.464 196.178 227.534 196.749 227.675 197.215C227.815 197.681 228.017 198.035 228.28 198.277C228.546 198.52 228.862 198.641 229.229 198.641ZM233.539 199.5V198.68L236.227 195.848C236.521 195.533 236.764 195.257 236.957 195.02C237.15 194.783 237.293 194.557 237.387 194.344C237.48 194.13 237.527 193.905 237.527 193.668C237.527 193.397 237.464 193.164 237.336 192.969C237.208 192.771 237.034 192.618 236.813 192.512C236.594 192.402 236.345 192.348 236.066 192.348C235.775 192.348 235.52 192.408 235.301 192.527C235.085 192.647 234.917 192.816 234.797 193.035C234.68 193.251 234.621 193.507 234.621 193.801H233.543C233.543 193.319 233.654 192.897 233.875 192.535C234.096 192.173 234.4 191.892 234.785 191.691C235.171 191.491 235.607 191.391 236.094 191.391C236.586 191.391 237.021 191.491 237.398 191.691C237.776 191.889 238.07 192.159 238.281 192.5C238.495 192.839 238.602 193.22 238.602 193.645C238.602 193.941 238.547 194.232 238.438 194.516C238.331 194.797 238.142 195.111 237.871 195.457C237.603 195.803 237.229 196.223 236.75 196.715L235.098 198.461V198.52H238.734V199.5H233.539ZM239.905 197.914V196.992L243.382 191.5H244.093V192.875H243.632L241.104 196.879V196.941H245.843V197.914H239.905ZM243.69 199.5V197.633L243.694 197.211V191.5H244.772V199.5H243.69Z" fill="#5D626D"/>
<rect x="217" y="21" width="32" height="154" fill="#ECEFF8"/>
<rect width="32" height="26" transform="translate(150 149)" fill="#F7AAED"/>
<mask id="mask0_331_22702" style="mask-type:alpha" maskUnits="userSpaceOnUse" x="150" y="149" width="32" height="26">
<rect x="150" y="149" width="32" height="26" fill="#D9D9D9"/>
</mask>
<g mask="url(#mask0_331_22702)">
<path d="M150.173 32.7109L150.173 289.9" stroke="#EE89DF" stroke-width="1.04266"/>
<path d="M152.258 32.7109L152.258 289.9" stroke="#EE89DF" stroke-width="1.04266"/>
<path d="M154.343 32.7109L154.343 289.9" stroke="#EE89DF" stroke-width="1.04266"/>
<path d="M156.428 32.7109L156.428 289.9" stroke="#EE89DF" stroke-width="1.04266"/>
<path d="M158.514 32.7109L158.514 289.9" stroke="#EE89DF" stroke-width="1.04266"/>
<path d="M160.599 32.7109L160.599 289.9" stroke="#EE89DF" stroke-width="1.04266"/>
<path d="M162.684 32.7109L162.684 289.9" stroke="#EE89DF" stroke-width="1.04266"/>
<path d="M164.77 32.7109L164.77 289.9" stroke="#EE89DF" stroke-width="1.04266"/>
<path d="M166.855 32.7109L166.855 289.9" stroke="#EE89DF" stroke-width="1.04266"/>
<path d="M168.94 32.7109L168.94 289.9" stroke="#EE89DF" stroke-width="1.04266"/>
<path d="M171.026 32.7109L171.026 289.9" stroke="#EE89DF" stroke-width="1.04266"/>
<path d="M173.111 32.7109L173.111 289.9" stroke="#EE89DF" stroke-width="1.04266"/>
<path d="M175.196 32.7109L175.196 289.9" stroke="#EE89DF" stroke-width="1.04266"/>
<path d="M177.281 32.7109L177.281 289.9" stroke="#EE89DF" stroke-width="1.04266"/>
<path d="M179.367 32.7109L179.367 289.9" stroke="#EE89DF" stroke-width="1.04266"/>
<path d="M181.452 32.7109L181.452 289.9" stroke="#EE89DF" stroke-width="1.04266"/>
</g>
<rect width="32" height="32" transform="translate(150 117)" fill="#FBDE9D"/>
<mask id="mask1_331_22702" style="mask-type:alpha" maskUnits="userSpaceOnUse" x="150" y="117" width="32" height="32">
<rect x="150" y="117" width="32" height="32" fill="#D9D9D9"/>
</mask>
<g mask="url(#mask1_331_22702)">
<path d="M150.173 3.71094L150.173 260.9" stroke="#F6CF7D" stroke-width="1.04266"/>
<path d="M152.258 3.71094L152.258 260.9" stroke="#F6CF7D" stroke-width="1.04266"/>
<path d="M154.343 3.71094L154.343 260.9" stroke="#F6CF7D" stroke-width="1.04266"/>
<path d="M156.428 3.71094L156.428 260.9" stroke="#F6CF7D" stroke-width="1.04266"/>
<path d="M158.514 3.71094L158.514 260.9" stroke="#F6CF7D" stroke-width="1.04266"/>
<path d="M160.599 3.71094L160.599 260.9" stroke="#F6CF7D" stroke-width="1.04266"/>
<path d="M162.684 3.71094L162.684 260.9" stroke="#F6CF7D" stroke-width="1.04266"/>
<path d="M164.77 3.71094L164.77 260.9" stroke="#F6CF7D" stroke-width="1.04266"/>
<path d="M166.855 3.71094L166.855 260.9" stroke="#F6CF7D" stroke-width="1.04266"/>
<path d="M168.94 3.71094L168.94 260.9" stroke="#F6CF7D" stroke-width="1.04266"/>
<path d="M171.026 3.71094L171.026 260.9" stroke="#F6CF7D" stroke-width="1.04266"/>
<path d="M173.111 3.71094L173.111 260.9" stroke="#F6CF7D" stroke-width="1.04266"/>
<path d="M175.196 3.71094L175.196 260.9" stroke="#F6CF7D" stroke-width="1.04266"/>
<path d="M177.281 3.71094L177.281 260.9" stroke="#F6CF7D" stroke-width="1.04266"/>
<path d="M179.367 3.71094L179.367 260.9" stroke="#F6CF7D" stroke-width="1.04266"/>
<path d="M181.452 3.71094L181.452 260.9" stroke="#F6CF7D" stroke-width="1.04266"/>
</g>
<rect width="32" height="42" transform="translate(150 75)" fill="#B6B0FB"/>
<mask id="mask2_331_22702" style="mask-type:alpha" maskUnits="userSpaceOnUse" x="150" y="75" width="32" height="42">
<rect x="150" y="75" width="32" height="42" fill="#D9D9D9"/>
</mask>
<g mask="url(#mask2_331_22702)">
<path d="M150.173 -33.2891L150.173 223.9" stroke="#978FED" stroke-width="1.04266"/>
<path d="M152.258 -33.2891L152.258 223.9" stroke="#978FED" stroke-width="1.04266"/>
<path d="M154.343 -33.2891L154.343 223.9" stroke="#978FED" stroke-width="1.04266"/>
<path d="M156.428 -33.2891L156.428 223.9" stroke="#978FED" stroke-width="1.04266"/>
<path d="M158.514 -33.2891L158.514 223.9" stroke="#978FED" stroke-width="1.04266"/>
<path d="M160.599 -33.2891L160.599 223.9" stroke="#978FED" stroke-width="1.04266"/>
<path d="M162.684 -33.2891L162.684 223.9" stroke="#978FED" stroke-width="1.04266"/>
<path d="M164.77 -33.2891L164.77 223.9" stroke="#978FED" stroke-width="1.04266"/>
<path d="M166.855 -33.2891L166.855 223.9" stroke="#978FED" stroke-width="1.04266"/>
<path d="M168.94 -33.2891L168.94 223.9" stroke="#978FED" stroke-width="1.04266"/>
<path d="M171.026 -33.2891L171.026 223.9" stroke="#978FED" stroke-width="1.04266"/>
<path d="M173.111 -33.2891L173.111 223.9" stroke="#978FED" stroke-width="1.04266"/>
<path d="M175.196 -33.2891L175.196 223.9" stroke="#978FED" stroke-width="1.04266"/>
<path d="M177.281 -33.2891L177.281 223.9" stroke="#978FED" stroke-width="1.04266"/>
<path d="M179.367 -33.2891L179.367 223.9" stroke="#978FED" stroke-width="1.04266"/>
<path d="M181.452 -33.2891L181.452 223.9" stroke="#978FED" stroke-width="1.04266"/>
</g>
<rect width="32" height="40" transform="translate(217 135)" fill="#F7AAED"/>
<mask id="mask3_331_22702" style="mask-type:alpha" maskUnits="userSpaceOnUse" x="217" y="135" width="32" height="40">
<rect x="217" y="135" width="32" height="40" fill="#D9D9D9"/>
</mask>
<g mask="url(#mask3_331_22702)">
<path d="M217.173 25.7109L217.173 282.9" stroke="#EE89DF" stroke-width="1.04266"/>
<path d="M219.258 25.7109L219.258 282.9" stroke="#EE89DF" stroke-width="1.04266"/>
<path d="M221.343 25.7109L221.343 282.9" stroke="#EE89DF" stroke-width="1.04266"/>
<path d="M223.428 25.7109L223.428 282.9" stroke="#EE89DF" stroke-width="1.04266"/>
<path d="M225.514 25.7109L225.514 282.9" stroke="#EE89DF" stroke-width="1.04266"/>
<path d="M227.599 25.7109L227.599 282.9" stroke="#EE89DF" stroke-width="1.04266"/>
<path d="M229.684 25.7109L229.684 282.9" stroke="#EE89DF" stroke-width="1.04266"/>
<path d="M231.77 25.7109L231.77 282.9" stroke="#EE89DF" stroke-width="1.04266"/>
<path d="M233.855 25.7109L233.855 282.9" stroke="#EE89DF" stroke-width="1.04266"/>
<path d="M235.94 25.7109L235.94 282.9" stroke="#EE89DF" stroke-width="1.04266"/>
<path d="M238.026 25.7109L238.026 282.9" stroke="#EE89DF" stroke-width="1.04266"/>
<path d="M240.111 25.7109L240.111 282.9" stroke="#EE89DF" stroke-width="1.04266"/>
<path d="M242.196 25.7109L242.196 282.9" stroke="#EE89DF" stroke-width="1.04266"/>
<path d="M244.281 25.7109L244.281 282.9" stroke="#EE89DF" stroke-width="1.04266"/>
<path d="M246.367 25.7109L246.367 282.9" stroke="#EE89DF" stroke-width="1.04266"/>
<path d="M248.452 25.7109L248.452 282.9" stroke="#EE89DF" stroke-width="1.04266"/>
</g>
<rect width="32" height="49" transform="translate(217 86)" fill="#FBDE9D"/>
<mask id="mask4_331_22702" style="mask-type:alpha" maskUnits="userSpaceOnUse" x="217" y="86" width="32" height="49">
<rect x="217" y="86" width="32" height="49" fill="#D9D9D9"/>
</mask>
<g mask="url(#mask4_331_22702)">
<path d="M217.173 -18.2891L217.173 238.9" stroke="#F6CF7D" stroke-width="1.04266"/>
<path d="M219.258 -18.2891L219.258 238.9" stroke="#F6CF7D" stroke-width="1.04266"/>
<path d="M221.343 -18.2891L221.343 238.9" stroke="#F6CF7D" stroke-width="1.04266"/>
<path d="M223.428 -18.2891L223.428 238.9" stroke="#F6CF7D" stroke-width="1.04266"/>
<path d="M225.514 -18.2891L225.514 238.9" stroke="#F6CF7D" stroke-width="1.04266"/>
<path d="M227.599 -18.2891L227.599 238.9" stroke="#F6CF7D" stroke-width="1.04266"/>
<path d="M229.684 -18.2891L229.684 238.9" stroke="#F6CF7D" stroke-width="1.04266"/>
<path d="M231.77 -18.2891L231.77 238.9" stroke="#F6CF7D" stroke-width="1.04266"/>
<path d="M233.855 -18.2891L233.855 238.9" stroke="#F6CF7D" stroke-width="1.04266"/>
<path d="M235.94 -18.2891L235.94 238.9" stroke="#F6CF7D" stroke-width="1.04266"/>
<path d="M238.026 -18.2891L238.026 238.9" stroke="#F6CF7D" stroke-width="1.04266"/>
<path d="M240.111 -18.2891L240.111 238.9" stroke="#F6CF7D" stroke-width="1.04266"/>
<path d="M242.196 -18.2891L242.196 238.9" stroke="#F6CF7D" stroke-width="1.04266"/>
<path d="M244.281 -18.2891L244.281 238.9" stroke="#F6CF7D" stroke-width="1.04266"/>
<path d="M246.367 -18.2891L246.367 238.9" stroke="#F6CF7D" stroke-width="1.04266"/>
<path d="M248.452 -18.2891L248.452 238.9" stroke="#F6CF7D" stroke-width="1.04266"/>
</g>
<rect width="32" height="65" transform="translate(217 21)" fill="#B6B0FB"/>
<mask id="mask5_331_22702" style="mask-type:alpha" maskUnits="userSpaceOnUse" x="217" y="21" width="32" height="65">
<rect x="217" y="21" width="32" height="65" fill="#D9D9D9"/>
</mask>
<g mask="url(#mask5_331_22702)">
<path d="M217.173 -75.2891L217.173 181.9" stroke="#978FED" stroke-width="1.04266"/>
<path d="M219.258 -75.2891L219.258 181.9" stroke="#978FED" stroke-width="1.04266"/>
<path d="M221.343 -75.2891L221.343 181.9" stroke="#978FED" stroke-width="1.04266"/>
<path d="M223.428 -75.2891L223.428 181.9" stroke="#978FED" stroke-width="1.04266"/>
<path d="M225.514 -75.2891L225.514 181.9" stroke="#978FED" stroke-width="1.04266"/>
<path d="M227.599 -75.2891L227.599 181.9" stroke="#978FED" stroke-width="1.04266"/>
<path d="M229.684 -75.2891L229.684 181.9" stroke="#978FED" stroke-width="1.04266"/>
<path d="M231.77 -75.2891L231.77 181.9" stroke="#978FED" stroke-width="1.04266"/>
<path d="M233.855 -75.2891L233.855 181.9" stroke="#978FED" stroke-width="1.04266"/>
<path d="M235.94 -75.2891L235.94 181.9" stroke="#978FED" stroke-width="1.04266"/>
<path d="M238.026 -75.2891L238.026 181.9" stroke="#978FED" stroke-width="1.04266"/>
<path d="M240.111 -75.2891L240.111 181.9" stroke="#978FED" stroke-width="1.04266"/>
<path d="M242.196 -75.2891L242.196 181.9" stroke="#978FED" stroke-width="1.04266"/>
<path d="M244.281 -75.2891L244.281 181.9" stroke="#978FED" stroke-width="1.04266"/>
<path d="M246.367 -75.2891L246.367 181.9" stroke="#978FED" stroke-width="1.04266"/>
<path d="M248.452 -75.2891L248.452 181.9" stroke="#978FED" stroke-width="1.04266"/>
</g>
<g filter="url(#filter0_b_331_22702)">
<rect x="217" y="21" width="32" height="154" fill="white" fill-opacity="0.65"/>
<rect x="217" y="21" width="32" height="154" fill="white" fill-opacity="0.7"/>
</g>
<g filter="url(#filter1_dd_331_22702)">
<rect x="219" y="4" width="28" height="28" rx="14" fill="white"/>
</g>
<path d="M235.759 15.2437V13.8656C235.756 13.1353 235.465 12.4355 234.949 11.9191C234.432 11.4026 233.733 11.1116 233.002 11.1094C232.272 11.1116 231.572 11.4026 231.056 11.9191C230.539 12.4355 230.248 13.1353 230.246 13.8656V15.2437" stroke="#3E4763" stroke-width="1.2" stroke-miterlimit="10" stroke-linecap="square"/>
<path d="M237.135 17.082H228.866C228.105 17.082 227.488 17.699 227.488 18.4602V23.5133C227.488 24.2744 228.105 24.8914 228.866 24.8914H237.135C237.896 24.8914 238.513 24.2744 238.513 23.5133V18.4602C238.513 17.699 237.896 17.082 237.135 17.082Z" stroke="#3E4763" stroke-width="1.2" stroke-miterlimit="10" stroke-linecap="square"/>
<path d="M233 21.6758V23.0539" stroke="#3E4763" stroke-width="1.2" stroke-miterlimit="10" stroke-linecap="square"/>
<path d="M232.999 21.6742C233.76 21.6742 234.377 21.0572 234.377 20.2961C234.377 19.535 233.76 18.918 232.999 18.918C232.238 18.918 231.621 19.535 231.621 20.2961C231.621 21.0572 232.238 21.6742 232.999 21.6742Z" stroke="#3E4763" stroke-width="1.2" stroke-miterlimit="10" stroke-linecap="square"/>
<defs>
<filter id="filter0_b_331_22702" x="172" y="-24" width="122" height="244" filterUnits="userSpaceOnUse" color-interpolation-filters="sRGB">
<feFlood flood-opacity="0" result="BackgroundImageFix"/>
<feGaussianBlur in="BackgroundImageFix" stdDeviation="22.5"/>
<feComposite in2="SourceAlpha" operator="in" result="effect1_backgroundBlur_331_22702"/>
<feBlend mode="normal" in="SourceGraphic" in2="effect1_backgroundBlur_331_22702" result="shape"/>
</filter>
<filter id="filter1_dd_331_22702" x="214" y="0" width="38" height="38" filterUnits="userSpaceOnUse" color-interpolation-filters="sRGB">
<feFlood flood-opacity="0" result="BackgroundImageFix"/>
<feColorMatrix in="SourceAlpha" type="matrix" values="0 0 0 0 0 0 0 0 0 0 0 0 0 0 0 0 0 0 127 0" result="hardAlpha"/>
<feOffset/>
<feGaussianBlur stdDeviation="1"/>
<feColorMatrix type="matrix" values="0 0 0 0 0.0666667 0 0 0 0 0.16915 0 0 0 0 0.258824 0 0 0 0.16 0"/>
<feBlend mode="normal" in2="BackgroundImageFix" result="effect1_dropShadow_331_22702"/>
<feColorMatrix in="SourceAlpha" type="matrix" values="0 0 0 0 0 0 0 0 0 0 0 0 0 0 0 0 0 0 127 0" result="hardAlpha"/>
<feOffset dy="1"/>
<feGaussianBlur stdDeviation="2.5"/>
<feColorMatrix type="matrix" values="0 0 0 0 0.0666667 0 0 0 0 0.168627 0 0 0 0 0.258824 0 0 0 0.1 0"/>
<feBlend mode="normal" in2="effect1_dropShadow_331_22702" result="effect2_dropShadow_331_22702"/>
<feBlend mode="normal" in="SourceGraphic" in2="effect2_dropShadow_331_22702" result="shape"/>
</filter>
</defs>
</svg>
