<svg width="266" height="171" viewBox="0 0 266 171" fill="none" xmlns="http://www.w3.org/2000/svg">
<path d="M19.7891 170V169.18L22.4766 166.348C22.7708 166.033 23.0143 165.757 23.207 165.52C23.3997 165.283 23.543 165.057 23.6367 164.844C23.7305 164.63 23.7773 164.405 23.7773 164.168C23.7773 163.897 23.7135 163.664 23.5859 163.469C23.4583 163.271 23.2839 163.118 23.0625 163.012C22.8438 162.902 22.5951 162.848 22.3164 162.848C22.0247 162.848 21.7695 162.908 21.5508 163.027C21.3346 163.147 21.1667 163.316 21.0469 163.535C20.9297 163.751 20.8711 164.007 20.8711 164.301H19.793C19.793 163.819 19.9036 163.397 20.125 163.035C20.3464 162.673 20.6497 162.392 21.0352 162.191C21.4206 161.991 21.8568 161.891 22.3438 161.891C22.8359 161.891 23.2708 161.991 23.6484 162.191C24.026 162.389 24.3203 162.659 24.5313 163C24.7448 163.339 24.8516 163.72 24.8516 164.145C24.8516 164.441 24.7969 164.732 24.6875 165.016C24.5807 165.297 24.3919 165.611 24.1211 165.957C23.8529 166.303 23.4792 166.723 23 167.215L21.3477 168.961V169.02H24.9844V170H19.7891ZM29.2295 170.125C28.6227 170.125 28.1045 169.964 27.6748 169.641C27.2451 169.315 26.9157 168.845 26.6865 168.23C26.46 167.616 26.3467 166.874 26.3467 166.004C26.3467 165.137 26.4613 164.397 26.6904 163.785C26.9196 163.171 27.249 162.702 27.6787 162.379C28.111 162.053 28.6279 161.891 29.2295 161.891C29.8337 161.891 30.3506 162.053 30.7803 162.379C31.2126 162.702 31.5433 163.171 31.7725 163.785C32.0016 164.397 32.1162 165.137 32.1162 166.004C32.1162 166.874 32.0016 167.617 31.7725 168.234C31.5459 168.849 31.2178 169.318 30.7881 169.641C30.3584 169.964 29.8389 170.125 29.2295 170.125ZM29.2295 169.141C29.7842 169.141 30.2178 168.871 30.5303 168.332C30.8428 167.793 30.999 167.017 30.999 166.004C30.999 165.329 30.9274 164.759 30.7842 164.293C30.6436 163.824 30.4404 163.469 30.1748 163.227C29.9118 162.982 29.5967 162.859 29.2295 162.859C28.68 162.859 28.249 163.132 27.9365 163.676C27.624 164.217 27.4665 164.993 27.4639 166.004C27.4639 166.678 27.5342 167.249 27.6748 167.715C27.8154 168.181 28.0173 168.535 28.2803 168.777C28.5459 169.02 28.8623 169.141 29.2295 169.141ZM33.5391 170V169.18L36.2266 166.348C36.5208 166.033 36.7643 165.757 36.957 165.52C37.1497 165.283 37.293 165.057 37.3867 164.844C37.4805 164.63 37.5273 164.405 37.5273 164.168C37.5273 163.897 37.4635 163.664 37.3359 163.469C37.2083 163.271 37.0339 163.118 36.8125 163.012C36.5938 162.902 36.3451 162.848 36.0664 162.848C35.7747 162.848 35.5195 162.908 35.3008 163.027C35.0846 163.147 34.9167 163.316 34.7969 163.535C34.6797 163.751 34.6211 164.007 34.6211 164.301H33.543C33.543 163.819 33.6536 163.397 33.875 163.035C34.0964 162.673 34.3997 162.392 34.7852 162.191C35.1706 161.991 35.6068 161.891 36.0938 161.891C36.5859 161.891 37.0208 161.991 37.3984 162.191C37.776 162.389 38.0703 162.659 38.2813 163C38.4948 163.339 38.6016 163.72 38.6016 164.145C38.6016 164.441 38.5469 164.732 38.4375 165.016C38.3307 165.297 38.1419 165.611 37.8711 165.957C37.6029 166.303 37.2292 166.723 36.75 167.215L35.0977 168.961V169.02H38.7344V170H33.5391ZM43.2178 162V170H42.0811V163.152H42.0342L40.1084 164.414V163.312L42.1045 162H43.2178Z" fill="#5D626D"/>
<path d="M85.7891 170V169.18L88.4766 166.348C88.7708 166.033 89.0143 165.757 89.207 165.52C89.3997 165.283 89.543 165.057 89.6367 164.844C89.7305 164.63 89.7773 164.405 89.7773 164.168C89.7773 163.897 89.7135 163.664 89.5859 163.469C89.4583 163.271 89.2839 163.118 89.0625 163.012C88.8438 162.902 88.5951 162.848 88.3164 162.848C88.0247 162.848 87.7695 162.908 87.5508 163.027C87.3346 163.147 87.1667 163.316 87.0469 163.535C86.9297 163.751 86.8711 164.007 86.8711 164.301H85.793C85.793 163.819 85.9036 163.397 86.125 163.035C86.3464 162.673 86.6497 162.392 87.0352 162.191C87.4206 161.991 87.8568 161.891 88.3438 161.891C88.8359 161.891 89.2708 161.991 89.6484 162.191C90.026 162.389 90.3203 162.659 90.5313 163C90.7448 163.339 90.8516 163.72 90.8516 164.145C90.8516 164.441 90.7969 164.732 90.6875 165.016C90.5807 165.297 90.3919 165.611 90.1211 165.957C89.8529 166.303 89.4792 166.723 89 167.215L87.3477 168.961V169.02H90.9844V170H85.7891ZM95.2295 170.125C94.6227 170.125 94.1045 169.964 93.6748 169.641C93.2451 169.315 92.9157 168.845 92.6865 168.23C92.46 167.616 92.3467 166.874 92.3467 166.004C92.3467 165.137 92.4613 164.397 92.6904 163.785C92.9196 163.171 93.249 162.702 93.6787 162.379C94.111 162.053 94.6279 161.891 95.2295 161.891C95.8337 161.891 96.3506 162.053 96.7803 162.379C97.2126 162.702 97.5433 163.171 97.7725 163.785C98.0016 164.397 98.1162 165.137 98.1162 166.004C98.1162 166.874 98.0016 167.617 97.7725 168.234C97.5459 168.849 97.2178 169.318 96.7881 169.641C96.3584 169.964 95.8389 170.125 95.2295 170.125ZM95.2295 169.141C95.7842 169.141 96.2178 168.871 96.5303 168.332C96.8428 167.793 96.999 167.017 96.999 166.004C96.999 165.329 96.9274 164.759 96.7842 164.293C96.6436 163.824 96.4404 163.469 96.1748 163.227C95.9118 162.982 95.5967 162.859 95.2295 162.859C94.68 162.859 94.249 163.132 93.9365 163.676C93.624 164.217 93.4665 164.993 93.4639 166.004C93.4639 166.678 93.5342 167.249 93.6748 167.715C93.8154 168.181 94.0173 168.535 94.2803 168.777C94.5459 169.02 94.8623 169.141 95.2295 169.141ZM99.5391 170V169.18L102.227 166.348C102.521 166.033 102.764 165.757 102.957 165.52C103.15 165.283 103.293 165.057 103.387 164.844C103.48 164.63 103.527 164.405 103.527 164.168C103.527 163.897 103.464 163.664 103.336 163.469C103.208 163.271 103.034 163.118 102.813 163.012C102.594 162.902 102.345 162.848 102.066 162.848C101.775 162.848 101.52 162.908 101.301 163.027C101.085 163.147 100.917 163.316 100.797 163.535C100.68 163.751 100.621 164.007 100.621 164.301H99.543C99.543 163.819 99.6536 163.397 99.875 163.035C100.096 162.673 100.4 162.392 100.785 162.191C101.171 161.991 101.607 161.891 102.094 161.891C102.586 161.891 103.021 161.991 103.398 162.191C103.776 162.389 104.07 162.659 104.281 163C104.495 163.339 104.602 163.72 104.602 164.145C104.602 164.441 104.547 164.732 104.438 165.016C104.331 165.297 104.142 165.611 103.871 165.957C103.603 166.303 103.229 166.723 102.75 167.215L101.098 168.961V169.02H104.734V170H99.5391ZM106.253 170V169.18L108.94 166.348C109.235 166.033 109.478 165.757 109.671 165.52C109.864 165.283 110.007 165.057 110.101 164.844C110.194 164.63 110.241 164.405 110.241 164.168C110.241 163.897 110.177 163.664 110.05 163.469C109.922 163.271 109.748 163.118 109.526 163.012C109.308 162.902 109.059 162.848 108.78 162.848C108.489 162.848 108.233 162.908 108.015 163.027C107.799 163.147 107.631 163.316 107.511 163.535C107.394 163.751 107.335 164.007 107.335 164.301H106.257C106.257 163.819 106.368 163.397 106.589 163.035C106.81 162.673 107.114 162.392 107.499 162.191C107.884 161.991 108.321 161.891 108.808 161.891C109.3 161.891 109.735 161.991 110.112 162.191C110.49 162.389 110.784 162.659 110.995 163C111.209 163.339 111.315 163.72 111.315 164.145C111.315 164.441 111.261 164.732 111.151 165.016C111.045 165.297 110.856 165.611 110.585 165.957C110.317 166.303 109.943 166.723 109.464 167.215L107.812 168.961V169.02H111.448V170H106.253Z" fill="#5D626D"/>
<path d="M152.789 170V169.18L155.477 166.348C155.771 166.033 156.014 165.757 156.207 165.52C156.4 165.283 156.543 165.057 156.637 164.844C156.73 164.63 156.777 164.405 156.777 164.168C156.777 163.897 156.714 163.664 156.586 163.469C156.458 163.271 156.284 163.118 156.063 163.012C155.844 162.902 155.595 162.848 155.316 162.848C155.025 162.848 154.77 162.908 154.551 163.027C154.335 163.147 154.167 163.316 154.047 163.535C153.93 163.751 153.871 164.007 153.871 164.301H152.793C152.793 163.819 152.904 163.397 153.125 163.035C153.346 162.673 153.65 162.392 154.035 162.191C154.421 161.991 154.857 161.891 155.344 161.891C155.836 161.891 156.271 161.991 156.648 162.191C157.026 162.389 157.32 162.659 157.531 163C157.745 163.339 157.852 163.72 157.852 164.145C157.852 164.441 157.797 164.732 157.688 165.016C157.581 165.297 157.392 165.611 157.121 165.957C156.853 166.303 156.479 166.723 156 167.215L154.348 168.961V169.02H157.984V170H152.789ZM162.229 170.125C161.623 170.125 161.104 169.964 160.675 169.641C160.245 169.315 159.916 168.845 159.687 168.23C159.46 167.616 159.347 166.874 159.347 166.004C159.347 165.137 159.461 164.397 159.69 163.785C159.92 163.171 160.249 162.702 160.679 162.379C161.111 162.053 161.628 161.891 162.229 161.891C162.834 161.891 163.351 162.053 163.78 162.379C164.213 162.702 164.543 163.171 164.772 163.785C165.002 164.397 165.116 165.137 165.116 166.004C165.116 166.874 165.002 167.617 164.772 168.234C164.546 168.849 164.218 169.318 163.788 169.641C163.358 169.964 162.839 170.125 162.229 170.125ZM162.229 169.141C162.784 169.141 163.218 168.871 163.53 168.332C163.843 167.793 163.999 167.017 163.999 166.004C163.999 165.329 163.927 164.759 163.784 164.293C163.644 163.824 163.44 163.469 163.175 163.227C162.912 162.982 162.597 162.859 162.229 162.859C161.68 162.859 161.249 163.132 160.937 163.676C160.624 164.217 160.466 164.993 160.464 166.004C160.464 166.678 160.534 167.249 160.675 167.715C160.815 168.181 161.017 168.535 161.28 168.777C161.546 169.02 161.862 169.141 162.229 169.141ZM166.539 170V169.18L169.227 166.348C169.521 166.033 169.764 165.757 169.957 165.52C170.15 165.283 170.293 165.057 170.387 164.844C170.48 164.63 170.527 164.405 170.527 164.168C170.527 163.897 170.464 163.664 170.336 163.469C170.208 163.271 170.034 163.118 169.813 163.012C169.594 162.902 169.345 162.848 169.066 162.848C168.775 162.848 168.52 162.908 168.301 163.027C168.085 163.147 167.917 163.316 167.797 163.535C167.68 163.751 167.621 164.007 167.621 164.301H166.543C166.543 163.819 166.654 163.397 166.875 163.035C167.096 162.673 167.4 162.392 167.785 162.191C168.171 161.991 168.607 161.891 169.094 161.891C169.586 161.891 170.021 161.991 170.398 162.191C170.776 162.389 171.07 162.659 171.281 163C171.495 163.339 171.602 163.72 171.602 164.145C171.602 164.441 171.547 164.732 171.438 165.016C171.331 165.297 171.142 165.611 170.871 165.957C170.603 166.303 170.229 166.723 169.75 167.215L168.098 168.961V169.02H171.734V170H166.539ZM176.011 170.109C175.479 170.109 175.007 170.018 174.593 169.836C174.179 169.654 173.851 169.4 173.608 169.074C173.369 168.749 173.24 168.371 173.222 167.941H174.37C174.388 168.184 174.47 168.393 174.616 168.57C174.765 168.747 174.959 168.885 175.198 168.984C175.44 169.081 175.709 169.129 176.003 169.129C176.326 169.129 176.612 169.073 176.862 168.961C177.112 168.846 177.308 168.689 177.448 168.488C177.591 168.285 177.663 168.051 177.663 167.785C177.663 167.509 177.593 167.266 177.452 167.055C177.314 166.844 177.111 166.678 176.843 166.559C176.577 166.439 176.253 166.379 175.87 166.379H175.206V165.43H175.87C176.172 165.43 176.438 165.376 176.667 165.27C176.899 165.16 177.08 165.008 177.21 164.812C177.343 164.615 177.409 164.383 177.409 164.117C177.409 163.862 177.352 163.641 177.237 163.453C177.123 163.263 176.961 163.115 176.753 163.008C176.547 162.901 176.305 162.848 176.026 162.848C175.763 162.848 175.516 162.896 175.284 162.992C175.052 163.089 174.864 163.227 174.718 163.406C174.575 163.586 174.496 163.802 174.483 164.055H173.39C173.403 163.625 173.53 163.249 173.772 162.926C174.015 162.6 174.332 162.346 174.726 162.164C175.121 161.982 175.56 161.891 176.042 161.891C176.55 161.891 176.987 161.991 177.354 162.191C177.724 162.389 178.008 162.654 178.206 162.984C178.407 163.312 178.506 163.671 178.503 164.059C178.506 164.507 178.383 164.888 178.136 165.203C177.891 165.516 177.562 165.728 177.147 165.84V165.902C177.671 165.986 178.077 166.199 178.366 166.543C178.658 166.884 178.802 167.307 178.8 167.812C178.802 168.25 178.683 168.643 178.44 168.992C178.198 169.339 177.868 169.612 177.448 169.812C177.029 170.01 176.55 170.109 176.011 170.109Z" fill="#5D626D"/>
<path d="M219.789 170V169.18L222.477 166.348C222.771 166.033 223.014 165.757 223.207 165.52C223.4 165.283 223.543 165.057 223.637 164.844C223.73 164.63 223.777 164.405 223.777 164.168C223.777 163.897 223.714 163.664 223.586 163.469C223.458 163.271 223.284 163.118 223.063 163.012C222.844 162.902 222.595 162.848 222.316 162.848C222.025 162.848 221.77 162.908 221.551 163.027C221.335 163.147 221.167 163.316 221.047 163.535C220.93 163.751 220.871 164.007 220.871 164.301H219.793C219.793 163.819 219.904 163.397 220.125 163.035C220.346 162.673 220.65 162.392 221.035 162.191C221.421 161.991 221.857 161.891 222.344 161.891C222.836 161.891 223.271 161.991 223.648 162.191C224.026 162.389 224.32 162.659 224.531 163C224.745 163.339 224.852 163.72 224.852 164.145C224.852 164.441 224.797 164.732 224.688 165.016C224.581 165.297 224.392 165.611 224.121 165.957C223.853 166.303 223.479 166.723 223 167.215L221.348 168.961V169.02H224.984V170H219.789ZM229.229 170.125C228.623 170.125 228.104 169.964 227.675 169.641C227.245 169.315 226.916 168.845 226.687 168.23C226.46 167.616 226.347 166.874 226.347 166.004C226.347 165.137 226.461 164.397 226.69 163.785C226.92 163.171 227.249 162.702 227.679 162.379C228.111 162.053 228.628 161.891 229.229 161.891C229.834 161.891 230.351 162.053 230.78 162.379C231.213 162.702 231.543 163.171 231.772 163.785C232.002 164.397 232.116 165.137 232.116 166.004C232.116 166.874 232.002 167.617 231.772 168.234C231.546 168.849 231.218 169.318 230.788 169.641C230.358 169.964 229.839 170.125 229.229 170.125ZM229.229 169.141C229.784 169.141 230.218 168.871 230.53 168.332C230.843 167.793 230.999 167.017 230.999 166.004C230.999 165.329 230.927 164.759 230.784 164.293C230.644 163.824 230.44 163.469 230.175 163.227C229.912 162.982 229.597 162.859 229.229 162.859C228.68 162.859 228.249 163.132 227.937 163.676C227.624 164.217 227.466 164.993 227.464 166.004C227.464 166.678 227.534 167.249 227.675 167.715C227.815 168.181 228.017 168.535 228.28 168.777C228.546 169.02 228.862 169.141 229.229 169.141ZM233.539 170V169.18L236.227 166.348C236.521 166.033 236.764 165.757 236.957 165.52C237.15 165.283 237.293 165.057 237.387 164.844C237.48 164.63 237.527 164.405 237.527 164.168C237.527 163.897 237.464 163.664 237.336 163.469C237.208 163.271 237.034 163.118 236.813 163.012C236.594 162.902 236.345 162.848 236.066 162.848C235.775 162.848 235.52 162.908 235.301 163.027C235.085 163.147 234.917 163.316 234.797 163.535C234.68 163.751 234.621 164.007 234.621 164.301H233.543C233.543 163.819 233.654 163.397 233.875 163.035C234.096 162.673 234.4 162.392 234.785 162.191C235.171 161.991 235.607 161.891 236.094 161.891C236.586 161.891 237.021 161.991 237.398 162.191C237.776 162.389 238.07 162.659 238.281 163C238.495 163.339 238.602 163.72 238.602 164.145C238.602 164.441 238.547 164.732 238.438 165.016C238.331 165.297 238.142 165.611 237.871 165.957C237.603 166.303 237.229 166.723 236.75 167.215L235.098 168.961V169.02H238.734V170H233.539ZM239.905 168.414V167.492L243.382 162H244.093V163.375H243.632L241.104 167.379V167.441H245.843V168.414H239.905ZM243.69 170V168.133L243.694 167.711V162H244.772V170H243.69Z" fill="#5D626D"/>
<path d="M265 146C265.276 146 265.5 145.776 265.5 145.5C265.5 145.224 265.276 145 265 145V146ZM1 146H265V145H1V146Z" fill="#D6D6E6"/>
<path d="M265 73.5C265.276 73.5 265.5 73.2761 265.5 73C265.5 72.7239 265.276 72.5 265 72.5V73.5ZM1 73.5H2V72.5H1V73.5ZM4 73.5H6V72.5H4V73.5ZM8 73.5H10V72.5H8V73.5ZM12 73.5H14V72.5H12V73.5ZM16 73.5H18V72.5H16V73.5ZM20 73.5H22V72.5H20V73.5ZM24 73.5H26V72.5H24V73.5ZM28 73.5H30V72.5H28V73.5ZM32 73.5H34V72.5H32V73.5ZM36 73.5H38V72.5H36V73.5ZM40 73.5H42V72.5H40V73.5ZM44 73.5H46V72.5H44V73.5ZM48 73.5H50V72.5H48V73.5ZM52 73.5H54V72.5H52V73.5ZM56 73.5H58V72.5H56V73.5ZM60 73.5H62V72.5H60V73.5ZM64 73.5H66V72.5H64V73.5ZM68 73.5H70V72.5H68V73.5ZM72 73.5H74V72.5H72V73.5ZM76 73.5H78V72.5H76V73.5ZM80 73.5H82V72.5H80V73.5ZM84 73.5H86V72.5H84V73.5ZM88 73.5H90V72.5H88V73.5ZM92 73.5H94V72.5H92V73.5ZM96 73.5H98V72.5H96V73.5ZM100 73.5H102V72.5H100V73.5ZM104 73.5H106V72.5H104V73.5ZM108 73.5H110V72.5H108V73.5ZM112 73.5H114V72.5H112V73.5ZM116 73.5H118V72.5H116V73.5ZM120 73.5H122V72.5H120V73.5ZM124 73.5H126V72.5H124V73.5ZM128 73.5H130V72.5H128V73.5ZM132 73.5H134V72.5H132V73.5ZM136 73.5H138V72.5H136V73.5ZM140 73.5H142V72.5H140V73.5ZM144 73.5H146V72.5H144V73.5ZM148 73.5H150V72.5H148V73.5ZM152 73.5H154V72.5H152V73.5ZM156 73.5H158V72.5H156V73.5ZM160 73.5H162V72.5H160V73.5ZM164 73.5H166V72.5H164V73.5ZM168 73.5H170V72.5H168V73.5ZM172 73.5H174V72.5H172V73.5ZM176 73.5H178V72.5H176V73.5ZM180 73.5H182V72.5H180V73.5ZM184 73.5H186V72.5H184V73.5ZM188 73.5H190V72.5H188V73.5ZM192 73.5H194V72.5H192V73.5ZM196 73.5H198V72.5H196V73.5ZM200 73.5H202V72.5H200V73.5ZM204 73.5H206V72.5H204V73.5ZM208 73.5H210V72.5H208V73.5ZM212 73.5H214V72.5H212V73.5ZM216 73.5H218V72.5H216V73.5ZM220 73.5H222V72.5H220V73.5ZM224 73.5H226V72.5H224V73.5ZM228 73.5H230V72.5H228V73.5ZM232 73.5H234V72.5H232V73.5ZM236 73.5H238V72.5H236V73.5ZM240 73.5H242V72.5H240V73.5ZM244 73.5H246V72.5H244V73.5ZM248 73.5H250V72.5H248V73.5ZM252 73.5H254V72.5H252V73.5ZM256 73.5H258V72.5H256V73.5ZM260 73.5H262V72.5H260V73.5ZM264 73.5H265V72.5H264V73.5Z" fill="#E5E5EF"/>
<path d="M265 109.5C265.276 109.5 265.5 109.276 265.5 109C265.5 108.724 265.276 108.5 265 108.5V109.5ZM1 109.5H2V108.5H1V109.5ZM4 109.5H6V108.5H4V109.5ZM8 109.5H10V108.5H8V109.5ZM12 109.5H14V108.5H12V109.5ZM16 109.5H18V108.5H16V109.5ZM20 109.5H22V108.5H20V109.5ZM24 109.5H26V108.5H24V109.5ZM28 109.5H30V108.5H28V109.5ZM32 109.5H34V108.5H32V109.5ZM36 109.5H38V108.5H36V109.5ZM40 109.5H42V108.5H40V109.5ZM44 109.5H46V108.5H44V109.5ZM48 109.5H50V108.5H48V109.5ZM52 109.5H54V108.5H52V109.5ZM56 109.5H58V108.5H56V109.5ZM60 109.5H62V108.5H60V109.5ZM64 109.5H66V108.5H64V109.5ZM68 109.5H70V108.5H68V109.5ZM72 109.5H74V108.5H72V109.5ZM76 109.5H78V108.5H76V109.5ZM80 109.5H82V108.5H80V109.5ZM84 109.5H86V108.5H84V109.5ZM88 109.5H90V108.5H88V109.5ZM92 109.5H94V108.5H92V109.5ZM96 109.5H98V108.5H96V109.5ZM100 109.5H102V108.5H100V109.5ZM104 109.5H106V108.5H104V109.5ZM108 109.5H110V108.5H108V109.5ZM112 109.5H114V108.5H112V109.5ZM116 109.5H118V108.5H116V109.5ZM120 109.5H122V108.5H120V109.5ZM124 109.5H126V108.5H124V109.5ZM128 109.5H130V108.5H128V109.5ZM132 109.5H134V108.5H132V109.5ZM136 109.5H138V108.5H136V109.5ZM140 109.5H142V108.5H140V109.5ZM144 109.5H146V108.5H144V109.5ZM148 109.5H150V108.5H148V109.5ZM152 109.5H154V108.5H152V109.5ZM156 109.5H158V108.5H156V109.5ZM160 109.5H162V108.5H160V109.5ZM164 109.5H166V108.5H164V109.5ZM168 109.5H170V108.5H168V109.5ZM172 109.5H174V108.5H172V109.5ZM176 109.5H178V108.5H176V109.5ZM180 109.5H182V108.5H180V109.5ZM184 109.5H186V108.5H184V109.5ZM188 109.5H190V108.5H188V109.5ZM192 109.5H194V108.5H192V109.5ZM196 109.5H198V108.5H196V109.5ZM200 109.5H202V108.5H200V109.5ZM204 109.5H206V108.5H204V109.5ZM208 109.5H210V108.5H208V109.5ZM212 109.5H214V108.5H212V109.5ZM216 109.5H218V108.5H216V109.5ZM220 109.5H222V108.5H220V109.5ZM224 109.5H226V108.5H224V109.5ZM228 109.5H230V108.5H228V109.5ZM232 109.5H234V108.5H232V109.5ZM236 109.5H238V108.5H236V109.5ZM240 109.5H242V108.5H240V109.5ZM244 109.5H246V108.5H244V109.5ZM248 109.5H250V108.5H248V109.5ZM252 109.5H254V108.5H252V109.5ZM256 109.5H258V108.5H256V109.5ZM260 109.5H262V108.5H260V109.5ZM264 109.5H265V108.5H264V109.5Z" fill="#E5E5EF"/>
<path d="M265 37.5C265.276 37.5 265.5 37.2761 265.5 37C265.5 36.7239 265.276 36.5 265 36.5V37.5ZM1 37.5H2V36.5H1V37.5ZM4 37.5H6V36.5H4V37.5ZM8 37.5H10V36.5H8V37.5ZM12 37.5H14V36.5H12V37.5ZM16 37.5H18V36.5H16V37.5ZM20 37.5H22V36.5H20V37.5ZM24 37.5H26V36.5H24V37.5ZM28 37.5H30V36.5H28V37.5ZM32 37.5H34V36.5H32V37.5ZM36 37.5H38V36.5H36V37.5ZM40 37.5H42V36.5H40V37.5ZM44 37.5H46V36.5H44V37.5ZM48 37.5H50V36.5H48V37.5ZM52 37.5H54V36.5H52V37.5ZM56 37.5H58V36.5H56V37.5ZM60 37.5H62V36.5H60V37.5ZM64 37.5H66V36.5H64V37.5ZM68 37.5H70V36.5H68V37.5ZM72 37.5H74V36.5H72V37.5ZM76 37.5H78V36.5H76V37.5ZM80 37.5H82V36.5H80V37.5ZM84 37.5H86V36.5H84V37.5ZM88 37.5H90V36.5H88V37.5ZM92 37.5H94V36.5H92V37.5ZM96 37.5H98V36.5H96V37.5ZM100 37.5H102V36.5H100V37.5ZM104 37.5H106V36.5H104V37.5ZM108 37.5H110V36.5H108V37.5ZM112 37.5H114V36.5H112V37.5ZM116 37.5H118V36.5H116V37.5ZM120 37.5H122V36.5H120V37.5ZM124 37.5H126V36.5H124V37.5ZM128 37.5H130V36.5H128V37.5ZM132 37.5H134V36.5H132V37.5ZM136 37.5H138V36.5H136V37.5ZM140 37.5H142V36.5H140V37.5ZM144 37.5H146V36.5H144V37.5ZM148 37.5H150V36.5H148V37.5ZM152 37.5H154V36.5H152V37.5ZM156 37.5H158V36.5H156V37.5ZM160 37.5H162V36.5H160V37.5ZM164 37.5H166V36.5H164V37.5ZM168 37.5H170V36.5H168V37.5ZM172 37.5H174V36.5H172V37.5ZM176 37.5H178V36.5H176V37.5ZM180 37.5H182V36.5H180V37.5ZM184 37.5H186V36.5H184V37.5ZM188 37.5H190V36.5H188V37.5ZM192 37.5H194V36.5H192V37.5ZM196 37.5H198V36.5H196V37.5ZM200 37.5H202V36.5H200V37.5ZM204 37.5H206V36.5H204V37.5ZM208 37.5H210V36.5H208V37.5ZM212 37.5H214V36.5H212V37.5ZM216 37.5H218V36.5H216V37.5ZM220 37.5H222V36.5H220V37.5ZM224 37.5H226V36.5H224V37.5ZM228 37.5H230V36.5H228V37.5ZM232 37.5H234V36.5H232V37.5ZM236 37.5H238V36.5H236V37.5ZM240 37.5H242V36.5H240V37.5ZM244 37.5H246V36.5H244V37.5ZM248 37.5H250V36.5H248V37.5ZM252 37.5H254V36.5H252V37.5ZM256 37.5H258V36.5H256V37.5ZM260 37.5H262V36.5H260V37.5ZM264 37.5H265V36.5H264V37.5Z" fill="#E5E5EF"/>
<path d="M265 1.5C265.276 1.5 265.5 1.27614 265.5 1C265.5 0.723858 265.276 0.5 265 0.5V1.5ZM1 1.5H2V0.5H1V1.5ZM4 1.5H6V0.5H4V1.5ZM8 1.5H10V0.5H8V1.5ZM12 1.5H14V0.5H12V1.5ZM16 1.5H18V0.5H16V1.5ZM20 1.5H22V0.5H20V1.5ZM24 1.5H26V0.5H24V1.5ZM28 1.5H30V0.5H28V1.5ZM32 1.5H34V0.5H32V1.5ZM36 1.5H38V0.5H36V1.5ZM40 1.5H42V0.5H40V1.5ZM44 1.5H46V0.5H44V1.5ZM48 1.5H50V0.5H48V1.5ZM52 1.5H54V0.5H52V1.5ZM56 1.5H58V0.5H56V1.5ZM60 1.5H62V0.5H60V1.5ZM64 1.5H66V0.5H64V1.5ZM68 1.5H70V0.5H68V1.5ZM72 1.5H74V0.5H72V1.5ZM76 1.5H78V0.5H76V1.5ZM80 1.5H82V0.5H80V1.5ZM84 1.5H86V0.5H84V1.5ZM88 1.5H90V0.5H88V1.5ZM92 1.5H94V0.5H92V1.5ZM96 1.5H98V0.5H96V1.5ZM100 1.5H102V0.5H100V1.5ZM104 1.5H106V0.5H104V1.5ZM108 1.5H110V0.5H108V1.5ZM112 1.5H114V0.5H112V1.5ZM116 1.5H118V0.5H116V1.5ZM120 1.5H122V0.5H120V1.5ZM124 1.5H126V0.5H124V1.5ZM128 1.5H130V0.5H128V1.5ZM132 1.5H134V0.5H132V1.5ZM136 1.5H138V0.5H136V1.5ZM140 1.5H142V0.5H140V1.5ZM144 1.5H146V0.5H144V1.5ZM148 1.5H150V0.5H148V1.5ZM152 1.5H154V0.5H152V1.5ZM156 1.5H158V0.5H156V1.5ZM160 1.5H162V0.5H160V1.5ZM164 1.5H166V0.5H164V1.5ZM168 1.5H170V0.5H168V1.5ZM172 1.5H174V0.5H172V1.5ZM176 1.5H178V0.5H176V1.5ZM180 1.5H182V0.5H180V1.5ZM184 1.5H186V0.5H184V1.5ZM188 1.5H190V0.5H188V1.5ZM192 1.5H194V0.5H192V1.5ZM196 1.5H198V0.5H196V1.5ZM200 1.5H202V0.5H200V1.5ZM204 1.5H206V0.5H204V1.5ZM208 1.5H210V0.5H208V1.5ZM212 1.5H214V0.5H212V1.5ZM216 1.5H218V0.5H216V1.5ZM220 1.5H222V0.5H220V1.5ZM224 1.5H226V0.5H224V1.5ZM228 1.5H230V0.5H228V1.5ZM232 1.5H234V0.5H232V1.5ZM236 1.5H238V0.5H236V1.5ZM240 1.5H242V0.5H240V1.5ZM244 1.5H246V0.5H244V1.5ZM248 1.5H250V0.5H248V1.5ZM252 1.5H254V0.5H252V1.5ZM256 1.5H258V0.5H256V1.5ZM260 1.5H262V0.5H260V1.5ZM264 1.5H265V0.5H264V1.5Z" fill="#E5E5EF"/>
<path d="M1 110.75L4.61096 113.453C5.02504 113.763 5.60714 113.706 5.95326 113.321L7.07051 112.081C7.26015 111.87 7.53022 111.75 7.81359 111.75H10.9297C11.2396 111.75 11.5319 111.894 11.7213 112.139L12.5448 113.206C12.8831 113.644 13.513 113.724 13.9501 113.384L16.0526 111.75L20.2222 109.049C20.5099 108.863 20.8729 108.837 21.1842 108.98L24.8592 110.673C24.9697 110.724 25.07 110.795 25.1551 110.881L27.6333 113.411C27.9685 113.753 28.4991 113.809 28.8987 113.545L32.5959 111.104C32.9223 110.888 33.3444 110.883 33.6762 111.09L37.6451 113.565C38.0502 113.818 38.5774 113.749 38.9039 113.401L42.5541 109.506C42.9415 109.093 43.5945 109.084 43.9935 109.486L48.1803 113.704C48.3681 113.894 48.6236 114 48.8901 114H54.3508C54.6606 114 54.953 113.856 55.1423 113.611L56.3556 112.039C56.4998 111.852 56.7055 111.723 56.9362 111.673L60.9909 110.797C61.1355 110.766 61.2714 110.703 61.3888 110.613L63.5464 108.957C63.7211 108.823 63.9352 108.75 64.1554 108.75H67.5288C67.7491 108.75 67.9631 108.823 68.1378 108.957L70.3058 110.621C70.4165 110.706 70.5082 110.813 70.575 110.936L71.5105 112.653C71.953 113.465 73.166 113.293 73.3652 112.39L78.8768 87.3997C79.1009 86.3835 80.5349 86.3429 80.8161 87.3448L81.8478 91.0203C81.9689 91.4518 82.3624 91.75 82.8106 91.75H83.5767C83.8927 91.75 84.1901 91.6006 84.3788 91.3471L86.1534 88.9631C86.4561 88.5564 87.0152 88.4406 87.4546 88.6935L88.9742 89.5685C89.1778 89.6857 89.3337 89.871 89.4144 90.0917L90.0303 91.7761C90.3568 92.669 91.6276 92.6454 91.9208 91.7411L92.6509 89.489C92.8536 88.8637 93.5942 88.6008 94.1458 88.9581L94.8555 89.4177C95.1703 89.6217 95.5729 89.6323 95.8981 89.445L96.9142 88.86C97.4619 88.5447 98.161 88.8101 98.3615 89.4094L104.983 109.204C105.219 109.911 106.12 110.12 106.644 109.588L110.127 106.049C110.315 105.858 110.572 105.75 110.84 105.75H115.265C115.663 105.75 116.024 105.986 116.182 106.352L117.8 110.078C118.115 110.802 119.112 110.883 119.554 110.229V110.229C119.99 109.584 120.97 109.651 121.297 110.357L123.179 114.42C123.343 114.774 123.697 115 124.086 115H125.51C125.992 115 126.406 114.656 126.494 114.182L127.348 109.568C127.436 109.094 127.85 108.75 128.332 108.75H128.389C128.878 108.75 129.295 108.396 129.375 107.913L130.738 99.6732C130.852 98.9845 131.619 98.6215 132.224 98.9698L132.469 99.1111C133.033 99.4357 133.752 99.1441 133.93 98.5186L137.177 87.126C137.458 86.1395 138.865 86.1654 139.11 87.1616L139.789 89.9272C139.98 90.7045 140.961 90.9537 141.5 90.3616L143.161 88.5361C143.328 88.352 143.421 88.1121 143.421 87.8632V83C143.421 82.4477 143.869 82 144.421 82H145.798C146.269 82 146.676 82.3288 146.775 82.7894L148.333 90.0189C148.53 90.9367 149.77 91.1007 150.199 90.2659L150.958 88.7924C151.129 88.4593 151.472 88.25 151.847 88.25H153.165C153.571 88.25 153.933 87.9946 154.069 87.6122V87.6122C154.375 86.7537 155.593 86.7646 155.884 87.6285L157.524 92.5069C157.577 92.6664 157.67 92.8098 157.794 92.9238L160.759 95.655C161.305 96.1583 162.19 95.9112 162.397 95.1975L163.506 91.364C163.717 90.6358 164.63 90.3978 165.17 90.9303L166 91.75" stroke="#3E54AC" stroke-width="1.4"/>
<path d="M264.895 23.9336C226.698 66.8535 181.909 86.9319 164.289 91.6062L264.895 91.627V23.9336Z" fill="#E5EAFC"/>
<path d="M265 50.8281C237.251 74.858 186.354 88.0424 164.375 91.6308C216.657 84.1087 253.243 76.7426 265 73.9998V50.8281Z" fill="#C6D2FD"/>
<mask id="mask0_331_22302" style="mask-type:alpha" maskUnits="userSpaceOnUse" x="164" y="23" width="101" height="69">
<rect x="164" y="23.9336" width="100.999" height="67.6595" fill="#D9D9D9"/>
</mask>
<g mask="url(#mask0_331_22302)">
<path d="M264.892 23.9336C226.694 66.8535 181.905 86.9319 164.285 91.6062L264.892 91.627V23.9336Z" fill="#9D70FF"/>
<path d="M164.285 91.6078C179.729 87.8168 256.015 80.1301 264.892 60.0529V52.1211C266.054 54.9604 265.976 57.5992 264.892 60.0529V91.6286L164.285 91.6078Z" fill="#FBDE9D"/>
<path d="M265 50.8281C237.251 74.858 186.354 88.0424 164.375 91.6308C216.657 84.1087 253.243 76.7426 265 73.9998V50.8281Z" fill="#EE89DF"/>
</g>
</svg>
