<svg width="881" height="176" viewBox="0 0 881 176" fill="none" xmlns="http://www.w3.org/2000/svg">
<path d="M880 127.907L874.539 126.045L869.078 148.765L863.617 151.093L858.155 126.931L852.694 123.474L847.233 133.448L841.772 128.86L836.311 110.063L830.849 159.538L825.388 150.095L819.927 122.676L814.466 131.653L809.005 164.747L803.544 123.54L798.082 116.735L792.621 168.803L787.16 163.085L781.699 154.506L776.238 150.827L770.776 117.134L765.315 139.145L759.854 151.447L754.393 95.788L748.932 113.942L743.471 129.791L738.009 113.565L732.548 168.249L727.087 127.973L721.626 91.7759L716.165 99.5562L710.704 133.227L705.242 121.966L699.781 137.527L694.32 129.281L688.859 135.465L683.398 113.499L677.936 136.906L672.475 155.947L667.014 174.766L661.553 168.803L656.092 148.677L650.631 82.9759L645.169 97.4061L639.708 119.129L634.247 91.5764L628.786 123.651L623.325 99.7557L617.864 113.876L612.402 114.851L606.941 115.472L601.48 107.846L596.019 83.131L590.558 71.6711L585.096 89.5371L579.635 73.3336L574.174 100.022L568.713 63.7799L563.252 141.561L557.791 152.91L552.329 104.721L546.868 83.0202L541.407 78.6313L535.946 78.0328L530.485 67.8363L525.024 75.6832L519.562 103.635L514.101 70.319L508.64 93.0393L503.179 62.45L497.718 64.7774L492.256 99.9552L486.795 96.5416L481.334 100.155L475.873 83.264L470.412 85.126L464.951 68.6343L459.489 77.2127L454.028 65.7749L448.567 81.2469L443.106 79.4071L437.645 82.5769L432.184 49.1945L426.722 54.9356L421.261 72.8016L415.8 67.1935L410.339 76.7693L404.878 58.0389L399.416 74.597L393.955 60.6323L388.494 60.0117L383.033 65.9965L377.799 70.2081L372.338 58.9034L366.877 63.9794L361.416 58.9477L355.955 51.1452L350.493 73.5996L345.032 64.4006L339.571 66.4399L334.11 71.9371L328.649 55.6006L323.188 102.748L317.726 105.763L312.265 95.9874L306.804 86.1013L301.343 67.0605L295.882 89.3819L290.42 58.3492L284.959 72.3139L279.498 144.975L274.037 119.905L268.576 76.4147L263.115 69.9865L257.653 56.2656L252.192 99.5119L246.731 100.487L241.27 86.4338L235.809 52.8741L230.347 69.3436L224.886 87.254L219.425 73.2227L213.964 47.4213L208.503 42.1679L203.042 62.0953L197.58 52.6968L192.119 52.985L186.658 60.2333L181.197 39.5522L175.736 36.8923L170.275 68.2797L164.813 43.0988L159.352 50.7462L153.891 68.0137L148.43 81.2247L142.969 90.3572L137.507 56.3542L132.046 47.9976L126.585 64.1124L121.124 101.197L115.663 78.5205L110.202 83.1754L104.74 84.9708L99.2792 55.2459L93.818 42.7442L88.3569 47.7094L82.8957 50.325L77.4345 37.6903L71.9733 26.9397L66.5122 65.1321L61.051 106.162L55.5898 82.3774L50.1286 59.5683L44.6674 67.6368L39.2063 38.1336L33.7451 12.5981L28.2839 1.02734L22.8227 6.21424L17.3616 25.5654L11.9004 34.9417L6.4392 29.3336L1 12.9306" stroke="#D34645" stroke-width="1.4" stroke-linecap="round" stroke-linejoin="round"/>
</svg>
