<svg width="60" height="64" viewBox="0 0 60 64" fill="none" xmlns="http://www.w3.org/2000/svg">
<path d="M58.0451 61.8428H56.2473V5.39325C56.2473 5.10718 56.1337 4.83283 55.9314 4.63055C55.7291 4.42827 55.4548 4.31462 55.1687 4.31462H35.0338C34.8922 4.31461 34.7519 4.3425 34.6211 4.3967C34.4902 4.4509 34.3713 4.53035 34.2711 4.63051C34.1709 4.73067 34.0915 4.84959 34.0373 4.98046C33.9831 5.11133 33.9552 5.2516 33.9552 5.39325V10.0674H31.798V5.39325C31.798 5.10718 31.6843 4.83283 31.482 4.63055C31.2798 4.42827 31.0054 4.31462 30.7193 4.31462H26.0451V1.07862C26.0451 0.48275 25.5621 0 24.9665 0C24.3708 0 23.8878 0.48275 23.8878 1.07862V4.31462H19.2137C19.0721 4.31461 18.9318 4.3425 18.8009 4.3967C18.67 4.4509 18.5511 4.53035 18.451 4.63051C18.3508 4.73067 18.2714 4.84959 18.2172 4.98046C18.163 5.11133 18.1351 5.2516 18.1351 5.39325V10.0674H14.8991C14.7574 10.0674 14.6172 10.0952 14.4863 10.1494C14.3554 10.2036 14.2365 10.2831 14.1364 10.3833C14.0362 10.4834 13.9567 10.6023 13.9025 10.7332C13.8483 10.8641 13.8204 11.0043 13.8205 11.146V20.1348H4.83171C4.69006 20.1347 4.5498 20.1626 4.41892 20.2168C4.28805 20.271 4.16914 20.3505 4.06898 20.4506C3.96881 20.5508 3.88936 20.6697 3.83516 20.8006C3.78096 20.9315 3.75307 21.0717 3.75309 21.2134V61.8426H1.95509C1.35934 61.8426 0.876465 62.3254 0.876465 62.9212C0.876465 63.5171 1.35946 64 1.95509 64H58.0451C58.6408 64 59.1237 63.5173 59.1237 62.9214C59.1237 62.3255 58.6407 61.8428 58.0451 61.8428ZM20.2922 6.47188H29.6405V10.0674H20.2922V6.47188ZM16.6967 61.8428H15.9776V60.045C15.9776 59.4491 15.4946 58.9664 14.899 58.9664C14.3033 58.9664 13.8203 59.4491 13.8203 60.045V61.8428H13.1012V58.2472H16.6967V61.8428ZM23.8877 34.1572V61.8428H18.854V57.1686C18.854 56.8826 18.7403 56.6082 18.538 56.4059C18.3358 56.2036 18.0614 56.09 17.7753 56.09H12.0226C11.8809 56.09 11.7407 56.1179 11.6098 56.1721C11.4789 56.2263 11.36 56.3057 11.2598 56.4059C11.1597 56.506 11.0802 56.625 11.026 56.7558C10.9718 56.8867 10.9439 57.027 10.944 57.1686V61.8428H5.91021V22.2921H23.8877V34.1572ZM24.9663 20.1349H15.9776V12.2247H33.9551V33.0786H26.0451V29.4831H29.2811C29.8768 29.4831 30.3597 29.0004 30.3597 28.4045C30.3597 27.8086 29.8767 27.3259 29.2811 27.3259H26.0451V23.7304H29.2811C29.8768 23.7304 30.3597 23.2476 30.3597 22.6518C30.3597 22.0559 29.8767 21.5731 29.2811 21.5731H26.0451V21.2136C26.0451 21.072 26.0172 20.9317 25.963 20.8008C25.9088 20.6699 25.8293 20.551 25.7292 20.4508C25.629 20.3506 25.5101 20.2712 25.3792 20.217C25.2483 20.1628 25.108 20.1349 24.9663 20.1349ZM44.0226 61.8428H26.0451V35.236H44.0226V61.8428ZM54.09 61.8428H46.1798V32.719C46.1798 32.1231 45.6968 31.6404 45.1012 31.6404C44.5056 31.6404 44.0226 32.1231 44.0226 32.719V33.0785H41.8653V32.719C41.8653 32.1231 41.3823 31.6404 40.7867 31.6404C40.1911 31.6404 39.7081 32.1231 39.7081 32.719V33.0785H36.1126V6.47188H54.0901V61.8428H54.09Z" fill="black"/>
<path d="M30.7194 59.6865C31.0054 59.6864 31.2798 59.5728 31.482 59.3705C31.6843 59.1683 31.7979 58.8939 31.798 58.6079V38.4731C31.798 37.8772 31.315 37.3945 30.7194 37.3945C30.1237 37.3945 29.6407 37.8772 29.6407 38.4731V58.608C29.6407 58.7496 29.6686 58.8899 29.7228 59.0207C29.777 59.1516 29.8565 59.2705 29.9567 59.3706C30.0568 59.4708 30.1757 59.5502 30.3066 59.6044C30.4375 59.6586 30.5777 59.6865 30.7194 59.6865ZM35.034 59.6865C35.32 59.6864 35.5944 59.5728 35.7966 59.3705C35.9989 59.1683 36.1126 58.8939 36.1126 58.6079V38.4731C36.1126 37.8772 35.6296 37.3945 35.034 37.3945C34.4384 37.3945 33.9554 37.8772 33.9554 38.4731V58.608C33.9554 58.7496 33.9833 58.8899 34.0375 59.0207C34.0917 59.1516 34.1711 59.2705 34.2713 59.3706C34.3714 59.4708 34.4904 59.5502 34.6212 59.6044C34.7521 59.6586 34.8923 59.6865 35.034 59.6865ZM39.3485 59.6865C39.6345 59.6864 39.9089 59.5728 40.1111 59.3705C40.3134 59.1683 40.4271 58.8939 40.4271 58.6079V38.4731C40.4271 37.8772 39.9441 37.3945 39.3485 37.3945C38.7529 37.3945 38.2699 37.8772 38.2699 38.4731V58.608C38.2699 58.894 38.3835 59.1684 38.5858 59.3706C38.7881 59.5729 39.0624 59.6865 39.3485 59.6865ZM40.7867 13.6637C40.9284 13.6638 41.0686 13.6359 41.1995 13.5817C41.3304 13.5275 41.4493 13.448 41.5495 13.3478C41.6496 13.2477 41.7291 13.1288 41.7833 12.9979C41.8375 12.867 41.8654 12.7268 41.8654 12.5851V11.147C41.8654 10.5511 41.3824 10.0684 40.7867 10.0684C40.1911 10.0684 39.7081 10.5511 39.7081 11.147V12.5852C39.7081 12.7269 39.736 12.8671 39.7902 12.998C39.8444 13.1288 39.9239 13.2477 40.024 13.3479C40.1242 13.448 40.2431 13.5275 40.374 13.5817C40.5048 13.6359 40.6451 13.6638 40.7867 13.6637ZM45.1014 13.6637C45.243 13.6638 45.3833 13.6359 45.5141 13.5817C45.645 13.5275 45.7639 13.448 45.8641 13.3478C45.9643 13.2477 46.0437 13.1288 46.0979 12.9979C46.1521 12.867 46.18 12.7268 46.18 12.5851V11.147C46.18 10.5511 45.697 10.0684 45.1014 10.0684C44.5057 10.0684 44.0227 10.5511 44.0227 11.147V12.5852C44.0227 12.7269 44.0506 12.8671 44.1048 12.998C44.159 13.1288 44.2385 13.2477 44.3387 13.3479C44.4388 13.448 44.5577 13.5275 44.6886 13.5817C44.8195 13.6359 44.9597 13.6638 45.1014 13.6637ZM49.416 13.6637C49.5576 13.6638 49.6979 13.6359 49.8288 13.5817C49.9596 13.5275 50.0786 13.448 50.1787 13.3478C50.2789 13.2477 50.3583 13.1288 50.4125 12.9979C50.4667 12.867 50.4946 12.7268 50.4946 12.5851V11.147C50.4946 10.5511 50.0116 10.0684 49.416 10.0684C48.8204 10.0684 48.3374 10.5511 48.3374 11.147V12.5852C48.3374 12.7269 48.3653 12.8671 48.4195 12.998C48.4737 13.1288 48.5531 13.2477 48.6533 13.3479C48.7534 13.448 48.8724 13.5275 49.0032 13.5817C49.1341 13.6359 49.2743 13.6638 49.416 13.6637ZM40.7867 20.8547C40.9284 20.8547 41.0686 20.8269 41.1995 20.7727C41.3304 20.7185 41.4493 20.639 41.5495 20.5388C41.6496 20.4387 41.7291 20.3198 41.7833 20.1889C41.8375 20.058 41.8654 19.9178 41.8654 19.7761V18.3379C41.8654 17.742 41.3824 17.2592 40.7867 17.2592C40.1911 17.2592 39.7081 17.742 39.7081 18.3379V19.7761C39.7081 19.9178 39.736 20.058 39.7902 20.1889C39.8444 20.3198 39.9238 20.4387 40.024 20.5388C40.1242 20.639 40.2431 20.7185 40.3739 20.7727C40.5048 20.8269 40.6451 20.8547 40.7867 20.8547ZM45.1014 20.8547C45.243 20.8547 45.3833 20.8269 45.5141 20.7727C45.645 20.7185 45.7639 20.639 45.8641 20.5388C45.9643 20.4387 46.0437 20.3198 46.0979 20.1889C46.1521 20.058 46.18 19.9178 46.18 19.7761V18.3379C46.18 17.742 45.697 17.2592 45.1014 17.2592C44.5057 17.2592 44.0227 17.742 44.0227 18.3379V19.7761C44.0227 19.9178 44.0506 20.058 44.1048 20.1889C44.159 20.3198 44.2385 20.4387 44.3386 20.5388C44.4388 20.639 44.5577 20.7185 44.6886 20.7727C44.8194 20.8269 44.9597 20.8547 45.1014 20.8547ZM49.416 20.8547C49.5576 20.8547 49.6979 20.8269 49.8288 20.7727C49.9596 20.7185 50.0786 20.639 50.1787 20.5388C50.2789 20.4387 50.3583 20.3198 50.4125 20.1889C50.4667 20.058 50.4946 19.9178 50.4946 19.7761V18.3379C50.4946 17.742 50.0116 17.2592 49.416 17.2592C48.8204 17.2592 48.3374 17.742 48.3374 18.3379V19.7761C48.3373 19.9178 48.3652 20.058 48.4194 20.1889C48.4736 20.3198 48.5531 20.4387 48.6532 20.5388C48.7534 20.639 48.8723 20.7185 49.0032 20.7727C49.1341 20.8269 49.2743 20.8547 49.416 20.8547ZM40.7867 28.0459C40.9284 28.0459 41.0686 28.018 41.1995 27.9638C41.3304 27.9096 41.4493 27.8301 41.5495 27.73C41.6496 27.6298 41.7291 27.5109 41.7833 27.38C41.8375 27.2492 41.8654 27.1089 41.8654 26.9672V25.529C41.8654 24.9331 41.3824 24.4504 40.7867 24.4504C40.1911 24.4504 39.7081 24.9331 39.7081 25.529V26.9672C39.7081 27.2533 39.8217 27.5277 40.024 27.7299C40.2263 27.9322 40.5007 28.0459 40.7867 28.0459ZM45.1014 28.0459C45.243 28.0459 45.3833 28.018 45.5141 27.9638C45.645 27.9096 45.7639 27.8301 45.8641 27.73C45.9643 27.6298 46.0437 27.5109 46.0979 27.38C46.1521 27.2492 46.18 27.1089 46.18 26.9672V25.529C46.18 24.9331 45.697 24.4504 45.1014 24.4504C44.5057 24.4504 44.0227 24.9331 44.0227 25.529V26.9672C44.0227 27.2533 44.1364 27.5277 44.3386 27.7299C44.5409 27.9322 44.8153 28.0459 45.1014 28.0459ZM49.416 28.0459C49.5576 28.0459 49.6979 28.018 49.8288 27.9638C49.9596 27.9096 50.0786 27.8301 50.1787 27.73C50.2789 27.6298 50.3583 27.5109 50.4125 27.38C50.4667 27.2492 50.4946 27.1089 50.4946 26.9672V25.529C50.4946 24.9331 50.0116 24.4504 49.416 24.4504C48.8204 24.4504 48.3374 24.9331 48.3374 25.529V26.9672C48.3374 27.2533 48.451 27.5277 48.6533 27.7299C48.8556 27.9322 49.1299 28.0459 49.416 28.0459ZM10.5845 30.9222C10.7261 30.9223 10.8664 30.8944 10.9973 30.8402C11.1281 30.786 11.2471 30.7065 11.3472 30.6063C11.4474 30.5062 11.5268 30.3873 11.581 30.2564C11.6352 30.1255 11.6631 29.9853 11.6631 29.8436V28.4054C11.6631 27.8095 11.1801 27.3267 10.5845 27.3267C9.98886 27.3267 9.50586 27.8095 9.50586 28.4054V29.8436C9.50589 30.1297 9.61954 30.404 9.82182 30.6063C10.0241 30.8086 10.2984 30.9222 10.5845 30.9222ZM14.8991 30.9222C15.0408 30.9223 15.181 30.8944 15.3119 30.8402C15.4428 30.786 15.5617 30.7065 15.6618 30.6063C15.762 30.5062 15.8415 30.3873 15.8957 30.2564C15.9499 30.1255 15.9778 29.9853 15.9777 29.8436V28.4054C15.9777 27.8095 15.4947 27.3267 14.8991 27.3267C14.3035 27.3267 13.8205 27.8095 13.8205 28.4054V29.8436C13.8205 30.1297 13.9341 30.404 14.1364 30.6063C14.3387 30.8086 14.613 30.9222 14.8991 30.9222ZM19.2137 30.9222C19.3554 30.9223 19.4957 30.8944 19.6265 30.8402C19.7574 30.786 19.8763 30.7065 19.9765 30.6063C20.0766 30.5062 20.1561 30.3873 20.2103 30.2564C20.2645 30.1255 20.2924 29.9853 20.2924 29.8436V28.4054C20.2924 27.8095 19.8094 27.3267 19.2137 27.3267C18.6181 27.3267 18.1351 27.8095 18.1351 28.4054V29.8436C18.1351 30.1297 18.2487 30.404 18.451 30.6063C18.6533 30.8086 18.9277 30.9222 19.2137 30.9222ZM10.5845 38.1132C10.7261 38.1132 10.8664 38.0854 10.9973 38.0312C11.1281 37.977 11.2471 37.8975 11.3472 37.7973C11.4474 37.6972 11.5268 37.5783 11.581 37.4474C11.6352 37.3165 11.6631 37.1763 11.6631 37.0346V35.5964C11.6631 35.0005 11.1801 34.5177 10.5845 34.5177C9.98886 34.5177 9.50586 35.0005 9.50586 35.5964V37.0346C9.50589 37.3207 9.61954 37.595 9.82182 37.7973C10.0241 37.9995 10.2984 38.1132 10.5845 38.1132ZM14.8991 38.1132C15.0408 38.1132 15.181 38.0854 15.3119 38.0312C15.4428 37.977 15.5617 37.8975 15.6618 37.7973C15.762 37.6972 15.8415 37.5783 15.8957 37.4474C15.9499 37.3165 15.9778 37.1763 15.9777 37.0346V35.5964C15.9777 35.0005 15.4947 34.5177 14.8991 34.5177C14.3035 34.5177 13.8205 35.0005 13.8205 35.5964V37.0346C13.8205 37.3207 13.9341 37.595 14.1364 37.7973C14.3387 37.9996 14.613 38.1132 14.8991 38.1132ZM19.2137 38.1132C19.3554 38.1132 19.4957 38.0854 19.6265 38.0312C19.7574 37.977 19.8763 37.8975 19.9765 37.7973C20.0766 37.6972 20.1561 37.5783 20.2103 37.4474C20.2645 37.3165 20.2924 37.1763 20.2924 37.0346V35.5964C20.2924 35.0005 19.8094 34.5177 19.2137 34.5177C18.6181 34.5177 18.1351 35.0005 18.1351 35.5964V37.0346C18.1351 37.3207 18.2487 37.595 18.451 37.7973C18.6533 37.9996 18.9277 38.1132 19.2137 38.1132ZM10.5845 45.3042C10.7261 45.3042 10.8664 45.2764 10.9973 45.2222C11.1281 45.168 11.2471 45.0885 11.3472 44.9883C11.4474 44.8882 11.5268 44.7693 11.581 44.6384C11.6352 44.5075 11.6631 44.3673 11.6631 44.2256V42.7874C11.6631 42.1915 11.1801 41.7087 10.5845 41.7087C9.98886 41.7087 9.50586 42.1915 9.50586 42.7874V44.2256C9.50586 44.3673 9.53376 44.5075 9.58797 44.6384C9.64217 44.7692 9.72162 44.8882 9.82178 44.9883C9.92194 45.0885 10.0408 45.1679 10.1717 45.2221C10.3026 45.2763 10.4428 45.3042 10.5845 45.3042ZM14.8991 45.3042C15.0408 45.3042 15.181 45.2764 15.3119 45.2222C15.4428 45.168 15.5617 45.0885 15.6618 44.9883C15.762 44.8882 15.8415 44.7693 15.8957 44.6384C15.9499 44.5075 15.9778 44.3673 15.9777 44.2256V42.7874C15.9777 42.1915 15.4947 41.7087 14.8991 41.7087C14.3035 41.7087 13.8205 42.1915 13.8205 42.7874V44.2256C13.8205 44.3673 13.8484 44.5075 13.9026 44.6384C13.9568 44.7693 14.0362 44.8882 14.1364 44.9883C14.2365 45.0885 14.3554 45.168 14.4863 45.2222C14.6172 45.2764 14.7575 45.3042 14.8991 45.3042ZM19.2137 45.3042C19.3554 45.3042 19.4957 45.2764 19.6265 45.2222C19.7574 45.168 19.8763 45.0885 19.9765 44.9883C20.0766 44.8882 20.1561 44.7693 20.2103 44.6384C20.2645 44.5075 20.2924 44.3673 20.2924 44.2256V42.7874C20.2924 42.1915 19.8094 41.7087 19.2137 41.7087C18.6181 41.7087 18.1351 42.1915 18.1351 42.7874V44.2256C18.1351 44.3673 18.163 44.5075 18.2172 44.6384C18.2714 44.7693 18.3508 44.8882 18.451 44.9883C18.5512 45.0885 18.6701 45.168 18.8009 45.2222C18.9318 45.2764 19.0721 45.3042 19.2137 45.3042ZM10.5845 52.4952C10.7261 52.4952 10.8664 52.4674 10.9973 52.4132C11.1281 52.359 11.2471 52.2795 11.3472 52.1793C11.4474 52.0792 11.5268 51.9603 11.581 51.8294C11.6352 51.6985 11.6631 51.5583 11.6631 51.4166V49.9784C11.6631 49.3825 11.1801 48.8997 10.5845 48.8997C9.98886 48.8997 9.50586 49.3825 9.50586 49.9784V51.4166C9.50586 51.7027 9.6195 51.977 9.82178 52.1793C10.0241 52.3816 10.2984 52.4952 10.5845 52.4952ZM14.8991 52.4952C15.0408 52.4952 15.181 52.4674 15.3119 52.4132C15.4428 52.359 15.5617 52.2795 15.6618 52.1793C15.762 52.0792 15.8415 51.9603 15.8957 51.8294C15.9499 51.6985 15.9778 51.5583 15.9777 51.4166V49.9784C15.9777 49.3825 15.4947 48.8997 14.8991 48.8997C14.3035 48.8997 13.8205 49.3825 13.8205 49.9784V51.4166C13.8205 51.5583 13.8484 51.6985 13.9026 51.8294C13.9568 51.9603 14.0362 52.0792 14.1364 52.1793C14.2365 52.2795 14.3554 52.359 14.4863 52.4132C14.6172 52.4674 14.7575 52.4952 14.8991 52.4952ZM19.2137 52.4952C19.3554 52.4952 19.4957 52.4674 19.6265 52.4132C19.7574 52.359 19.8763 52.2795 19.9765 52.1793C20.0766 52.0792 20.1561 51.9603 20.2103 51.8294C20.2645 51.6985 20.2924 51.5583 20.2924 51.4166V49.9784C20.2924 49.3825 19.8094 48.8997 19.2137 48.8997C18.6181 48.8997 18.1351 49.3825 18.1351 49.9784V51.4166C18.1351 51.5583 18.163 51.6985 18.2172 51.8294C18.2714 51.9603 18.3508 52.0792 18.451 52.1793C18.5512 52.2795 18.6701 52.359 18.8009 52.4132C18.9318 52.4674 19.0721 52.4952 19.2137 52.4952ZM49.416 35.2369C49.5576 35.2369 49.6979 35.209 49.8288 35.1548C49.9596 35.1006 50.0786 35.0211 50.1787 34.921C50.2789 34.8208 50.3583 34.7019 50.4125 34.571C50.4667 34.4402 50.4946 34.2999 50.4946 34.1582V32.72C50.4946 32.1241 50.0116 31.6414 49.416 31.6414C48.8204 31.6414 48.3374 32.1241 48.3374 32.72V34.1582C48.3374 34.4443 48.451 34.7187 48.6533 34.9209C48.8556 35.1232 49.1299 35.2369 49.416 35.2369ZM49.416 42.4279C49.5576 42.4279 49.6979 42.4 49.8288 42.3458C49.9596 42.2916 50.0786 42.2121 50.1787 42.112C50.2789 42.0118 50.3583 41.8929 50.4125 41.762C50.4667 41.6312 50.4946 41.4909 50.4946 41.3492V39.911C50.4946 39.3151 50.0116 38.8324 49.416 38.8324C48.8204 38.8324 48.3374 39.3151 48.3374 39.911V41.3492C48.3374 41.6353 48.451 41.9097 48.6533 42.1119C48.8556 42.3142 49.1299 42.4279 49.416 42.4279ZM49.416 49.6189C49.5576 49.6189 49.6979 49.591 49.8288 49.5368C49.9596 49.4826 50.0786 49.4031 50.1787 49.303C50.2789 49.2028 50.3583 49.0839 50.4125 48.953C50.4667 48.8222 50.4946 48.6819 50.4946 48.5402V47.102C50.4946 46.5061 50.0116 46.0234 49.416 46.0234C48.8204 46.0234 48.3374 46.5061 48.3374 47.102V48.5402C48.3374 48.6819 48.3653 48.8221 48.4195 48.953C48.4737 49.0839 48.5531 49.2028 48.6533 49.3029C48.7534 49.4031 48.8723 49.4825 49.0032 49.5368C49.1341 49.591 49.2743 49.6189 49.416 49.6189ZM49.416 56.8099C49.5576 56.8099 49.6979 56.782 49.8288 56.7278C49.9596 56.6736 50.0786 56.5941 50.1787 56.494C50.2789 56.3938 50.3583 56.2749 50.4125 56.144C50.4667 56.0132 50.4946 55.8729 50.4946 55.7312V54.293C50.4946 53.6971 50.0116 53.2144 49.416 53.2144C48.8204 53.2144 48.3374 53.6971 48.3374 54.293V55.7312C48.3374 56.0173 48.451 56.2917 48.6533 56.4939C48.8556 56.6962 49.1299 56.8099 49.416 56.8099ZM30.3597 16.8997C30.3597 16.6137 30.2461 16.3393 30.0438 16.137C29.8415 15.9347 29.5672 15.8211 29.2811 15.8211H20.6519C20.5102 15.8211 20.3699 15.849 20.2391 15.9032C20.1082 15.9574 19.9893 16.0368 19.8891 16.137C19.789 16.2372 19.7095 16.3561 19.6553 16.4869C19.6011 16.6178 19.5732 16.7581 19.5732 16.8997C19.5732 17.1858 19.6869 17.4602 19.8892 17.6624C20.0914 17.8647 20.3658 17.9784 20.6519 17.9784H29.2811C29.4228 17.9784 29.563 17.9505 29.6939 17.8963C29.8248 17.8421 29.9437 17.7626 30.0438 17.6625C30.144 17.5623 30.2235 17.4434 30.2777 17.3125C30.3319 17.1817 30.3597 17.0414 30.3597 16.8997Z" fill="black"/>
</svg>
