<svg width="64" height="62" viewBox="0 0 64 62" fill="none" xmlns="http://www.w3.org/2000/svg">
<rect x="24" width="33" height="44" rx="4" fill="#FFDCD1"/>
<path d="M63.5847 53.9182C63.2714 53.5695 62.8409 53.3772 62.3727 53.3772H53.9617V8.76772C53.9617 5.09409 50.9747 2.10547 47.3029 2.10547H7.48341C3.63366 2.10547 0.42016 4.99372 0.0072851 8.83509C-0.0369649 9.29622 0.108785 9.73972 0.41691 10.083C0.727785 10.4305 1.15729 10.6217 1.62641 10.6217H12.9995V54.3771C12.9995 58.5216 16.3714 61.8933 20.5158 61.8933H56.5158C58.3775 61.8933 60.1668 61.2018 61.554 59.9463C62.9305 58.7003 63.7959 57.0067 63.9899 55.1862C64.0437 54.7206 63.8999 54.2706 63.5847 53.9182ZM2.05741 8.62172C2.53579 6.01922 4.79879 4.10547 7.48329 4.10547C10.1835 4.10547 12.4368 6.05584 12.9085 8.62172H2.05741ZM20.5157 59.8933C17.474 59.8933 14.9994 57.4187 14.9994 54.3771V9.62184C14.9994 7.44409 14.0682 5.47959 12.5835 4.10559H47.303C49.8718 4.10559 51.9618 6.19709 51.9618 8.76784V53.3773H27.6305C26.7814 53.3773 26.085 54.0148 26.0109 54.8595C25.7608 57.6822 23.3469 59.8933 20.5157 59.8933ZM56.5157 59.8933H25.5927C26.8515 58.7343 27.7238 57.1543 27.9648 55.3771H61.9427C61.4684 57.9792 59.2043 59.8933 56.5157 59.8933ZM30.3157 14.1925C30.3157 13.9273 30.421 13.6729 30.6086 13.4854C30.7961 13.2978 31.0504 13.1925 31.3157 13.1925H45.9387C46.2039 13.1925 46.4582 13.2978 46.6458 13.4854C46.8333 13.6729 46.9387 13.9273 46.9387 14.1925C46.9387 14.4577 46.8333 14.712 46.6458 14.8996C46.4582 15.0871 46.2039 15.1925 45.9387 15.1925H31.3155C31.0503 15.1925 30.796 15.0871 30.6084 14.8996C30.4209 14.712 30.3157 14.4577 30.3157 14.1925ZM30.3157 22.0338C30.3157 21.7686 30.421 21.5143 30.6086 21.3267C30.7961 21.1392 31.0504 21.0338 31.3157 21.0338H45.9387C46.2039 21.0338 46.4582 21.1392 46.6458 21.3267C46.8333 21.5143 46.9387 21.7686 46.9387 22.0338C46.9387 22.2991 46.8333 22.5534 46.6458 22.7409C46.4582 22.9285 46.2039 23.0338 45.9387 23.0338H31.3155C31.0503 23.0338 30.796 22.9285 30.6084 22.7409C30.4209 22.5534 30.3157 22.2991 30.3157 22.0338ZM30.3157 29.8751C30.3157 29.6099 30.421 29.3555 30.6086 29.168C30.7961 28.9804 31.0504 28.8751 31.3157 28.8751H45.9387C46.2039 28.8751 46.4582 28.9804 46.6458 29.168C46.8333 29.3555 46.9387 29.6099 46.9387 29.8751C46.9387 30.1403 46.8333 30.3947 46.6458 30.5822C46.4582 30.7697 46.2039 30.8751 45.9387 30.8751H31.3155C31.0503 30.8751 30.796 30.7697 30.6084 30.5822C30.4209 30.3947 30.3157 30.1403 30.3157 29.8751ZM30.3157 37.7165C30.3157 37.4513 30.421 37.1969 30.6086 37.0094C30.7961 36.8218 31.0504 36.7165 31.3157 36.7165H45.9387C46.2039 36.7165 46.4582 36.8218 46.6458 37.0094C46.8333 37.1969 46.9387 37.4513 46.9387 37.7165C46.9387 37.9817 46.8333 38.236 46.6458 38.4236C46.4582 38.6111 46.2039 38.7165 45.9387 38.7165H31.3155C31.0503 38.7165 30.796 38.6111 30.6084 38.4236C30.4209 38.236 30.3157 37.9817 30.3157 37.7165ZM30.3157 45.5578C30.3157 45.2926 30.421 45.0383 30.6086 44.8507C30.7961 44.6632 31.0504 44.5578 31.3157 44.5578H45.9387C46.2039 44.5578 46.4582 44.6632 46.6458 44.8507C46.8333 45.0383 46.9387 45.2926 46.9387 45.5578C46.9387 45.8231 46.8333 46.0774 46.6458 46.2649C46.4582 46.4525 46.2039 46.5578 45.9387 46.5578H31.3155C31.0503 46.5578 30.796 46.4525 30.6084 46.2649C30.4209 46.0774 30.3157 45.8231 30.3157 45.5578ZM20.2609 14.2413C20.0927 14.0382 20.0115 13.7768 20.0352 13.5141C20.0588 13.2513 20.1852 13.0086 20.387 12.8387C20.5888 12.6688 20.8495 12.5855 21.1124 12.6069C21.3753 12.6283 21.6191 12.7528 21.7907 12.9531L23.0277 14.4222L25.2639 11.7662C25.3485 11.6657 25.452 11.5829 25.5686 11.5224C25.6852 11.462 25.8126 11.4251 25.9434 11.4139C26.0743 11.4026 26.206 11.4173 26.3312 11.457C26.4564 11.4967 26.5726 11.5606 26.673 11.6452C26.8759 11.816 27.0026 12.0604 27.0253 12.3247C27.0479 12.5889 26.9647 12.8513 26.7939 13.0542L23.7929 16.6188C23.699 16.7303 23.5819 16.82 23.4498 16.8815C23.3177 16.943 23.1737 16.9748 23.0279 16.9748C22.8822 16.9748 22.7382 16.943 22.606 16.8815C22.4739 16.82 22.3568 16.7303 22.2629 16.6188L20.2609 14.2413ZM20.2609 22.0826C20.0927 21.8794 20.0115 21.618 20.0352 21.3553C20.0588 21.0926 20.1852 20.8498 20.387 20.6799C20.5888 20.51 20.8495 20.4267 21.1124 20.4481C21.3753 20.4696 21.6191 20.594 21.7907 20.7943L23.0279 22.2636L25.2639 19.6076C25.3485 19.5071 25.452 19.4243 25.5686 19.3638C25.6852 19.3034 25.8126 19.2665 25.9434 19.2552C26.0743 19.244 26.206 19.2586 26.3312 19.2983C26.4564 19.338 26.5726 19.402 26.673 19.4866C26.8759 19.6574 27.0027 19.9018 27.0253 20.166C27.048 20.4303 26.9648 20.6927 26.794 20.8956L23.7928 24.4602C23.6989 24.5717 23.5818 24.6613 23.4497 24.7227C23.3176 24.7842 23.1736 24.816 23.0279 24.816C22.8822 24.816 22.7382 24.7842 22.6061 24.7227C22.474 24.6613 22.3569 24.5717 22.263 24.4602L20.2609 22.0826ZM20.2609 29.9241C20.0927 29.7209 20.0115 29.4595 20.0352 29.1968C20.0588 28.9341 20.1852 28.6913 20.387 28.5214C20.5888 28.3515 20.8495 28.2682 21.1124 28.2896C21.3753 28.3111 21.6191 28.4355 21.7907 28.6358L23.0277 30.1048L25.2639 27.4488C25.3485 27.3484 25.452 27.2656 25.5686 27.2051C25.6852 27.1447 25.8126 27.1078 25.9434 27.0965C26.0743 27.0853 26.2061 27.1 26.3313 27.1397C26.4564 27.1794 26.5726 27.2434 26.673 27.328C26.8759 27.4988 27.0026 27.7432 27.0253 28.0074C27.0479 28.2717 26.9647 28.5341 26.7939 28.737L23.7929 32.3016C23.699 32.4131 23.5819 32.5027 23.4498 32.5642C23.3177 32.6257 23.1737 32.6576 23.0279 32.6576C22.8822 32.6576 22.7382 32.6257 22.606 32.5642C22.4739 32.5027 22.3568 32.4131 22.2629 32.3016L20.2609 29.9241ZM20.2609 37.769C20.0927 37.5658 20.0115 37.3044 20.0352 37.0417C20.0588 36.779 20.1852 36.5362 20.387 36.3663C20.5888 36.1964 20.8495 36.1131 21.1124 36.1345C21.3753 36.1559 21.6191 36.2804 21.7907 36.4807L23.0274 37.9493L25.2637 35.2906C25.4351 35.09 25.6788 34.9652 25.9418 34.9435C26.2048 34.9219 26.4657 35.005 26.6677 35.1749C26.8696 35.3447 26.9962 35.5876 27.0199 35.8504C27.0436 36.1132 26.9625 36.3747 26.7942 36.578L23.7932 40.146C23.6993 40.2575 23.5822 40.3472 23.4501 40.4088C23.3179 40.4703 23.1739 40.5022 23.0282 40.5022C22.8825 40.5022 22.7381 40.4704 22.606 40.4089C22.4739 40.3475 22.3568 40.2579 22.2629 40.1465L20.2609 37.769ZM26.7942 44.4192L23.793 47.9873C23.6992 48.0989 23.5821 48.1886 23.45 48.2502C23.3178 48.3118 23.1738 48.3437 23.028 48.3437C22.733 48.3437 22.4528 48.2135 22.2629 47.9878L20.2609 45.6103C20.175 45.5101 20.1099 45.3938 20.0692 45.2682C20.0284 45.1426 20.013 45.0102 20.0237 44.8786C20.0345 44.747 20.0711 44.6189 20.1316 44.5015C20.1922 44.3842 20.2753 44.28 20.3763 44.195C20.4773 44.1099 20.5941 44.0457 20.72 44.006C20.8459 43.9664 20.9785 43.952 21.11 43.9639C21.2415 43.9757 21.3693 44.0134 21.4861 44.0749C21.603 44.1364 21.7065 44.2204 21.7907 44.3221L23.0274 45.7907L25.2637 43.132C25.3476 43.0297 25.4511 42.9451 25.5679 42.8831C25.6848 42.8211 25.8129 42.7829 25.9446 42.7708C26.0764 42.7586 26.2092 42.7727 26.3355 42.8123C26.4618 42.8519 26.5789 42.9161 26.6802 43.0013C26.7814 43.0864 26.8648 43.1908 26.9254 43.3085C26.986 43.4261 27.0227 43.5545 27.0333 43.6864C27.0439 43.8183 27.0282 43.951 26.9872 44.0768C26.9461 44.2026 26.8805 44.319 26.7942 44.4192Z" fill="black"/>
</svg>
