<svg width="57" height="48" viewBox="0 0 57 48" fill="none" xmlns="http://www.w3.org/2000/svg">
<path d="M49.4771 0L47.2617 26.5846H56.1232L53.9079 0H49.4771Z" fill="#FFDCD1"/>
<path d="M10.5231 28.7988L0 35.445H10.5231V28.7988Z" fill="#FFDCD1"/>
<path d="M21.0461 28.7988L10.5231 35.445H21.0461V28.7988Z" fill="#FFDCD1"/>
<path d="M31.5692 28.7988L21.0461 35.445H31.5692V28.7988Z" fill="#FFDCD1"/>
<path d="M42.0923 28.7988L31.5692 35.445H42.0923V28.7988Z" fill="#FFDCD1"/>
<g clip-path="url(#clip0_331_4035)">
<path d="M56.0711 28.3078H53.6552L52.1327 6.19907C52.119 5.9996 52.03 5.8128 51.8837 5.67649C51.7375 5.54017 51.5449 5.46454 51.3449 5.4649H46.6188C46.4188 5.46454 46.2263 5.54016 46.08 5.67646C45.9337 5.81276 45.8447 5.99954 45.831 6.199L44.3085 28.3078H42.6807V23.5816C42.6807 23.147 42.3279 22.7939 41.8932 22.7939C41.7141 22.7936 41.5402 22.8546 41.4005 22.9667L34.8037 28.2441V23.5817C34.8037 23.147 34.4512 22.7939 34.0162 22.7939C33.8372 22.7937 33.6634 22.8547 33.5238 22.9667L26.927 28.2441V23.5817C26.927 23.147 26.5745 22.7939 26.1395 22.7939C25.9604 22.7936 25.7867 22.8546 25.6471 22.9667L19.0503 28.2441V23.5817C19.0502 23.4423 19.0131 23.3054 18.9428 23.185C18.8725 23.0646 18.7715 22.965 18.6501 22.8963C18.5288 22.8277 18.3914 22.7925 18.252 22.7943C18.1126 22.7962 17.9761 22.835 17.8566 22.9067L9.97959 27.6329C9.86312 27.7029 9.76675 27.8018 9.69982 27.9201C9.6329 28.0383 9.5977 28.1719 9.59766 28.3078V47.2124C9.59766 47.6474 9.95042 47.9999 10.3854 47.9999H56.0711C56.506 47.9999 56.8589 47.6475 56.8589 47.2124V29.0956C56.8589 28.6603 56.5061 28.3078 56.0711 28.3078ZM47.3544 7.04018H50.6093L52.0765 28.3078H45.8873L47.3544 7.04018ZM36.3787 46.4247V36.9724H41.1048V46.4247H36.3787ZM55.2836 46.4247H42.6807V36.1846C42.6807 35.7498 42.3277 35.3971 41.8926 35.3971H35.5912C35.1562 35.3971 34.8034 35.7498 34.8034 36.1846V46.4247H11.1729V28.7538L17.4744 24.9729V29.8831C17.4744 30.3184 17.8268 30.6709 18.2619 30.6715C18.4407 30.6715 18.6146 30.6104 18.7546 30.4984L25.3514 25.221V29.8831C25.3514 30.3184 25.7036 30.6709 26.1389 30.6715C26.3177 30.6715 26.4914 30.6104 26.6313 30.4987L33.2281 25.2213V29.8834C33.2281 30.3184 33.5804 30.6715 34.0156 30.6715C34.1945 30.6715 34.3682 30.6104 34.508 30.4987L41.1048 25.2213V29.0956C41.1048 29.5309 41.4576 29.8834 41.8926 29.8834H55.283V46.4247H55.2836ZM36.3735 2.31433C36.6599 2.46784 36.9187 2.66799 37.1393 2.90657C37.5808 3.44483 38.2097 3.79604 38.8996 3.88961C39.6261 3.7971 40.2899 3.43085 40.7555 2.86559C40.9548 2.65645 41.178 2.47143 41.4205 2.31433C41.5825 2.32156 42.0072 2.719 42.2356 2.93242C42.6604 3.45813 43.2707 3.80076 43.9408 3.88961C44.7141 3.7916 45.4213 3.4036 45.9195 2.80407C46.1126 2.623 46.4047 2.34807 46.4613 2.31433C46.8842 2.31433 46.9811 2.45449 47.2413 2.82948C47.4091 3.14658 47.6594 3.41247 47.9659 3.59907C48.2723 3.78567 48.6234 3.88605 48.9821 3.88961C49.4169 3.88961 49.7696 3.53685 49.7696 3.10212C49.7696 2.66679 49.4169 2.31433 48.9821 2.31433C48.8243 2.31433 48.7938 2.30332 48.5379 1.93387C48.3326 1.56512 48.031 1.25911 47.6652 1.04858C47.2994 0.838052 46.8833 0.73093 46.4613 0.738673C45.8241 0.827073 45.2444 1.155 44.8404 1.65569C44.5788 1.90234 44.1404 2.31425 43.9739 2.31802C43.73 2.17011 43.5068 1.99034 43.3104 1.78345C42.8368 1.20668 42.1605 0.832914 41.4202 0.738747C40.7376 0.831947 40.1154 1.17971 39.6784 1.71233C39.4573 1.9494 39.2023 2.15229 38.9215 2.31433C38.6589 2.16391 38.4201 1.97543 38.2127 1.75502C37.7523 1.19607 37.0967 0.832825 36.3787 0.738747C35.944 0.73727 35.5898 1.08863 35.5883 1.52395C35.5868 1.95861 35.9385 2.31285 36.3735 2.31433Z" fill="black"/>
<path d="M18.2624 36.9727H15.1112C14.6763 36.9727 14.3237 37.3254 14.3237 37.7602V42.4863C14.3237 42.9216 14.6762 43.2741 15.1112 43.2741H18.2624C18.6971 43.2741 19.0499 42.9216 19.0499 42.4863V37.7602C19.0499 37.3254 18.6971 36.9727 18.2624 36.9727ZM17.4743 41.6988H15.899V38.5482H17.4743V41.6988ZM24.5638 36.9727H21.413C20.9776 36.9727 20.6252 37.3254 20.6252 37.7602V42.4863C20.6251 42.5898 20.6455 42.6922 20.6851 42.7878C20.7246 42.8834 20.7827 42.9703 20.8558 43.0434C20.929 43.1166 21.0158 43.1746 21.1114 43.2142C21.207 43.2538 21.3095 43.2741 21.413 43.2741H24.5638C24.9986 43.2741 25.3513 42.9216 25.3513 42.4863V37.7602C25.3513 37.3254 24.9986 36.9727 24.5638 36.9727ZM23.7757 41.6988H22.2004V38.5482H23.7757V41.6988ZM30.8653 36.9727H27.7144C27.2791 36.9727 26.9266 37.3254 26.9266 37.7602V42.4863C26.9266 42.5898 26.9469 42.6922 26.9865 42.7878C27.0261 42.8834 27.0841 42.9703 27.1572 43.0434C27.2304 43.1166 27.3173 43.1746 27.4129 43.2142C27.5085 43.2538 27.6109 43.2741 27.7144 43.2741H30.8653C31.3 43.2741 31.6527 42.9216 31.6527 42.4863V37.7602C31.6527 37.3254 31.3 36.9727 30.8653 36.9727ZM30.0772 41.6988H28.5019V38.5482H30.0772V41.6988Z" fill="black"/>
</g>
<defs>
<clipPath id="clip0_331_4035">
<rect width="47.2615" height="47.2615" fill="white" transform="translate(9.59766 0.738281)"/>
</clipPath>
</defs>
</svg>
