<svg width="48" height="48" viewBox="0 0 48 48" fill="none" xmlns="http://www.w3.org/2000/svg">
<path d="M41.46 29.3099C41.1153 29.3191 40.778 29.2093 40.5048 28.999C40.2316 28.7886 40.0392 28.4905 39.96 28.1549L37.5 17.2199L34.995 28.1549C34.9056 28.5397 34.6679 28.8737 34.3337 29.0843C33.9995 29.2949 33.5957 29.3652 33.21 29.2799C33.0165 29.2374 32.8334 29.1569 32.6712 29.0432C32.509 28.9296 32.3709 28.7848 32.2649 28.6175C32.1589 28.4501 32.0871 28.2635 32.0536 28.0682C32.0202 27.873 32.0257 27.673 32.07 27.4799L36 10.1699C36.0813 9.84558 36.2686 9.5577 36.5322 9.352C36.7958 9.1463 37.1206 9.03458 37.455 9.03458C37.7894 9.03458 38.1141 9.1463 38.3778 9.352C38.6414 9.5577 38.8287 9.84558 38.91 10.1699L42.885 27.4799C42.9292 27.673 42.9348 27.873 42.9013 28.0682C42.8679 28.2635 42.7961 28.4501 42.6901 28.6175C42.5841 28.7848 42.446 28.9296 42.2838 29.0432C42.1216 29.1569 41.9385 29.2374 41.745 29.2799C41.6515 29.301 41.5558 29.3111 41.46 29.3099ZM14.46 29.3099C14.1153 29.3191 13.778 29.2093 13.5048 28.999C13.2316 28.7886 13.0392 28.4905 12.96 28.1549L10.5 17.2199L7.99499 28.1549C7.90555 28.5397 7.66793 28.8737 7.33372 29.0843C6.99952 29.2949 6.59571 29.3652 6.20999 29.2799C6.01652 29.2374 5.83339 29.1569 5.67117 29.0432C5.50896 28.9296 5.37087 28.7848 5.26488 28.6175C5.15889 28.4501 5.08709 28.2635 5.05364 28.0682C5.02019 27.873 5.02575 27.673 5.06999 27.4799L8.99999 10.1699C8.99999 9.7721 9.15803 9.39057 9.43933 9.10926C9.72063 8.82796 10.1022 8.66992 10.5 8.66992C10.8978 8.66992 11.2793 8.82796 11.5606 9.10926C11.842 9.39057 12 9.7721 12 10.1699L15.975 27.4799C16.0192 27.673 16.0248 27.873 15.9913 28.0682C15.9579 28.2635 15.8861 28.4501 15.7801 28.6175C15.6741 28.7848 15.536 28.9296 15.3738 29.0432C15.2116 29.1569 15.0285 29.2374 14.835 29.2799C14.7123 29.3091 14.5858 29.3192 14.46 29.3099Z" fill="#ECEEF0"/>
<path d="M40.5 12H7.5C7.10218 12 6.72064 11.842 6.43934 11.5607C6.15804 11.2794 6 10.8978 6 10.5C6 10.1022 6.15804 9.72064 6.43934 9.43934C6.72064 9.15804 7.10218 9 7.5 9H40.5C40.8978 9 41.2794 9.15804 41.5607 9.43934C41.842 9.72064 42 10.1022 42 10.5C42 10.8978 41.842 11.2794 41.5607 11.5607C41.2794 11.842 40.8978 12 40.5 12Z" fill="#70564A"/>
<path d="M24 39C23.6022 39 23.2206 38.842 22.9393 38.5607C22.658 38.2794 22.5 37.8978 22.5 37.5V4.5C22.5 4.10218 22.658 3.72064 22.9393 3.43934C23.2206 3.15804 23.6022 3 24 3C24.3978 3 24.7794 3.15804 25.0607 3.43934C25.342 3.72064 25.5 4.10218 25.5 4.5V37.5C25.5 37.8978 25.342 38.2794 25.0607 38.5607C24.7794 38.842 24.3978 39 24 39Z" fill="#ECEEF0"/>
<path d="M24 13.5C25.6569 13.5 27 12.1569 27 10.5C27 8.84315 25.6569 7.5 24 7.5C22.3431 7.5 21 8.84315 21 10.5C21 12.1569 22.3431 13.5 24 13.5Z" fill="#F4D45A"/>
<path d="M43.5 27V30C43.5 30.7956 43.1839 31.5587 42.6213 32.1213C42.0587 32.6839 41.2956 33 40.5 33H34.5C33.7044 33 32.9413 32.6839 32.3787 32.1213C31.8161 31.5587 31.5 30.7956 31.5 30V27H43.5Z" fill="#F4D45A"/>
<path d="M13.5 33H7.5C6.70435 33 5.94129 32.6839 5.37868 32.1213C4.81607 31.5587 4.5 30.7956 4.5 30V27H16.5V30C16.5 30.7956 16.1839 31.5587 15.6213 32.1213C15.0587 32.6839 14.2956 33 13.5 33Z" fill="#F4D45A"/>
<path d="M18 37.5H30C30.7956 37.5 31.5587 37.8161 32.1213 38.3787C32.6839 38.9413 33 39.7044 33 40.5V42C33 42.3978 32.842 42.7794 32.5607 43.0607C32.2794 43.342 31.8978 43.5 31.5 43.5H16.5C16.1022 43.5 15.7206 43.342 15.4393 43.0607C15.158 42.7794 15 42.3978 15 42V40.5C15 39.7044 15.3161 38.9413 15.8787 38.3787C16.4413 37.8161 17.2044 37.5 18 37.5Z" fill="#654D43"/>
</svg>
