<svg width="48" height="48" viewBox="0 0 48 48" fill="none" xmlns="http://www.w3.org/2000/svg">
<path d="M24 47C36.7025 47 47 36.7025 47 24C47 11.2975 36.7025 1 24 1C11.2975 1 1 11.2975 1 24C1 36.7025 11.2975 47 24 47Z" fill="black"/>
<path d="M34.862 15.493C34.7737 15.3429 34.6477 15.2184 34.4965 15.1319C34.3453 15.0455 34.1741 15 34 15H14C13.8259 15.0001 13.6549 15.0456 13.5039 15.132C13.3528 15.2184 13.2269 15.3428 13.1387 15.4928C13.0504 15.6428 13.0028 15.8132 13.0006 15.9872C12.9983 16.1612 13.0416 16.3328 13.126 16.485L23.126 34.485C23.2126 34.6408 23.3393 34.7706 23.493 34.861C23.6467 34.9514 23.8217 34.9991 24 34.9991C24.1783 34.9991 24.3533 34.9514 24.507 34.861C24.6606 34.7706 24.7873 34.6408 24.874 34.485L34.874 16.485C34.9584 16.3329 35.0018 16.1614 34.9997 15.9874C34.9976 15.8134 34.9501 15.643 34.862 15.493ZM24 25C23.4066 25 22.8266 24.8241 22.3333 24.4944C21.8399 24.1648 21.4554 23.6962 21.2283 23.1481C21.0013 22.5999 20.9419 21.9967 21.0576 21.4147C21.1734 20.8328 21.4591 20.2982 21.8787 19.8787C22.2982 19.4591 22.8328 19.1734 23.4147 19.0576C23.9966 18.9419 24.5998 19.0013 25.148 19.2284C25.6962 19.4554 26.1647 19.8399 26.4944 20.3333C26.824 20.8266 27 21.4067 27 22C27 22.7957 26.6839 23.5587 26.1213 24.1213C25.5587 24.6839 24.7956 25 24 25Z" fill="white"/>
</svg>
