<svg width="48" height="48" viewBox="0 0 48 48" fill="none" xmlns="http://www.w3.org/2000/svg">
<path d="M40.49 32.129L26.039 24L40.49 15.871C40.7111 15.736 40.8713 15.5205 40.9367 15.2698C41.0021 15.0192 40.9677 14.7529 40.8406 14.5271C40.7136 14.3013 40.5039 14.1336 40.2557 14.0594C40.0075 13.9851 39.7402 14.0101 39.51 14.129L25 22.291V6C25 5.73478 24.8946 5.48043 24.7071 5.29289C24.5196 5.10536 24.2652 5 24 5C23.7348 5 23.4804 5.10536 23.2929 5.29289C23.1054 5.48043 23 5.73478 23 6V22.291L8.49 14.129C8.25984 14.0101 7.99251 13.9851 7.7443 14.0594C7.4961 14.1336 7.2864 14.3013 7.15938 14.5271C7.03235 14.7529 6.99791 15.0192 7.06331 15.2698C7.12872 15.5205 7.28886 15.736 7.51 15.871L21.961 24L7.51 32.129C7.31761 32.2375 7.16656 32.4067 7.08043 32.6101C6.99431 32.8135 6.97795 33.0397 7.03391 33.2533C7.08987 33.467 7.215 33.6562 7.38977 33.7912C7.56454 33.9263 7.77912 33.9997 8 34C8.17144 34.0002 8.33999 33.9558 8.489 33.871L23 25.709V42C23 42.2652 23.1054 42.5196 23.2929 42.7071C23.4804 42.8946 23.7348 43 24 43C24.2652 43 24.5196 42.8946 24.7071 42.7071C24.8946 42.5196 25 42.2652 25 42V25.709L39.51 33.871C39.6593 33.9559 39.8282 34.0004 40 34C40.221 33.9999 40.4357 33.9267 40.6106 33.7917C40.7856 33.6567 40.9109 33.4676 40.967 33.2538C41.0231 33.0401 41.0068 32.8138 40.9207 32.6103C40.8346 32.4068 40.6825 32.2376 40.49 32.129Z" fill="#645AED"/>
<path d="M40 20C42.7614 20 45 17.7614 45 15C45 12.2386 42.7614 10 40 10C37.2386 10 35 12.2386 35 15C35 17.7614 37.2386 20 40 20Z" fill="#ADA8FA"/>
<path d="M40 34C39.7348 34 39.4804 33.8946 39.2929 33.7071C39.1054 33.5196 39 33.2652 39 33V15C39 14.7348 39.1054 14.4804 39.2929 14.2929C39.4804 14.1054 39.7348 14 40 14C40.2652 14 40.5196 14.1054 40.7071 14.2929C40.8946 14.4804 41 14.7348 41 15V33C41 33.2652 40.8946 33.5196 40.7071 33.7071C40.5196 33.8946 40.2652 34 40 34Z" fill="#645AED"/>
<path d="M40 38C42.7614 38 45 35.7614 45 33C45 30.2386 42.7614 28 40 28C37.2386 28 35 30.2386 35 33C35 35.7614 37.2386 38 40 38Z" fill="#ADA8FA"/>
<path d="M24 43.0002C23.7791 43.0001 23.5643 42.9269 23.3894 42.7919C23.2144 42.6569 23.0891 42.4677 23.0331 42.254C22.977 42.0403 22.9933 41.814 23.0794 41.6105C23.1655 41.407 23.3166 41.2377 23.509 41.1292L39.509 32.1292C39.7392 32.0102 40.0065 31.9853 40.2547 32.0595C40.5029 32.1338 40.7126 32.3015 40.8396 32.5273C40.9667 32.7531 41.0011 33.0193 40.9357 33.27C40.8703 33.5207 40.7102 33.7362 40.489 33.8712L24.489 42.8712C24.34 42.956 24.1715 43.0004 24 43.0002Z" fill="#645AED"/>
<path d="M24 47C26.7614 47 29 44.7614 29 42C29 39.2386 26.7614 37 24 37C21.2386 37 19 39.2386 19 42C19 44.7614 21.2386 47 24 47Z" fill="#ADA8FA"/>
<path d="M24 29C23.0111 29 22.0444 28.7068 21.2222 28.1574C20.3999 27.6079 19.759 26.8271 19.3806 25.9134C19.0022 24.9998 18.9031 23.9945 19.0961 23.0246C19.289 22.0546 19.7652 21.1637 20.4645 20.4645C21.1637 19.7652 22.0546 19.289 23.0246 19.0961C23.9945 18.9031 24.9998 19.0022 25.9134 19.3806C26.8271 19.759 27.6079 20.3999 28.1574 21.2222C28.7068 22.0444 29 23.0111 29 24C28.9984 25.3256 28.4711 26.5964 27.5338 27.5338C26.5964 28.4711 25.3256 28.9984 24 29Z" fill="#857CF8"/>
<path d="M24 43.0002C23.8286 43.0004 23.66 42.956 23.511 42.8712L7.511 33.8712C7.28985 33.7362 7.12972 33.5207 7.06431 33.27C6.99891 33.0193 7.03335 32.7531 7.16037 32.5273C7.2874 32.3015 7.4971 32.1338 7.7453 32.0595C7.9935 31.9853 8.26084 32.0102 8.491 32.1292L24.491 41.1292C24.6835 41.2377 24.8346 41.407 24.9207 41.6105C25.0068 41.814 25.0231 42.0403 24.967 42.254C24.9109 42.4677 24.7856 42.6569 24.6106 42.7919C24.4357 42.9269 24.221 43.0001 24 43.0002Z" fill="#645AED"/>
<path d="M8 38C10.7614 38 13 35.7614 13 33C13 30.2386 10.7614 28 8 28C5.23858 28 3 30.2386 3 33C3 35.7614 5.23858 38 8 38Z" fill="#ADA8FA"/>
<path d="M8 34C7.73478 34 7.48043 33.8946 7.29289 33.7071C7.10536 33.5196 7 33.2652 7 33V15C7 14.7348 7.10536 14.4804 7.29289 14.2929C7.48043 14.1054 7.73478 14 8 14C8.26522 14 8.51957 14.1054 8.70711 14.2929C8.89464 14.4804 9 14.7348 9 15V33C9 33.2652 8.89464 33.5196 8.70711 33.7071C8.51957 33.8946 8.26522 34 8 34Z" fill="#645AED"/>
<path d="M8 20C10.7614 20 13 17.7614 13 15C13 12.2386 10.7614 10 8 10C5.23858 10 3 12.2386 3 15C3 17.7614 5.23858 20 8 20Z" fill="#ADA8FA"/>
<path d="M8.00002 15.9998C7.77905 15.9998 7.56433 15.9265 7.38939 15.7915C7.21445 15.6565 7.08915 15.4674 7.03306 15.2537C6.97697 15.0399 6.99325 14.8136 7.07936 14.6101C7.16547 14.4066 7.31656 14.2374 7.50902 14.1288L23.509 5.12882C23.6237 5.05885 23.7512 5.0127 23.8841 4.99311C24.017 4.97353 24.1524 4.98091 24.2824 5.01481C24.4124 5.04872 24.5342 5.10846 24.6405 5.19046C24.7469 5.27246 24.8356 5.37506 24.9015 5.49211C24.9674 5.60917 25.0089 5.73829 25.0238 5.87178C25.0387 6.00526 25.0265 6.14037 24.988 6.26904C24.9495 6.39772 24.8855 6.51732 24.7997 6.62071C24.714 6.7241 24.6083 6.80916 24.489 6.87082L8.48902 15.8708C8.34001 15.9556 8.17147 16.0001 8.00002 15.9998Z" fill="#645AED"/>
<path d="M24 11C26.7614 11 29 8.76142 29 6C29 3.23858 26.7614 1 24 1C21.2386 1 19 3.23858 19 6C19 8.76142 21.2386 11 24 11Z" fill="#ADA8FA"/>
<path d="M36.239 11.7382L24.49 5.12918C24.2599 5.01025 23.9925 4.98528 23.7443 5.05954C23.4961 5.13379 23.2864 5.30148 23.1594 5.52727C23.0324 5.75307 22.9979 6.01935 23.0633 6.27003C23.1287 6.52071 23.2889 6.73622 23.51 6.87118L35.26 13.4812C35.4645 12.8397 35.7977 12.2466 36.239 11.7382Z" fill="#645AED"/>
</svg>
