<svg width="48" height="48" viewBox="0 0 48 48" fill="none" xmlns="http://www.w3.org/2000/svg">
<path d="M17.14 24C17.12 24.02 17.12 24.06 17.12 24.08V24H17.14Z" fill="#E1E1FF"/>
<path d="M17.12 24V24.08C17.12 24.06 17.12 24.02 17.14 24H17.12Z" fill="#E1E1FF"/>
<path d="M31.04 24.1V24.12C31.04 24.2 31.04 24.3 31.02 24.38C31.02 24.44 31 24.52 30.98 24.58C30.98 24.6 30.96 24.64 30.96 24.66L30.92 24.76L30.56 26.12L29 31.62L28.48 33.46L27.14 38.2V38.22L25.92 42.54C25.88 42.64 25.86 42.76 25.8 42.84C25.76 42.94 25.7 43.04 25.64 43.14C25.62 43.18 25.58 43.24 25.54 43.28C25.5 43.32 25.48 43.34 25.44 43.38C25.38 43.44 25.34 43.5 25.26 43.54C25.16 43.62 25.06 43.7 24.94 43.76L24.92 43.78C24.9 43.78 24.88 43.7998 24.84 43.82C24.72 43.86 24.6 43.92 24.46 43.94C24.44 43.96 24.44 43.96 24.42 43.96C24.28 43.98 24.14 44 24 44C23.86 44 23.72 43.98 23.58 43.96C23.5602 43.96 23.54 43.94 23.52 43.94C23.4 43.92 23.28 43.88 23.18 43.82C23.14 43.8 23.1 43.8 23.08 43.78C23.0602 43.78 23.0602 43.76 23.0602 43.76C23.0402 43.76 23.0202 43.74 23.0202 43.74C22.8802 43.68 22.7602 43.58 22.6602 43.48C22.6402 43.46 22.6202 43.46 22.6002 43.44C22.5802 43.42 22.5602 43.38 22.5402 43.36L22.4802 43.3C22.4402 43.24 22.4002 43.2 22.3402 43.12C22.3202 43.08 22.3002 43.04 22.2802 43C22.2002 42.88 22.1402 42.74 22.1002 42.6C22.1002 42.58 22.0802 42.54 22.0802 42.52V42.5L22.0202 42.24L20.9202 38.28L20.8402 37.98L19.6402 33.6L17.5802 26.12L17.1802 24.64C17.1802 24.62 17.1602 24.58 17.1602 24.56C17.1402 24.42 17.1202 24.28 17.1202 24.16C17.1202 24.1402 17.1202 24.12 17.1202 24.12C17.1202 24.1 17.1202 24.1 17.1202 24.08C17.1202 24.06 17.1202 24.02 17.1402 24H31.0202C31.04 24.04 31.04 24.06 31.04 24.1Z" fill="#E1E1FF"/>
<path d="M17.12 24V24.08C17.12 24.06 17.12 24.02 17.14 24H17.12Z" fill="#8E8EEF"/>
<path d="M20.74 14C19.78 14 18.96 14.68 18.78 15.6L18.7 16L18.3 18L17.48 22.12L17.16 23.72C17.16 23.74 17.14 23.78 17.14 23.82C17.14 23.88 17.12 23.94 17.12 24H8.01999C7.99999 23 8.25999 22.06 8.75999 21.24L11.1 17.34C12.34 15.28 14.6 14 17 14H20.74Z" fill="#E1E1FF"/>
<path d="M22.34 43.12L18.76 38.8L9.08002 27.14C8.44002 26.22 8.10002 25.3 8.04002 24.38C8.02002 24.32 8.02002 24.24 8.02002 24.18V24H17.12V24.08C17.12 24.1 17.12 24.1 17.12 24.12C17.12 24.12 17.12 24.14 17.12 24.16C17.12 24.2802 17.14 24.42 17.16 24.56C17.16 24.58 17.18 24.62 17.18 24.64L17.58 26.12L19.64 33.6L20.84 37.98L20.92 38.28L22.02 42.24L22.08 42.5V42.52C22.08 42.5398 22.1 42.58 22.1 42.6C22.14 42.74 22.2 42.88 22.28 43C22.3 43.04 22.32 43.08 22.34 43.12Z" fill="#B6B6FF"/>
<path d="M31.04 24V24.1C31.04 24.06 31.04 24.04 31.02 24H31.04Z" fill="#E1E1FF"/>
<path d="M31.02 24C31.04 24.04 31.04 24.06 31.04 24.1V24H31.02ZM39.98 24H31.04C31.04 23.88 31.02 23.78 30.98 23.66C30.98 23.6 30.96 23.54 30.94 23.48L30.62 22.12L29.68 18L29.2 16L29.1 15.54C28.9 14.64 28.1 14 27.16 14H31C32.06 14 33.08 14.24 34 14.72C35.18 15.28 36.2 16.2 36.9 17.36L39.24 21.24C39.74 22.06 40 23 39.98 24Z" fill="#E1E1FF"/>
<path d="M31.02 24C31.04 24.04 31.04 24.06 31.04 24.1V24H31.02Z" fill="#B6B6FF"/>
<path d="M39.98 24V24.18C39.98 24.24 39.98 24.32 39.96 24.38C39.96 24.46 39.94 24.54 39.92 24.62C39.84 25.46 39.52 26.28 39.02 27L25.64 43.14C25.7 43.04 25.76 42.94 25.8 42.84C25.86 42.76 25.88 42.64 25.92 42.54L27.14 38.22V38.2L28.48 33.46L29 31.62L30.56 26.12L30.92 24.76L30.96 24.66C30.96 24.6402 30.98 24.6 30.98 24.58C31 24.52 31.02 24.44 31.02 24.38C31.04 24.3 31.04 24.2 31.04 24.12V24H39.98ZM31.04 24H17.12C17.12 23.94 17.14 23.88 17.14 23.82C17.14 23.78 17.16 23.74 17.16 23.72L17.48 22.12L18.3 18L18.7 16L18.78 15.6C18.96 14.68 19.78 14 20.74 14H27.16C28.1 14 28.9 14.64 29.1 15.54L29.2 16L29.68 18L30.62 22.12L30.94 23.48C30.96 23.54 30.98 23.6 30.98 23.66C31.02 23.78 31.04 23.88 31.04 24Z" fill="#B6B6FF"/>
<path d="M17.12 24V24.08C17.12 24.06 17.12 24.02 17.14 24H17.12ZM31.02 24C31.04 24.04 31.04 24.06 31.04 24.1V24H31.02Z" fill="black"/>
<path d="M24 10C22.8946 10 22 9.1054 22 8V6C22 4.8946 22.8946 4 24 4C25.1054 4 26 4.8946 26 6V8C26 9.1054 25.1054 10 24 10Z" fill="#B6B6FF"/>
<path d="M37.42 9.41914L35.42 11.4191C35.02 11.7991 34.52 11.9991 34 11.9991C33.48 11.9991 32.98 11.7991 32.58 11.4191C31.8 10.6391 31.8 9.35914 32.58 8.57914L34.58 6.57914C35.36 5.79914 36.64 5.79914 37.42 6.57914C38.2 7.35914 38.2 8.63914 37.42 9.41914Z" fill="#B6B6FF"/>
<path d="M14 12.0002C13.4882 12.0002 12.9766 11.8048 12.586 11.4142L10.586 9.41417C9.80482 8.63297 9.80482 7.36738 10.586 6.58598C11.3672 5.80457 12.6328 5.80477 13.4142 6.58598L15.4142 8.58598C16.1954 9.36718 16.1954 10.6328 15.4142 11.4142C15.0234 11.8048 14.5118 12.0002 14 12.0002Z" fill="#B6B6FF"/>
<path opacity="0.11" d="M35.42 11.4191C35.02 11.7991 34.52 11.9991 34 11.9991V7.15914L34.58 6.57914C35.36 5.79914 36.64 5.79914 37.42 6.57914C38.2 7.35914 38.2 8.63914 37.42 9.41914L35.42 11.4191ZM39.98 23.9991V24.1791C39.98 24.2391 39.98 24.3191 39.96 24.3791C39.96 24.4591 39.94 24.5391 39.92 24.6191C39.84 25.4591 39.52 26.2791 39.02 26.9991L25.64 43.1391C25.62 43.1791 25.58 43.2391 25.54 43.2791C25.5 43.3191 25.48 43.3391 25.44 43.3791C25.38 43.4391 25.34 43.4991 25.26 43.5391C25.16 43.6191 25.06 43.6991 24.94 43.7591L24.92 43.7791C24.9 43.7791 24.88 43.7989 24.84 43.8191C24.72 43.8591 24.6 43.9191 24.46 43.9391C24.44 43.9591 24.44 43.9591 24.42 43.9591C24.28 43.9791 24.14 43.9991 24 43.9991C23.86 43.9991 23.72 43.9791 23.58 43.9591C23.5602 43.9591 23.54 43.9391 23.52 43.9391C23.4 43.9191 23.28 43.8791 23.18 43.8191C23.14 43.7991 23.1 43.7991 23.08 43.7791C23.0602 43.7791 23.0602 43.7591 23.0602 43.7591C23.0402 43.7591 23.0202 43.7391 23.0202 43.7391C22.8802 43.6791 22.7602 43.5791 22.6602 43.4791C22.6402 43.4591 22.6202 43.4591 22.6002 43.4391C22.5802 43.4191 22.5602 43.3791 22.5402 43.3591L22.4802 43.2991C22.4402 43.2391 22.4002 43.1991 22.3402 43.1191L18.76 38.7991C19.46 38.5591 20.16 38.2793 20.84 37.9791C24.04 36.5191 26.82 34.3191 29 31.6191C30.82 29.3991 32.2 26.8191 33.04 23.9991C33.66 21.9391 34 19.7591 34 17.4991V14.7191C35.18 15.2791 36.2 16.1991 36.9 17.3591L39.24 21.2391C39.74 22.0591 40 22.9991 39.98 23.9991Z" fill="black"/>
</svg>
