<svg width="48" height="48" viewBox="0 0 48 48" fill="none" xmlns="http://www.w3.org/2000/svg">
<path d="M18.222 4.22262C20.2896 2.18255 23.0801 1.04307 25.9847 1.0528C28.8893 1.06253 31.6722 2.22069 33.7261 4.27456C35.7799 6.32843 36.9381 9.11129 36.9478 12.0159C36.9576 14.9205 35.8181 17.711 33.778 19.7786L19.778 33.7786C17.7104 35.8187 14.9199 36.9582 12.0153 36.9484C9.11067 36.9387 6.32781 35.7805 4.27394 33.7267C2.22007 31.6728 1.06191 28.89 1.05218 25.9854C1.04245 23.0808 2.18194 20.2902 4.222 18.2226L18.222 4.22262Z" fill="#F888C0"/>
<path d="M33.778 4.22165C31.7151 2.15886 28.9173 1 26 1C23.0827 1 20.2849 2.15886 18.222 4.22165L11.222 11.2217L26.778 26.7777L33.778 19.7777C35.8408 17.7148 36.9996 14.9169 36.9996 11.9997C36.9996 9.08236 35.8408 6.28454 33.778 4.22165Z" fill="#FFE699"/>
<path d="M34 47C41.1797 47 47 41.1797 47 34C47 26.8203 41.1797 21 34 21C26.8203 21 21 26.8203 21 34C21 41.1797 26.8203 47 34 47Z" fill="#E3E3E3"/>
<path d="M6.343 32.6572C6.21163 32.6575 6.0815 32.6318 5.96014 32.5815C5.83878 32.5312 5.72861 32.4574 5.636 32.3642C3.9506 30.6751 3.00406 28.3863 3.00406 26.0002C3.00406 23.614 3.9506 21.3253 5.636 19.6362C5.8246 19.454 6.07721 19.3532 6.3394 19.3555C6.6016 19.3578 6.85241 19.463 7.03782 19.6484C7.22323 19.8338 7.3284 20.0846 7.33068 20.3468C7.33295 20.609 7.23216 20.8616 7.05 21.0502C5.73929 22.3641 5.00322 24.1443 5.00322 26.0002C5.00322 27.8561 5.73929 29.6362 7.05 30.9502C7.18981 31.09 7.28502 31.2682 7.32359 31.4621C7.36215 31.6561 7.34235 31.8571 7.26668 32.0398C7.19101 32.2225 7.06287 32.3787 6.89846 32.4886C6.73405 32.5985 6.54075 32.6571 6.343 32.6572Z" fill="#FDDDED"/>
<path d="M27 41.9994C26.8022 41.9994 26.609 41.9407 26.4445 41.8308C26.2801 41.7209 26.152 41.5648 26.0763 41.3821C26.0007 41.1994 25.9808 40.9984 26.0194 40.8044C26.058 40.6104 26.1532 40.4323 26.293 40.2924L40.293 26.2924C40.4816 26.1103 40.7342 26.0095 40.9964 26.0118C41.2586 26.014 41.5094 26.1192 41.6948 26.3046C41.8802 26.49 41.9854 26.7408 41.9877 27.003C41.99 27.2652 41.8892 27.5178 41.707 27.7064L27.707 41.7064C27.5195 41.894 27.2652 41.9994 27 41.9994Z" fill="#C8C8C8"/>
</svg>
