<svg width="46" height="43" viewBox="0 0 46 43" fill="none" xmlns="http://www.w3.org/2000/svg">
<path d="M17 8H11C10.7348 8 10.4804 7.89464 10.2929 7.70711C10.1054 7.51957 10 7.26522 10 7V1C10 0.734784 10.1054 0.48043 10.2929 0.292893C10.4804 0.105357 10.7348 0 11 0H17C17.2652 0 17.5196 0.105357 17.7071 0.292893C17.8946 0.48043 18 0.734784 18 1V7C18 7.26522 17.8946 7.51957 17.7071 7.70711C17.5196 7.89464 17.2652 8 17 8Z" fill="#C8C8C8"/>
<path d="M35 8H29C28.7348 8 28.4804 7.89464 28.2929 7.70711C28.1054 7.51957 28 7.26522 28 7V1C28 0.734784 28.1054 0.48043 28.2929 0.292893C28.4804 0.105357 28.7348 0 29 0H35C35.2652 0 35.5196 0.105357 35.7071 0.292893C35.8946 0.48043 36 0.734784 36 1V7C36 7.26522 35.8946 7.51957 35.7071 7.70711C35.5196 7.89464 35.2652 8 35 8Z" fill="#C8C8C8"/>
<path d="M19 36H3C2.73478 36 2.48043 35.8946 2.29289 35.7071C2.10536 35.5196 2 35.2652 2 35V27C2.00035 26.9025 2.01449 26.8055 2.042 26.712L8.042 6.712C8.10392 6.5061 8.23056 6.32565 8.40312 6.19739C8.57569 6.06914 8.78499 5.99992 9 6H19C19.2652 6 19.5196 6.10536 19.7071 6.29289C19.8946 6.48043 20 6.73478 20 7V35C20 35.2652 19.8946 35.5196 19.7071 35.7071C19.5196 35.8946 19.2652 36 19 36Z" fill="#949494"/>
<path d="M20.9 41.9992H1.1C0.821647 42.0119 0.549578 41.9139 0.343396 41.7264C0.137215 41.539 0.0137319 41.2775 0 40.9992V34.9992C0.0137319 34.7208 0.137215 34.4593 0.343396 34.2719C0.549578 34.0845 0.821647 33.9864 1.1 33.9992H20.9C21.1784 33.9864 21.4504 34.0845 21.6566 34.2719C21.8628 34.4593 21.9863 34.7208 22 34.9992V40.9992C21.9863 41.2775 21.8628 41.539 21.6566 41.7264C21.4504 41.9139 21.1784 42.0119 20.9 41.9992Z" fill="#363636"/>
<path d="M43 36H27C26.7348 36 26.4804 35.8946 26.2929 35.7071C26.1054 35.5196 26 35.2652 26 35V7C26 6.73478 26.1054 6.48043 26.2929 6.29289C26.4804 6.10536 26.7348 6 27 6H37C37.2151 5.99999 37.4245 6.06935 37.5971 6.19779C37.7697 6.32624 37.8963 6.50692 37.958 6.713L43.958 26.713C43.9854 26.8062 43.9996 26.9028 44 27V35C44 35.2652 43.8946 35.5196 43.7071 35.7071C43.5196 35.8946 43.2652 36 43 36Z" fill="#949494"/>
<path d="M44.9 41.9992H25.1C24.8216 42.0119 24.5496 41.9139 24.3434 41.7264C24.1372 41.539 24.0137 41.2775 24 40.9992V34.9992C24.0137 34.7208 24.1372 34.4593 24.3434 34.2719C24.5496 34.0845 24.8216 33.9864 25.1 33.9992H44.9C45.1784 33.9864 45.4504 34.0845 45.6566 34.2719C45.8628 34.4593 45.9863 34.7208 46 34.9992V40.9992C45.9863 41.2775 45.8628 41.539 45.6566 41.7264C45.4504 41.9139 45.1784 42.0119 44.9 41.9992Z" fill="#363636"/>
<path d="M26 11H20V21H26V11Z" fill="#363636"/>
</svg>
