<svg width="48" height="48" viewBox="0 0 48 48" fill="none" xmlns="http://www.w3.org/2000/svg">
<path d="M24 47C36.7025 47 47 36.7025 47 24C47 11.2975 36.7025 1 24 1C11.2975 1 1 11.2975 1 24C1 36.7025 11.2975 47 24 47Z" fill="black"/>
<path d="M23 28V35C24.7072 35 26.3977 34.6637 27.9749 34.0104C29.5521 33.3571 30.9852 32.3995 32.1924 31.1924C33.3996 29.9852 34.3571 28.5521 35.0104 26.9749C35.6637 25.3977 36 23.7072 36 22V15C32.5522 15 29.2456 16.3696 26.8076 18.8076C24.3696 21.2456 23 24.5522 23 28Z" fill="white"/>
<path d="M12 22V26C12 28.3869 12.9482 30.6761 14.636 32.364C16.3239 34.0518 18.6131 35 21 35V31C21 28.6131 20.0518 26.3239 18.364 24.636C16.6761 22.9482 14.3869 22 12 22Z" fill="white"/>
</svg>
